<?xml version="1.0" encoding="UTF-8"?><svg id="Layer_1" xmlns="http://www.w3.org/2000/svg" viewBox="0 0 800 600"><defs><style>.cls-1{font-family:SpaceMono-Regular, 'Space Mono';}.cls-1,.cls-2,.cls-3{font-size:16px;}.cls-1,.cls-2,.cls-3,.cls-4{fill:#f2f2f2;}.cls-5{letter-spacing:-.01em;}.cls-2{font-family:SpaceGrotesk-Regular, 'Space Grotesk';}.cls-6{letter-spacing:0em;}.cls-7{letter-spacing:-.02em;}.cls-8{letter-spacing:-.02em;}.cls-9{letter-spacing:-.03em;}.cls-3{font-family:SpaceMono-Italic, 'Space Mono';font-style:italic;}.cls-10{fill:#559ccc;}.cls-11{letter-spacing:0em;}.cls-12{stroke-dasharray:0 0 4.56 2.28;}.cls-12,.cls-13,.cls-14,.cls-15{fill:none;stroke-miterlimit:10;}.cls-12,.cls-13,.cls-15{stroke:#f2f2f2;}.cls-16{letter-spacing:-.02em;}.cls-17{letter-spacing:0em;}.cls-18{letter-spacing:.02em;}.cls-19{letter-spacing:0em;}.cls-20{letter-spacing:-.02em;}.cls-21{letter-spacing:-.04em;}.cls-22{letter-spacing:-.01em;}.cls-23{letter-spacing:0em;}.cls-24{letter-spacing:0em;}.cls-13{stroke-width:2px;}.cls-14{stroke:#559ccc;}.cls-25{letter-spacing:0em;}.cls-26{letter-spacing:0em;}.cls-27{letter-spacing:0em;}.cls-28{letter-spacing:-.02em;}.cls-29{letter-spacing:0em;}.cls-30{letter-spacing:-.03em;}.cls-31{letter-spacing:-.03em;}.cls-32{letter-spacing:0em;}.cls-33{letter-spacing:-.06em;}.cls-34{letter-spacing:-.03em;}</style></defs><text class="cls-2" transform="translate(74.62 168.45)"><tspan x="0" y="0">ba</tspan><tspan class="cls-9" x="19.5" y="0">r</tspan><tspan x="24.99" y="0">/bar</tspan><tspan x="0" y="19.2">ba</tspan><tspan class="cls-9" x="19.5" y="19.2">r</tspan><tspan x="24.99" y="19.2">/baz</tspan><tspan x="0" y="38.4">ba</tspan><tspan class="cls-9" x="19.5" y="38.4">r</tspan><tspan class="cls-28" x="24.99" y="38.4">/</tspan><tspan x="30.67" y="38.4">appl</tspan><tspan class="cls-16" x="64.4" y="38.4">e</tspan><tspan x="73.58" y="38.4">/b</tspan><tspan class="cls-34" x="89.81" y="38.4">a</tspan><tspan class="cls-25" x="98.5" y="38.4">t</tspan><tspan x="0" y="57.6">g</tspan><tspan class="cls-20" x="10.27" y="57.6">r</tspan><tspan class="cls-26" x="16.02" y="57.6">ee</tspan><tspan class="cls-32" x="34.96" y="57.6">n</tspan><tspan class="cls-11" x="44.69" y="57.6">w</tspan><tspan x="57.36" y="57.6">ald</tspan><tspan x="0" y="76.8">mapl</tspan><tspan class="cls-20" x="37.18" y="76.8">e</tspan><tspan x="46.37" y="76.8">/honey</tspan><tspan x="0" y="96">ph</tspan><tspan class="cls-8" x="20.11" y="96">o</tspan><tspan class="cls-20" x="29.68" y="96">t</tspan><tspan x="36.75" y="96">os</tspan><tspan x="0" y="115.2">picnic_ph</tspan><tspan class="cls-8" x="77.12" y="115.2">o</tspan><tspan class="cls-20" x="86.69" y="115.2">t</tspan><tspan x="93.76" y="115.2">os</tspan><tspan x="0" y="134.4">purple_things</tspan><tspan class="cls-20" x="0" y="153.6">r</tspan><tspan x="5.74" y="153.6">ele</tspan><tspan class="cls-24" x="28.61" y="153.6">a</tspan><tspan x="37.74" y="153.6">se</tspan><tspan class="cls-24" x="55.65" y="153.6">s</tspan><tspan class="cls-18" x="64.02" y="153.6">/</tspan><tspan x="70.22" y="153.6">i</tspan><tspan class="cls-20" x="74.14" y="153.6">r</tspan><tspan x="79.89" y="153.6">oh</tspan><tspan class="cls-20" x="0" y="172.8">r</tspan><tspan x="5.74" y="172.8">e</tspan><tspan class="cls-22" x="15.22" y="172.8">n</tspan><tspan class="cls-6" x="24.8" y="172.8">t</tspan><tspan x="32.11" y="172.8">als</tspan><tspan class="cls-7" x="0" y="192">v</tspan><tspan x="8.3" y="192">e</tspan><tspan class="cls-27" x="17.78" y="192">r</tspan><tspan x="23.65" y="192">sions</tspan><tspan x="0" y="211.2">zines</tspan><tspan x="0" y="230.4">..</tspan><tspan class="cls-30" x="8.1" y="230.4">.</tspan></text><text class="cls-2" transform="translate(241.77 168.45)"><tspan x="0" y="0">cidBa</tspan><tspan class="cls-33" x="43.57" y="0">r</tspan><tspan class="cls-30" x="48.58" y="0">,</tspan><tspan x="0" y="19.2">cidBaz</tspan><tspan class="cls-31" x="51.9" y="19.2">,</tspan><tspan x="0" y="38.4">cidB</tspan><tspan class="cls-34" x="34.37" y="38.4">a</tspan><tspan class="cls-26" x="43.06" y="38.4">t</tspan><tspan class="cls-30" x="50.42" y="38.4">,</tspan><tspan x="0" y="57.6">cidG</tspan><tspan class="cls-20" x="34.35" y="57.6">r</tspan><tspan x="40.1" y="57.6">ee</tspan><tspan class="cls-29" x="59.04" y="57.6">n</tspan><tspan class="cls-19" x="68.77" y="57.6">w</tspan><tspan x="81.44" y="57.6">ald</tspan><tspan class="cls-31" x="104.86" y="57.6">,</tspan><tspan x="0" y="76.8">cidHoney</tspan><tspan class="cls-31" x="73.25" y="76.8">,</tspan><tspan x="0" y="96">cidPh</tspan><tspan class="cls-7" x="43.22" y="96">o</tspan><tspan class="cls-16" x="52.78" y="96">t</tspan><tspan class="cls-26" x="59.86" y="96">os</tspan><tspan class="cls-31" x="78.18" y="96">,</tspan><tspan x="0" y="115.2">cidPicni</tspan><tspan class="cls-17" x="60.62" y="115.2">c</tspan><tspan class="cls-31" x="70.08" y="115.2">,</tspan><tspan x="0" y="134.4">cidPurpl</tspan><tspan class="cls-17" x="63.46" y="134.4">e</tspan><tspan class="cls-31" x="72.82" y="134.4">,</tspan><tspan x="0" y="153.6">cidRele</tspan><tspan class="cls-23" x="56.75" y="153.6">a</tspan><tspan x="65.89" y="153.6">ses</tspan><tspan class="cls-31" x="92.22" y="153.6">,</tspan><tspan x="0" y="172.8">cidRe</tspan><tspan class="cls-22" x="43.36" y="172.8">n</tspan><tspan class="cls-6" x="52.94" y="172.8">t</tspan><tspan class="cls-25" x="60.26" y="172.8">als</tspan><tspan class="cls-30" x="81.81" y="172.8">,</tspan><tspan x="0" y="192">cid</tspan><tspan class="cls-21" x="23.79" y="192">V</tspan><tspan class="cls-26" x="33.1" y="192">e</tspan><tspan class="cls-5" x="42.58" y="192">r</tspan><tspan class="cls-26" x="48.45" y="192">sions</tspan><tspan class="cls-30" x="88.93" y="192">,</tspan><tspan x="0" y="211.2">cidZines</tspan><tspan class="cls-31" x="64.66" y="211.2">,</tspan></text><text class="cls-2" transform="translate(202.24 168.45)"><tspan x="0" y="0">:</tspan><tspan x="0" y="19.2">:</tspan><tspan x="0" y="38.4">:</tspan><tspan x="0" y="57.6">:</tspan><tspan x="0" y="76.8">:</tspan><tspan x="0" y="96">:</tspan><tspan x="0" y="115.2">:</tspan><tspan x="0" y="134.4">:</tspan><tspan x="0" y="153.6">:</tspan><tspan x="0" y="172.8">:</tspan><tspan x="0" y="192">:</tspan><tspan x="0" y="211.2">:</tspan></text><line class="cls-15" x1="388.63" y1="509.31" x2="408.53" y2="509.31"/><polygon class="cls-4" points="407.8 511.8 412.11 509.31 407.8 506.82 407.8 511.8"/><line class="cls-15" x1="442.2" y1="163.74" x2="456.27" y2="177.8"/><polygon class="cls-4" points="453.99 179.05 458.81 180.34 457.52 175.53 453.99 179.05"/><line class="cls-15" x1="442.2" y1="202.95" x2="456.27" y2="188.89"/><polygon class="cls-4" points="457.52 191.16 458.81 186.35 453.99 187.64 457.52 191.16"/><line class="cls-15" x1="476.16" y1="196.9" x2="502.62" y2="230.1"/><polygon class="cls-4" points="500.21 231.09 504.85 232.91 504.11 227.98 500.21 231.09"/><line class="cls-15" x1="476.79" y1="270.69" x2="502.44" y2="242.47"/><polygon class="cls-4" points="503.79 244.69 504.85 239.82 500.1 241.33 503.79 244.69"/><line class="cls-15" x1="526.14" y1="252.8" x2="577.15" y2="332.46"/><polygon class="cls-4" points="574.66 333.19 579.08 335.49 578.85 330.51 574.66 333.19"/><line class="cls-15" x1="527.29" y1="422.22" x2="576.97" y2="354.24"/><polygon class="cls-4" points="578.55 356.3 579.08 351.34 574.52 353.36 578.55 356.3"/><line class="cls-15" x1="388.63" y1="460.18" x2="408.53" y2="460.18"/><polygon class="cls-4" points="407.8 462.67 412.11 460.18 407.8 457.69 407.8 462.67"/><line class="cls-15" x1="388.63" y1="411.05" x2="408.53" y2="411.05"/><polygon class="cls-4" points="407.8 413.54 412.11 411.05 407.8 408.56 407.8 413.54"/><line class="cls-15" x1="388.63" y1="361.92" x2="408.53" y2="361.92"/><polygon class="cls-4" points="407.8 364.41 412.11 361.92 407.8 359.43 407.8 364.41"/><polyline class="cls-15" points="418.42 168.27 416.42 168.27 416.42 166.27"/><line class="cls-12" x1="416.42" y1="164" x2="416.42" y2="151.46"/><polyline class="cls-15" points="416.42 150.32 416.42 148.32 418.42 148.32"/><line class="cls-12" x1="420.7" y1="148.32" x2="433.23" y2="148.32"/><polyline class="cls-15" points="434.37 148.32 436.37 148.32 436.37 150.32"/><line class="cls-12" x1="436.37" y1="152.6" x2="436.37" y2="165.14"/><polyline class="cls-15" points="436.37 166.27 436.37 168.27 434.37 168.27"/><line class="cls-12" x1="432.09" y1="168.27" x2="419.56" y2="168.27"/><polyline class="cls-15" points="466.87 193.89 464.87 193.89 464.87 191.89"/><line class="cls-12" x1="464.87" y1="189.61" x2="464.87" y2="177.07"/><polyline class="cls-15" points="464.87 175.93 464.87 173.93 466.87 173.93"/><line class="cls-12" x1="469.15" y1="173.93" x2="481.68" y2="173.93"/><polyline class="cls-15" points="482.82 173.93 484.82 173.93 484.82 175.93"/><line class="cls-12" x1="484.82" y1="178.21" x2="484.82" y2="190.75"/><polyline class="cls-15" points="484.82 191.89 484.82 193.89 482.82 193.89"/><line class="cls-12" x1="480.54" y1="193.89" x2="468.01" y2="193.89"/><rect class="cls-15" x="655.01" y="268.04" width="19.95" height="149.55" transform="translate(1007.8 -322.17) rotate(90)"/><polyline class="cls-15" points="515.15 246.4 513.15 246.4 513.15 244.4"/><line class="cls-12" x1="513.15" y1="242.12" x2="513.15" y2="229.59"/><polyline class="cls-15" points="513.15 228.45 513.15 226.45 515.15 226.45"/><line class="cls-12" x1="517.43" y1="226.45" x2="529.96" y2="226.45"/><polyline class="cls-15" points="531.1 226.45 533.1 226.45 533.1 228.45"/><line class="cls-12" x1="533.1" y1="230.73" x2="533.1" y2="243.26"/><polyline class="cls-15" points="533.1 244.4 533.1 246.4 531.1 246.4"/><line class="cls-12" x1="528.82" y1="246.4" x2="516.29" y2="246.4"/><line class="cls-15" x1="442.2" y1="263.13" x2="456.27" y2="277.19"/><polygon class="cls-4" points="453.99 278.44 458.81 279.73 457.52 274.91 453.99 278.44"/><line class="cls-15" x1="442.2" y1="302.34" x2="456.27" y2="288.27"/><polygon class="cls-4" points="457.52 290.55 458.81 285.74 453.99 287.03 457.52 290.55"/><polyline class="cls-15" points="466.87 293.27 464.87 293.27 464.87 291.27"/><line class="cls-12" x1="464.87" y1="289" x2="464.87" y2="276.46"/><polyline class="cls-15" points="464.87 275.32 464.87 273.32 466.87 273.32"/><line class="cls-12" x1="469.15" y1="273.32" x2="481.68" y2="273.32"/><polyline class="cls-15" points="482.82 273.32 484.82 273.32 484.82 275.32"/><line class="cls-12" x1="484.82" y1="277.6" x2="484.82" y2="290.14"/><polyline class="cls-15" points="484.82 291.27 484.82 293.27 482.82 293.27"/><line class="cls-12" x1="480.54" y1="293.27" x2="468.01" y2="293.27"/><polyline class="cls-15" points="418.42 217.59 416.42 217.59 416.42 215.59"/><line class="cls-12" x1="416.42" y1="213.31" x2="416.42" y2="200.78"/><polyline class="cls-15" points="416.42 199.64 416.42 197.64 418.42 197.64"/><line class="cls-12" x1="420.7" y1="197.64" x2="433.23" y2="197.64"/><polyline class="cls-15" points="434.37 197.64 436.37 197.64 436.37 199.64"/><line class="cls-12" x1="436.37" y1="201.92" x2="436.37" y2="214.45"/><polyline class="cls-15" points="436.37 215.59 436.37 217.59 434.37 217.59"/><line class="cls-12" x1="432.09" y1="217.59" x2="419.56" y2="217.59"/><polyline class="cls-15" points="418.42 266.91 416.42 266.91 416.42 264.91"/><line class="cls-12" x1="416.42" y1="262.63" x2="416.42" y2="250.1"/><polyline class="cls-15" points="416.42 248.96 416.42 246.96 418.42 246.96"/><line class="cls-12" x1="420.7" y1="246.96" x2="433.23" y2="246.96"/><polyline class="cls-15" points="434.37 246.96 436.37 246.96 436.37 248.96"/><line class="cls-12" x1="436.37" y1="251.24" x2="436.37" y2="263.77"/><polyline class="cls-15" points="436.37 264.91 436.37 266.91 434.37 266.91"/><line class="cls-12" x1="432.09" y1="266.91" x2="419.56" y2="266.91"/><polyline class="cls-15" points="418.42 316.23 416.42 316.23 416.42 314.23"/><line class="cls-12" x1="416.42" y1="311.95" x2="416.42" y2="299.41"/><polyline class="cls-15" points="416.42 298.27 416.42 296.27 418.42 296.27"/><line class="cls-12" x1="420.7" y1="296.27" x2="433.23" y2="296.27"/><polyline class="cls-15" points="434.37 296.27 436.37 296.27 436.37 298.27"/><line class="cls-12" x1="436.37" y1="300.55" x2="436.37" y2="313.09"/><polyline class="cls-15" points="436.37 314.23 436.37 316.23 434.37 316.23"/><line class="cls-12" x1="432.09" y1="316.23" x2="419.56" y2="316.23"/><line class="cls-15" x1="388.63" y1="306.02" x2="408.53" y2="306.02"/><polygon class="cls-4" points="407.8 308.51 412.11 306.02 407.8 303.52 407.8 308.51"/><line class="cls-15" x1="442.2" y1="367.03" x2="456.27" y2="381.1"/><polygon class="cls-4" points="453.99 382.35 458.81 383.64 457.52 378.82 453.99 382.35"/><line class="cls-15" x1="442.2" y1="406.25" x2="456.27" y2="392.18"/><polygon class="cls-4" points="457.52 394.46 458.81 389.64 453.99 390.93 457.52 394.46"/><line class="cls-15" x1="476.16" y1="400.19" x2="502.62" y2="433.4"/><polygon class="cls-4" points="500.21 434.38 504.85 436.2 504.11 431.27 500.21 434.38"/><line class="cls-15" x1="476.79" y1="473.98" x2="502.44" y2="445.76"/><polygon class="cls-4" points="503.79 447.98 504.85 443.11 500.1 444.63 503.79 447.98"/><line class="cls-15" x1="388.63" y1="256.89" x2="408.53" y2="256.89"/><polygon class="cls-4" points="407.8 259.38 412.11 256.89 407.8 254.39 407.8 259.38"/><line class="cls-15" x1="388.63" y1="207.76" x2="408.53" y2="207.76"/><polygon class="cls-4" points="407.8 210.25 412.11 207.76 407.8 205.26 407.8 210.25"/><line class="cls-15" x1="388.63" y1="158.63" x2="408.53" y2="158.63"/><polygon class="cls-4" points="407.8 161.12 412.11 158.63 407.8 156.13 407.8 161.12"/><polyline class="cls-15" points="418.42 371.57 416.42 371.57 416.42 369.57"/><line class="cls-12" x1="416.42" y1="367.29" x2="416.42" y2="354.76"/><polyline class="cls-15" points="416.42 353.62 416.42 351.62 418.42 351.62"/><line class="cls-12" x1="420.7" y1="351.62" x2="433.23" y2="351.62"/><polyline class="cls-15" points="434.37 351.62 436.37 351.62 436.37 353.62"/><line class="cls-12" x1="436.37" y1="355.89" x2="436.37" y2="368.43"/><polyline class="cls-15" points="436.37 369.57 436.37 371.57 434.37 371.57"/><line class="cls-12" x1="432.09" y1="371.57" x2="419.56" y2="371.57"/><polyline class="cls-15" points="466.87 397.18 464.87 397.18 464.87 395.18"/><line class="cls-12" x1="464.87" y1="392.9" x2="464.87" y2="380.37"/><polyline class="cls-15" points="464.87 379.23 464.87 377.23 466.87 377.23"/><line class="cls-12" x1="469.15" y1="377.23" x2="481.68" y2="377.23"/><polyline class="cls-15" points="482.82 377.23 484.82 377.23 484.82 379.23"/><line class="cls-12" x1="484.82" y1="381.51" x2="484.82" y2="394.04"/><polyline class="cls-15" points="484.82 395.18 484.82 397.18 482.82 397.18"/><line class="cls-12" x1="480.54" y1="397.18" x2="468.01" y2="397.18"/><polyline class="cls-15" points="515.15 450.54 513.15 450.54 513.15 448.54"/><line class="cls-12" x1="513.15" y1="446.27" x2="513.15" y2="433.73"/><polyline class="cls-15" points="513.15 432.59 513.15 430.59 515.15 430.59"/><line class="cls-12" x1="517.43" y1="430.59" x2="529.96" y2="430.59"/><polyline class="cls-15" points="531.1 430.59 533.1 430.59 533.1 432.59"/><line class="cls-12" x1="533.1" y1="434.87" x2="533.1" y2="447.41"/><polyline class="cls-15" points="533.1 448.54 533.1 450.54 531.1 450.54"/><line class="cls-12" x1="528.82" y1="450.54" x2="516.29" y2="450.54"/><line class="cls-15" x1="442.2" y1="466.42" x2="456.27" y2="480.49"/><polygon class="cls-4" points="453.99 481.73 458.81 483.02 457.52 478.21 453.99 481.73"/><line class="cls-15" x1="442.2" y1="505.64" x2="456.27" y2="491.57"/><polygon class="cls-4" points="457.52 493.85 458.81 489.03 453.99 490.32 457.52 493.85"/><polyline class="cls-15" points="466.87 496.57 464.87 496.57 464.87 494.57"/><line class="cls-12" x1="464.87" y1="492.29" x2="464.87" y2="479.75"/><polyline class="cls-15" points="464.87 478.62 464.87 476.62 466.87 476.62"/><line class="cls-12" x1="469.15" y1="476.62" x2="481.68" y2="476.62"/><polyline class="cls-15" points="482.82 476.62 484.82 476.62 484.82 478.62"/><line class="cls-12" x1="484.82" y1="480.89" x2="484.82" y2="493.43"/><polyline class="cls-15" points="484.82 494.57 484.82 496.57 482.82 496.57"/><line class="cls-12" x1="480.54" y1="496.57" x2="468.01" y2="496.57"/><polyline class="cls-15" points="418.42 420.89 416.42 420.89 416.42 418.89"/><line class="cls-12" x1="416.42" y1="416.61" x2="416.42" y2="404.07"/><polyline class="cls-15" points="416.42 402.93 416.42 400.93 418.42 400.93"/><line class="cls-12" x1="420.7" y1="400.93" x2="433.23" y2="400.93"/><polyline class="cls-15" points="434.37 400.93 436.37 400.93 436.37 402.93"/><line class="cls-12" x1="436.37" y1="405.21" x2="436.37" y2="417.75"/><polyline class="cls-15" points="436.37 418.89 436.37 420.89 434.37 420.89"/><line class="cls-12" x1="432.09" y1="420.89" x2="419.56" y2="420.89"/><polyline class="cls-15" points="418.42 470.2 416.42 470.2 416.42 468.2"/><line class="cls-12" x1="416.42" y1="465.92" x2="416.42" y2="453.39"/><polyline class="cls-15" points="416.42 452.25 416.42 450.25 418.42 450.25"/><line class="cls-12" x1="420.7" y1="450.25" x2="433.23" y2="450.25"/><polyline class="cls-15" points="434.37 450.25 436.37 450.25 436.37 452.25"/><line class="cls-12" x1="436.37" y1="454.53" x2="436.37" y2="467.06"/><polyline class="cls-15" points="436.37 468.2 436.37 470.2 434.37 470.2"/><line class="cls-12" x1="432.09" y1="470.2" x2="419.56" y2="470.2"/><polyline class="cls-15" points="418.42 519.52 416.42 519.52 416.42 517.52"/><line class="cls-12" x1="416.42" y1="515.24" x2="416.42" y2="502.71"/><polyline class="cls-15" points="416.42 501.57 416.42 499.57 418.42 499.57"/><line class="cls-12" x1="420.7" y1="499.57" x2="433.23" y2="499.57"/><polyline class="cls-15" points="434.37 499.57 436.37 499.57 436.37 501.57"/><line class="cls-12" x1="436.37" y1="503.85" x2="436.37" y2="516.38"/><polyline class="cls-15" points="436.37 517.52 436.37 519.52 434.37 519.52"/><line class="cls-12" x1="432.09" y1="519.52" x2="419.56" y2="519.52"/><rect class="cls-13" x="49.01" y="120.63" width="326.4" height="431.84"/><text class="cls-1" transform="translate(446.72 100.26)"><tspan x="0" y="0">tree hashes</tspan></text><text class="cls-3" transform="translate(112.07 77.01)"><tspan x="0" y="0">names</tspan></text><text class="cls-1" transform="translate(586.33 321.49)"><tspan x="0" y="0">root hash</tspan></text><text class="cls-2" transform="translate(603.82 349.01)"><tspan x="0" y="0">cidColle</tspan><tspan class="cls-7" x="61.26" y="0">c</tspan><tspan x="70.51" y="0">tion</tspan></text><path class="cls-15" d="m414.17,125.18s0-9.01,10.71-9.01c10.71,0,61.02,0,64.56,0s7.5-2.8,7.5-6.31h.24c0,3.5,3.96,6.31,7.5,6.31h64.56c10.71,0,10.71,9.01,10.71,9.01"/><line class="cls-14" x1="137.91" y1="138.95" x2="137.91" y2="87.5"/><polygon class="cls-10" points="141.4 137.93 137.91 143.97 134.42 137.93 141.4 137.93"/><text class="cls-3" transform="translate(264.86 77.68)"><tspan x="0" y="0">cids</tspan></text><line class="cls-14" x1="286.04" y1="139.84" x2="286.04" y2="87.71"/><polygon class="cls-10" points="289.53 138.82 286.04 144.87 282.55 138.82 289.53 138.82"/></svg>