<?xml version="1.0" encoding="UTF-8"?><svg id="Layer_1" xmlns="http://www.w3.org/2000/svg" viewBox="0 0 800 600"><defs><style>.cls-1{letter-spacing:-.01em;}.cls-2{letter-spacing:0em;}.cls-3{letter-spacing:-.02em;}.cls-4{letter-spacing:-.02em;}.cls-5{letter-spacing:-.03em;}.cls-6{fill:#559ccc;}.cls-7{letter-spacing:0em;}.cls-8{stroke-dasharray:0 0 4.56 2.28;}.cls-8,.cls-9,.cls-10{stroke:#000;}.cls-8,.cls-9,.cls-10,.cls-11{fill:none;stroke-miterlimit:10;}.cls-12{letter-spacing:-.02em;}.cls-13{letter-spacing:0em;}.cls-14{letter-spacing:.02em;}.cls-15{letter-spacing:0em;}.cls-16{letter-spacing:-.02em;}.cls-17{letter-spacing:-.04em;}.cls-18{font-family:SpaceGrotesk-Regular, 'Space Grotesk';}.cls-18,.cls-19,.cls-20{font-size:16px;}.cls-21{letter-spacing:-.01em;}.cls-22{letter-spacing:0em;}.cls-23{letter-spacing:0em;}.cls-9{stroke-width:2px;}.cls-11{stroke:#559ccc;}.cls-24{letter-spacing:0em;}.cls-19{font-family:SpaceMono-Regular, 'Space Mono';}.cls-25{letter-spacing:0em;}.cls-26{letter-spacing:0em;}.cls-27{letter-spacing:-.02em;}.cls-28{letter-spacing:0em;}.cls-20{font-family:SpaceMono-Italic, 'Space Mono';font-style:italic;}.cls-29{letter-spacing:-.03em;}.cls-30{letter-spacing:-.03em;}.cls-31{letter-spacing:0em;}.cls-32{letter-spacing:-.06em;}.cls-33{letter-spacing:-.03em;}</style></defs><text class="cls-18" transform="translate(74.62 155.45)"><tspan x="0" y="0">ba</tspan><tspan class="cls-5" x="19.5" y="0">r</tspan><tspan x="24.99" y="0">/bar</tspan><tspan x="0" y="19.2">ba</tspan><tspan class="cls-5" x="19.5" y="19.2">r</tspan><tspan x="24.99" y="19.2">/baz</tspan><tspan x="0" y="38.4">ba</tspan><tspan class="cls-5" x="19.5" y="38.4">r</tspan><tspan class="cls-27" x="24.99" y="38.4">/</tspan><tspan x="30.67" y="38.4">appl</tspan><tspan class="cls-12" x="64.4" y="38.4">e</tspan><tspan x="73.58" y="38.4">/b</tspan><tspan class="cls-33" x="89.81" y="38.4">a</tspan><tspan class="cls-24" x="98.5" y="38.4">t</tspan><tspan x="0" y="57.6">g</tspan><tspan class="cls-16" x="10.27" y="57.6">r</tspan><tspan class="cls-25" x="16.02" y="57.6">ee</tspan><tspan class="cls-31" x="34.96" y="57.6">n</tspan><tspan class="cls-7" x="44.69" y="57.6">w</tspan><tspan x="57.36" y="57.6">ald</tspan><tspan x="0" y="76.8">mapl</tspan><tspan class="cls-16" x="37.18" y="76.8">e</tspan><tspan x="46.37" y="76.8">/honey</tspan><tspan x="0" y="96">ph</tspan><tspan class="cls-4" x="20.11" y="96">o</tspan><tspan class="cls-16" x="29.68" y="96">t</tspan><tspan x="36.75" y="96">os</tspan><tspan x="0" y="115.2">picnic_ph</tspan><tspan class="cls-4" x="77.12" y="115.2">o</tspan><tspan class="cls-16" x="86.69" y="115.2">t</tspan><tspan x="93.76" y="115.2">os</tspan><tspan x="0" y="134.4">purple_things</tspan><tspan class="cls-16" x="0" y="153.6">r</tspan><tspan x="5.74" y="153.6">ele</tspan><tspan class="cls-23" x="28.61" y="153.6">a</tspan><tspan x="37.74" y="153.6">se</tspan><tspan class="cls-23" x="55.65" y="153.6">s</tspan><tspan class="cls-14" x="64.02" y="153.6">/</tspan><tspan x="70.22" y="153.6">i</tspan><tspan class="cls-16" x="74.14" y="153.6">r</tspan><tspan x="79.89" y="153.6">oh</tspan><tspan class="cls-16" x="0" y="172.8">r</tspan><tspan x="5.74" y="172.8">e</tspan><tspan class="cls-21" x="15.22" y="172.8">n</tspan><tspan class="cls-2" x="24.8" y="172.8">t</tspan><tspan x="32.11" y="172.8">als</tspan><tspan class="cls-3" x="0" y="192">v</tspan><tspan x="8.3" y="192">e</tspan><tspan class="cls-26" x="17.78" y="192">r</tspan><tspan x="23.65" y="192">sions</tspan><tspan x="0" y="211.2">zines</tspan><tspan x="0" y="230.4">..</tspan><tspan class="cls-29" x="8.1" y="230.4">.</tspan></text><text class="cls-18" transform="translate(241.77 155.45)"><tspan x="0" y="0">cidBa</tspan><tspan class="cls-32" x="43.57" y="0">r</tspan><tspan class="cls-29" x="48.58" y="0">,</tspan><tspan x="0" y="19.2">cidBaz</tspan><tspan class="cls-30" x="51.9" y="19.2">,</tspan><tspan x="0" y="38.4">cidB</tspan><tspan class="cls-33" x="34.37" y="38.4">a</tspan><tspan class="cls-25" x="43.06" y="38.4">t</tspan><tspan class="cls-29" x="50.42" y="38.4">,</tspan><tspan x="0" y="57.6">cidG</tspan><tspan class="cls-16" x="34.35" y="57.6">r</tspan><tspan x="40.1" y="57.6">ee</tspan><tspan class="cls-28" x="59.04" y="57.6">n</tspan><tspan class="cls-15" x="68.77" y="57.6">w</tspan><tspan x="81.44" y="57.6">ald</tspan><tspan class="cls-30" x="104.86" y="57.6">,</tspan><tspan x="0" y="76.8">cidHoney</tspan><tspan class="cls-30" x="73.25" y="76.8">,</tspan><tspan x="0" y="96">cidPh</tspan><tspan class="cls-3" x="43.22" y="96">o</tspan><tspan class="cls-12" x="52.78" y="96">t</tspan><tspan class="cls-25" x="59.86" y="96">os</tspan><tspan class="cls-30" x="78.18" y="96">,</tspan><tspan x="0" y="115.2">cidPicni</tspan><tspan class="cls-13" x="60.62" y="115.2">c</tspan><tspan class="cls-30" x="70.08" y="115.2">,</tspan><tspan x="0" y="134.4">cidPurpl</tspan><tspan class="cls-13" x="63.46" y="134.4">e</tspan><tspan class="cls-30" x="72.82" y="134.4">,</tspan><tspan x="0" y="153.6">cidRele</tspan><tspan class="cls-22" x="56.75" y="153.6">a</tspan><tspan x="65.89" y="153.6">ses</tspan><tspan class="cls-30" x="92.22" y="153.6">,</tspan><tspan x="0" y="172.8">cidRe</tspan><tspan class="cls-21" x="43.36" y="172.8">n</tspan><tspan class="cls-2" x="52.94" y="172.8">t</tspan><tspan class="cls-24" x="60.26" y="172.8">als</tspan><tspan class="cls-29" x="81.81" y="172.8">,</tspan><tspan x="0" y="192">cid</tspan><tspan class="cls-17" x="23.79" y="192">V</tspan><tspan class="cls-25" x="33.1" y="192">e</tspan><tspan class="cls-1" x="42.58" y="192">r</tspan><tspan class="cls-25" x="48.45" y="192">sions</tspan><tspan class="cls-29" x="88.93" y="192">,</tspan><tspan x="0" y="211.2">cidZines</tspan><tspan class="cls-30" x="64.66" y="211.2">,</tspan></text><text class="cls-18" transform="translate(202.24 155.45)"><tspan x="0" y="0">:</tspan><tspan x="0" y="19.2">:</tspan><tspan x="0" y="38.4">:</tspan><tspan x="0" y="57.6">:</tspan><tspan x="0" y="76.8">:</tspan><tspan x="0" y="96">:</tspan><tspan x="0" y="115.2">:</tspan><tspan x="0" y="134.4">:</tspan><tspan x="0" y="153.6">:</tspan><tspan x="0" y="172.8">:</tspan><tspan x="0" y="192">:</tspan><tspan x="0" y="211.2">:</tspan></text><line class="cls-10" x1="388.63" y1="496.31" x2="408.53" y2="496.31"/><polygon points="407.8 498.8 412.11 496.31 407.8 493.82 407.8 498.8"/><line class="cls-10" x1="442.2" y1="150.74" x2="456.27" y2="164.8"/><polygon points="453.99 166.05 458.81 167.34 457.52 162.53 453.99 166.05"/><line class="cls-10" x1="442.2" y1="189.95" x2="456.27" y2="175.89"/><polygon points="457.52 178.16 458.81 173.35 453.99 174.64 457.52 178.16"/><line class="cls-10" x1="476.16" y1="183.9" x2="502.62" y2="217.1"/><polygon points="500.21 218.09 504.85 219.91 504.11 214.98 500.21 218.09"/><line class="cls-10" x1="476.79" y1="257.69" x2="502.44" y2="229.47"/><polygon points="503.79 231.69 504.85 226.82 500.1 228.33 503.79 231.69"/><line class="cls-10" x1="526.14" y1="239.8" x2="577.15" y2="319.46"/><polygon points="574.66 320.19 579.08 322.49 578.85 317.51 574.66 320.19"/><line class="cls-10" x1="527.29" y1="409.22" x2="576.97" y2="341.24"/><polygon points="578.55 343.3 579.08 338.34 574.52 340.36 578.55 343.3"/><line class="cls-10" x1="388.63" y1="447.18" x2="408.53" y2="447.18"/><polygon points="407.8 449.67 412.11 447.18 407.8 444.69 407.8 449.67"/><line class="cls-10" x1="388.63" y1="398.05" x2="408.53" y2="398.05"/><polygon points="407.8 400.54 412.11 398.05 407.8 395.56 407.8 400.54"/><line class="cls-10" x1="388.63" y1="348.92" x2="408.53" y2="348.92"/><polygon points="407.8 351.41 412.11 348.92 407.8 346.43 407.8 351.41"/><polyline class="cls-10" points="418.42 155.27 416.42 155.27 416.42 153.27"/><line class="cls-8" x1="416.42" y1="151" x2="416.42" y2="138.46"/><polyline class="cls-10" points="416.42 137.32 416.42 135.32 418.42 135.32"/><line class="cls-8" x1="420.7" y1="135.32" x2="433.23" y2="135.32"/><polyline class="cls-10" points="434.37 135.32 436.37 135.32 436.37 137.32"/><line class="cls-8" x1="436.37" y1="139.6" x2="436.37" y2="152.14"/><polyline class="cls-10" points="436.37 153.27 436.37 155.27 434.37 155.27"/><line class="cls-8" x1="432.09" y1="155.27" x2="419.56" y2="155.27"/><polyline class="cls-10" points="466.87 180.89 464.87 180.89 464.87 178.89"/><line class="cls-8" x1="464.87" y1="176.61" x2="464.87" y2="164.07"/><polyline class="cls-10" points="464.87 162.93 464.87 160.93 466.87 160.93"/><line class="cls-8" x1="469.15" y1="160.93" x2="481.68" y2="160.93"/><polyline class="cls-10" points="482.82 160.93 484.82 160.93 484.82 162.93"/><line class="cls-8" x1="484.82" y1="165.21" x2="484.82" y2="177.75"/><polyline class="cls-10" points="484.82 178.89 484.82 180.89 482.82 180.89"/><line class="cls-8" x1="480.54" y1="180.89" x2="468.01" y2="180.89"/><rect class="cls-10" x="655.01" y="255.04" width="19.95" height="149.55" transform="translate(994.8 -335.17) rotate(90)"/><polyline class="cls-10" points="515.15 233.4 513.15 233.4 513.15 231.4"/><line class="cls-8" x1="513.15" y1="229.12" x2="513.15" y2="216.59"/><polyline class="cls-10" points="513.15 215.45 513.15 213.45 515.15 213.45"/><line class="cls-8" x1="517.43" y1="213.45" x2="529.96" y2="213.45"/><polyline class="cls-10" points="531.1 213.45 533.1 213.45 533.1 215.45"/><line class="cls-8" x1="533.1" y1="217.73" x2="533.1" y2="230.26"/><polyline class="cls-10" points="533.1 231.4 533.1 233.4 531.1 233.4"/><line class="cls-8" x1="528.82" y1="233.4" x2="516.29" y2="233.4"/><line class="cls-10" x1="442.2" y1="250.13" x2="456.27" y2="264.19"/><polygon points="453.99 265.44 458.81 266.73 457.52 261.91 453.99 265.44"/><line class="cls-10" x1="442.2" y1="289.34" x2="456.27" y2="275.27"/><polygon points="457.52 277.55 458.81 272.74 453.99 274.03 457.52 277.55"/><polyline class="cls-10" points="466.87 280.27 464.87 280.27 464.87 278.27"/><line class="cls-8" x1="464.87" y1="276" x2="464.87" y2="263.46"/><polyline class="cls-10" points="464.87 262.32 464.87 260.32 466.87 260.32"/><line class="cls-8" x1="469.15" y1="260.32" x2="481.68" y2="260.32"/><polyline class="cls-10" points="482.82 260.32 484.82 260.32 484.82 262.32"/><line class="cls-8" x1="484.82" y1="264.6" x2="484.82" y2="277.13"/><polyline class="cls-10" points="484.82 278.27 484.82 280.27 482.82 280.27"/><line class="cls-8" x1="480.54" y1="280.27" x2="468.01" y2="280.27"/><polyline class="cls-10" points="418.42 204.59 416.42 204.59 416.42 202.59"/><line class="cls-8" x1="416.42" y1="200.31" x2="416.42" y2="187.78"/><polyline class="cls-10" points="416.42 186.64 416.42 184.64 418.42 184.64"/><line class="cls-8" x1="420.7" y1="184.64" x2="433.23" y2="184.64"/><polyline class="cls-10" points="434.37 184.64 436.37 184.64 436.37 186.64"/><line class="cls-8" x1="436.37" y1="188.92" x2="436.37" y2="201.45"/><polyline class="cls-10" points="436.37 202.59 436.37 204.59 434.37 204.59"/><line class="cls-8" x1="432.09" y1="204.59" x2="419.56" y2="204.59"/><polyline class="cls-10" points="418.42 253.91 416.42 253.91 416.42 251.91"/><line class="cls-8" x1="416.42" y1="249.63" x2="416.42" y2="237.1"/><polyline class="cls-10" points="416.42 235.96 416.42 233.96 418.42 233.96"/><line class="cls-8" x1="420.7" y1="233.96" x2="433.23" y2="233.96"/><polyline class="cls-10" points="434.37 233.96 436.37 233.96 436.37 235.96"/><line class="cls-8" x1="436.37" y1="238.24" x2="436.37" y2="250.77"/><polyline class="cls-10" points="436.37 251.91 436.37 253.91 434.37 253.91"/><line class="cls-8" x1="432.09" y1="253.91" x2="419.56" y2="253.91"/><polyline class="cls-10" points="418.42 303.23 416.42 303.23 416.42 301.23"/><line class="cls-8" x1="416.42" y1="298.95" x2="416.42" y2="286.41"/><polyline class="cls-10" points="416.42 285.27 416.42 283.27 418.42 283.27"/><line class="cls-8" x1="420.7" y1="283.27" x2="433.23" y2="283.27"/><polyline class="cls-10" points="434.37 283.27 436.37 283.27 436.37 285.27"/><line class="cls-8" x1="436.37" y1="287.55" x2="436.37" y2="300.09"/><polyline class="cls-10" points="436.37 301.23 436.37 303.23 434.37 303.23"/><line class="cls-8" x1="432.09" y1="303.23" x2="419.56" y2="303.23"/><line class="cls-10" x1="388.63" y1="293.02" x2="408.53" y2="293.02"/><polygon points="407.8 295.51 412.11 293.02 407.8 290.52 407.8 295.51"/><line class="cls-10" x1="442.2" y1="354.03" x2="456.27" y2="368.1"/><polygon points="453.99 369.35 458.81 370.64 457.52 365.82 453.99 369.35"/><line class="cls-10" x1="442.2" y1="393.25" x2="456.27" y2="379.18"/><polygon points="457.52 381.46 458.81 376.64 453.99 377.93 457.52 381.46"/><line class="cls-10" x1="476.16" y1="387.19" x2="502.62" y2="420.4"/><polygon points="500.21 421.38 504.85 423.2 504.11 418.27 500.21 421.38"/><line class="cls-10" x1="476.79" y1="460.98" x2="502.44" y2="432.76"/><polygon points="503.79 434.98 504.85 430.11 500.1 431.63 503.79 434.98"/><line class="cls-10" x1="388.63" y1="243.89" x2="408.53" y2="243.89"/><polygon points="407.8 246.38 412.11 243.89 407.8 241.39 407.8 246.38"/><line class="cls-10" x1="388.63" y1="194.76" x2="408.53" y2="194.76"/><polygon points="407.8 197.25 412.11 194.76 407.8 192.26 407.8 197.25"/><line class="cls-10" x1="388.63" y1="145.63" x2="408.53" y2="145.63"/><polygon points="407.8 148.12 412.11 145.63 407.8 143.13 407.8 148.12"/><polyline class="cls-10" points="418.42 358.57 416.42 358.57 416.42 356.57"/><line class="cls-8" x1="416.42" y1="354.29" x2="416.42" y2="341.76"/><polyline class="cls-10" points="416.42 340.62 416.42 338.62 418.42 338.62"/><line class="cls-8" x1="420.7" y1="338.62" x2="433.23" y2="338.62"/><polyline class="cls-10" points="434.37 338.62 436.37 338.62 436.37 340.62"/><line class="cls-8" x1="436.37" y1="342.89" x2="436.37" y2="355.43"/><polyline class="cls-10" points="436.37 356.57 436.37 358.57 434.37 358.57"/><line class="cls-8" x1="432.09" y1="358.57" x2="419.56" y2="358.57"/><polyline class="cls-10" points="466.87 384.18 464.87 384.18 464.87 382.18"/><line class="cls-8" x1="464.87" y1="379.9" x2="464.87" y2="367.37"/><polyline class="cls-10" points="464.87 366.23 464.87 364.23 466.87 364.23"/><line class="cls-8" x1="469.15" y1="364.23" x2="481.68" y2="364.23"/><polyline class="cls-10" points="482.82 364.23 484.82 364.23 484.82 366.23"/><line class="cls-8" x1="484.82" y1="368.51" x2="484.82" y2="381.04"/><polyline class="cls-10" points="484.82 382.18 484.82 384.18 482.82 384.18"/><line class="cls-8" x1="480.54" y1="384.18" x2="468.01" y2="384.18"/><polyline class="cls-10" points="515.15 437.54 513.15 437.54 513.15 435.54"/><line class="cls-8" x1="513.15" y1="433.27" x2="513.15" y2="420.73"/><polyline class="cls-10" points="513.15 419.59 513.15 417.59 515.15 417.59"/><line class="cls-8" x1="517.43" y1="417.59" x2="529.96" y2="417.59"/><polyline class="cls-10" points="531.1 417.59 533.1 417.59 533.1 419.59"/><line class="cls-8" x1="533.1" y1="421.87" x2="533.1" y2="434.41"/><polyline class="cls-10" points="533.1 435.54 533.1 437.54 531.1 437.54"/><line class="cls-8" x1="528.82" y1="437.54" x2="516.29" y2="437.54"/><line class="cls-10" x1="442.2" y1="453.42" x2="456.27" y2="467.49"/><polygon points="453.99 468.73 458.81 470.02 457.52 465.21 453.99 468.73"/><line class="cls-10" x1="442.2" y1="492.64" x2="456.27" y2="478.57"/><polygon points="457.52 480.85 458.81 476.03 453.99 477.32 457.52 480.85"/><polyline class="cls-10" points="466.87 483.57 464.87 483.57 464.87 481.57"/><line class="cls-8" x1="464.87" y1="479.29" x2="464.87" y2="466.75"/><polyline class="cls-10" points="464.87 465.62 464.87 463.62 466.87 463.62"/><line class="cls-8" x1="469.15" y1="463.62" x2="481.68" y2="463.62"/><polyline class="cls-10" points="482.82 463.62 484.82 463.62 484.82 465.62"/><line class="cls-8" x1="484.82" y1="467.89" x2="484.82" y2="480.43"/><polyline class="cls-10" points="484.82 481.57 484.82 483.57 482.82 483.57"/><line class="cls-8" x1="480.54" y1="483.57" x2="468.01" y2="483.57"/><polyline class="cls-10" points="418.42 407.89 416.42 407.89 416.42 405.89"/><line class="cls-8" x1="416.42" y1="403.61" x2="416.42" y2="391.07"/><polyline class="cls-10" points="416.42 389.93 416.42 387.93 418.42 387.93"/><line class="cls-8" x1="420.7" y1="387.93" x2="433.23" y2="387.93"/><polyline class="cls-10" points="434.37 387.93 436.37 387.93 436.37 389.93"/><line class="cls-8" x1="436.37" y1="392.21" x2="436.37" y2="404.75"/><polyline class="cls-10" points="436.37 405.89 436.37 407.89 434.37 407.89"/><line class="cls-8" x1="432.09" y1="407.89" x2="419.56" y2="407.89"/><polyline class="cls-10" points="418.42 457.2 416.42 457.2 416.42 455.2"/><line class="cls-8" x1="416.42" y1="452.92" x2="416.42" y2="440.39"/><polyline class="cls-10" points="416.42 439.25 416.42 437.25 418.42 437.25"/><line class="cls-8" x1="420.7" y1="437.25" x2="433.23" y2="437.25"/><polyline class="cls-10" points="434.37 437.25 436.37 437.25 436.37 439.25"/><line class="cls-8" x1="436.37" y1="441.53" x2="436.37" y2="454.06"/><polyline class="cls-10" points="436.37 455.2 436.37 457.2 434.37 457.2"/><line class="cls-8" x1="432.09" y1="457.2" x2="419.56" y2="457.2"/><polyline class="cls-10" points="418.42 506.52 416.42 506.52 416.42 504.52"/><line class="cls-8" x1="416.42" y1="502.24" x2="416.42" y2="489.71"/><polyline class="cls-10" points="416.42 488.57 416.42 486.57 418.42 486.57"/><line class="cls-8" x1="420.7" y1="486.57" x2="433.23" y2="486.57"/><polyline class="cls-10" points="434.37 486.57 436.37 486.57 436.37 488.57"/><line class="cls-8" x1="436.37" y1="490.85" x2="436.37" y2="503.38"/><polyline class="cls-10" points="436.37 504.52 436.37 506.52 434.37 506.52"/><line class="cls-8" x1="432.09" y1="506.52" x2="419.56" y2="506.52"/><rect class="cls-9" x="49.01" y="107.63" width="326.4" height="431.84"/><text class="cls-19" transform="translate(441.72 87.26)"><tspan x="0" y="0">tree hashes</tspan></text><text class="cls-20" transform="translate(112.07 64.01)"><tspan x="0" y="0">names</tspan></text><text class="cls-19" transform="translate(586.33 308.49)"><tspan x="0" y="0">root hash</tspan></text><text class="cls-18" transform="translate(603.82 336.01)"><tspan x="0" y="0">cidColle</tspan><tspan class="cls-3" x="61.26" y="0">c</tspan><tspan x="70.51" y="0">tion</tspan></text><path class="cls-10" d="m414.17,112.18s0-9.01,10.71-9.01c10.71,0,61.02,0,64.56,0s7.5-2.8,7.5-6.31h.24c0,3.5,3.96,6.31,7.5,6.31h64.56c10.71,0,10.71,9.01,10.71,9.01"/><line class="cls-11" x1="137.91" y1="125.95" x2="137.91" y2="74.5"/><polygon class="cls-6" points="141.4 124.93 137.91 130.97 134.42 124.93 141.4 124.93"/><text class="cls-20" transform="translate(264.86 64.68)"><tspan x="0" y="0">cids</tspan></text><line class="cls-11" x1="286.04" y1="126.84" x2="286.04" y2="74.71"/><polygon class="cls-6" points="289.53 125.82 286.04 131.87 282.55 125.82 289.53 125.82"/></svg>