<?xml version="1.0" encoding="UTF-8"?><svg id="Layer_1" xmlns="http://www.w3.org/2000/svg" viewBox="0 0 800 600"><defs><style>.cls-1,.cls-2,.cls-3{letter-spacing:.05em;}.cls-1,.cls-4,.cls-5,.cls-6{fill:#f2f2f2;}.cls-7{letter-spacing:.05em;}.cls-7,.cls-8,.cls-9{fill:#7c7cf7;}.cls-10{stroke-dasharray:0 0 4.03 2.02;}.cls-10,.cls-11,.cls-12,.cls-13,.cls-14,.cls-15,.cls-16,.cls-17,.cls-18{fill:none;stroke-miterlimit:10;}.cls-10,.cls-11,.cls-18{stroke:#6d6d6d;stroke-width:.5px;}.cls-2,.cls-19{font-size:12px;}.cls-2,.cls-19,.cls-20{font-family:SpaceMono-Bold, 'Space Mono';font-weight:700;}.cls-2,.cls-20{fill:#b2b2b2;}.cls-8{font-size:16px;letter-spacing:.05em;}.cls-8,.cls-4,.cls-5{font-family:SpaceMono-Regular, 'Space Mono';}.cls-11{stroke-dasharray:0 0 4 2;}.cls-4,.cls-20{font-size:10px;}.cls-12,.cls-13{stroke-width:2px;}.cls-12,.cls-17{stroke:#999;}.cls-13,.cls-15{stroke:#b2b2b2;}.cls-14{stroke:#7c7cf7;}.cls-16{stroke:#f2f2f2;}.cls-17{stroke-width:1.2px;}.cls-5{font-size:14px;}.cls-6,.cls-21,.cls-9{stroke-width:0px;}.cls-21{fill:#6d6d6d;}.cls-20{letter-spacing:.05em;}</style></defs><rect class="cls-12" x="240.74" y="95.12" width="41.67" height="61.5" rx="1.44" ry="1.44"/><circle class="cls-17" cx="261.58" cy="150.56" r="1.78"/><text class="cls-5" transform="translate(249.27 128.08)"><tspan x="0" y="0">bob</tspan></text><path class="cls-13" d="m575.91,154.88v-61.2c0-.78.63-1.42,1.42-1.42h93.94c.78,0,1.42.63,1.42,1.42v61.2"/><path class="cls-13" d="m569.74,154.39h109.11v1.32c0,1.66-1.35,3.01-3.01,3.01h-103.1c-1.66,0-3.01-1.35-3.01-3.01v-1.32h0Z"/><text class="cls-5" transform="translate(603.21 127.64)"><tspan x="0" y="0">alice</tspan></text><rect class="cls-16" x="134.9" y="392.12" width="19.95" height="19.95"/><rect class="cls-16" x="160.52" y="343.68" width="19.95" height="19.95"/><rect class="cls-16" x="213.03" y="295.4" width="19.95" height="19.95"/><rect class="cls-16" x="250.03" y="223.4" width="19.95" height="19.95"/><rect class="cls-16" x="259.9" y="343.68" width="19.95" height="19.95"/><rect class="cls-16" x="184.22" y="392.12" width="19.95" height="19.95"/><rect class="cls-16" x="259.86" y="392.12" width="19.95" height="19.95"/><rect class="cls-16" x="343.81" y="343.68" width="19.95" height="19.95"/><rect class="cls-16" x="506.79" y="119.66" width="15" height="15"/><rect class="cls-16" x="476.79" y="119.5" width="15" height="15"/><rect class="cls-16" x="446.79" y="119.34" width="15" height="15"/><rect class="cls-16" x="416.79" y="119.18" width="15" height="15"/><rect class="cls-16" x="386.79" y="119.02" width="15" height="15"/><rect class="cls-16" x="397.17" y="295.4" width="19.95" height="19.95"/><rect class="cls-16" x="443.2" y="343.68" width="19.95" height="19.95"/><rect class="cls-16" x="159.83" y="440.12" width="19.95" height="19.95"/><rect class="cls-16" x="189.15" y="440.12" width="19.95" height="19.95"/><rect class="cls-16" x="218.15" y="440.12" width="19.95" height="19.95"/><rect class="cls-16" x="247.15" y="440.12" width="19.95" height="19.95"/><rect class="cls-16" x="276.15" y="440.12" width="19.95" height="19.95"/><polyline class="cls-16" points="169.81 436.99 169.81 427.97 194.2 427.97 194.2 419.09"/><polygon class="cls-6" points="196.69 419.82 194.2 415.5 191.7 419.82 196.69 419.82"/><polyline class="cls-16" points="198.79 436.99 198.79 427.97 194.2 427.97 194.2 419.09"/><polygon class="cls-6" points="196.69 419.82 194.2 415.5 191.7 419.82 196.69 419.82"/><polyline class="cls-16" points="227.79 436.99 227.79 427.97 194.2 427.97 194.2 419.09"/><polygon class="cls-6" points="196.69 419.82 194.2 415.5 191.7 419.82 196.69 419.82"/><polyline class="cls-16" points="256.79 436.99 256.79 427.97 194.2 427.97 194.2 419.09"/><polygon class="cls-6" points="196.69 419.82 194.2 415.5 191.7 419.82 196.69 419.82"/><polyline class="cls-16" points="285.79 436.99 285.79 427.97 194.2 427.97 194.2 419.09"/><polygon class="cls-6" points="196.69 419.82 194.2 415.5 191.7 419.82 196.69 419.82"/><polyline class="cls-16" points="222.81 292.99 222.81 269.97 260.2 269.97 260.2 251.09"/><polygon class="cls-6" points="262.69 251.82 260.2 247.5 257.7 251.82 262.69 251.82"/><polyline class="cls-16" points="406.79 292.99 406.79 269.97 260.2 269.97 260.2 251.09"/><polygon class="cls-6" points="262.69 251.82 260.2 247.5 257.7 251.82 262.69 251.82"/><line class="cls-16" x1="260.2" y1="220.97" x2="260.2" y2="211.09"/><polygon class="cls-6" points="262.69 211.82 260.2 207.5 257.7 211.82 262.69 211.82"/><line class="cls-16" x1="260.2" y1="182.97" x2="260.2" y2="166.09"/><polygon class="cls-6" points="262.69 166.82 260.2 162.5 257.7 166.82 262.69 166.82"/><polyline class="cls-16" points="170.79 339.99 170.79 326.97 223.2 326.97 223.2 320.09"/><polygon class="cls-6" points="225.69 320.82 223.2 316.5 220.7 320.82 225.69 320.82"/><polyline class="cls-16" points="269.79 339.99 269.79 326.97 223.2 326.97 223.2 320.09"/><polygon class="cls-6" points="225.69 320.82 223.2 316.5 220.7 320.82 225.69 320.82"/><polyline class="cls-16" points="144.79 389.99 144.79 376.97 170.2 376.97 170.2 370.09"/><polygon class="cls-6" points="172.69 370.82 170.2 366.5 167.7 370.82 172.69 370.82"/><polyline class="cls-16" points="194.79 389.99 194.79 376.97 170.2 376.97 170.2 370.09"/><polygon class="cls-6" points="172.69 370.82 170.2 366.5 167.7 370.82 172.69 370.82"/><line class="cls-16" x1="270.2" y1="388.97" x2="270.2" y2="370.09"/><polygon class="cls-6" points="272.69 370.82 270.2 366.5 267.7 370.82 272.69 370.82"/><polyline class="cls-16" points="353.79 339.99 353.79 326.97 406.2 326.97 406.2 320.09"/><polygon class="cls-6" points="408.69 320.82 406.2 316.5 403.7 320.82 408.69 320.82"/><polyline class="cls-16" points="452.79 339.99 452.79 326.97 406.2 326.97 406.2 320.09"/><polygon class="cls-6" points="408.69 320.82 406.2 316.5 403.7 320.82 408.69 320.82"/><text class="cls-4" transform="translate(275.78 235.61)"><tspan x="0" y="0">/foo</tspan></text><text class="cls-4" transform="translate(181.78 309.61)"><tspan x="0" y="0">/bar</tspan></text><text class="cls-4" transform="translate(125.78 359.61)"><tspan x="0" y="0">/baz</tspan></text><text class="cls-4" transform="translate(206.72 404.61)"><tspan x="0" y="0">/blog</tspan></text><text class="cls-4" transform="translate(165.02 465.61) rotate(90)"><tspan x="0" y="0">one.md</tspan></text><text class="cls-4" transform="translate(197.02 465.61) rotate(90)"><tspan x="0" y="0">two.md</tspan></text><text class="cls-4" transform="translate(226.02 465.61) rotate(90)"><tspan x="0" y="0">three.md</tspan></text><text class="cls-4" transform="translate(254.02 465.61) rotate(90)"><tspan x="0" y="0">four.md</tspan></text><text class="cls-4" transform="translate(284.02 465.61) rotate(90)"><tspan x="0" y="0">five.md</tspan></text><text class="cls-4" transform="translate(393.02 150.61) rotate(90)"><tspan x="0" y="0">one.md</tspan></text><rect class="cls-16" x="356.79" y="119.5" width="15" height="15"/><text class="cls-4" transform="translate(363.02 151.09) rotate(90)"><tspan x="0" y="0">/blog</tspan></text><text class="cls-4" transform="translate(425.02 150.61) rotate(90)"><tspan x="0" y="0">two.md</tspan></text><text class="cls-4" transform="translate(454.02 150.61) rotate(90)"><tspan x="0" y="0">three.md</tspan></text><text class="cls-4" transform="translate(482.02 150.61) rotate(90)"><tspan x="0" y="0">four.md</tspan></text><text class="cls-4" transform="translate(512.02 150.61) rotate(90)"><tspan x="0" y="0">five.md</tspan></text><text class="cls-4" transform="translate(92.66 404.61)"><tspan x="0" y="0">hi.txt</tspan></text><text class="cls-4" transform="translate(422.78 309.61)"><tspan x="0" y="0">/baz</tspan></text><text class="cls-4" transform="translate(287.02 356.61)"><tspan x="0" y="0">/photos</tspan></text><text class="cls-4" transform="translate(370.02 356.61)"><tspan x="0" y="0">meme.jpg</tspan></text><text class="cls-4" transform="translate(470.02 356.61)"><tspan x="0" y="0">moar_meme.png</tspan></text><text class="cls-4" transform="translate(285.02 404.61)"><tspan x="0" y="0">cat.gif</tspan></text><text class="cls-8" transform="translate(228.98 203.04)"><tspan x="0" y="0">FOO_ID</tspan></text><line class="cls-14" x1="559.29" y1="107" x2="304.47" y2="107"/><polygon class="cls-9" points="305.93 102.01 297.29 107 305.93 111.99 305.93 102.01"/><text class="cls-19" transform="translate(338.44 97.37)"><tspan class="cls-1" x="0" y="0">can_i_haz_some_of</tspan><tspan class="cls-3" x="135.05" y="0"> </tspan><tspan class="cls-7" x="142.99" y="0">FOO_ID</tspan></text><line class="cls-14" x1="297.29" y1="143.5" x2="552.12" y2="143.5"/><polygon class="cls-9" points="550.66 148.49 559.29 143.5 550.66 138.51 550.66 148.49"/><text class="cls-2" transform="translate(319.68 133.21)"><tspan x="0" y="0">...</tspan></text><text class="cls-20" transform="translate(78.44 51.41)"><tspan x="0" y="0">1</tspan></text><circle class="cls-15" cx="81.76" cy="47.5" r="7"/><text class="cls-20" transform="translate(93.22 48.88)"><tspan x="0" y="0">BUILD AN ARBITRARY</tspan><tspan x="0" y="12">GRAPH OF DATA</tspan></text><text class="cls-20" transform="translate(251.47 51.41)"><tspan x="0" y="0">2</tspan></text><circle class="cls-15" cx="254.76" cy="47.5" r="7"/><text class="cls-20" transform="translate(266.22 48.88)"><tspan x="0" y="0">GIVE OUT THE HASH</tspan><tspan x="0" y="12">(FOO_ID)</tspan></text><text/><text class="cls-20" transform="translate(416.47 51.41)"><tspan x="0" y="0">3</tspan></text><circle class="cls-15" cx="419.76" cy="47.5" r="7"/><text class="cls-20" transform="translate(431.22 48.88)"><tspan x="0" y="0">ASK FOR SOME/ALL</tspan><tspan x="0" y="12">OF FOO_ID</tspan></text><text/><text class="cls-20" transform="translate(571.47 51.41)"><tspan x="0" y="0">4</tspan></text><circle class="cls-15" cx="574.76" cy="47.5" r="7"/><text class="cls-20" transform="translate(586.22 48.88)"><tspan x="0" y="0">SEND BACK THE MISSING</tspan><tspan x="0" y="12">PARTS, FAST</tspan></text><path class="cls-18" d="m144.79,65.67s-.03.7-.02,1.99"/><path class="cls-10" d="m144.82,69.68c.56,16.1,7.15,77.16,73.07,117.62"/><path class="cls-18" d="m218.76,187.82c.57.34,1.14.69,1.72,1.03"/><polygon class="cls-21" points="219.53 189.7 222.02 189.76 220.83 187.57 219.53 189.7"/><path class="cls-11" d="m466.76,67.5s.06,7.24-4.12,15.51"/><polygon class="cls-21" points="461.65 82.1 461.79 84.59 463.88 83.23 461.65 82.1"/><path class="cls-11" d="m604.76,65.5c-1,19-21.72.71-33,19-8.66,14.04,2.07,40.74-8.55,49.94"/><polygon class="cls-21" points="562.71 133.2 561.76 135.5 564.23 135.17 562.71 133.2"/></svg>