<?xml version="1.0" encoding="UTF-8"?><svg id="Layer_1" xmlns="http://www.w3.org/2000/svg" viewBox="0 0 880.94 574.3"><defs><style>.cls-1{letter-spacing:-.01em;}.cls-2{letter-spacing:0em;}.cls-3{letter-spacing:-.02em;}.cls-4{letter-spacing:-.02em;}.cls-5{letter-spacing:0em;}.cls-6{stroke-dasharray:0 0 4.56 2.28;}.cls-6,.cls-7,.cls-8,.cls-9,.cls-10,.cls-11,.cls-12{fill:none;stroke-miterlimit:10;}.cls-6,.cls-7,.cls-8,.cls-10{stroke:#000;}.cls-13{letter-spacing:-.02em;}.cls-14{font-family:SpaceGrotesk-Bold, 'Space Grotesk';font-size:20px;}.cls-15{letter-spacing:0em;}.cls-16{letter-spacing:0em;}.cls-17{letter-spacing:-.02em;}.cls-18{letter-spacing:-.04em;}.cls-19{font-family:SpaceGrotesk-Regular, 'Space Grotesk';}.cls-19,.cls-20{font-size:16px;}.cls-21{letter-spacing:-.01em;}.cls-22{letter-spacing:0em;}.cls-20{font-family:SpaceMono-Italic, 'Space Mono';}.cls-23{letter-spacing:0em;}.cls-24{letter-spacing:-.02em;}.cls-7{stroke-width:2px;}.cls-9,.cls-11,.cls-12{stroke:#999;}.cls-25{letter-spacing:0em;}.cls-26{letter-spacing:-.01em;}.cls-10{stroke-dasharray:0 0 3.99 1.99;}.cls-27{letter-spacing:0em;}.cls-28{letter-spacing:0em;}.cls-29{letter-spacing:0em;}.cls-30{letter-spacing:-.03em;}.cls-11{stroke-dasharray:0 0 1.97 1.97;}.cls-31{letter-spacing:-.03em;}.cls-32{letter-spacing:0em;}.cls-33{letter-spacing:-.06em;}.cls-34{letter-spacing:-.06em;}.cls-35{letter-spacing:-.03em;}.cls-12{stroke-dasharray:0 0 2.01 2.01;}</style></defs><text class="cls-14" transform="translate(158.72 61.47)"><tspan x="0" y="0">Colle</tspan><tspan class="cls-24" x="47.3" y="0">c</tspan><tspan x="58.7" y="0">tion</tspan></text><text class="cls-19" transform="translate(182.6 258.94)"><tspan x="0" y="0">bar</tspan><tspan x="0" y="19.2">baz</tspan><tspan x="0" y="38.4">b</tspan><tspan class="cls-35" x="10.3" y="38.4">a</tspan><tspan x="18.99" y="38.4">t</tspan><tspan x="0" y="57.6">g</tspan><tspan class="cls-17" x="10.27" y="57.6">r</tspan><tspan class="cls-27" x="16.02" y="57.6">ee</tspan><tspan class="cls-32" x="34.96" y="57.6">n</tspan><tspan class="cls-5" x="44.69" y="57.6">w</tspan><tspan x="57.36" y="57.6">ald</tspan><tspan x="0" y="96">m</tspan><tspan class="cls-21" x="13.76" y="96">a</tspan><tspan class="cls-25" x="22.74" y="96">gazines</tspan><tspan x="0" y="115.2">ph</tspan><tspan class="cls-4" x="20.11" y="115.2">o</tspan><tspan class="cls-17" x="29.68" y="115.2">t</tspan><tspan x="36.75" y="115.2">os</tspan><tspan x="0" y="134.4">picnic_ph</tspan><tspan class="cls-4" x="77.12" y="134.4">o</tspan><tspan class="cls-17" x="86.69" y="134.4">t</tspan><tspan x="93.76" y="134.4">os</tspan><tspan x="0" y="153.6">purple_things</tspan><tspan class="cls-17" x="0" y="192">r</tspan><tspan x="5.74" y="192">ele</tspan><tspan class="cls-23" x="28.61" y="192">a</tspan><tspan x="37.74" y="192">ses</tspan><tspan class="cls-17" x="0" y="211.2">r</tspan><tspan x="5.74" y="211.2">e</tspan><tspan class="cls-21" x="15.22" y="211.2">n</tspan><tspan class="cls-2" x="24.8" y="211.2">t</tspan><tspan x="32.11" y="211.2">als</tspan><tspan class="cls-3" x="0" y="230.4">v</tspan><tspan x="8.3" y="230.4">e</tspan><tspan class="cls-28" x="17.78" y="230.4">r</tspan><tspan x="23.65" y="230.4">sions</tspan><tspan x="0" y="249.6">zines</tspan></text><text class="cls-19" transform="translate(349.75 258.94)"><tspan x="0" y="0">cidBa</tspan><tspan class="cls-34" x="43.57" y="0">r</tspan><tspan class="cls-30" x="48.58" y="0">,</tspan><tspan x="0" y="19.2">cidBaz</tspan><tspan class="cls-31" x="51.9" y="19.2">,</tspan><tspan x="0" y="38.4">cidB</tspan><tspan class="cls-35" x="34.37" y="38.4">a</tspan><tspan class="cls-27" x="43.06" y="38.4">t</tspan><tspan class="cls-30" x="50.42" y="38.4">,</tspan><tspan x="0" y="57.6">cidG</tspan><tspan class="cls-17" x="34.35" y="57.6">r</tspan><tspan x="40.1" y="57.6">ee</tspan><tspan class="cls-29" x="59.04" y="57.6">n</tspan><tspan class="cls-16" x="68.77" y="57.6">w</tspan><tspan x="81.44" y="57.6">ald</tspan><tspan class="cls-31" x="104.86" y="57.6">,</tspan><tspan x="0" y="96">cidM</tspan><tspan class="cls-26" x="37.63" y="96">a</tspan><tspan class="cls-27" x="46.61" y="96">gazines</tspan><tspan class="cls-31" x="106.05" y="96">,</tspan><tspan x="0" y="115.2">cidPh</tspan><tspan class="cls-3" x="43.22" y="115.2">o</tspan><tspan class="cls-13" x="52.78" y="115.2">t</tspan><tspan class="cls-27" x="59.86" y="115.2">os</tspan><tspan class="cls-31" x="78.18" y="115.2">,</tspan><tspan x="0" y="134.4">cidPicni</tspan><tspan class="cls-15" x="60.62" y="134.4">c</tspan><tspan class="cls-31" x="70.08" y="134.4">,</tspan><tspan x="0" y="153.6">cidPurpl</tspan><tspan class="cls-15" x="63.46" y="153.6">e</tspan><tspan class="cls-31" x="72.82" y="153.6">,</tspan><tspan x="0" y="192">cidRele</tspan><tspan class="cls-22" x="56.75" y="192">a</tspan><tspan x="65.89" y="192">ses</tspan><tspan class="cls-31" x="92.22" y="192">,</tspan><tspan x="0" y="211.2">cidRe</tspan><tspan class="cls-21" x="43.36" y="211.2">n</tspan><tspan class="cls-2" x="52.94" y="211.2">t</tspan><tspan class="cls-25" x="60.26" y="211.2">als</tspan><tspan class="cls-30" x="81.81" y="211.2">,</tspan><tspan x="0" y="230.4">cid</tspan><tspan class="cls-18" x="23.79" y="230.4">V</tspan><tspan class="cls-27" x="33.1" y="230.4">e</tspan><tspan class="cls-1" x="42.58" y="230.4">r</tspan><tspan class="cls-27" x="48.45" y="230.4">sions</tspan><tspan class="cls-30" x="88.93" y="230.4">,</tspan><tspan x="0" y="249.6">cidZines</tspan><tspan class="cls-31" x="64.66" y="249.6">,</tspan></text><text class="cls-19" transform="translate(310.22 258.94)"><tspan x="0" y="0">:</tspan><tspan x="0" y="19.2">:</tspan><tspan x="0" y="38.4">:</tspan><tspan x="0" y="57.6">:</tspan><tspan x="0" y="96">:</tspan><tspan x="0" y="115.2">:</tspan><tspan x="0" y="134.4">:</tspan><tspan x="0" y="153.6">:</tspan><tspan x="0" y="192">:</tspan><tspan x="0" y="211.2">:</tspan><tspan x="0" y="230.4">:</tspan><tspan x="0" y="249.6">:</tspan></text><text class="cls-19" transform="translate(182.6 140.08)"><tspan x="0" y="0">&lt;link he</tspan><tspan class="cls-26" x="59.57" y="0">a</tspan><tspan class="cls-27" x="68.54" y="0">der m</tspan><tspan class="cls-21" x="112.22" y="0">a</tspan><tspan class="cls-25" x="121.2" y="0">gic by</tspan><tspan class="cls-13" x="169.17" y="0">t</tspan><tspan x="176.24" y="0">e&gt;</tspan><tspan x="0" y="19.2">ba</tspan><tspan class="cls-33" x="19.5" y="19.2">r</tspan><tspan class="cls-31" x="24.51" y="19.2">,</tspan><tspan x="0" y="38.4">m</tspan><tspan class="cls-21" x="13.76" y="38.4">a</tspan><tspan class="cls-25" x="22.74" y="38.4">gazines</tspan><tspan class="cls-30" x="82.18" y="38.4">,</tspan><tspan class="cls-17" x="0" y="57.6">r</tspan><tspan x="5.74" y="57.6">ele</tspan><tspan class="cls-23" x="28.61" y="57.6">a</tspan><tspan x="37.74" y="57.6">ses</tspan><tspan class="cls-30" x="64.08" y="57.6">,</tspan><tspan x="0" y="76.8">&lt;p</tspan><tspan class="cls-21" x="20.22" y="76.8">a</tspan><tspan x="29.2" y="76.8">dding&gt;</tspan></text><g><line class="cls-8" x1="520.09" y1="153.16" x2="500.2" y2="153.16"/><polygon points="500.93 150.67 496.61 153.16 500.93 155.65 500.93 150.67"/></g><g><line class="cls-8" x1="566.78" y1="174.87" x2="552.72" y2="160.81"/><polygon points="554.99 159.56 550.18 158.27 551.47 163.09 554.99 159.56"/></g><g><line class="cls-8" x1="566.78" y1="180.88" x2="552.72" y2="194.95"/><polygon points="551.47 192.67 550.18 197.49 554.99 196.2 551.47 192.67"/></g><g><line class="cls-8" x1="612.83" y1="227.44" x2="586.38" y2="194.24"/><polygon points="588.78 193.25 584.14 191.43 584.88 196.36 588.78 193.25"/></g><g><line class="cls-8" x1="612.83" y1="234.35" x2="587.18" y2="262.56"/><polygon points="585.82 260.35 584.76 265.22 589.51 263.7 585.82 260.35"/></g><g><line class="cls-8" x1="687.06" y1="330.02" x2="636.05" y2="250.36"/><polygon points="638.54 249.63 634.12 247.34 634.35 252.32 638.54 249.63"/></g><g><line class="cls-8" x1="687.06" y1="345.87" x2="637.38" y2="413.86"/><polygon points="635.8 411.8 635.27 416.75 639.83 414.74 635.8 411.8"/></g><g><line class="cls-8" x1="520.09" y1="202.29" x2="500.2" y2="202.29"/><polygon points="500.93 199.8 496.61 202.29 500.93 204.78 500.93 199.8"/></g><g><line class="cls-8" x1="520.09" y1="251.42" x2="500.2" y2="251.42"/><polygon points="500.93 248.93 496.61 251.42 500.93 253.91 500.93 248.93"/></g><g><line class="cls-8" x1="520.09" y1="300.55" x2="500.2" y2="300.55"/><polygon points="500.93 298.06 496.61 300.55 500.93 303.04 500.93 298.06"/></g><g><polyline class="cls-8" points="526.4 162.81 524.4 162.81 524.4 160.81"/><line class="cls-6" x1="524.4" y1="158.53" x2="524.4" y2="145.99"/><polyline class="cls-8" points="524.4 144.85 524.4 142.85 526.4 142.85"/><line class="cls-6" x1="528.68" y1="142.85" x2="541.21" y2="142.85"/><polyline class="cls-8" points="542.35 142.85 544.35 142.85 544.35 144.85"/><line class="cls-6" x1="544.35" y1="147.13" x2="544.35" y2="159.67"/><polyline class="cls-8" points="544.35 160.81 544.35 162.81 542.35 162.81"/><line class="cls-6" x1="540.07" y1="162.81" x2="527.54" y2="162.81"/></g><g><polyline class="cls-8" points="574.85 188.42 572.85 188.42 572.85 186.42"/><line class="cls-6" x1="572.85" y1="184.14" x2="572.85" y2="171.61"/><polyline class="cls-8" points="572.85 170.47 572.85 168.47 574.85 168.47"/><line class="cls-6" x1="577.12" y1="168.47" x2="589.66" y2="168.47"/><polyline class="cls-8" points="590.8 168.47 592.8 168.47 592.8 170.47"/><line class="cls-6" x1="592.8" y1="172.75" x2="592.8" y2="185.28"/><polyline class="cls-8" points="592.8 186.42 592.8 188.42 590.8 188.42"/><line class="cls-6" x1="588.52" y1="188.42" x2="575.99" y2="188.42"/></g><g><polyline class="cls-8" points="700.19 347.32 698.19 347.32 698.19 345.32"/><line class="cls-6" x1="698.19" y1="343.05" x2="698.19" y2="330.51"/><polyline class="cls-8" points="698.19 329.37 698.19 327.37 700.19 327.37"/><line class="cls-10" x1="702.18" y1="327.37" x2="844.74" y2="327.37"/><polyline class="cls-8" points="845.74 327.37 847.74 327.37 847.74 329.37"/><line class="cls-6" x1="847.74" y1="331.65" x2="847.74" y2="344.19"/><polyline class="cls-8" points="847.74 345.32 847.74 347.32 845.74 347.32"/><line class="cls-10" x1="843.75" y1="347.32" x2="701.18" y2="347.32"/></g><g><polyline class="cls-8" points="623.13 240.94 621.13 240.94 621.13 238.94"/><line class="cls-6" x1="621.13" y1="236.66" x2="621.13" y2="224.12"/><polyline class="cls-8" points="621.13 222.98 621.13 220.98 623.13 220.98"/><line class="cls-6" x1="625.41" y1="220.98" x2="637.94" y2="220.98"/><polyline class="cls-8" points="639.08 220.98 641.08 220.98 641.08 222.98"/><line class="cls-6" x1="641.08" y1="225.26" x2="641.08" y2="237.8"/><polyline class="cls-8" points="641.08 238.94 641.08 240.94 639.08 240.94"/><line class="cls-6" x1="636.8" y1="240.94" x2="624.27" y2="240.94"/></g><g><line class="cls-8" x1="566.78" y1="274.26" x2="552.72" y2="260.2"/><polygon points="554.99 258.95 550.18 257.66 551.47 262.47 554.99 258.95"/></g><g><line class="cls-8" x1="566.78" y1="280.27" x2="552.72" y2="294.34"/><polygon points="551.47 292.06 550.18 296.87 554.99 295.58 551.47 292.06"/></g><g><polyline class="cls-8" points="574.85 287.81 572.85 287.81 572.85 285.81"/><line class="cls-6" x1="572.85" y1="283.53" x2="572.85" y2="270.99"/><polyline class="cls-8" points="572.85 269.85 572.85 267.85 574.85 267.85"/><line class="cls-6" x1="577.12" y1="267.85" x2="589.66" y2="267.85"/><polyline class="cls-8" points="590.8 267.85 592.8 267.85 592.8 269.85"/><line class="cls-6" x1="592.8" y1="272.13" x2="592.8" y2="284.67"/><polyline class="cls-8" points="592.8 285.81 592.8 287.81 590.8 287.81"/><line class="cls-6" x1="588.52" y1="287.81" x2="575.99" y2="287.81"/></g><g><polyline class="cls-8" points="526.4 212.13 524.4 212.13 524.4 210.13"/><line class="cls-6" x1="524.4" y1="207.85" x2="524.4" y2="195.31"/><polyline class="cls-8" points="524.4 194.17 524.4 192.17 526.4 192.17"/><line class="cls-6" x1="528.68" y1="192.17" x2="541.21" y2="192.17"/><polyline class="cls-8" points="542.35 192.17 544.35 192.17 544.35 194.17"/><line class="cls-6" x1="544.35" y1="196.45" x2="544.35" y2="208.99"/><polyline class="cls-8" points="544.35 210.13 544.35 212.13 542.35 212.13"/><line class="cls-6" x1="540.07" y1="212.13" x2="527.54" y2="212.13"/></g><g><polyline class="cls-8" points="526.4 261.44 524.4 261.44 524.4 259.44"/><line class="cls-6" x1="524.4" y1="257.16" x2="524.4" y2="244.63"/><polyline class="cls-8" points="524.4 243.49 524.4 241.49 526.4 241.49"/><line class="cls-6" x1="528.68" y1="241.49" x2="541.21" y2="241.49"/><polyline class="cls-8" points="542.35 241.49 544.35 241.49 544.35 243.49"/><line class="cls-6" x1="544.35" y1="245.77" x2="544.35" y2="258.3"/><polyline class="cls-8" points="544.35 259.44 544.35 261.44 542.35 261.44"/><line class="cls-6" x1="540.07" y1="261.44" x2="527.54" y2="261.44"/></g><g><polyline class="cls-8" points="526.4 310.76 524.4 310.76 524.4 308.76"/><line class="cls-6" x1="524.4" y1="306.48" x2="524.4" y2="293.95"/><polyline class="cls-8" points="524.4 292.81 524.4 290.81 526.4 290.81"/><line class="cls-6" x1="528.68" y1="290.81" x2="541.21" y2="290.81"/><polyline class="cls-8" points="542.35 290.81 544.35 290.81 544.35 292.81"/><line class="cls-6" x1="544.35" y1="295.09" x2="544.35" y2="307.62"/><polyline class="cls-8" points="544.35 308.76 544.35 310.76 542.35 310.76"/><line class="cls-6" x1="540.07" y1="310.76" x2="527.54" y2="310.76"/></g><g><line class="cls-8" x1="520.09" y1="356.45" x2="500.2" y2="356.45"/><polygon points="500.93 353.96 496.61 356.45 500.93 358.95 500.93 353.96"/></g><g><line class="cls-8" x1="566.78" y1="378.17" x2="552.72" y2="364.1"/><polygon points="554.99 362.85 550.18 361.56 551.47 366.38 554.99 362.85"/></g><g><line class="cls-8" x1="566.78" y1="384.18" x2="552.72" y2="398.24"/><polygon points="551.47 395.96 550.18 400.78 554.99 399.49 551.47 395.96"/></g><g><line class="cls-8" x1="612.83" y1="430.74" x2="586.38" y2="397.53"/><polygon points="588.78 396.55 584.14 394.72 584.88 399.66 588.78 396.55"/></g><g><line class="cls-8" x1="612.83" y1="437.64" x2="587.18" y2="465.86"/><polygon points="585.82 463.64 584.76 468.51 589.51 467 585.82 463.64"/></g><g><line class="cls-8" x1="520.09" y1="405.58" x2="500.2" y2="405.58"/><polygon points="500.93 403.09 496.61 405.58 500.93 408.08 500.93 403.09"/></g><g><line class="cls-8" x1="520.09" y1="454.71" x2="500.2" y2="454.71"/><polygon points="500.93 452.22 496.61 454.71 500.93 457.21 500.93 452.22"/></g><g><line class="cls-8" x1="520.09" y1="503.84" x2="500.2" y2="503.84"/><polygon points="500.93 501.35 496.61 503.84 500.93 506.34 500.93 501.35"/></g><g><polyline class="cls-8" points="526.4 366.1 524.4 366.1 524.4 364.1"/><line class="cls-6" x1="524.4" y1="361.82" x2="524.4" y2="349.29"/><polyline class="cls-8" points="524.4 348.15 524.4 346.15 526.4 346.15"/><line class="cls-6" x1="528.68" y1="346.15" x2="541.21" y2="346.15"/><polyline class="cls-8" points="542.35 346.15 544.35 346.15 544.35 348.15"/><line class="cls-6" x1="544.35" y1="350.43" x2="544.35" y2="362.96"/><polyline class="cls-8" points="544.35 364.1 544.35 366.1 542.35 366.1"/><line class="cls-6" x1="540.07" y1="366.1" x2="527.54" y2="366.1"/></g><g><polyline class="cls-8" points="574.85 391.71 572.85 391.71 572.85 389.71"/><line class="cls-6" x1="572.85" y1="387.43" x2="572.85" y2="374.9"/><polyline class="cls-8" points="572.85 373.76 572.85 371.76 574.85 371.76"/><line class="cls-6" x1="577.12" y1="371.76" x2="589.66" y2="371.76"/><polyline class="cls-8" points="590.8 371.76 592.8 371.76 592.8 373.76"/><line class="cls-6" x1="592.8" y1="376.04" x2="592.8" y2="388.57"/><polyline class="cls-8" points="592.8 389.71 592.8 391.71 590.8 391.71"/><line class="cls-6" x1="588.52" y1="391.71" x2="575.99" y2="391.71"/></g><g><polyline class="cls-8" points="623.13 445.08 621.13 445.08 621.13 443.08"/><line class="cls-6" x1="621.13" y1="440.8" x2="621.13" y2="428.26"/><polyline class="cls-8" points="621.13 427.12 621.13 425.12 623.13 425.12"/><line class="cls-6" x1="625.41" y1="425.12" x2="637.94" y2="425.12"/><polyline class="cls-8" points="639.08 425.12 641.08 425.12 641.08 427.12"/><line class="cls-6" x1="641.08" y1="429.4" x2="641.08" y2="441.94"/><polyline class="cls-8" points="641.08 443.08 641.08 445.08 639.08 445.08"/><line class="cls-6" x1="636.8" y1="445.08" x2="624.27" y2="445.08"/></g><g><line class="cls-8" x1="566.78" y1="477.56" x2="552.72" y2="463.49"/><polygon points="554.99 462.24 550.18 460.95 551.47 465.77 554.99 462.24"/></g><g><line class="cls-8" x1="566.78" y1="483.56" x2="552.72" y2="497.63"/><polygon points="551.47 495.35 550.18 500.17 554.99 498.88 551.47 495.35"/></g><g><polyline class="cls-8" points="574.85 491.1 572.85 491.1 572.85 489.1"/><line class="cls-6" x1="572.85" y1="486.82" x2="572.85" y2="474.29"/><polyline class="cls-8" points="572.85 473.15 572.85 471.15 574.85 471.15"/><line class="cls-6" x1="577.12" y1="471.15" x2="589.66" y2="471.15"/><polyline class="cls-8" points="590.8 471.15 592.8 471.15 592.8 473.15"/><line class="cls-6" x1="592.8" y1="475.43" x2="592.8" y2="487.96"/><polyline class="cls-8" points="592.8 489.1 592.8 491.1 590.8 491.1"/><line class="cls-6" x1="588.52" y1="491.1" x2="575.99" y2="491.1"/></g><g><polyline class="cls-8" points="526.4 415.42 524.4 415.42 524.4 413.42"/><line class="cls-6" x1="524.4" y1="411.14" x2="524.4" y2="398.61"/><polyline class="cls-8" points="524.4 397.47 524.4 395.47 526.4 395.47"/><line class="cls-6" x1="528.68" y1="395.47" x2="541.21" y2="395.47"/><polyline class="cls-8" points="542.35 395.47 544.35 395.47 544.35 397.47"/><line class="cls-6" x1="544.35" y1="399.74" x2="544.35" y2="412.28"/><polyline class="cls-8" points="544.35 413.42 544.35 415.42 542.35 415.42"/><line class="cls-6" x1="540.07" y1="415.42" x2="527.54" y2="415.42"/></g><g><polyline class="cls-8" points="526.4 464.74 524.4 464.74 524.4 462.74"/><line class="cls-6" x1="524.4" y1="460.46" x2="524.4" y2="447.92"/><polyline class="cls-8" points="524.4 446.78 524.4 444.78 526.4 444.78"/><line class="cls-6" x1="528.68" y1="444.78" x2="541.21" y2="444.78"/><polyline class="cls-8" points="542.35 444.78 544.35 444.78 544.35 446.78"/><line class="cls-6" x1="544.35" y1="449.06" x2="544.35" y2="461.6"/><polyline class="cls-8" points="544.35 462.74 544.35 464.74 542.35 464.74"/><line class="cls-6" x1="540.07" y1="464.74" x2="527.54" y2="464.74"/></g><g><polyline class="cls-8" points="526.4 514.05 524.4 514.05 524.4 512.05"/><line class="cls-6" x1="524.4" y1="509.77" x2="524.4" y2="497.24"/><polyline class="cls-8" points="524.4 496.1 524.4 494.1 526.4 494.1"/><line class="cls-6" x1="528.68" y1="494.1" x2="541.21" y2="494.1"/><polyline class="cls-8" points="542.35 494.1 544.35 494.1 544.35 496.1"/><line class="cls-6" x1="544.35" y1="498.38" x2="544.35" y2="510.91"/><polyline class="cls-8" points="544.35 512.05 544.35 514.05 542.35 514.05"/><line class="cls-6" x1="540.07" y1="514.05" x2="527.54" y2="514.05"/></g><rect class="cls-7" x="156.99" y="115.16" width="326.4" height="431.84"/><text class="cls-20" transform="translate(156.46 99.31)"><tspan x="0" y="0">branch</tspan></text><text class="cls-20" transform="translate(468.7 94.79)"><tspan x="0" y="0">fixed-size intermediate hashes</tspan></text><text class="cls-20" transform="translate(49.66 179.49)"><tspan x="0" y="0">header</tspan></text><text class="cls-20" transform="translate(63.46 388.83)"><tspan x="0" y="0">links</tspan></text><text class="cls-20" transform="translate(694.31 316.02)"><tspan x="0" y="0">root hash</tspan></text><text class="cls-19" transform="translate(711.8 343.54)"><tspan x="0" y="0">cidColle</tspan><tspan class="cls-3" x="61.26" y="0">c</tspan><tspan x="70.51" y="0">tion</tspan></text><g><polyline class="cls-9" points="476.71 222.08 476.71 223.08 475.71 223.08"/><line class="cls-12" x1="473.7" y1="223.08" x2="169.26" y2="223.08"/><polyline class="cls-9" points="168.25 223.08 167.25 223.08 167.25 222.08"/><line class="cls-11" x1="167.25" y1="220.11" x2="167.25" y2="126.53"/><polyline class="cls-9" points="167.25 125.54 167.25 124.54 168.25 124.54"/><line class="cls-12" x1="170.26" y1="124.54" x2="474.7" y2="124.54"/><polyline class="cls-9" points="475.71 124.54 476.71 124.54 476.71 125.54"/><line class="cls-11" x1="476.71" y1="127.51" x2="476.71" y2="221.09"/></g><g><polyline class="cls-9" points="476.71 327.04 476.71 328.04 475.71 328.04"/><line class="cls-12" x1="473.7" y1="328.04" x2="169.26" y2="328.04"/><polyline class="cls-9" points="168.25 328.04 167.25 328.04 167.25 327.04"/><line class="cls-11" x1="167.25" y1="325.07" x2="167.25" y2="231.49"/><polyline class="cls-9" points="167.25 230.51 167.25 229.51 168.25 229.51"/><line class="cls-12" x1="170.26" y1="229.51" x2="474.7" y2="229.51"/><polyline class="cls-9" points="475.71 229.51 476.71 229.51 476.71 230.51"/><line class="cls-11" x1="476.71" y1="232.48" x2="476.71" y2="326.06"/></g><g><polyline class="cls-9" points="476.71 430.48 476.71 431.48 475.71 431.48"/><line class="cls-12" x1="473.7" y1="431.48" x2="169.26" y2="431.48"/><polyline class="cls-9" points="168.25 431.48 167.25 431.48 167.25 430.48"/><line class="cls-11" x1="167.25" y1="428.51" x2="167.25" y2="334.93"/><polyline class="cls-9" points="167.25 333.94 167.25 332.94 168.25 332.94"/><line class="cls-12" x1="170.26" y1="332.94" x2="474.7" y2="332.94"/><polyline class="cls-9" points="475.71 332.94 476.71 332.94 476.71 333.94"/><line class="cls-11" x1="476.71" y1="335.91" x2="476.71" y2="429.5"/></g><g><polyline class="cls-9" points="476.71 533.92 476.71 534.92 475.71 534.92"/><line class="cls-12" x1="473.7" y1="534.92" x2="169.26" y2="534.92"/><polyline class="cls-9" points="168.25 534.92 167.25 534.92 167.25 533.92"/><line class="cls-11" x1="167.25" y1="531.95" x2="167.25" y2="438.36"/><polyline class="cls-9" points="167.25 437.38 167.25 436.38 168.25 436.38"/><line class="cls-12" x1="170.26" y1="436.38" x2="474.7" y2="436.38"/><polyline class="cls-9" points="475.71 436.38 476.71 436.38 476.71 437.38"/><line class="cls-11" x1="476.71" y1="439.35" x2="476.71" y2="532.93"/></g><path class="cls-8" d="M522.14,119.72s0-9.01,10.71-9.01h64.56c3.54,0,7.5-2.8,7.5-6.31h.24c0,3.5,3.96,6.31,7.5,6.31h64.56c10.71,0,10.71,9.01,10.71,9.01"/><path class="cls-8" d="M140.59,224.75s-9.01,0-9.01-6.35v-38.27c0-2.1-2.8-4.44-6.31-4.44v-.14c3.5,0,6.31-2.35,6.31-4.44v-38.27c0-6.35,9.01-6.35,9.01-6.35"/><path class="cls-8" d="M140.59,538s-9.01,0-9.01-19.8v-119.39c0-6.54-2.8-13.86-6.31-13.86v-.44c3.5,0,6.31-7.32,6.31-13.86v-119.39c0-19.8,9.01-19.8,9.01-19.8"/></svg>