<?xml version="1.0" encoding="UTF-8"?><svg id="Layer_1" xmlns="http://www.w3.org/2000/svg" viewBox="0 0 800 600"><defs><style>.cls-1{fill:#fff;stroke:#2b2b2b;stroke-width:1.2px;}.cls-1,.cls-2,.cls-3,.cls-4{stroke-miterlimit:10;}.cls-2{stroke:#ccc;stroke-dasharray:0 0 1 5;}.cls-2,.cls-4{fill:none;stroke-linecap:round;}.cls-3{fill:#2b2b2b;stroke:#fff;stroke-width:2px;}.cls-4{stroke:#7c7cf7;stroke-dasharray:0 0 1 1.5;}.cls-5{fill:#f2f2f2;font-family:SpaceMono-Regular, 'Space Mono';font-size:20px;}</style></defs><line class="cls-2" x1="108.5" y1="136.5" x2="306.5" y2="136.5"/><line class="cls-2" x1="108.5" y1="139.5" x2="308.5" y2="224.5"/><line class="cls-2" x1="106.5" y1="163.5" x2="304.5" y2="367.5"/><line class="cls-2" x1="91.5" y1="163.5" x2="91.5" y2="344.5"/><line class="cls-2" x1="94.5" y1="163.5" x2="188.5" y2="346.5"/><line class="cls-2" x1="229.5" y1="140.5" x2="427.5" y2="140.5"/><line class="cls-2" x1="229.5" y1="143.5" x2="426.5" y2="224.5"/><line class="cls-2" x1="227.5" y1="164.5" x2="425.5" y2="368.5"/><line class="cls-2" x1="212.5" y1="164.5" x2="212.5" y2="345.5"/><line class="cls-2" x1="215.5" y1="164.5" x2="309.5" y2="347.5"/><line class="cls-2" x1="306.5" y1="143.5" x2="109.5" y2="224.5"/><line class="cls-2" x1="308.5" y1="164.5" x2="110.5" y2="368.5"/><line class="cls-2" x1="323.5" y1="164.5" x2="323.5" y2="345.5"/><line class="cls-2" x1="320.5" y1="164.5" x2="226.5" y2="347.5"/><line class="cls-2" x1="466.5" y1="143.5" x2="663.5" y2="224.5"/><line class="cls-2" x1="464.5" y1="164.5" x2="662.5" y2="368.5"/><line class="cls-2" x1="449.5" y1="164.5" x2="449.5" y2="345.5"/><line class="cls-2" x1="452.5" y1="164.5" x2="546.5" y2="347.5"/><line class="cls-2" x1="306.5" y1="489.5" x2="109.5" y2="408.5"/><line class="cls-2" x1="308.5" y1="468.5" x2="110.5" y2="264.5"/><line class="cls-2" x1="323.5" y1="468.5" x2="323.5" y2="287.5"/><line class="cls-2" x1="320.5" y1="468.5" x2="226.5" y2="285.5"/><line class="cls-2" x1="466.5" y1="489.5" x2="663.5" y2="408.5"/><line class="cls-2" x1="464.5" y1="468.5" x2="662.5" y2="264.5"/><line class="cls-2" x1="449.5" y1="468.5" x2="449.5" y2="287.5"/><line class="cls-2" x1="452.5" y1="468.5" x2="546.5" y2="285.5"/><line class="cls-2" x1="546.5" y1="136.5" x2="348.5" y2="136.5"/><line class="cls-2" x1="543.5" y1="143.5" x2="346.5" y2="224.5"/><line class="cls-2" x1="545.5" y1="164.5" x2="347.5" y2="368.5"/><line class="cls-2" x1="560.5" y1="164.5" x2="560.5" y2="345.5"/><line class="cls-2" x1="557.5" y1="164.5" x2="463.5" y2="347.5"/><line class="cls-2" x1="229.5" y1="491.5" x2="427.5" y2="491.5"/><line class="cls-2" x1="229.5" y1="488.5" x2="426.5" y2="407.5"/><line class="cls-2" x1="227.5" y1="467.5" x2="425.5" y2="263.5"/><line class="cls-2" x1="212.5" y1="467.5" x2="212.5" y2="286.5"/><line class="cls-2" x1="215.5" y1="467.5" x2="309.5" y2="284.5"/><line class="cls-2" x1="543.5" y1="491.5" x2="345.5" y2="491.5"/><line class="cls-2" x1="543.5" y1="488.5" x2="346.5" y2="407.5"/><line class="cls-2" x1="545.5" y1="467.5" x2="347.5" y2="263.5"/><line class="cls-2" x1="560.5" y1="467.5" x2="560.5" y2="286.5"/><line class="cls-2" x1="557.5" y1="467.5" x2="463.5" y2="284.5"/><line class="cls-2" x1="108.5" y1="493.5" x2="306.5" y2="493.5"/><line class="cls-2" x1="108.5" y1="490.5" x2="308.5" y2="405.5"/><line class="cls-2" x1="106.5" y1="466.5" x2="304.5" y2="262.5"/><line class="cls-2" x1="91.5" y1="466.5" x2="91.5" y2="285.5"/><line class="cls-2" x1="94.5" y1="466.5" x2="188.5" y2="283.5"/><line class="cls-2" x1="665.5" y1="136.5" x2="467.5" y2="136.5"/><line class="cls-2" x1="665.5" y1="139.5" x2="465.5" y2="224.5"/><line class="cls-2" x1="667.5" y1="163.5" x2="469.5" y2="367.5"/><line class="cls-2" x1="682.5" y1="163.5" x2="682.5" y2="344.5"/><line class="cls-2" x1="679.5" y1="163.5" x2="585.5" y2="346.5"/><line class="cls-2" x1="665.5" y1="493.5" x2="467.5" y2="493.5"/><line class="cls-2" x1="665.5" y1="490.5" x2="465.5" y2="405.5"/><line class="cls-2" x1="667.5" y1="466.5" x2="469.5" y2="262.5"/><line class="cls-2" x1="682.5" y1="466.5" x2="682.5" y2="285.5"/><line class="cls-2" x1="679.5" y1="466.5" x2="585.5" y2="283.5"/><text class="cls-5" transform="translate(133.52 70.06)"><tspan x="0" y="0">ACTIVE PEERS = 3</tspan></text><line class="cls-4" x1="133.5" y1="76.5" x2="327.5" y2="76.5"/><text class="cls-5" transform="translate(470.52 70.06)"><tspan x="0" y="0">PASSIVE PEERS = 5</tspan></text><line class="cls-2" x1="472.5" y1="76.5" x2="676.5" y2="76.5"/><line class="cls-4" x1="108.5" y1="132.5" x2="186.5" y2="132.5"/><line class="cls-4" x1="228.5" y1="132.5" x2="306.5" y2="132.5"/><line class="cls-4" x1="348.5" y1="132.5" x2="426.5" y2="132.5"/><line class="cls-4" x1="468.5" y1="132.5" x2="546.5" y2="132.5"/><line class="cls-4" x1="588.5" y1="132.5" x2="666.5" y2="132.5"/><line class="cls-4" x1="108.5" y1="256.5" x2="186.5" y2="256.5"/><line class="cls-4" x1="348.5" y1="256.5" x2="426.5" y2="256.5"/><line class="cls-4" x1="588.5" y1="256.5" x2="666.5" y2="256.5"/><line class="cls-4" x1="108.5" y1="380.5" x2="186.5" y2="380.5"/><line class="cls-4" x1="348.5" y1="380.5" x2="426.5" y2="380.5"/><line class="cls-4" x1="588.5" y1="380.5" x2="666.5" y2="380.5"/><line class="cls-4" x1="108.5" y1="504.5" x2="186.5" y2="504.5"/><line class="cls-4" x1="228.5" y1="504.5" x2="306.5" y2="504.5"/><line class="cls-4" x1="348.5" y1="504.5" x2="426.5" y2="504.5"/><line class="cls-4" x1="468.5" y1="504.5" x2="546.5" y2="504.5"/><line class="cls-4" x1="588.5" y1="504.5" x2="666.5" y2="504.5"/><line class="cls-4" x1="108.5" y1="162.5" x2="188.5" y2="224.5"/><line class="cls-4" x1="587.5" y1="406.5" x2="667.5" y2="468.5"/><line class="cls-4" x1="87.5" y1="163.5" x2="87.5" y2="222.5"/><line class="cls-4" x1="207.5" y1="163.5" x2="207.5" y2="222.5"/><line class="cls-4" x1="327.5" y1="163.5" x2="327.5" y2="222.5"/><line class="cls-4" x1="447.5" y1="163.5" x2="447.5" y2="222.5"/><line class="cls-4" x1="567.5" y1="163.5" x2="567.5" y2="222.5"/><line class="cls-4" x1="687.5" y1="163.5" x2="687.5" y2="222.5"/><line class="cls-4" x1="87.5" y1="285.5" x2="87.5" y2="344.5"/><line class="cls-4" x1="327.5" y1="285.5" x2="327.5" y2="344.5"/><line class="cls-4" x1="447.5" y1="285.5" x2="447.5" y2="344.5"/><line class="cls-4" x1="687.5" y1="285.5" x2="687.5" y2="344.5"/><line class="cls-4" x1="87.5" y1="407.5" x2="87.5" y2="466.5"/><line class="cls-4" x1="207.5" y1="407.5" x2="207.5" y2="466.5"/><line class="cls-4" x1="327.5" y1="407.5" x2="327.5" y2="466.5"/><line class="cls-4" x1="447.5" y1="407.5" x2="447.5" y2="466.5"/><line class="cls-4" x1="567.5" y1="407.5" x2="567.5" y2="466.5"/><line class="cls-4" x1="687.5" y1="407.5" x2="687.5" y2="466.5"/><line class="cls-4" x1="108.5" y1="469.5" x2="186.5" y2="406.5"/><line class="cls-4" x1="668.5" y1="163.5" x2="586.5" y2="224.5"/><rect class="cls-3" x="66.69" y="102.17" width="41.67" height="61.5" rx="1.44" ry="1.44"/><circle class="cls-1" cx="87.52" cy="157.61" r="1.78"/><rect class="cls-3" x="186.69" y="102.17" width="41.67" height="61.5" rx="1.44" ry="1.44"/><circle class="cls-1" cx="207.52" cy="157.61" r="1.78"/><rect class="cls-3" x="306.69" y="102.17" width="41.67" height="61.5" rx="1.44" ry="1.44"/><circle class="cls-1" cx="327.52" cy="157.61" r="1.78"/><rect class="cls-3" x="426.69" y="102.17" width="41.67" height="61.5" rx="1.44" ry="1.44"/><circle class="cls-1" cx="447.52" cy="157.61" r="1.78"/><rect class="cls-3" x="546.69" y="102.17" width="41.67" height="61.5" rx="1.44" ry="1.44"/><circle class="cls-1" cx="567.52" cy="157.61" r="1.78"/><rect class="cls-3" x="666.69" y="102.17" width="41.67" height="61.5" rx="1.44" ry="1.44"/><circle class="cls-1" cx="687.52" cy="157.61" r="1.78"/><rect class="cls-3" x="66.69" y="224.17" width="41.67" height="61.5" rx="1.44" ry="1.44"/><circle class="cls-1" cx="87.52" cy="279.61" r="1.78"/><rect class="cls-3" x="186.69" y="224.17" width="41.67" height="61.5" rx="1.44" ry="1.44"/><circle class="cls-1" cx="207.52" cy="279.61" r="1.78"/><rect class="cls-3" x="306.69" y="224.17" width="41.67" height="61.5" rx="1.44" ry="1.44"/><circle class="cls-1" cx="327.52" cy="279.61" r="1.78"/><rect class="cls-3" x="426.69" y="224.17" width="41.67" height="61.5" rx="1.44" ry="1.44"/><circle class="cls-1" cx="447.52" cy="279.61" r="1.78"/><rect class="cls-3" x="546.69" y="224.17" width="41.67" height="61.5" rx="1.44" ry="1.44"/><circle class="cls-1" cx="567.52" cy="279.61" r="1.78"/><rect class="cls-3" x="666.69" y="224.17" width="41.67" height="61.5" rx="1.44" ry="1.44"/><circle class="cls-1" cx="687.52" cy="279.61" r="1.78"/><rect class="cls-3" x="66.69" y="346.17" width="41.67" height="61.5" rx="1.44" ry="1.44"/><circle class="cls-1" cx="87.52" cy="401.61" r="1.78"/><rect class="cls-3" x="186.69" y="346.17" width="41.67" height="61.5" rx="1.44" ry="1.44"/><circle class="cls-1" cx="207.52" cy="401.61" r="1.78"/><rect class="cls-3" x="306.69" y="346.17" width="41.67" height="61.5" rx="1.44" ry="1.44"/><circle class="cls-1" cx="327.52" cy="401.61" r="1.78"/><rect class="cls-3" x="426.69" y="346.17" width="41.67" height="61.5" rx="1.44" ry="1.44"/><circle class="cls-1" cx="447.52" cy="401.61" r="1.78"/><rect class="cls-3" x="546.69" y="346.17" width="41.67" height="61.5" rx="1.44" ry="1.44"/><circle class="cls-1" cx="567.52" cy="401.61" r="1.78"/><rect class="cls-3" x="666.69" y="346.17" width="41.67" height="61.5" rx="1.44" ry="1.44"/><circle class="cls-1" cx="687.52" cy="401.61" r="1.78"/><rect class="cls-3" x="66.69" y="468.17" width="41.67" height="61.5" rx="1.44" ry="1.44"/><circle class="cls-1" cx="87.52" cy="523.61" r="1.78"/><rect class="cls-3" x="186.69" y="468.17" width="41.67" height="61.5" rx="1.44" ry="1.44"/><circle class="cls-1" cx="207.52" cy="523.61" r="1.78"/><rect class="cls-3" x="306.69" y="468.17" width="41.67" height="61.5" rx="1.44" ry="1.44"/><circle class="cls-1" cx="327.52" cy="523.61" r="1.78"/><rect class="cls-3" x="426.69" y="468.17" width="41.67" height="61.5" rx="1.44" ry="1.44"/><circle class="cls-1" cx="447.52" cy="523.61" r="1.78"/><rect class="cls-3" x="546.69" y="468.17" width="41.67" height="61.5" rx="1.44" ry="1.44"/><circle class="cls-1" cx="567.52" cy="523.61" r="1.78"/><rect class="cls-3" x="666.69" y="468.17" width="41.67" height="61.5" rx="1.44" ry="1.44"/><circle class="cls-1" cx="687.52" cy="523.61" r="1.78"/></svg>