<?xml version="1.0" encoding="UTF-8"?><svg id="Layer_1" xmlns="http://www.w3.org/2000/svg" viewBox="0 0 800 600"><defs><style>.cls-1{stroke-width:1.2px;}.cls-1,.cls-2,.cls-3,.cls-4{stroke-miterlimit:10;}.cls-1,.cls-3{fill:#fff;stroke:#2b2b2b;}.cls-2{stroke:#ccc;stroke-dasharray:0 0 1 5;}.cls-2,.cls-4{fill:none;stroke-linecap:round;}.cls-3{stroke-width:2px;}.cls-4{stroke:#7c7cf7;stroke-dasharray:0 0 1 1.5;}.cls-5{fill:#282828;font-family:SpaceMono-Regular, 'Space Mono';font-size:20px;}</style></defs><line class="cls-2" x1="108.5" y1="125.5" x2="306.5" y2="125.5"/><line class="cls-2" x1="108.5" y1="128.5" x2="308.5" y2="213.5"/><line class="cls-2" x1="106.5" y1="152.5" x2="304.5" y2="356.5"/><line class="cls-2" x1="91.5" y1="152.5" x2="91.5" y2="333.5"/><line class="cls-2" x1="94.5" y1="152.5" x2="188.5" y2="335.5"/><line class="cls-2" x1="229.5" y1="129.5" x2="427.5" y2="129.5"/><line class="cls-2" x1="229.5" y1="132.5" x2="426.5" y2="213.5"/><line class="cls-2" x1="227.5" y1="153.5" x2="425.5" y2="357.5"/><line class="cls-2" x1="212.5" y1="153.5" x2="212.5" y2="334.5"/><line class="cls-2" x1="215.5" y1="153.5" x2="309.5" y2="336.5"/><line class="cls-2" x1="306.5" y1="132.5" x2="109.5" y2="213.5"/><line class="cls-2" x1="308.5" y1="153.5" x2="110.5" y2="357.5"/><line class="cls-2" x1="323.5" y1="153.5" x2="323.5" y2="334.5"/><line class="cls-2" x1="320.5" y1="153.5" x2="226.5" y2="336.5"/><line class="cls-2" x1="466.5" y1="132.5" x2="663.5" y2="213.5"/><line class="cls-2" x1="464.5" y1="153.5" x2="662.5" y2="357.5"/><line class="cls-2" x1="449.5" y1="153.5" x2="449.5" y2="334.5"/><line class="cls-2" x1="452.5" y1="153.5" x2="546.5" y2="336.5"/><line class="cls-2" x1="306.5" y1="478.5" x2="109.5" y2="397.5"/><line class="cls-2" x1="308.5" y1="457.5" x2="110.5" y2="253.5"/><line class="cls-2" x1="323.5" y1="457.5" x2="323.5" y2="276.5"/><line class="cls-2" x1="320.5" y1="457.5" x2="226.5" y2="274.5"/><line class="cls-2" x1="466.5" y1="478.5" x2="663.5" y2="397.5"/><line class="cls-2" x1="464.5" y1="457.5" x2="662.5" y2="253.5"/><line class="cls-2" x1="449.5" y1="457.5" x2="449.5" y2="276.5"/><line class="cls-2" x1="452.5" y1="457.5" x2="546.5" y2="274.5"/><line class="cls-2" x1="546.5" y1="125.5" x2="348.5" y2="125.5"/><line class="cls-2" x1="543.5" y1="132.5" x2="346.5" y2="213.5"/><line class="cls-2" x1="545.5" y1="153.5" x2="347.5" y2="357.5"/><line class="cls-2" x1="560.5" y1="153.5" x2="560.5" y2="334.5"/><line class="cls-2" x1="557.5" y1="153.5" x2="463.5" y2="336.5"/><line class="cls-2" x1="229.5" y1="480.5" x2="427.5" y2="480.5"/><line class="cls-2" x1="229.5" y1="477.5" x2="426.5" y2="396.5"/><line class="cls-2" x1="227.5" y1="456.5" x2="425.5" y2="252.5"/><line class="cls-2" x1="212.5" y1="456.5" x2="212.5" y2="275.5"/><line class="cls-2" x1="215.5" y1="456.5" x2="309.5" y2="273.5"/><line class="cls-2" x1="543.5" y1="480.5" x2="345.5" y2="480.5"/><line class="cls-2" x1="543.5" y1="477.5" x2="346.5" y2="396.5"/><line class="cls-2" x1="545.5" y1="456.5" x2="347.5" y2="252.5"/><line class="cls-2" x1="560.5" y1="456.5" x2="560.5" y2="275.5"/><line class="cls-2" x1="557.5" y1="456.5" x2="463.5" y2="273.5"/><line class="cls-2" x1="108.5" y1="482.5" x2="306.5" y2="482.5"/><line class="cls-2" x1="108.5" y1="479.5" x2="308.5" y2="394.5"/><line class="cls-2" x1="106.5" y1="455.5" x2="304.5" y2="251.5"/><line class="cls-2" x1="91.5" y1="455.5" x2="91.5" y2="274.5"/><line class="cls-2" x1="94.5" y1="455.5" x2="188.5" y2="272.5"/><line class="cls-2" x1="665.5" y1="125.5" x2="467.5" y2="125.5"/><line class="cls-2" x1="665.5" y1="128.5" x2="465.5" y2="213.5"/><line class="cls-2" x1="667.5" y1="152.5" x2="469.5" y2="356.5"/><line class="cls-2" x1="682.5" y1="152.5" x2="682.5" y2="333.5"/><line class="cls-2" x1="679.5" y1="152.5" x2="585.5" y2="335.5"/><line class="cls-2" x1="665.5" y1="482.5" x2="467.5" y2="482.5"/><line class="cls-2" x1="665.5" y1="479.5" x2="465.5" y2="394.5"/><line class="cls-2" x1="667.5" y1="455.5" x2="469.5" y2="251.5"/><line class="cls-2" x1="682.5" y1="455.5" x2="682.5" y2="274.5"/><line class="cls-2" x1="679.5" y1="455.5" x2="585.5" y2="272.5"/><text class="cls-5" transform="translate(126.52 60.06)"><tspan x="0" y="0">ACTIVE PEERS = 3</tspan></text><line class="cls-4" x1="126.5" y1="66.5" x2="320.5" y2="66.5"/><text class="cls-5" transform="translate(463.52 60.06)"><tspan x="0" y="0">PASSIVE PEERS = 5</tspan></text><line class="cls-2" x1="465.5" y1="66.5" x2="669.5" y2="66.5"/><line class="cls-4" x1="108.5" y1="121.5" x2="186.5" y2="121.5"/><line class="cls-4" x1="228.5" y1="121.5" x2="306.5" y2="121.5"/><line class="cls-4" x1="348.5" y1="121.5" x2="426.5" y2="121.5"/><line class="cls-4" x1="468.5" y1="121.5" x2="546.5" y2="121.5"/><line class="cls-4" x1="588.5" y1="121.5" x2="666.5" y2="121.5"/><line class="cls-4" x1="108.5" y1="245.5" x2="186.5" y2="245.5"/><line class="cls-4" x1="348.5" y1="245.5" x2="426.5" y2="245.5"/><line class="cls-4" x1="588.5" y1="245.5" x2="666.5" y2="245.5"/><line class="cls-4" x1="108.5" y1="369.5" x2="186.5" y2="369.5"/><line class="cls-4" x1="348.5" y1="369.5" x2="426.5" y2="369.5"/><line class="cls-4" x1="588.5" y1="369.5" x2="666.5" y2="369.5"/><line class="cls-4" x1="108.5" y1="493.5" x2="186.5" y2="493.5"/><line class="cls-4" x1="228.5" y1="493.5" x2="306.5" y2="493.5"/><line class="cls-4" x1="348.5" y1="493.5" x2="426.5" y2="493.5"/><line class="cls-4" x1="468.5" y1="493.5" x2="546.5" y2="493.5"/><line class="cls-4" x1="588.5" y1="493.5" x2="666.5" y2="493.5"/><line class="cls-4" x1="108.5" y1="151.5" x2="188.5" y2="213.5"/><line class="cls-4" x1="587.5" y1="395.5" x2="667.5" y2="457.5"/><line class="cls-4" x1="87.5" y1="152.5" x2="87.5" y2="211.5"/><line class="cls-4" x1="207.5" y1="152.5" x2="207.5" y2="211.5"/><line class="cls-4" x1="327.5" y1="152.5" x2="327.5" y2="211.5"/><line class="cls-4" x1="447.5" y1="152.5" x2="447.5" y2="211.5"/><line class="cls-4" x1="567.5" y1="152.5" x2="567.5" y2="211.5"/><line class="cls-4" x1="687.5" y1="152.5" x2="687.5" y2="211.5"/><line class="cls-4" x1="87.5" y1="274.5" x2="87.5" y2="333.5"/><line class="cls-4" x1="327.5" y1="274.5" x2="327.5" y2="333.5"/><line class="cls-4" x1="447.5" y1="274.5" x2="447.5" y2="333.5"/><line class="cls-4" x1="687.5" y1="274.5" x2="687.5" y2="333.5"/><line class="cls-4" x1="87.5" y1="396.5" x2="87.5" y2="455.5"/><line class="cls-4" x1="207.5" y1="396.5" x2="207.5" y2="455.5"/><line class="cls-4" x1="327.5" y1="396.5" x2="327.5" y2="455.5"/><line class="cls-4" x1="447.5" y1="396.5" x2="447.5" y2="455.5"/><line class="cls-4" x1="567.5" y1="396.5" x2="567.5" y2="455.5"/><line class="cls-4" x1="687.5" y1="396.5" x2="687.5" y2="455.5"/><line class="cls-4" x1="108.5" y1="458.5" x2="186.5" y2="395.5"/><line class="cls-4" x1="668.5" y1="152.5" x2="586.5" y2="213.5"/><rect class="cls-3" x="66.69" y="91.17" width="41.67" height="61.5" rx="1.44" ry="1.44"/><circle class="cls-1" cx="87.52" cy="146.61" r="1.78"/><rect class="cls-3" x="186.69" y="91.17" width="41.67" height="61.5" rx="1.44" ry="1.44"/><circle class="cls-1" cx="207.52" cy="146.61" r="1.78"/><rect class="cls-3" x="306.69" y="91.17" width="41.67" height="61.5" rx="1.44" ry="1.44"/><circle class="cls-1" cx="327.52" cy="146.61" r="1.78"/><rect class="cls-3" x="426.69" y="91.17" width="41.67" height="61.5" rx="1.44" ry="1.44"/><circle class="cls-1" cx="447.52" cy="146.61" r="1.78"/><rect class="cls-3" x="546.69" y="91.17" width="41.67" height="61.5" rx="1.44" ry="1.44"/><circle class="cls-1" cx="567.52" cy="146.61" r="1.78"/><rect class="cls-3" x="666.69" y="91.17" width="41.67" height="61.5" rx="1.44" ry="1.44"/><circle class="cls-1" cx="687.52" cy="146.61" r="1.78"/><rect class="cls-3" x="66.69" y="213.17" width="41.67" height="61.5" rx="1.44" ry="1.44"/><circle class="cls-1" cx="87.52" cy="268.61" r="1.78"/><rect class="cls-3" x="186.69" y="213.17" width="41.67" height="61.5" rx="1.44" ry="1.44"/><circle class="cls-1" cx="207.52" cy="268.61" r="1.78"/><rect class="cls-3" x="306.69" y="213.17" width="41.67" height="61.5" rx="1.44" ry="1.44"/><circle class="cls-1" cx="327.52" cy="268.61" r="1.78"/><rect class="cls-3" x="426.69" y="213.17" width="41.67" height="61.5" rx="1.44" ry="1.44"/><circle class="cls-1" cx="447.52" cy="268.61" r="1.78"/><rect class="cls-3" x="546.69" y="213.17" width="41.67" height="61.5" rx="1.44" ry="1.44"/><circle class="cls-1" cx="567.52" cy="268.61" r="1.78"/><rect class="cls-3" x="666.69" y="213.17" width="41.67" height="61.5" rx="1.44" ry="1.44"/><circle class="cls-1" cx="687.52" cy="268.61" r="1.78"/><rect class="cls-3" x="66.69" y="335.17" width="41.67" height="61.5" rx="1.44" ry="1.44"/><circle class="cls-1" cx="87.52" cy="390.61" r="1.78"/><rect class="cls-3" x="186.69" y="335.17" width="41.67" height="61.5" rx="1.44" ry="1.44"/><circle class="cls-1" cx="207.52" cy="390.61" r="1.78"/><rect class="cls-3" x="306.69" y="335.17" width="41.67" height="61.5" rx="1.44" ry="1.44"/><circle class="cls-1" cx="327.52" cy="390.61" r="1.78"/><rect class="cls-3" x="426.69" y="335.17" width="41.67" height="61.5" rx="1.44" ry="1.44"/><circle class="cls-1" cx="447.52" cy="390.61" r="1.78"/><rect class="cls-3" x="546.69" y="335.17" width="41.67" height="61.5" rx="1.44" ry="1.44"/><circle class="cls-1" cx="567.52" cy="390.61" r="1.78"/><rect class="cls-3" x="666.69" y="335.17" width="41.67" height="61.5" rx="1.44" ry="1.44"/><circle class="cls-1" cx="687.52" cy="390.61" r="1.78"/><rect class="cls-3" x="66.69" y="457.17" width="41.67" height="61.5" rx="1.44" ry="1.44"/><circle class="cls-1" cx="87.52" cy="512.61" r="1.78"/><rect class="cls-3" x="186.69" y="457.17" width="41.67" height="61.5" rx="1.44" ry="1.44"/><circle class="cls-1" cx="207.52" cy="512.61" r="1.78"/><rect class="cls-3" x="306.69" y="457.17" width="41.67" height="61.5" rx="1.44" ry="1.44"/><circle class="cls-1" cx="327.52" cy="512.61" r="1.78"/><rect class="cls-3" x="426.69" y="457.17" width="41.67" height="61.5" rx="1.44" ry="1.44"/><circle class="cls-1" cx="447.52" cy="512.61" r="1.78"/><rect class="cls-3" x="546.69" y="457.17" width="41.67" height="61.5" rx="1.44" ry="1.44"/><circle class="cls-1" cx="567.52" cy="512.61" r="1.78"/><rect class="cls-3" x="666.69" y="457.17" width="41.67" height="61.5" rx="1.44" ry="1.44"/><circle class="cls-1" cx="687.52" cy="512.61" r="1.78"/></svg>