<?xml version="1.0" encoding="UTF-8"?><svg id="Layer_1" xmlns="http://www.w3.org/2000/svg" viewBox="0 0 920 380"><defs><style>.cls-1,.cls-2{font-size:20px;letter-spacing:.05em;}.cls-1,.cls-2,.cls-3{font-family:SpaceMono-Regular, 'Space Mono';}.cls-4,.cls-5{fill:#2b2b2b;}.cls-6,.cls-7,.cls-8{fill:none;stroke:#2b2b2b;stroke-miterlimit:10;}.cls-6,.cls-8{stroke-width:1.25px;}.cls-2{fill:#7c7cff;}.cls-7{stroke-width:.75px;}.cls-3,.cls-5{font-size:16px;letter-spacing:.05em;}.cls-5{font-family:SpaceMono-Bold, 'Space Mono';}.cls-8{fill-rule:evenodd;}</style></defs><rect class="cls-4" x="349.18" y="18.33" width="175.97" height="75.72"/><rect class="cls-4" x="349.13" y="276.57" width="174.88" height="75.72"/><g><line class="cls-6" x1="398.59" y1="177.68" x2="398.59" y2="266.57"/><polygon class="cls-4" points="403.53 265.91 393.66 265.91 398.59 270.85 403.53 265.91"/></g><g><polyline class="cls-6" points="457.62 164.64 441.49 164.64 441.49 266.47"/><polygon class="cls-4" points="446.43 265.8 436.56 265.8 441.49 270.74 446.43 265.8"/></g><text class="cls-3" transform="translate(382.9 170.31)"><tspan x="0" y="0">RPC</tspan></text><text class="cls-3" transform="translate(472.09 169.79)"><tspan x="0" y="0">RPC</tspan></text><polyline class="cls-6" points="575.85 74.74 575.85 58.37 517.09 58.37"/><g><line class="cls-6" x1="575.75" y1="101.67" x2="575.75" y2="116.57"/><polygon class="cls-4" points="580.69 115.91 570.82 115.91 575.75 120.85 580.69 115.91"/></g><g><polyline class="cls-6" points="299.28 164.96 322.23 164.96 322.23 58.01 342.22 58.01"/><polygon class="cls-4" points="341.56 53.07 341.56 62.94 346.49 58.01 341.56 53.07"/></g><text class="cls-3" transform="translate(560.27 94.3)"><tspan x="0" y="0">RPC</tspan></text><text class="cls-5" transform="translate(249.75 170.7)"><tspan x="0" y="0">HTTP</tspan></text><line class="cls-7" x1="515.23" y1="164.72" x2="544.97" y2="164.72"/><line class="cls-6" x1="241.34" y1="164.96" x2="211.64" y2="164.96"/><text class="cls-2" transform="translate(390.82 63.63)"><tspan x="0" y="0">GATEWAY</tspan></text><text class="cls-2" transform="translate(370.37 320.83)"><tspan x="0" y="0">DATA STORE</tspan></text><g><text class="cls-1" transform="translate(80.78 189.3)"><tspan x="0" y="0">BROWSER</tspan></text><rect class="cls-6" x="38.79" y="112.59" width="173.27" height="119.89" rx="1.44" ry="1.44"/><line class="cls-6" x1="39.68" y1="136.64" x2="211.78" y2="136.64"/><polyline class="cls-8" points="49.59 122.08 46.01 125.79 49.9 129.09"/><rect class="cls-6" x="70.82" y="121.16" width="113.7" height="8.87"/></g><line class="cls-6" x1="396.98" y1="152.75" x2="396.98" y2="95.28"/><g><g><circle class="cls-6" cx="763.77" cy="113.13" r="13.07"/><circle class="cls-6" cx="815.28" cy="113.13" r="13.07"/><circle class="cls-6" cx="763.77" cy="163.6" r="13.07"/><circle class="cls-6" cx="815.28" cy="163.6" r="13.07"/><circle class="cls-6" cx="868.14" cy="113.13" r="13.07"/><circle class="cls-6" cx="868.14" cy="163.6" r="13.07"/><circle class="cls-6" cx="763.77" cy="214.71" r="13.07"/><circle class="cls-6" cx="815.28" cy="214.71" r="13.07"/><g><line class="cls-6" x1="776.16" y1="125.53" x2="801.83" y2="151.2"/><line class="cls-6" x1="801.83" y1="125.53" x2="791.34" y2="136.02"/><line class="cls-6" x1="786.65" y1="140.71" x2="776.16" y2="151.2"/><line class="cls-6" x1="829.02" y1="125.53" x2="854.69" y2="151.2"/><line class="cls-6" x1="854.69" y1="125.53" x2="844.2" y2="136.02"/><line class="cls-6" x1="839.51" y1="140.71" x2="829.02" y2="151.2"/><line class="cls-6" x1="776.16" y1="176.64" x2="801.83" y2="202.31"/><line class="cls-6" x1="801.83" y1="176.64" x2="791.34" y2="187.13"/><line class="cls-6" x1="786.65" y1="191.82" x2="776.16" y2="202.31"/><line class="cls-6" x1="829.02" y1="176.64" x2="854.69" y2="202.31"/><line class="cls-6" x1="854.69" y1="176.64" x2="844.2" y2="187.13"/><line class="cls-6" x1="839.51" y1="191.82" x2="829.02" y2="202.31"/></g><circle class="cls-6" cx="868.14" cy="214.71" r="13.07"/><line class="cls-6" x1="781.34" y1="112.43" x2="797.38" y2="112.43"/><line class="cls-6" x1="834.63" y1="112.43" x2="850.67" y2="112.43"/><line class="cls-6" x1="781.34" y1="163.51" x2="797.38" y2="163.51"/><line class="cls-6" x1="834.63" y1="163.51" x2="850.67" y2="163.51"/><line class="cls-6" x1="781.34" y1="214.15" x2="797.38" y2="214.15"/><line class="cls-6" x1="834.63" y1="214.15" x2="850.67" y2="214.15"/><line class="cls-6" x1="867.5" y1="195.86" x2="867.5" y2="180.88"/><line class="cls-6" x1="815.25" y1="195.86" x2="815.25" y2="180.88"/><line class="cls-6" x1="763.29" y1="195.86" x2="763.29" y2="180.88"/><line class="cls-6" x1="867.5" y1="145.21" x2="867.5" y2="130.24"/><line class="cls-6" x1="815.25" y1="145.21" x2="815.25" y2="130.24"/><line class="cls-6" x1="763.29" y1="145.21" x2="763.29" y2="130.24"/></g><rect class="cls-4" x="532.85" y="125.1" width="84.89" height="75.72"/><text class="cls-2" transform="translate(555.44 169.36)"><tspan x="0" y="0">P2P</tspan></text><polyline class="cls-6" points="622.07 141.16 707.21 141.16 707.21 78.8 868.04 78.8 868.04 94.48"/><polyline class="cls-6" points="622.07 148.5 717.21 148.5 717.21 89.84 814.84 89.84 814.84 96.05"/><polyline class="cls-6" points="622.07 155.84 727.21 155.84 727.21 112.55 744.31 112.55"/><line class="cls-6" x1="622.07" y1="163.18" x2="745.44" y2="163.18"/><polyline class="cls-6" points="622.07 170.52 727.21 170.52 727.21 214.95 745.33 214.95"/><polyline class="cls-6" points="622.07 177.87 717.21 177.87 717.21 237.16 815.35 237.16 815.35 233.51"/><polyline class="cls-6" points="622.07 185.21 707.21 185.21 707.21 249.57 868.55 249.57 868.55 233.02"/><text class="cls-1" transform="translate(743.96 284.79)"><tspan x="0" y="0">FIELD NODES</tspan></text></g></svg>
