<svg xmlns="http://www.w3.org/2000/svg" width="141" height="39" fill="none" viewBox="0 0 141 39"><path fill="#c49d9d" d="M14.42 0c-.552 0-1.002.449-1.002 1.003v9.8c0 .553.449.978 1.003.978l4.76.025c1.965 0 3.838.768 5.273 2.16 1.444 1.403 2.25 3.255 2.273 5.217a7.4 7.4 0 0 1-2.157 5.33 7.4 7.4 0 0 1-5.305 2.215h-.085c-1.962-.023-3.813-.829-5.216-2.272-1.393-1.434-2.183-3.308-2.183-5.274v-4.816c0-.552-.427-.948-.98-.948H1.003c-.553 0-1.003.394-1.003.948v9.8C0 24.72.45 25.2 1.003 25.2h7.734c1.04 0 1.71-.015 2.262.06.734.1 1.225.309 1.596.678.372.37.58.863.68 1.597.074.554.143 1.223.143 2.264v7.732c0 .553.394 1.087.948 1.087h4.9c2.2 0 4.361-.454 6.422-1.182 7.683-2.716 12.845-10.017 12.845-18.168S33.371 3.814 25.688 1.096A19.2 19.2 0 0 0 19.267 0z"/><path fill="#64748b" d="M126.003 16.465h-.036l-.814 10.408h-2.231L123.736 14h3.382l4.677 9.95 4.749-9.95h3.311l.814 12.873h-2.231l-.814-10.408h-.036l-4.783 10.408h-2.001zm-7.037 4.883q0 1.558-.478 2.674a4.65 4.65 0 0 1-1.363 1.806q-.885.708-2.16 1.045-1.257.318-2.833.318t-2.851-.318q-1.257-.337-2.143-1.045a4.65 4.65 0 0 1-1.363-1.806q-.478-1.116-.478-2.674V14h2.514v7.171q0 .797.177 1.505.178.69.655 1.222.478.53 1.311.832.849.3 2.178.301 1.328 0 2.16-.3.85-.303 1.328-.833.477-.53.655-1.222a6.2 6.2 0 0 0 .177-1.505V14h2.514zM93.13 16.16h-5.755V14h14.024v2.16h-5.755v10.713H93.13zM77.214 14h2.868l6.25 12.873h-2.655l-1.346-2.957h-7.419l-1.363 2.957h-2.674zm4.126 7.755-2.692-5.736-2.691 5.736zM53.766 14h6.197q1.523 0 2.85.354 1.347.336 2.338 1.098.99.743 1.558 1.965.584 1.205.584 2.94 0 1.646-.53 2.868a5.5 5.5 0 0 1-1.488 2.036q-.957.814-2.284 1.222-1.329.39-2.922.39h-6.303zm5.064 10.712q1.611 0 2.727-.247 1.133-.248 1.841-.78a3 3 0 0 0 1.045-1.345q.336-.814.336-1.948 0-1.186-.336-1.983a2.9 2.9 0 0 0-1.063-1.31q-.708-.495-1.841-.709-1.134-.23-2.71-.23h-2.55v8.552z"/></svg>