<?xml version="1.0" standalone="no"?>
<!DOCTYPE svg PUBLIC "-//W3C//DTD SVG 20010904//EN"
 "http://www.w3.org/TR/2001/REC-SVG-20010904/DTD/svg10.dtd">
<svg version="1.0" xmlns="http://www.w3.org/2000/svg"
 width="659.000000pt" height="163.000000pt" viewBox="0 0 659.000000 163.000000"
 preserveAspectRatio="xMidYMid meet">
<metadata>
Created by potrace 1.16, written by Peter Selinger 2001-2019
</metadata>
<g transform="translate(-53.000000,188.000000) scale(0.100000,-0.100000)"
fill="#a0a0b0" stroke="none">
<path d="M530 1415 l0 -465 60 0 60 0 0 405 0 405 360 0 360 0 0 60 0 60 -420
0 -420 0 0 -465z"/>
<path d="M5790 1610 c0 -143 -2 -260 -4 -260 -3 0 -26 13 -53 30 -74 46 -168
65 -250 52 -135 -22 -239 -100 -296 -220 -29 -61 -32 -76 -32 -162 1 -117 25
-185 92 -261 84 -93 169 -131 296 -131 66 0 88 5 145 32 37 17 75 38 84 47 17
15 18 14 18 -25 l0 -42 75 0 75 0 0 600 0 600 -75 0 -75 0 0 -260z m-125 -355
c79 -46 133 -155 119 -239 -38 -231 -332 -291 -449 -92 -71 121 -24 273 105
339 48 25 63 28 117 24 43 -3 76 -13 108 -32z"/>
<path d="M1207 1430 c-43 -11 -133 -55 -142 -70 -13 -21 -25 -9 -25 25 l0 35
-75 0 -75 0 0 -585 0 -585 75 0 75 0 0 250 0 249 44 -29 c65 -45 122 -61 206
-61 165 -1 309 99 365 254 28 76 26 203 -5 282 -32 83 -132 183 -213 213 -67
25 -175 35 -230 22z m181 -166 c100 -50 156 -158 134 -261 -19 -90 -77 -158
-164 -189 -178 -63 -364 122 -304 303 48 144 203 212 334 147z"/>
<path d="M2080 1429 c-115 -23 -216 -103 -272 -217 -30 -61 -33 -74 -33 -162
1 -117 25 -185 92 -261 84 -93 169 -131 296 -131 66 0 88 5 145 32 37 17 75
38 84 47 17 15 18 14 18 -25 l0 -42 75 0 75 0 0 375 0 375 -75 0 -75 0 0 -35
c0 -19 -2 -35 -6 -35 -3 0 -22 11 -42 25 -46 32 -152 65 -201 64 -20 -1 -56
-5 -81 -10z m191 -167 c89 -46 148 -156 133 -246 -33 -202 -268 -283 -409
-141 -121 121 -86 319 70 391 70 33 138 32 206 -4z"/>
<path d="M3783 1425 c-120 -33 -204 -102 -256 -213 -29 -61 -32 -75 -32 -167
0 -93 2 -105 33 -167 98 -200 334 -279 537 -179 56 28 135 97 135 119 0 4 -26
27 -59 49 l-58 42 -29 -30 c-144 -152 -392 -61 -411 149 -20 219 250 347 405
192 17 -16 33 -30 37 -30 11 0 115 81 115 89 0 17 -99 98 -145 120 -88 41
-182 50 -272 26z"/>
<path d="M4565 1426 c-116 -28 -213 -108 -263 -216 -34 -73 -42 -205 -17 -282
54 -170 194 -271 375 -271 178 0 319 102 375 272 26 79 18 207 -18 282 -38 78
-95 140 -164 176 -96 51 -189 63 -288 39z m202 -165 c121 -61 167 -201 106
-322 -54 -105 -167 -157 -274 -126 -107 32 -179 124 -179 232 0 110 68 200
180 236 39 13 123 3 167 -20z"/>
<path d="M6371 1420 c-148 -31 -256 -150 -284 -314 -28 -167 56 -342 201 -413
50 -25 68 -28 152 -28 83 0 103 4 154 28 58 27 146 91 146 106 0 8 -107 71
-120 71 -5 0 -31 -14 -57 -30 -57 -35 -133 -48 -186 -31 -45 15 -104 73 -128
125 -37 81 -55 76 267 76 l287 0 -7 63 c-14 125 -60 214 -147 282 -75 58 -185
84 -278 65z m166 -166 c40 -23 66 -52 92 -101 l12 -23 -201 0 -201 0 17 33
c30 59 75 96 144 118 36 11 89 1 137 -27z"/>
<path d="M2787 1088 c74 -183 142 -351 150 -373 l15 -40 -85 -210 -85 -210 80
-3 c44 -2 81 -2 82 0 8 12 466 1150 466 1158 0 6 -32 10 -78 10 l-78 0 -104
-257 c-57 -142 -106 -264 -110 -271 -4 -7 -55 107 -115 257 l-109 271 -82 0
-83 0 136 -332z"/>
<path d="M7000 815 l0 -405 -360 0 -360 0 0 -60 0 -60 420 0 420 0 0 465 0
465 -60 0 -60 0 0 -405z"/>
</g>
</svg>
