<?xml version="1.0" encoding="UTF-8"?><svg id="Layer_1" xmlns="http://www.w3.org/2000/svg" viewBox="0 0 116.13 32"><defs><style>.cls-1{fill:#ff9c96;}</style></defs><path class="cls-1" d="M38.76,25.7v-9.01c0-.38-.01-.74-.04-1.1-.03-.35-.09-.67-.19-.95-.1-.28-.24-.5-.43-.66s-.44-.24-.74-.24c-.61,0-1.13,.25-1.56,.76-.42,.5-.74,1.14-.96,1.89v9.3h-2.06V12.18h1.41l.41,1.65h.11c.18-.27,.36-.53,.53-.77,.17-.24,.37-.46,.59-.64,.23-.18,.49-.32,.8-.42,.31-.1,.69-.15,1.16-.15,.27,0,.55,.04,.84,.12,.29,.08,.55,.21,.8,.38,.24,.17,.46,.4,.64,.69,.18,.29,.3,.64,.35,1.05,.41-.7,.88-1.25,1.39-1.65,.51-.4,1.22-.59,2.12-.59,.59,0,1.08,.1,1.45,.3,.37,.2,.66,.48,.87,.85,.21,.37,.35,.81,.43,1.33,.08,.51,.12,1.09,.12,1.72v9.65h-2.06v-9.19c0-.38-.02-.73-.05-1.07-.04-.33-.1-.63-.2-.88-.1-.25-.23-.45-.41-.59-.17-.14-.4-.22-.69-.22-.63,0-1.16,.25-1.6,.76-.43,.5-.76,1.23-.97,2.16v9.03h-2.06Z"/><path class="cls-1" d="M48.19,6.77h3.92c.22,0,.4,.18,.4,.4v6.55h.14c.47-.59,1.07-1.05,1.81-1.38,.74-.32,1.54-.49,2.41-.49,3.97,0,5.95,2.29,5.95,6.87,0,2.33-.64,4.11-1.92,5.34-1.28,1.24-3.1,1.85-5.46,1.85-1.12,0-2.13-.11-3.03-.32-.9-.22-1.56-.47-1.97-.76V8.58h-2.24v-1.81Zm8.41,6.9c-1.08,0-1.96,.31-2.62,.92-.25,.23-.48,.5-.67,.8-.53,.8-.79,1.74-.79,2.7v5.32c.41,.22,.91,.39,1.49,.51,.58,.13,1.18,.19,1.81,.19,.72,0,1.37-.1,1.96-.31,.59-.21,1.09-.53,1.5-.97,.41-.44,.73-1,.96-1.69,.23-.68,.34-1.5,.34-2.43,0-.68-.07-1.33-.22-1.95-.14-.61-.37-1.15-.69-1.61-.32-.46-.73-.82-1.23-1.08-.5-.26-1.12-.39-1.84-.39Z"/><path class="cls-1" d="M77.59,24c-.32,.29-.71,.56-1.15,.81-.44,.25-.92,.47-1.45,.65-.52,.18-1.07,.32-1.64,.42-.57,.1-1.14,.15-1.72,.15-1.08,0-2.04-.17-2.87-.5-.83-.33-1.52-.81-2.08-1.43-.56-.62-.98-1.37-1.27-2.23-.29-.87-.43-1.84-.43-2.92,0-1.14,.16-2.15,.47-3.03,.32-.88,.77-1.62,1.37-2.22,.59-.59,1.32-1.05,2.16-1.37,.85-.32,1.79-.47,2.84-.47,.76,0,1.51,.1,2.24,.3,.74,.2,1.39,.57,1.96,1.12,.57,.55,1,1.31,1.31,2.27,.31,.96,.41,2.21,.32,3.75h-10.44c0,1.62,.44,2.84,1.31,3.64,.87,.8,2.04,1.2,3.49,1.2,.49,0,.97-.06,1.44-.18,.48-.12,.93-.26,1.36-.42,.43-.16,.81-.34,1.15-.54,.33-.2,.59-.38,.77-.54l.84,1.54Zm-5.69-10.36c-.59,0-1.15,.06-1.68,.19-.53,.13-1,.34-1.4,.64s-.74,.69-1,1.16c-.26,.48-.43,1.07-.5,1.77h8.38c-.09-1.19-.47-2.11-1.15-2.77-.67-.66-1.56-.99-2.65-.99Z"/><path class="cls-1" d="M79.6,25.7v-1.81h3.65V13.99h-3.65v-1.81h4.66c.23,0,.43,.16,.49,.38l.34,1.37h.14c.61-.56,1.3-1.04,2.06-1.43,.76-.4,1.66-.59,2.7-.59,.61,0,1.1,.12,1.47,.35,.37,.23,.66,.58,.87,1.03,.21,.45,.35,1,.42,1.64,.07,.64,.11,1.37,.11,2.18l-1.89,.03c0-1.14-.11-1.98-.34-2.52-.23-.54-.64-.8-1.23-.8-.56,0-1.06,.08-1.51,.24-.45,.16-.84,.36-1.18,.59-.33,.23-.62,.47-.85,.7h0c-.32,.33-.51,.77-.51,1.23v7.32h5.19v1.81h-10.93Z"/><path class="cls-1" d="M13.8,14.95c-.22-.78-.54-1.41-.96-1.87-.42-.46-.96-.78-1.6-.96-.64-.18-1.37-.27-2.2-.27-.54,0-1.05,.07-1.54,.22-.49,.14-.93,.34-1.33,.58-.4,.24-.74,.51-1.04,.81-.3,.3-.54,.6-.72,.91h-.14l-.46-1.88c-.04-.18-.21-.31-.39-.31H.42v1.76H2.44v11.76h2.08v-7.73c0-.71,.19-1.42,.58-2.01h0c.27-.42,.58-.77,.94-1.08,.36-.31,.76-.55,1.2-.74,.44-.19,.89-.28,1.36-.28,1.28,0,2.16,.38,2.64,1.13,.49,.76,.73,1.88,.73,3.37v7.34h2.14v-7.76c0-1.21-.11-2.2-.32-2.99Z"/><path class="cls-1" d="M28.5,23.94V12.18h-2.13v7.56c0,1.34-.55,2.64-1.55,3.53l-.02,.02c-.69,.61-1.5,.92-2.43,.92-.64,0-1.16-.1-1.54-.31-.38-.21-.68-.51-.87-.92-.2-.41-.33-.9-.39-1.49-.06-.59-.09-1.25-.09-1.99v-7.33h-2.14v7.76c0,1.17,.09,2.15,.27,2.93,.18,.78,.46,1.41,.84,1.88,.38,.47,.86,.8,1.44,.99,.58,.19,1.29,.28,2.12,.28,1.1,0,2.03-.24,2.8-.73,.77-.49,1.39-1.12,1.86-1.89h.11l.49,1.99c.04,.18,.21,.31,.39,.31h3.39v-1.76h-2.55Z"/><path class="cls-1" d="M109.58,6.77h-5.31c-2.23,0-4.04,1.81-4.04,4.04v10.83c0,2.23,1.81,4.04,4.04,4.04h5.31c2.23,0,4.04-1.81,4.04-4.04V10.81c0-2.23-1.81-4.04-4.04-4.04Zm2.01,15.3c0,.2-.08,.39-.22,.53l-.83,.83c-.14,.14-.33,.22-.53,.22h-6.18c-.2,0-.39-.08-.53-.22l-.83-.83c-.14-.14-.22-.33-.22-.53V10.38c0-.2,.08-.39,.22-.53l.83-.83c.14-.14,.33-.22,.53-.22h6.18c.2,0,.39,.08,.53,.22l.83,.83c.14,.14,.22,.33,.22,.53v11.69Z"/><rect class="cls-1" x="95.88" y="15.85" width="22.08" height="1.04" transform="translate(19.31 79.81) rotate(-44.61)"/></svg>