<svg fill="none" height="48" width="48" xmlns="http://www.w3.org/2000/svg"><path d="m23.429 9.008c-7.882 0-7.39 3.418-7.39 3.418l.01 3.541h7.52v1.063h-10.507s-5.043-.572-5.043 7.38c0 7.954 4.402 7.671 4.402 7.671h2.627v-3.69s-.142-4.402 4.331-4.402h7.46s4.191.068 4.191-4.05v-6.81s.637-4.12-7.6-4.12zm-4.147 2.382a1.353 1.353 0 1 1 .001 2.706 1.353 1.353 0 0 1 -.001-2.706z" fill="#3372a7"/><path d="m23.653 39.894c7.881 0 7.39-3.418 7.39-3.418l-.01-3.541h-7.52v-1.063h10.507s5.043.572 5.043-7.381-4.402-7.67-4.402-7.67h-2.627v3.69s.142 4.402-4.332 4.402h-7.46s-4.19-.068-4.19 4.05v6.81s-.637 4.12 7.6 4.12zm4.147-2.381a1.353 1.353 0 1 1 -.002-2.707 1.353 1.353 0 0 1 .002 2.706z" fill="#ffd235"/></svg>