<svg enable-background="new 0 0 512 512" height="512" viewBox="0 0 512 512" width="512" xmlns="http://www.w3.org/2000/svg"><path d="m311.531 46.662c209.789 140.375 141.76 294.632 141.76 294.632s59.588 66.121 35.635 124.045c0 0-24.723-40.463-65.76-40.463-39.672 0-63.143 40.463-143.225 40.463-178.114 0-262.545-146.357-262.545-146.357 160.513 104.071 270.182 30.322 270.182 30.322-72.473-41.207-226.19-238.561-226.19-238.561 134.003 112.183 191.831 141.637 191.831 141.637-34.772-27.988-131.677-165.172-131.677-165.172 77.545 77.128 231.684 184.673 231.684 184.673 44.2-118.847-41.695-225.219-41.695-225.219zm0 0" fill="#ff5722"/></svg>