<?xml version="1.0" encoding="UTF-8"?><svg id="Layer_1" xmlns="http://www.w3.org/2000/svg" viewBox="0 0 510 150"><defs><style>.cls-1{fill:#7c7cf7;font-family:SpaceMono-Regular, 'Space Mono';font-size:12.59px;letter-spacing:.1em;}.cls-2{stroke:#3c3c3c;}.cls-2,.cls-3{fill:none;stroke-miterlimit:10;}.cls-3{stroke:#9494f7;}.cls-4{fill:#9494f7;stroke-width:0px;}</style></defs><rect class="cls-2" x="3.84" y="67.59" width="33.43" height="55.24" rx="5.36" ry="5.36"/><circle class="cls-2" cx="20.55" cy="117.39" r="1.6"/><rect class="cls-2" x="472.81" y="67.59" width="33.43" height="55.24" rx="4.97" ry="4.97"/><circle class="cls-2" cx="489.52" cy="117.39" r="1.6"/><path class="cls-2" d="m287.6,119.33v-54.98c0-.7.57-1.27,1.27-1.27h84.39c.7,0,1.27.57,1.27,1.27v54.98"/><path class="cls-2" d="m282.06,118.9h98.02v1.11c0,1.53-1.25,2.78-2.78,2.78h-92.46c-1.53,0-2.78-1.25-2.78-2.78v-1.11h0Z"/><path class="cls-2" d="m113.69,102s0,16.66-12.04,16.66v4.17s48.14,0,48.14,0v-4.17c-12.04,0-12.04-16.66-12.04-16.66"/><rect class="cls-2" x="59.44" y="27.24" width="132.57" height="74.57"/><polyline class="cls-3" points="215.23 7.3 20.87 7.3 20.87 63.01"/><polygon class="cls-4" points="18.88 62.43 20.87 65.88 22.86 62.43 18.88 62.43"/><polyline class="cls-3" points="490.51 62.85 490.51 7.3 285.42 7.3"/><polygon class="cls-4" points="492.51 62.27 490.51 65.72 488.52 62.27 492.51 62.27"/><text class="cls-1" transform="translate(156.51 143.79)"><tspan x="0" y="0">DIRECT</tspan></text><text class="cls-1" transform="translate(221.14 11.61)"><tspan x="0" y="0">DIRECT</tspan></text><text class="cls-1" transform="translate(398.67 98.14)"><tspan x="0" y="0">RELAY</tspan></text><line class="cls-3" x1="396.37" y1="92.97" x2="379.04" y2="92.97"/><polygon class="cls-4" points="379.62 90.97 376.17 92.97 379.62 94.96 379.62 90.97"/><line class="cls-3" x1="448.97" y1="92.97" x2="468.34" y2="92.97"/><polygon class="cls-4" points="467.76 94.96 471.21 92.97 467.76 90.97 467.76 94.96"/><text class="cls-1" transform="translate(214.14 96.74)"><tspan x="0" y="0">DIRECT</tspan></text><line class="cls-3" x1="197.3" y1="92.63" x2="212" y2="92.63"/><polygon class="cls-4" points="197.88 94.62 194.43 92.63 197.88 90.63 197.88 94.62"/><line class="cls-3" x1="283.29" y1="92.63" x2="268.59" y2="92.63"/><polygon class="cls-4" points="282.71 90.63 286.16 92.63 282.71 94.62 282.71 90.63"/><polyline class="cls-3" points="154.18 139.79 20.55 139.79 20.55 127.2"/><polygon class="cls-4" points="22.55 127.78 20.55 124.33 18.56 127.78 22.55 127.78"/><polyline class="cls-3" points="331.07 127.2 331.07 139.79 210.86 139.79"/><polygon class="cls-4" points="329.08 127.78 331.07 124.33 333.06 127.78 329.08 127.78"/></svg>