<?xml version="1.0" encoding="UTF-8"?><svg xmlns="http://www.w3.org/2000/svg" viewBox="0 0 510 150"><defs><style>.cls-1{fill:#7c7cf7;font-family:SpaceMono-Regular, 'Space Mono';font-size:12.59px;letter-spacing:.1em;}.cls-2{stroke:#372c7c;}.cls-2,.cls-3{fill:none;stroke-miterlimit:10;}.cls-3{stroke:#f8f8f8;}.cls-4{fill:#282828;}.cls-4,.cls-5{stroke-width:0px;}.cls-5{fill:#372c7c;}</style></defs><g id="backgrounds"><rect class="cls-4" width="510" height="150"/></g><g id="Layer_1"><rect class="cls-3" x="3.23" y="72" width="33.43" height="55.24" rx="5.36" ry="5.36"/><circle class="cls-3" cx="19.95" cy="121.8" r="1.6"/><rect class="cls-3" x="472.2" y="72" width="33.43" height="55.24" rx="4.97" ry="4.97"/><circle class="cls-3" cx="488.92" cy="121.8" r="1.6"/><path class="cls-3" d="m287,123.74v-54.98c0-.7.57-1.27,1.27-1.27h84.39c.7,0,1.27.57,1.27,1.27v54.98"/><path class="cls-3" d="m281.45,123.3h98.02v1.11c0,1.53-1.25,2.78-2.78,2.78h-92.46c-1.53,0-2.78-1.25-2.78-2.78v-1.11h0Z"/><path class="cls-3" d="m113.08,106.41s0,16.66-12.04,16.66v4.17s48.14,0,48.14,0v-4.17c-12.04,0-12.04-16.66-12.04-16.66"/><rect class="cls-3" x="58.83" y="31.65" width="132.57" height="74.57"/><polyline class="cls-2" points="214.62 11.71 20.26 11.71 20.26 67.42"/><polygon class="cls-5" points="18.27 66.83 20.26 70.29 22.26 66.83 18.27 66.83"/><polyline class="cls-2" points="489.9 67.26 489.9 11.71 284.81 11.71"/><polygon class="cls-5" points="491.9 66.67 489.9 70.13 487.91 66.67 491.9 66.67"/><text class="cls-1" transform="translate(155.9 148.2)"><tspan x="0" y="0">DIRECT</tspan></text><text class="cls-1" transform="translate(220.53 16.02)"><tspan x="0" y="0">DIRECT</tspan></text><text class="cls-1" transform="translate(398.06 102.54)"><tspan x="0" y="0">RELAY</tspan></text><line class="cls-2" x1="395.76" y1="97.37" x2="378.43" y2="97.37"/><polygon class="cls-5" points="379.02 95.38 375.56 97.37 379.02 99.37 379.02 95.38"/><line class="cls-2" x1="448.37" y1="97.37" x2="467.74" y2="97.37"/><polygon class="cls-5" points="467.15 99.37 470.61 97.37 467.15 95.38 467.15 99.37"/><text class="cls-1" transform="translate(213.53 101.14)"><tspan x="0" y="0">DIRECT</tspan></text><line class="cls-2" x1="196.69" y1="97.03" x2="211.39" y2="97.03"/><polygon class="cls-5" points="197.28 99.03 193.82 97.03 197.28 95.04 197.28 99.03"/><line class="cls-2" x1="282.68" y1="97.03" x2="267.98" y2="97.03"/><polygon class="cls-5" points="282.1 95.04 285.55 97.03 282.1 99.03 282.1 95.04"/><polyline class="cls-2" points="153.57 144.19 19.95 144.19 19.95 131.6"/><polygon class="cls-5" points="21.94 132.19 19.95 128.73 17.95 132.19 21.94 132.19"/><polyline class="cls-2" points="330.46 131.6 330.46 144.19 210.25 144.19"/><polygon class="cls-5" points="328.47 132.19 330.46 128.73 332.46 132.19 328.47 132.19"/></g></svg>