<?xml version="1.0" encoding="UTF-8"?><svg id="Layer_2" xmlns="http://www.w3.org/2000/svg" viewBox="0 0 600 475"><defs><style>.cls-1{opacity:.1;}.cls-1,.cls-2,.cls-3,.cls-4{stroke-width:0px;}.cls-2{opacity:.2;}.cls-2,.cls-4{fill:#fff;}.cls-5{stroke-width:.63px;}.cls-5,.cls-6,.cls-7,.cls-8,.cls-9{fill:none;stroke-miterlimit:10;}.cls-5,.cls-7{stroke:#fff;}.cls-6{stroke-width:16.4px;}.cls-6,.cls-8,.cls-9{stroke:#000;}.cls-7,.cls-8{stroke-width:12.62px;}.cls-7,.cls-9{stroke-linecap:round;}.cls-9{stroke-width:6.31px;}</style></defs><path class="cls-8" d="m179.37,152.64c11.04,14.19,10.72,37.85-8.83,61.19s-49.83,36.59-92.09,56.14c-42.26,19.55-50.78,70.33-33.12,93.67,17.66,23.34,58.66,17.03,80.11-5.05"/><path class="cls-6" d="m410.55,114.48c8.83,11.98,10.09,18.92,10.09,27.12-3.15,73.8,52.36,85.79,97.14,88.31s74.43,42.26,49.2,78.85c-25.23,36.59-73.17,2.52-73.17,2.52"/><path class="cls-3" d="m515.26,270.92c-28.55-20.22-121.11-66.23-251.05-46.68-129.94,19.55-150.13,95.25-150.13,95.25,0,0-8.2,42.89,13.25,63.08s42.26,8.83,42.26,8.83c0,0,32.8-39.11,98.4-49.2s140.03,1.26,192.39,25.23c22.24,10.18,43.75-10.67,53.62-30.91,13.35-27.4,9.97-59.43,1.26-65.6Z"/><ellipse class="cls-4" cx="196.71" cy="275.96" rx="13.25" ry="20.82"/><ellipse class="cls-4" cx="358.83" cy="249.47" rx="13.25" ry="20.82"/><path class="cls-7" d="m408.03,271.55c-45.42,23.97-154.54,70.65-238.44,45.42"/><path class="cls-9" d="m398.71,45.71l-17.33-34.48s-5.2-11.21-12.78-7.4c-7.59,3.81-6.36,11.4-3.76,16.57,2.6,5.17,18.88,37.58,18.88,37.58"/><path class="cls-9" d="m388.31,24.39c-2.52-5.01-1.74-10.59,1.7-12.32s8.28-.71,11.4,5.5c3.12,6.21,20.62,41.03,25.3,50.34,4.68,9.31,9.22,34.67-12.85,45.76-22.07,11.09-36.05,6.46-46.1-13.54-10.05-20-13.15-18.44-21.1-21.36-7.94-2.92-14.68-6.01-13.67-17.75,1.01-11.74,19.99-13.5,30.2-1.79,10.2,11.71,17.81,15.67,17.81,15.67"/><path class="cls-9" d="m360.25,55.53s-6.93-13.79-9.7-19.31c-2.77-5.52-5.21-12.5,3.06-16.65s13.94,7.11,13.94,7.11"/><path class="cls-9" d="m124.07,108.06l-22.28-31.51s-7.44-9.86-.51-14.76c6.93-4.9,13.06-.25,16.4,4.48,3.34,4.73,24.28,34.35,24.28,34.35"/><path class="cls-9" d="m110.15,88.85c-3.24-4.58-8.52-6.52-11.67-4.29s-7.04,9.5-3.03,15.17c4.01,5.67,26.51,37.5,32.52,46,6.01,8.51,28.78,21.92,48.95,7.66s22.66-28.78,9.74-47.05c-12.92-18.28-10.08-20.28-8.92-28.66,1.16-8.38,1.6-15.78-9.23-20.41-10.83-4.63-21.32,11.29-15.78,25.81,5.54,14.52,5.45,23.08,5.45,23.08"/><path class="cls-9" d="m150.82,78.74s-8.91-12.6-12.47-17.65c-3.56-5.04-8.57-10.48-16.14-5.13-7.56,5.35-.28,15.64-.28,15.64"/><path class="cls-5" d="m485.77,253.99s7.73,5.25,6.78,18.18"/><path class="cls-5" d="m449.69,362.48s19.21-1.05,27.41-21.23"/><path class="cls-2" d="m188.83,247.89c23.6-11.37,62.45-22.08,101.56-24.6,39.11-2.52,42.26,3.15,0,7.57s-72.54,15.14-97.77,31.54c-25.23,16.4-38.48,25.23-43.52,19.55-5.05-5.68,23.29-26.13,39.74-34.06Z"/><path class="cls-5" d="m125.47,296.56s-1.3,20.4,5.64,33.65"/><path class="cls-5" d="m180.63,379.09s-11.98,1.26-25.86-9.46"/><ellipse class="cls-1" cx="312.25" cy="453.41" rx="139.93" ry="13.2"/></svg>