<?xml version="1.0" encoding="UTF-8"?><svg id="Layer_2" xmlns="http://www.w3.org/2000/svg" xmlns:xlink="http://www.w3.org/1999/xlink" viewBox="0 0 600 475"><defs><style>.cls-1{stroke-linecap:round;}.cls-1,.cls-2{stroke-width:3px;}.cls-1,.cls-2,.cls-3,.cls-4,.cls-5,.cls-6,.cls-7,.cls-8,.cls-9{fill:none;}.cls-1,.cls-2,.cls-3,.cls-4,.cls-6,.cls-7,.cls-8,.cls-9{stroke:#000;}.cls-1,.cls-2,.cls-3,.cls-6,.cls-7,.cls-8,.cls-9{stroke-miterlimit:10;}.cls-3{stroke-dasharray:0 0 12.13 12.13;}.cls-4{stroke-linejoin:bevel;}.cls-10{clip-path:url(#clippath);}.cls-5,.cls-11,.cls-12{stroke-width:0px;}.cls-11{opacity:.1;}.cls-6{stroke-width:.94px;}.cls-7{stroke-width:2px;}.cls-8{stroke-width:4px;}</style><clipPath id="clippath"><polygon class="cls-5" points="2.59 32.84 7.59 35.84 46.59 137.84 75.59 140.84 106.59 105.84 119.59 96.84 172.59 88.84 11.59 33.84 2.59 32.84"/></clipPath></defs><polygon class="cls-4" points="2.59 32.84 7.59 35.84 46.59 137.84 75.59 140.84 106.59 105.84 111.59 134.84 119.59 96.84 172.59 88.84 11.59 33.84 2.59 32.84"/><polyline class="cls-9" points="119.59 96.84 12.04 34.11 11.59 33.84 2.59 32.84 10.59 34.84 106.59 105.84"/><ellipse class="cls-12" cx="41.55" cy="75.47" rx="6.02" ry="12.32" transform="translate(-38.16 42.77) rotate(-38.86)"/><path class="cls-6" d="m48.59,108.84s26.89-1.15,43-14"/><path class="cls-6" d="m101.36,86.37s6.23-5.53,8.23-12.53"/><polygon class="cls-9" points="46.59 137.84 63.09 121.34 75.59 140.84 46.59 137.84"/><g class="cls-10"><ellipse class="cls-12" cx="77.74" cy="59.82" rx="5.95" ry="10.5" transform="translate(-18.19 80.28) rotate(-49.62)"/></g><polygon class="cls-11" points="106.59 105.84 10.59 34.84 2.59 32.84 11.59 33.84 12.04 34.11 119.59 96.84 111.59 134.84 106.59 105.84"/><polygon class="cls-9" points="349.85 3.13 335.1 130.13 317.1 138.13 294.6 115.63 283.6 130.63 270.6 112.63 231.6 118.63 349.85 3.13"/><polyline class="cls-9" points="294.6 115.63 349.85 3.63 270.6 112.63"/><polyline class="cls-9" points="317.1 138.13 320.44 123.71 335.1 130.13"/><ellipse class="cls-12" cx="329.38" cy="66.5" rx="10.36" ry="5.87" transform="translate(180.94 367.96) rotate(-75.2)"/><ellipse class="cls-12" cx="300.79" cy="62.05" rx="11.11" ry="4.97" transform="translate(74.73 269.95) rotate(-54.26)"/><path class="cls-9" d="m331.6,96.63s-12.84,6.33-27.92,1.66"/><path class="cls-9" d="m284.48,92.65s-4.88-1.02-9.88-8.02"/><path class="cls-9" d="m279.6,135.63c-1.49,1.43-3.03,2.7-4.62,3.82"/><path class="cls-3" d="m264.19,144.9c-25.63,8.83-60.11-2.29-94.6,29.73-35.25,32.73-32.3,84.96-15,114,27.38,41.99,83.92,52.31,93.58,91.06"/><path class="cls-9" d="m249.26,385.65c.22,1.93.34,3.92.34,5.98"/><path class="cls-12" d="m299.56,376.09c-.14-1.97-.21-4.09-.21-6.29,0-1.86.05-3.8.15-5.76l1,.05c-.1,1.95-.15,3.87-.15,5.71,0,2.18.07,4.27.2,6.22l-1,.07Zm2.07-23.91l-.99-.13c.53-3.89,1.23-7.88,2.08-11.86l.98.21c-.84,3.96-1.54,7.92-2.06,11.79Zm4.96-23.4l-.96-.27c1.08-3.81,2.32-7.66,3.67-11.46l.94.33c-1.34,3.77-2.57,7.61-3.65,11.4Zm8.01-22.54l-.92-.39c1.56-3.66,3.26-7.33,5.05-10.92l.89.45c-1.78,3.57-3.47,7.22-5.02,10.86Zm10.68-21.41l-.87-.5c1.97-3.44,4.08-6.89,6.27-10.26l.84.54c-2.18,3.35-4.28,6.78-6.24,10.21Zm13.04-20.06l-.81-.59c2.34-3.2,4.81-6.4,7.34-9.52l.78.63c-2.52,3.1-4.98,6.29-7.31,9.48Zm15.1-18.57l-.74-.67c2.65-2.94,5.43-5.88,8.26-8.73l.71.7c-2.82,2.84-5.59,5.77-8.23,8.69Zm16.86-16.99l-.68-.74c2.92-2.68,5.96-5.34,9.03-7.93l.64.77c-3.06,2.57-6.09,5.23-9,7.9Zm18.33-15.4l-.61-.79c3.13-2.41,6.39-4.81,9.66-7.14l.58.82c-3.27,2.31-6.51,4.71-9.63,7.11Zm157.66-10.55c-2.26-3.33-4.75-6.47-7.41-9.32l.73-.68c2.69,2.9,5.22,6.07,7.51,9.44l-.83.56Zm-138.12-3.29l-.55-.84c3.31-2.16,6.73-4.3,10.18-6.38l.52.86c-3.44,2.07-6.85,4.21-10.15,6.36Zm20.55-12.28l-.47-.88c3.61-1.92,7.25-3.7,10.81-5.29l.41.91c-3.54,1.58-7.15,3.35-10.75,5.25Zm101.37-1.77c-3.15-2.43-6.52-4.58-10.01-6.42l.46-.89c3.54,1.86,6.96,4.05,10.16,6.51l-.61.79Zm-79.52-7.93l-.33-.94c3.88-1.37,7.75-2.54,11.53-3.48l.24.97c-3.74.94-7.59,2.1-11.44,3.46Zm58.53-3.07c-3.72-1.19-7.62-2.09-11.6-2.67l.14-.99c4.03.59,7.98,1.5,11.76,2.7l-.3.95Zm-35.38-2.65l-.13-.99c4.07-.55,8.11-.83,12.02-.85v1c-3.86.02-7.87.3-11.89.84Z"/><path class="cls-2" d="m264.6,393.63c-5-7-27-24-52-37-21.53-11.19-41.57-20.16-54.39-20.52-2.99-.08-5.23-2.74-4.67-5.68,2.42-12.62,10.73-43.11,38.06-78.8,36-47,57-67,57-67,0,0,18-4,38-3,0,0,7.98,5.91,19.6,14.25"/><path class="cls-2" d="m359.54,232.56c8.49,5.46,16.27,10.17,22.34,13.34,2.78,1.45,3.44,5.13,1.33,7.45-8.95,9.84-30.28,34.28-51.61,66.27-28,42-39,71-39,71"/><path class="cls-2" d="m284.38,183.95l-18.65,19.5c-.6.63-1.62.58-2.16-.1l-13.5-16.87c-.68-.85-.22-2.11.85-2.31,5.11-.95,18.01-3.01,32.45-2.66,1.25.03,1.87,1.53,1.01,2.44Z"/><path class="cls-9" d="m161.6,305.63s82,14,134,76"/><path class="cls-2" d="m317.42,343.19l70.83,22.43c2.31.73,2.56,3.91.39,4.99l-176.96,88.48c-.69.34-1.49.38-2.2.1l-132-52.23c-2.21-.87-2.29-3.97-.13-4.97l117.35-53.91"/><path class="cls-2" d="m235.91,198.81l-2.17-14.53c-.6-4.05-4.64-6.63-8.57-5.5l-178.91,51.76c-6.02,1.74-9.68,7.82-8.41,13.96l34.1,164.03c.34,1.65,2.05,2.63,3.64,2.1h0"/><path class="cls-12" d="m104.6,256.63c6.76-2.7,11,5,12,15s-1,14-5,16-10-4-12-11,0-18,5-20Z"/><path class="cls-12" d="m211.6,223.63s-1.5-3.5-9.5-1.5-5.5,12.5-4.5,20.5"/><path class="cls-12" d="m152.34,332.08s-19.74,7.55-36.74,13.55-24-4-26-11,8.5-15.5,13.5-11.5,10.5,3.5,10.5,3.5c6-3,45.5-15.5,45.5-15.5l-6.76,20.95Z"/><path class="cls-12" d="m312.6,265.63c5.77,4.33-1,14-4,18s-10,11-15,8-2-13,3-19,12-10,16-7Z"/><path class="cls-12" d="m258.6,228.63c4.53,4.53-1,15-5,19s-10,14-16,8,3-16,6-20,11-11,15-7Z"/><path class="cls-1" d="m216.6,268.63c2,6,8,21,27,35s41,22,60,20"/><path class="cls-8" d="m375.77,242.67c4.83-1.04,16.83-20.04,14.83-39.04s-16-28-33-32-36-2-47,15-13,30-13,38-1,15,7,18,10.05-.9,10.05-.9"/><path class="cls-8" d="m314.6,228.63v20s2,8,12,8,12.33-7.14,12.33-7.14"/><path class="cls-8" d="m336.6,237.63c1,5,2,21,12,19s11-8,10-12,1-18,9-22"/><path class="cls-2" d="m390.15,368.23v3.08c0,1.79-1,3.43-2.6,4.25l-175.05,90.1c-1.21.62-2.62.69-3.88.21l-128.46-49.26c-1.58-.61-2.72-2-3-3.67l-1.55-9.31"/><path class="cls-12" d="m347.67,353.21c11.46-19.68,35.46-38.82,60.71-58.97,31.18-24.88,66.53-53.08,69.3-78.31,1.89-17.22-2.68-32.12-13.59-44.29-13.71-15.3-32.52-21-41.15-21-18.6,0-35.83,14.5-44.94,26.91-3.27,4.45-9.52,5.42-13.98,2.15-4.45-3.27-5.42-9.52-2.15-13.98,12.44-16.96,35.01-35.09,61.06-35.09,15.06,0,39.02,8.65,56.04,27.65,14.65,16.35,21.08,37.04,18.58,59.82-3.68,33.5-40.8,63.12-76.71,91.76-20.99,16.75-42.58,33.97-53.34,49.4-.42-.23-21.15-3.82-19.84-6.07Z"/><path class="cls-7" d="m299.27,378.01c12.07.29,20.18,1.92,20.18,4.49,0,3.87-18.29,8.4-40.85,10.13-22.56,1.73-40.85,0-40.85-3.87,0-2.15,5.65-4.5,14.54-6.47"/><path class="cls-11" d="m252.29,382.29c-8.89,1.97-14.54,4.32-14.54,6.47,0,3.87,18.29,5.6,40.85,3.87,22.56-1.73,40.85-6.27,40.85-10.13,0-2.57-8.1-4.2-20.18-4.49l-5.46,9.23-34.64.38-6.88-5.32Z"/><polyline class="cls-7" points="204.24 351.1 92.6 402.63 165.6 430.63 245.97 391.71"/><polyline class="cls-7" points="306.44 362.42 324.6 353.63 312.37 349.93"/><path class="cls-11" d="m387.54,371.05l-178.07,88.14-129.13-51.25-10.16-3.76c-20.71,6.02-12.89,15.44-12.89,15.44l18.07,6.4,130.79,49.72c3.72,1.41,7.88,1.12,11.36-.82l167.31-93.72c4.3-2.24,6.85-6.82,6.5-11.65l-3.76,1.51Z"/><path class="cls-11" d="m176.03,378.39s53.95,7.64,69.48,12.26c0,0,9.24,3.22,3.99-4.59-5.25-7.81-73.48-7.67-73.48-7.67Z"/><polygon class="cls-11" points="283.6 130.63 349.85 3.63 276.86 120.69 283.6 130.63"/><line class="cls-9" x1="349.85" y1="3.63" x2="283.6" y2="130.63"/><path class="cls-11" d="m377.94,242.1s-16.71-8.14-11.11-19.2c2.98-5.89-8-.66-10.82,3.86s-8.56,23.06-5.55,27.95,12.05,2.26,13.55-3.95,10.73-8.66,13.93-8.66Z"/><path class="cls-11" d="m313.38,231.28s-8.47,8.47-13.55,6.49c-5.08-1.98,3.39,12.71,14.68,10.45l-1.13-16.94Z"/><path class="cls-11" d="m335.12,239.19s-.28,16.38-14.4,17.79c0,0,9.32,4.24,22.02.85l-7.62-18.64Z"/><path class="cls-11" d="m388.67,216.69s-11.29,19.76-17.69,22.59l4.79,3.39s11.4-7.15,12.9-25.98Z"/><line class="cls-9" x1="548.4" y1="215.58" x2="550.67" y2="221.15"/><polygon class="cls-9" points="597.4 192.58 565.4 216.58 548.4 215.58 552.4 221.58 528.4 221.58 521.4 231.58 584.4 322.58 597.4 192.58"/><polygon class="cls-9" points="552.4 221.58 584.4 322.58 565.4 216.58 548.4 215.58 552.4 221.58"/><polyline class="cls-9" points="528.4 221.58 533.4 228.58 521.4 231.58"/><ellipse class="cls-12" cx="582.4" cy="257.58" rx="4" ry="8"/><ellipse class="cls-12" cx="557.4" cy="263.58" rx="4" ry="8" transform="translate(-59.02 249.86) rotate(-24.03)"/><path class="cls-9" d="m588.4,232.58s-6.94-2.7-20,1"/><path class="cls-9" d="m556.88,237.24s-6.48,1.34-12.48,9.34"/><polygon class="cls-11" points="565.4 216.58 553.12 224.72 584.4 322.58 565.4 216.58"/><path class="cls-12" d="m221.5,214.52c-2.27-3.01-4.91-6.03-7.85-8.97l.71-.71c2.98,2.97,5.65,6.02,7.94,9.07l-.8.6Zm-16.75-16.94c-2.91-2.36-6.13-4.77-9.58-7.17l.57-.82c3.47,2.41,6.71,4.84,9.64,7.21l-.63.78Zm-19.6-13.73c-3.16-1.96-6.53-3.97-10.31-6.14l.5-.87c3.79,2.18,7.17,4.19,10.34,6.15l-.53.85Zm-20.78-12c-2.38-1.31-4.75-2.6-7.1-3.88l-3.44-1.88.48-.88,3.44,1.88c2.34,1.28,4.72,2.57,7.1,3.88l-.48.88Zm-21.05-11.57c-3.99-2.26-7.38-4.27-10.35-6.13l.53-.85c2.96,1.85,6.33,3.85,10.31,6.11l-.49.87Zm-20.29-12.95c-3.69-2.83-6.6-5.5-8.89-8.18l.76-.65c2.25,2.62,5.11,5.25,8.74,8.04l-.61.79Z"/></svg>