<?xml version="1.0" encoding="UTF-8"?>
<svg id="Layer_1" xmlns="http://www.w3.org/2000/svg" viewBox="0 0 123.04 44.8">
  <defs>
    <style>.cls-1{fill:none;stroke:#f8f9fa;stroke-miterlimit:10;stroke-width:1px;}.cls-2{fill:#f8f9fa;stroke-width:0px;}</style>
  </defs>
  <rect class="cls-1" x=".5" y=".5" width="122.04" height="43.81" />
  <line class="cls-1" x1="104.95" y1="20.26" x2="104.95" y2="35.77" />
  <line class="cls-1" x1="102.16" y1="20.26" x2="102.16" y2="35.77" />
  <line class="cls-1" x1="99.36" y1="20.26" x2="99.36" y2="35.77" />
  <line class="cls-1" x1="96.56" y1="20.26" x2="96.56" y2="35.77" />
  <line class="cls-1" x1="93.76" y1="20.26" x2="93.76" y2="35.77" />
  <line class="cls-1" x1="90.96" y1="20.26" x2="90.96" y2="35.77" />
  <line class="cls-1" x1="88.16" y1="20.26" x2="88.16" y2="35.77" />
  <path class="cls-1"
    d="m113.53,7.16c1.2,0,2.17.97,2.17,2.17v2.07c.59-.58.96-1.39.96-2.29,0-1.77-1.42-3.2-3.17-3.2s-3.17,1.43-3.17,3.2c0,.94.41,1.78,1.05,2.36v-2.15c0-1.2.97-2.17,2.17-2.17Z" />
  <path class="cls-1"
    d="m115.7,32.11v2.1c0,1.2-.97,2.17-2.17,2.17s-2.17-.97-2.17-2.17v-2.18c-.64.59-1.05,1.42-1.05,2.36,0,1.77,1.42,3.2,3.17,3.2s3.17-1.43,3.17-3.2c0-.9-.37-1.7-.96-2.29Z" />
  <path class="cls-2"
    d="m113.53,8.16c.65,0,1.17.53,1.17,1.17v24.88c0,.65-.53,1.17-1.17,1.17s-1.17-.53-1.17-1.17V9.33c0-.65.53-1.17,1.17-1.17m0-1c-1.2,0-2.17.97-2.17,2.17v24.88c0,1.2.97,2.17,2.17,2.17s2.17-.97,2.17-2.17V9.33c0-1.2-.97-2.17-2.17-2.17h0Z" />
  <path class="cls-1"
    d="m10.23,7.16c1.2,0,2.17.97,2.17,2.17v2.07c.59-.58.96-1.39.96-2.29,0-1.77-1.42-3.2-3.17-3.2s-3.17,1.43-3.17,3.2c0,.94.41,1.78,1.05,2.36v-2.15c0-1.2.97-2.17,2.17-2.17Z" />
  <path class="cls-1"
    d="m12.4,32.11v2.1c0,1.2-.97,2.17-2.17,2.17s-2.17-.97-2.17-2.17v-2.18c-.64.59-1.05,1.42-1.05,2.36,0,1.77,1.42,3.2,3.17,3.2s3.17-1.43,3.17-3.2c0-.9-.37-1.7-.96-2.29Z" />
  <path class="cls-2"
    d="m10.23,8.16c.65,0,1.17.53,1.17,1.17v24.88c0,.65-.53,1.17-1.17,1.17s-1.17-.53-1.17-1.17V9.33c0-.65.53-1.17,1.17-1.17m0-1c-1.2,0-2.17.97-2.17,2.17v24.88c0,1.2.97,2.17,2.17,2.17s2.17-.97,2.17-2.17V9.33c0-1.2-.97-2.17-2.17-2.17h0Z" />
  <ellipse class="cls-1" cx="93.32" cy="8.96" rx="1.54" ry="1.55" />
  <ellipse class="cls-1" cx="98.38" cy="8.96" rx="1.54" ry="1.55" />
  <ellipse class="cls-1" cx="103.43" cy="8.96" rx="1.54" ry="1.55" />
</svg>