<?xml version="1.0" encoding="UTF-8"?>
<svg id="uuid-d974457b-f613-4d62-a247-65440a5f9363" data-name="Layer 2" xmlns="http://www.w3.org/2000/svg" width="1600" height="900" xmlns:xlink="http://www.w3.org/1999/xlink" viewBox="0 0 1600 900">
  <defs>
    <style>
      .uuid-2d576aeb-d8b0-47ec-a70a-b35a6af14196, .uuid-93357143-97b7-4b1b-b7d8-cb66237bd48a {
        stroke-width: 3px;
      }

      .uuid-2d576aeb-d8b0-47ec-a70a-b35a6af14196, .uuid-93357143-97b7-4b1b-b7d8-cb66237bd48a, .uuid-b29f4886-7e4e-4b43-b1bf-6b9a6fda6f5b, .uuid-4c5a4d50-2941-4d2a-b642-4d8eb6d0c55b, .uuid-59c27a42-fdcd-486a-b59c-117a8cacbeb9, .uuid-f978fad5-4f07-49ac-bdf0-cc77f12b00d7, .uuid-7b572239-056d-4efc-81ba-f4bc3871980d, .uuid-ff93afff-643a-4857-ab80-f5ef193f1938, .uuid-66568901-2b9f-4788-9264-8f586722ebb4, .uuid-5fb4fb0d-5403-405b-9742-25c42835897f, .uuid-60347a47-7c96-488e-b784-d0563947cff6, .uuid-a27d4b48-4ff0-428c-a6a2-1c9874c6a8e5, .uuid-e4447275-a478-4b6b-9d02-369ab3120029 {
        stroke: #000;
      }

      .uuid-2d576aeb-d8b0-47ec-a70a-b35a6af14196, .uuid-93357143-97b7-4b1b-b7d8-cb66237bd48a, .uuid-b29f4886-7e4e-4b43-b1bf-6b9a6fda6f5b, .uuid-4c5a4d50-2941-4d2a-b642-4d8eb6d0c55b, .uuid-f978fad5-4f07-49ac-bdf0-cc77f12b00d7, .uuid-7b572239-056d-4efc-81ba-f4bc3871980d, .uuid-ff93afff-643a-4857-ab80-f5ef193f1938, .uuid-66568901-2b9f-4788-9264-8f586722ebb4, .uuid-5fb4fb0d-5403-405b-9742-25c42835897f, .uuid-60347a47-7c96-488e-b784-d0563947cff6, .uuid-a27d4b48-4ff0-428c-a6a2-1c9874c6a8e5, .uuid-e4447275-a478-4b6b-9d02-369ab3120029 {
        stroke-miterlimit: 10;
      }

      .uuid-2d576aeb-d8b0-47ec-a70a-b35a6af14196, .uuid-93357143-97b7-4b1b-b7d8-cb66237bd48a, .uuid-4c5a4d50-2941-4d2a-b642-4d8eb6d0c55b, .uuid-59c27a42-fdcd-486a-b59c-117a8cacbeb9, .uuid-a5310e09-6301-497a-9a42-caecfbe44b6f, .uuid-f978fad5-4f07-49ac-bdf0-cc77f12b00d7, .uuid-66568901-2b9f-4788-9264-8f586722ebb4, .uuid-5fb4fb0d-5403-405b-9742-25c42835897f, .uuid-60347a47-7c96-488e-b784-d0563947cff6, .uuid-a27d4b48-4ff0-428c-a6a2-1c9874c6a8e5, .uuid-e4447275-a478-4b6b-9d02-369ab3120029 {
        fill: none;
      }

      .uuid-2d576aeb-d8b0-47ec-a70a-b35a6af14196, .uuid-a27d4b48-4ff0-428c-a6a2-1c9874c6a8e5, .uuid-e4447275-a478-4b6b-9d02-369ab3120029 {
        stroke-linecap: round;
      }

      .uuid-b29f4886-7e4e-4b43-b1bf-6b9a6fda6f5b {
        fill: #4f4f4f;
      }

      .uuid-b29f4886-7e4e-4b43-b1bf-6b9a6fda6f5b, .uuid-7b572239-056d-4efc-81ba-f4bc3871980d {
        stroke-width: 5px;
      }

      .uuid-4c5a4d50-2941-4d2a-b642-4d8eb6d0c55b {
        stroke-dasharray: 0 0 12.13 12.13;
      }

      .uuid-59c27a42-fdcd-486a-b59c-117a8cacbeb9 {
        stroke-linejoin: bevel;
      }

      .uuid-a5310e09-6301-497a-9a42-caecfbe44b6f, .uuid-723e1015-222c-4d4a-bf2d-3c3ad73fd292, .uuid-f9a97ed6-9d1e-4803-91c4-fe2ff308e75f {
        stroke-width: 0px;
      }

      .uuid-723e1015-222c-4d4a-bf2d-3c3ad73fd292 {
        opacity: .1;
      }

      .uuid-f978fad5-4f07-49ac-bdf0-cc77f12b00d7 {
        stroke-width: .94px;
      }

      .uuid-ff93afff-643a-4857-ab80-f5ef193f1938 {
        fill: #fff;
      }

      .uuid-66568901-2b9f-4788-9264-8f586722ebb4 {
        stroke-width: 2px;
      }

      .uuid-5fb4fb0d-5403-405b-9742-25c42835897f {
        stroke-width: 4px;
      }

      .uuid-73df0e69-e909-4766-8671-e8d76943f374 {
        clip-path: url(#uuid-2340b7de-8c88-4820-8292-ea4474f71333);
      }

      .uuid-a27d4b48-4ff0-428c-a6a2-1c9874c6a8e5 {
        stroke-width: 20px;
      }

      .uuid-e4447275-a478-4b6b-9d02-369ab3120029 {
        stroke-width: 10px;
      }

      .uuid-75e58801-1b45-440c-a9b3-bb7e4d0ac833 {
        clip-path: url(#uuid-21ca5036-6673-4c31-9ac8-4d888d3485d9);
      }

      .uuid-d9955b84-d6ed-4ebd-8b55-c848ce220bb8 {
        clip-path: url(#uuid-19b70a9f-f72e-4793-87a0-a6cd0c940a59);
      }
    </style>
    <clipPath id="uuid-21ca5036-6673-4c31-9ac8-4d888d3485d9">
      <path class="uuid-a5310e09-6301-497a-9a42-caecfbe44b6f" d="m644.5,582.5s145-37,185-48,47-53,49-82,26-58,49-64,210-61,210-61c0,0,20,5,30,34s2,49-7,52-137,45-162,53-42,26-43,65-24,83-60,94-193,50-219,56-40-13-46-37-3-55,14-62Z"/>
    </clipPath>
    <clipPath id="uuid-19b70a9f-f72e-4793-87a0-a6cd0c940a59">
      <polygon class="uuid-a5310e09-6301-497a-9a42-caecfbe44b6f" points="1188.5 125.5 1317.5 146.5 1260.5 99.5 1237.5 95.5 1233.5 105.5 1224.5 101.5 1193.5 111.5 1188.5 125.5"/>
    </clipPath>
    <clipPath id="uuid-2340b7de-8c88-4820-8292-ea4474f71333">
      <polygon class="uuid-a5310e09-6301-497a-9a42-caecfbe44b6f" points="584.5 673.5 579.5 676.5 540.5 778.5 511.5 781.5 480.5 746.5 467.5 737.5 414.5 729.5 575.5 674.5 584.5 673.5"/>
    </clipPath>
  </defs>
  <path class="uuid-723e1015-222c-4d4a-bf2d-3c3ad73fd292" d="m1160.5,413.5s-230.5,57.5-260.5,111.5-248,125-268.75,128.34c-13.04,2.1-15.71,11.29-13.91,18.83-14.04,1.83-28.55,3.37-38.06,4.15-.27,1.59-5.35,14.86-5.43,15.04,1.74.59,3.71,1.05,5.92,1.33,9.11,1.16,32.28-2.16,52.63-5.67,9.76,5.63,25.96,12.37,54.61,5.99,39.07-8.71,156-36,229-61,30.52-10.51,54-49,54-85s4.52-63.01,34-73c40-12,141-46,149-49s7.5-11.5,7.5-11.5Z"/>
  <polygon class="uuid-60347a47-7c96-488e-b784-d0563947cff6" points="364.75 225 350 352 332 360 309.5 337.5 298.5 352.5 285.5 334.5 246.5 340.5 364.75 225"/>
  <polyline class="uuid-60347a47-7c96-488e-b784-d0563947cff6" points="309.5 337.5 364.75 225.5 285.5 334.5"/>
  <polyline class="uuid-60347a47-7c96-488e-b784-d0563947cff6" points="332 360 335.34 345.57 350 352"/>
  <ellipse class="uuid-f9a97ed6-9d1e-4803-91c4-fe2ff308e75f" cx="344.28" cy="288.37" rx="10.36" ry="5.87" transform="translate(-22.47 547.56) rotate(-75.2)"/>
  <ellipse class="uuid-f9a97ed6-9d1e-4803-91c4-fe2ff308e75f" cx="315.69" cy="283.92" rx="11.11" ry="4.97" transform="translate(-99.15 374.32) rotate(-54.26)"/>
  <path class="uuid-60347a47-7c96-488e-b784-d0563947cff6" d="m346.5,318.5s-12.84,6.33-27.92,1.66"/>
  <path class="uuid-60347a47-7c96-488e-b784-d0563947cff6" d="m299.38,314.52s-4.88-1.02-9.88-8.02"/>
  <g>
    <path class="uuid-60347a47-7c96-488e-b784-d0563947cff6" d="m294.5,357.5c-1.49,1.43-3.03,2.7-4.62,3.82"/>
    <path class="uuid-4c5a4d50-2941-4d2a-b642-4d8eb6d0c55b" d="m279.1,366.77c-25.63,8.83-60.11-2.29-94.6,29.73-35.25,32.73-32.3,84.96-15,114,27.38,41.99,83.92,52.31,93.58,91.06"/>
    <path class="uuid-60347a47-7c96-488e-b784-d0563947cff6" d="m264.16,607.52c.22,1.93.34,3.92.34,5.98"/>
  </g>
  <polygon class="uuid-59c27a42-fdcd-486a-b59c-117a8cacbeb9" points="584.5 673.5 579.5 676.5 540.5 778.5 511.5 781.5 480.5 746.5 475.5 775.5 467.5 737.5 414.5 729.5 575.5 674.5 584.5 673.5"/>
  <polyline class="uuid-60347a47-7c96-488e-b784-d0563947cff6" points="467.5 737.5 575.05 674.76 575.5 674.5 584.5 673.5 576.5 675.5 480.5 746.5"/>
  <line class="uuid-60347a47-7c96-488e-b784-d0563947cff6" x1="475.5" y1="775.5" x2="492.32" y2="760.07"/>
  <line class="uuid-60347a47-7c96-488e-b784-d0563947cff6" x1="564.5" y1="418.5" x2="566.77" y2="424.07"/>
  <ellipse class="uuid-f9a97ed6-9d1e-4803-91c4-fe2ff308e75f" cx="545.54" cy="716.13" rx="12.32" ry="6.02" transform="translate(-354.38 691.64) rotate(-51.14)"/>
  <path class="uuid-f978fad5-4f07-49ac-bdf0-cc77f12b00d7" d="m538.5,749.5s-26.89-1.15-43-14"/>
  <path class="uuid-f978fad5-4f07-49ac-bdf0-cc77f12b00d7" d="m485.73,727.03s-6.23-5.53-8.23-12.53"/>
  <path class="uuid-f9a97ed6-9d1e-4803-91c4-fe2ff308e75f" d="m314.46,597.96c-.14-1.97-.21-4.09-.21-6.29,0-1.86.05-3.8.15-5.76l1,.05c-.1,1.95-.15,3.87-.15,5.71,0,2.18.07,4.27.2,6.22l-1,.07Zm2.07-23.91l-.99-.13c.53-3.89,1.23-7.88,2.08-11.86l.98.21c-.84,3.96-1.54,7.92-2.06,11.79Zm4.96-23.4l-.96-.27c1.08-3.81,2.32-7.66,3.67-11.46l.94.33c-1.34,3.77-2.57,7.61-3.65,11.4Zm8.01-22.54l-.92-.39c1.56-3.66,3.26-7.33,5.05-10.92l.89.45c-1.78,3.57-3.47,7.22-5.02,10.86Zm10.68-21.41l-.87-.5c1.97-3.44,4.08-6.89,6.27-10.26l.84.54c-2.18,3.35-4.28,6.78-6.24,10.21Zm13.04-20.06l-.81-.59c2.34-3.2,4.81-6.4,7.34-9.52l.78.63c-2.52,3.1-4.98,6.29-7.31,9.48Zm15.1-18.57l-.74-.67c2.65-2.94,5.43-5.88,8.26-8.73l.71.7c-2.82,2.84-5.59,5.77-8.23,8.69Zm16.86-16.99l-.68-.74c2.92-2.68,5.96-5.34,9.03-7.93l.64.77c-3.06,2.57-6.09,5.23-9,7.9Zm18.33-15.4l-.61-.79c3.13-2.41,6.39-4.81,9.66-7.14l.58.82c-3.27,2.31-6.51,4.71-9.63,7.11Zm157.66-10.55c-2.26-3.33-4.75-6.47-7.41-9.32l.73-.68c2.69,2.9,5.22,6.07,7.51,9.44l-.83.56Zm-138.12-3.29l-.55-.84c3.31-2.16,6.73-4.3,10.18-6.38l.52.86c-3.44,2.07-6.85,4.21-10.15,6.36Zm20.55-12.28l-.47-.88c3.61-1.92,7.25-3.7,10.81-5.29l.41.91c-3.54,1.58-7.15,3.35-10.75,5.25Zm101.37-1.77c-3.15-2.43-6.52-4.58-10.01-6.42l.46-.89c3.54,1.86,6.96,4.05,10.16,6.51l-.61.79Zm-79.52-7.93l-.33-.94c3.88-1.37,7.75-2.54,11.53-3.48l.24.97c-3.74.94-7.59,2.1-11.44,3.46Zm58.53-3.07c-3.72-1.19-7.62-2.09-11.6-2.67l.14-.99c4.03.59,7.98,1.5,11.76,2.7l-.3.95Zm-35.38-2.65l-.13-.99c4.07-.55,8.11-.83,12.02-.85v1c-3.86.02-7.87.3-11.89.84Z"/>
  <path class="uuid-f9a97ed6-9d1e-4803-91c4-fe2ff308e75f" d="m410.93,799.59l-.05-1c3.86-.19,7.85-.68,11.83-1.44l.19.98c-4.03.77-8.06,1.27-11.97,1.46Zm-12.06-.35c-4.03-.44-8.01-1.23-11.84-2.35l.28-.96c3.77,1.1,7.7,1.87,11.67,2.31l-.11.99Zm35.71-4.11l-.31-.95c3.71-1.19,7.46-2.62,11.16-4.26l.4.91c-3.73,1.65-7.52,3.1-11.26,4.3Zm-58.81-2.6c-3.54-1.74-7.02-3.83-10.35-6.2l.58-.81c3.28,2.34,6.72,4.4,10.21,6.12l-.44.9Zm80.84-7.11l-.49-.87c6.27-3.54,10.03-6.41,10.07-6.44l.61.79s-3.85,2.94-10.18,6.52Zm-100.48-6.78c-2.96-2.82-5.68-5.83-8.09-8.94l.79-.61c2.38,3.08,5.07,6.05,7.99,8.83l-.69.72Zm-14.67-19.06c-1.91-3.57-3.51-7.31-4.74-11.1l.95-.31c1.21,3.74,2.79,7.42,4.67,10.94l-.88.47Zm-7.4-22.88c-.37-2.81-.56-5.68-.56-8.51,0-1.18.03-2.38.1-3.55l1,.05c-.06,1.16-.09,2.34-.09,3.5,0,2.79.18,5.61.55,8.38l-.99.13Zm2.26-23.78l-.97-.23c.93-3.89,2.22-7.74,3.84-11.44l.92.4c-1.59,3.65-2.87,7.44-3.78,11.27Zm9.46-21.73l-.83-.55c2.2-3.33,4.71-6.53,7.45-9.49l.73.68c-2.71,2.92-5.18,6.07-7.35,9.36Zm16.12-17.41l-.62-.79c3.13-2.45,6.51-4.7,10.04-6.69l.49.87c-3.48,1.96-6.82,4.18-9.91,6.6Zm20.69-11.68l-.36-.93c1.02-.39,2.05-.77,3.1-1.13l.93-.32c2.43-.84,4.87-1.68,7.31-2.53l.33.94c-2.44.85-4.88,1.69-7.31,2.53l-.93.32c-1.04.36-2.06.73-3.06,1.12Zm22.62-7.95l-.34-.94c4.07-1.45,7.75-2.81,11.26-4.13l.35.94c-3.51,1.33-7.2,2.68-11.27,4.13Zm22.46-8.5l-.38-.93c3.8-1.54,7.52-3.11,11.04-4.67l.4.92c-3.53,1.56-7.25,3.13-11.06,4.68Zm21.97-9.72l-.44-.9c3.62-1.76,7.21-3.58,10.67-5.44l.47.88c-3.47,1.86-7.07,3.69-10.7,5.46Zm21.17-11.35l-.51-.86c3.43-2.03,6.85-4.16,10.17-6.32l.55.84c-3.33,2.17-6.76,4.31-10.2,6.35Zm20.11-13.14l-.58-.81c3.21-2.31,6.43-4.73,9.56-7.2l.62.79c-3.14,2.48-6.37,4.91-9.6,7.23Zm18.87-14.86l-.65-.76c2.99-2.57,5.99-5.26,8.91-7.99l.68.73c-2.93,2.74-5.94,5.44-8.94,8.02Zm17.56-16.39l-.71-.7c2.77-2.79,5.55-5.71,8.27-8.66l.74.68c-2.73,2.96-5.52,5.88-8.3,8.69Zm16.28-17.66l-.76-.65c2.56-2.98,5.14-6.07,7.67-9.2l.78.63c-2.53,3.14-5.12,6.24-7.69,9.23Zm15-18.79l-.82-.57c2.25-3.25,4.35-6.68,6.23-10.18l.88.47c-1.9,3.54-4.02,6.99-6.29,10.28Zm11.4-21.19l-.93-.37c1.48-3.67,2.78-7.47,3.85-11.3l.96.27c-1.09,3.86-2.4,7.7-3.89,11.4Zm6.54-23.16l-.99-.17c.45-2.64.81-5.33,1.06-7.99l1,.1c-.26,2.69-.62,5.4-1.07,8.06Z"/>
  <path class="uuid-93357143-97b7-4b1b-b7d8-cb66237bd48a" d="m279.5,615.5c-5-7-27-24-52-37-21.53-11.19-41.57-20.16-54.39-20.52-2.99-.08-5.23-2.74-4.67-5.68,2.42-12.62,10.73-43.11,38.06-78.8,36-47,57-67,57-67,0,0,18-4,38-3,0,0,7.98,5.91,19.6,14.25"/>
  <path class="uuid-93357143-97b7-4b1b-b7d8-cb66237bd48a" d="m374.44,454.43c8.49,5.46,16.27,10.17,22.34,13.34,2.78,1.45,3.44,5.13,1.33,7.45-8.95,9.84-30.28,34.28-51.61,66.27-28,42-39,71-39,71"/>
  <path class="uuid-93357143-97b7-4b1b-b7d8-cb66237bd48a" d="m299.28,405.82l-18.65,19.5c-.6.63-1.62.58-2.16-.1l-13.5-16.87c-.68-.85-.22-2.11.85-2.31,5.11-.95,18.01-3.01,32.45-2.66,1.25.03,1.87,1.53,1.01,2.44Z"/>
  <path class="uuid-60347a47-7c96-488e-b784-d0563947cff6" d="m176.5,527.5s82,14,134,76"/>
  <path class="uuid-93357143-97b7-4b1b-b7d8-cb66237bd48a" d="m332.32,565.06l70.83,22.43c2.31.73,2.56,3.91.39,4.99l-176.96,88.48c-.69.34-1.49.38-2.2.1l-132-52.23c-2.21-.87-2.29-3.97-.13-4.97l117.35-53.91"/>
  <path class="uuid-7b572239-056d-4efc-81ba-f4bc3871980d" d="m644.5,582.5s145-37,185-48,47-53,49-82,26-58,49-64,210-61,210-61c0,0,20,5,30,34s2,49-7,52-137,45-162,53-42,26-43,65-24,83-60,94-193,50-219,56-40-13-46-37-3-55,14-62Z"/>
  <path class="uuid-60347a47-7c96-488e-b784-d0563947cff6" d="m643.5,583.5s20.65-3.5,36,41c10,29-1,56-11,58"/>
  <path class="uuid-a27d4b48-4ff0-428c-a6a2-1c9874c6a8e5" d="m1168.84,365.9c13.66-4.4,75.66-29.4,80.66-117.4s-81-124-114-84,3.19,109.81,87,90c55-13,86-20,103.5-8.5s27.5,31.5,29,39"/>
  <path class="uuid-f9a97ed6-9d1e-4803-91c4-fe2ff308e75f" d="m1158.6,343.71l-.6-.8c3.12-2.37,6.2-4.96,9.14-7.71l.68.73c-2.97,2.77-6.07,5.38-9.22,7.77Zm17.61-16.42l-.75-.66c2.66-3.04,5.14-6.2,7.36-9.4l.82.57c-2.25,3.23-4.75,6.42-7.43,9.49Zm13.7-19.79l-.89-.46c1.87-3.57,3.49-7.24,4.81-10.91l.94.34c-1.33,3.72-2.97,7.43-4.86,11.04Zm8.09-22.66l-.98-.19c.77-3.88,1.25-7.86,1.42-11.82l1,.04c-.17,4.01-.66,8.04-1.44,11.97Zm-112.11-22.25l-.02-1c3.79-.07,7.7-.75,11.64-2.01l.3.95c-4.03,1.29-8.04,1.98-11.92,2.06Zm112.17-1.67c-.41-3.87-1.1-7.82-2.06-11.74l.97-.24c.97,3.97,1.67,7.96,2.08,11.88l-.99.1Zm-124.14-.11c-3.7-1.2-7.34-3.02-10.82-5.41l.57-.82c3.4,2.34,6.96,4.12,10.56,5.28l-.31.95Zm34.92-5.23l-.5-.87c3.23-1.85,6.54-4.11,9.85-6.71l.62.79c-3.34,2.63-6.7,4.91-9.97,6.79Zm-54.87-8.09c-1.65-1.75-3.28-3.66-4.85-5.69-.93-1.2-1.8-2.49-2.59-3.84l.86-.51c.77,1.31,1.62,2.56,2.52,3.73,1.55,2,3.16,3.89,4.79,5.62l-.73.69Zm73.89-6.64l-.7-.72c.99-.96,1.99-1.95,2.99-2.98,1.84-1.89,3.58-3.81,5.19-5.72l.76.64c-1.62,1.92-3.38,3.86-5.24,5.77-1.01,1.04-2.02,2.04-3.01,3.01Zm64.6-3.07c-1-2.67-2.15-5.39-3.4-8.08-.45-.97-.91-1.92-1.38-2.87l.9-.44c.47.95.93,1.91,1.39,2.89,1.27,2.71,2.42,5.45,3.43,8.15l-.94.35Zm-150.44-11.05c-.94-3.82-1.43-7.86-1.45-12h1c.02,4.06.5,8.02,1.42,11.76l-.97.24Zm101.24-4.36l-.84-.53c2.19-3.46,4.04-7.01,5.51-10.55l.92.38c-1.48,3.59-3.36,7.19-5.58,10.7Zm38.68-6.01c-2.08-3.43-4.32-6.77-6.65-9.92l.8-.59c2.35,3.18,4.61,6.54,6.7,10l-.86.52Zm-139.16-13.45l-.98-.21c.84-3.97,2.1-7.84,3.74-11.49l.91.41c-1.61,3.59-2.84,7.39-3.67,11.29Zm109.55-2.8l-.98-.19c.68-3.53,1.03-7.17,1.03-10.81,0-.34,0-.68,0-1.02l1-.02c0,.35,0,.69,0,1.04,0,3.7-.35,7.4-1.05,11Zm15.39-2.92c-2.68-2.96-5.53-5.8-8.46-8.42l.67-.75c2.96,2.65,5.83,5.51,8.54,8.49l-.74.67Zm-115.23-15.78l-.79-.61c2.49-3.27,5.34-6.17,8.47-8.62l.62.79c-3.07,2.4-5.86,5.24-8.3,8.44Zm97.45-.11c-3.25-2.32-6.64-4.47-10.08-6.39l.49-.87c3.48,1.94,6.9,4.11,10.18,6.45l-.58.81Zm1.09-5.02c-.76-3.69-1.82-7.44-3.26-11.47l.94-.34c1.45,4.07,2.53,7.86,3.29,11.6l-.98.2Zm-21.91-6.56c-3.7-1.52-7.5-2.82-11.29-3.86l.26-.96c3.83,1.05,7.67,2.36,11.4,3.9l-.38.92Zm-58.13-2.74l-.38-.92c.9-.37,1.82-.72,2.74-1.04,2.79-.96,5.78-1.73,8.88-2.28l.17.98c-3.05.54-5.99,1.3-8.73,2.24-.9.31-1.8.65-2.68,1.02Zm35.16-3.53c-3.8-.52-7.6-.79-11.3-.79h-.6s0-1,0-1h.61c3.74,0,7.59.27,11.43.8l-.14.99Zm37.1-9.71c-.6-1.34-1.2-2.64-1.77-3.9-.49-1.08-.97-2.13-1.43-3.15-.59-1.32-1.16-2.65-1.69-3.94l.93-.38c.52,1.28,1.09,2.59,1.68,3.9.46,1.01.94,2.06,1.43,3.14.58,1.26,1.17,2.56,1.77,3.9l-.91.41Zm-8.72-22.42c-1.09-4.3-1.66-8.32-1.7-11.97h1c.04,3.56.6,7.51,1.67,11.73l-.97.25Zm1.44-23.48l-.92-.4c1.64-3.72,4.22-6.88,7.66-9.38l.59.81c-3.3,2.4-5.76,5.42-7.33,8.98Zm76-8.71c-4.05-1.76-7.69-3.18-11.14-4.33l.32-.95c3.47,1.16,7.14,2.59,11.22,4.36l-.4.92Zm-58.01-5.25l-.28-.96c3.99-1.17,7.95-2.05,11.77-2.61l.15.99c-3.77.55-7.69,1.42-11.64,2.58Zm35.35-2.12c-4.01-.75-7.88-1.16-11.84-1.23l.02-1c4.02.08,7.94.48,12,1.25l-.18.98Z"/>
  <polyline class="uuid-60347a47-7c96-488e-b784-d0563947cff6" points="1237.5 95.5 1317.5 146.5 1224.5 101.5"/>
  <polyline class="uuid-60347a47-7c96-488e-b784-d0563947cff6" points="1193.5 111.5 1204.5 116.5 1188.5 125.5"/>
  <path class="uuid-5fb4fb0d-5403-405b-9742-25c42835897f" d="m1350.5,313.5s10,5,17,9,10,10,3,16-16,2-21-1-13-7-25-14-9-29,0-36c0,0,6-4,16-8s22-9,39-1,49.24,22.46,52,24c9,5,20,11,13,19,0,0-2.22,2.36-6.11,3.18"/>
  <path class="uuid-5fb4fb0d-5403-405b-9742-25c42835897f" d="m1375.14,330.61s18.36,9.89,20.36,10.89,9,5,15,0,2-11-2-13-25-13-25-13"/>
  <path class="uuid-5fb4fb0d-5403-405b-9742-25c42835897f" d="m1396.5,302.5l38,19c4,2,6,11,1,15s-14.92,3.26-21.96-1.37"/>
  <path class="uuid-66568901-2b9f-4788-9264-8f586722ebb4" d="m1315.85,305.2s-12.35,11.3-33.35,10.3c0,0,2,9,22,21s61,37,67,40,11-1,11-1c0,0,9,2,17-3s63-42,63-42l-5-15-26-13"/>
  <path class="uuid-66568901-2b9f-4788-9264-8f586722ebb4" d="m1461.87,330.08c-2.35-1.56-10.62-7.04-13-8.38-.17-.1-.17-.33-.01-.44l8.36-5.57c.14-.09.34-.03.39.13l4.65,13.96c.08.23-.18.44-.39.3Z"/>
  <path class="uuid-93357143-97b7-4b1b-b7d8-cb66237bd48a" d="m250.81,420.68l-2.17-14.53c-.6-4.05-4.64-6.63-8.57-5.5l-178.91,51.76c-6.02,1.74-9.68,7.82-8.41,13.96l34.1,164.03c.34,1.65,2.05,2.63,3.64,2.1h0"/>
  <path class="uuid-f9a97ed6-9d1e-4803-91c4-fe2ff308e75f" d="m119.5,478.5c6.76-2.7,11,5,12,15s-1,14-5,16-10-4-12-11,0-18,5-20Z"/>
  <path class="uuid-f9a97ed6-9d1e-4803-91c4-fe2ff308e75f" d="m226.5,445.5s-1.5-3.5-9.5-1.5-5.5,12.5-4.5,20.5"/>
  <path class="uuid-f9a97ed6-9d1e-4803-91c4-fe2ff308e75f" d="m167.24,553.95s-19.74,7.55-36.74,13.55-24-4-26-11,8.5-15.5,13.5-11.5,10.5,3.5,10.5,3.5c6-3,45.5-15.5,45.5-15.5l-6.76,20.95Z"/>
  <path class="uuid-f9a97ed6-9d1e-4803-91c4-fe2ff308e75f" d="m327.5,487.5c5.77,4.33-1,14-4,18s-10,11-15,8-2-13,3-19,12-10,16-7Z"/>
  <path class="uuid-f9a97ed6-9d1e-4803-91c4-fe2ff308e75f" d="m273.5,450.5c4.53,4.53-1,15-5,19s-10,14-16,8,3-16,6-20,11-11,15-7Z"/>
  <path class="uuid-2d576aeb-d8b0-47ec-a70a-b35a6af14196" d="m231.5,490.5c2,6,8,21,27,35s41,22,60,20"/>
  <path class="uuid-5fb4fb0d-5403-405b-9742-25c42835897f" d="m390.67,464.54c4.83-1.04,16.83-20.04,14.83-39.04s-16-28-33-32-36-2-47,15-13,30-13,38-1,15,7,18,10.05-.9,10.05-.9"/>
  <path class="uuid-5fb4fb0d-5403-405b-9742-25c42835897f" d="m329.5,450.5v20s2,8,12,8,12.33-7.14,12.33-7.14"/>
  <path class="uuid-5fb4fb0d-5403-405b-9742-25c42835897f" d="m351.5,459.5c1,5,2,21,12,19s11-8,10-12,1-18,9-22"/>
  <path class="uuid-93357143-97b7-4b1b-b7d8-cb66237bd48a" d="m405.05,590.1v3.08c0,1.79-1,3.43-2.6,4.25l-175.05,90.1c-1.21.62-2.62.69-3.88.21l-128.46-49.26c-1.58-.61-2.72-2-3-3.67l-1.55-9.31"/>
  <path class="uuid-93357143-97b7-4b1b-b7d8-cb66237bd48a" d="m1342.89,259.83l-97.09,51.46c-1,.53-1.04,1.96-.06,2.53l135.76,80.14c3.67,2.17,8.26,2.06,11.83-.27l101.9-66.7c.97-.63.84-2.09-.22-2.55l-150.87-64.66c-.4-.17-.86-.15-1.25.05Z"/>
  <path class="uuid-93357143-97b7-4b1b-b7d8-cb66237bd48a" d="m1245.55,311.5c-.83.42-.14,6.21.66,6.68l136.39,81.18c2.8,1.65,6.28,1.59,9.03-.15l100.99-65.52c.8-.51,3.79-7.52,2.91-7.89"/>
  <path class="uuid-93357143-97b7-4b1b-b7d8-cb66237bd48a" d="m1343.5,259.5l23.93-106.24c.58-2.57,3.22-4.11,5.74-3.35l157.02,47.3c2.39.72,3.75,3.23,3.05,5.62l-35.74,122.68-1.79,4.83"/>
  <path class="uuid-e4447275-a478-4b6b-9d02-369ab3120029" d="m1367.5,229.5c6,14,35,49,111,40"/>
  <polygon class="uuid-60347a47-7c96-488e-b784-d0563947cff6" points="540.5 778.5 524 762 511.5 781.5 540.5 778.5"/>
  <path class="uuid-f9a97ed6-9d1e-4803-91c4-fe2ff308e75f" d="m1353.21,339.94c.67-2.1,6.28,1.12,9.29.56s5,0,7.43-3.62c7.89,2.52,13.2,7.97,11.86,12.18s-8.83,5.58-16.72,3.06-13.2-7.97-11.86-12.18Z"/>
  <path class="uuid-2d576aeb-d8b0-47ec-a70a-b35a6af14196" d="m1333.46,329.39s-3.96,2.11-4.96,9.11"/>
  <path class="uuid-ff93afff-643a-4857-ab80-f5ef193f1938" d="m812.5,543.5c10-5,24,6,30,19s3,28-7,32-24-3-30-19-3-27,7-32Z"/>
  <path class="uuid-ff93afff-643a-4857-ab80-f5ef193f1938" d="m980.5,383.5c10.92-5.46,25,0,31,15s7,28-3,34-24-8-29-20-3-27,1-29Z"/>
  <g class="uuid-75e58801-1b45-440c-a9b3-bb7e4d0ac833">
    <path class="uuid-ff93afff-643a-4857-ab80-f5ef193f1938" d="m1067.5,448.5c4.56-7.96,14-39-2-46s-22,5-27,16-10.36,30.26-15,40c0,0-21,72-70,115s-91,55-155,53c-13-2-16,4-19,8s-2.52,19.27,8,22c0,0,130,12,198-64s82-144,82-144Z"/>
  </g>
  <path class="uuid-b29f4886-7e4e-4b43-b1bf-6b9a6fda6f5b" d="m644.5,583.5c18.95-4.21,30,21,35,41s1,54-11,58-35-14-38-38-4-57,14-61Z"/>
  <path class="uuid-a27d4b48-4ff0-428c-a6a2-1c9874c6a8e5" d="m675.47,616.63c-17.97,6.87-65.97,21.87-96.97,15.87s-63-36-64-72,7-114-10-148-44-48-66-48-42,16-53,31"/>
  <path class="uuid-723e1015-222c-4d4a-bf2d-3c3ad73fd292" d="m640,586.15s-3,66.85,28.5,93.35c0,0,28.22-29.9-.64-87.7-7.86-9.8-27.86-5.65-27.86-5.65Z"/>
  <ellipse class="uuid-f9a97ed6-9d1e-4803-91c4-fe2ff308e75f" cx="1254.5" cy="126" rx="4" ry="9.5" transform="translate(722.19 1268.93) rotate(-70.76)"/>
  <polygon class="uuid-60347a47-7c96-488e-b784-d0563947cff6" points="1188.5 125.5 1317.5 146.5 1260.5 99.5 1237.5 95.5 1233.5 105.5 1224.5 101.5 1193.5 111.5 1188.5 125.5"/>
  <g class="uuid-d9955b84-d6ed-4ebd-8b55-c848ce220bb8">
    <ellipse class="uuid-f9a97ed6-9d1e-4803-91c4-fe2ff308e75f" cx="1282.9" cy="118.11" rx="3.96" ry="9.4" transform="translate(566.78 1189.07) rotate(-61.49)"/>
  </g>
  <path class="uuid-66568901-2b9f-4788-9264-8f586722ebb4" d="m1267,107c-6-2-13.3-4.81-16.5-3.5"/>
  <path class="uuid-66568901-2b9f-4788-9264-8f586722ebb4" d="m1235.95,107.08s-9.45,4.42-10.45,12.42"/>
  <ellipse class="uuid-f9a97ed6-9d1e-4803-91c4-fe2ff308e75f" cx="1400.43" cy="203.14" rx="16.77" ry="7.5" transform="translate(858.08 1510.17) rotate(-75.72)"/>
  <ellipse class="uuid-f9a97ed6-9d1e-4803-91c4-fe2ff308e75f" cx="1466.43" cy="223.14" rx="16.77" ry="7.5" transform="translate(888.42 1589.2) rotate(-75.72)"/>
  <g class="uuid-73df0e69-e909-4766-8671-e8d76943f374">
    <ellipse class="uuid-f9a97ed6-9d1e-4803-91c4-fe2ff308e75f" cx="509.35" cy="700.48" rx="10.5" ry="5.95" transform="translate(-332.46 496.87) rotate(-40.38)"/>
  </g>
  <polygon class="uuid-723e1015-222c-4d4a-bf2d-3c3ad73fd292" points="480.5 746.5 576.5 675.5 584.5 673.5 575.5 674.5 575.05 674.76 467.5 737.5 475.5 775.5 480.5 746.5"/>
  <path class="uuid-723e1015-222c-4d4a-bf2d-3c3ad73fd292" d="m605,618l-15-16s-13-8-22-2,37,18,37,18Z"/>
  <path class="uuid-723e1015-222c-4d4a-bf2d-3c3ad73fd292" d="m509,798l-32,65s-13,13-34,4-24-21-1-34,67-35,67-35Z"/>
  <path class="uuid-66568901-2b9f-4788-9264-8f586722ebb4" d="m314.17,599.87c12.07.29,20.18,1.92,20.18,4.49,0,3.87-18.29,8.4-40.85,10.13-22.56,1.73-40.85,0-40.85-3.87,0-2.15,5.65-4.5,14.54-6.47"/>
  <path class="uuid-723e1015-222c-4d4a-bf2d-3c3ad73fd292" d="m267.19,604.16c-8.89,1.97-14.54,4.32-14.54,6.47,0,3.87,18.29,5.6,40.85,3.87,22.56-1.73,40.85-6.27,40.85-10.13,0-2.57-8.1-4.2-20.18-4.49l-5.46,9.23-34.64.38-6.88-5.32Z"/>
  <polyline class="uuid-66568901-2b9f-4788-9264-8f586722ebb4" points="219.14 572.97 107.5 624.5 180.5 652.5 260.87 613.58"/>
  <polyline class="uuid-66568901-2b9f-4788-9264-8f586722ebb4" points="321.34 584.29 339.5 575.5 327.28 571.8"/>
  <path class="uuid-723e1015-222c-4d4a-bf2d-3c3ad73fd292" d="m402.45,592.92l-178.07,88.14-129.13-51.25-10.16-3.76c-20.71,6.02-12.89,15.44-12.89,15.44l18.07,6.4,130.79,49.72c3.72,1.41,7.88,1.12,11.36-.82l167.31-93.72c4.3-2.24,6.85-6.82,6.5-11.65l-3.76,1.51Z"/>
  <path class="uuid-723e1015-222c-4d4a-bf2d-3c3ad73fd292" d="m190.93,600.26s53.95,7.64,69.48,12.26c0,0,9.24,3.22,3.99-4.59-5.25-7.81-73.48-7.67-73.48-7.67Z"/>
  <polygon class="uuid-60347a47-7c96-488e-b784-d0563947cff6" points="613.5 395.5 581.5 419.5 564.5 418.5 568.5 424.5 544.5 424.5 537.5 434.5 600.5 525.5 613.5 395.5"/>
  <polygon class="uuid-60347a47-7c96-488e-b784-d0563947cff6" points="568.5 424.5 600.5 525.5 581.5 419.5 564.5 418.5 568.5 424.5"/>
  <polyline class="uuid-60347a47-7c96-488e-b784-d0563947cff6" points="544.5 424.5 549.5 431.5 537.5 434.5"/>
  <ellipse class="uuid-f9a97ed6-9d1e-4803-91c4-fe2ff308e75f" cx="598.5" cy="460.5" rx="4" ry="8"/>
  <ellipse class="uuid-f9a97ed6-9d1e-4803-91c4-fe2ff308e75f" cx="573.5" cy="466.5" rx="4" ry="8" transform="translate(-140.27 274.01) rotate(-24.03)"/>
  <path class="uuid-60347a47-7c96-488e-b784-d0563947cff6" d="m604.5,435.5s-6.94-2.7-20,1"/>
  <path class="uuid-60347a47-7c96-488e-b784-d0563947cff6" d="m572.98,440.16s-6.48,1.34-12.48,9.34"/>
  <path class="uuid-723e1015-222c-4d4a-bf2d-3c3ad73fd292" d="m1245.73,313.82l-.37,9.17s128.19,81.13,133.27,83.95,10.73,6.21,18.07,2.26,94.87-68.52,98.64-72.09.75-11.29.75-11.29l-102.76,67.87s-5.01,4.61-11.83.27-135.76-80.14-135.76-80.14Z"/>
  <polyline class="uuid-60347a47-7c96-488e-b784-d0563947cff6" points="1458.67 318.8 1478.02 327.5 1429.83 359.5 1423.43 356.11"/>
  <polyline class="uuid-60347a47-7c96-488e-b784-d0563947cff6" points="1317.5 299.96 1298.44 289.86 1337.1 270.04"/>
  <polygon class="uuid-723e1015-222c-4d4a-bf2d-3c3ad73fd292" points="298.5 352.5 364.75 225.5 291.76 342.56 298.5 352.5"/>
  <line class="uuid-60347a47-7c96-488e-b784-d0563947cff6" x1="364.75" y1="225.5" x2="298.5" y2="352.5"/>
  <path class="uuid-723e1015-222c-4d4a-bf2d-3c3ad73fd292" d="m1173.64,390.19s48-19.2,50.82-22.59,9.41-8.85-2.45-14.49-53.18,12.8-53.18,12.8l4.81,24.28Z"/>
  <path class="uuid-60347a47-7c96-488e-b784-d0563947cff6" d="m1397.64,373.62s-11.63,8.58-26.52,3.25"/>
  <path class="uuid-723e1015-222c-4d4a-bf2d-3c3ad73fd292" d="m392.85,463.97s-16.71-8.14-11.11-19.2c2.98-5.89-8-.66-10.82,3.86s-8.56,23.06-5.55,27.95,12.05,2.26,13.55-3.95,10.73-8.66,13.93-8.66Z"/>
  <path class="uuid-723e1015-222c-4d4a-bf2d-3c3ad73fd292" d="m328.28,453.15s-8.47,8.47-13.55,6.49,3.39,12.71,14.68,10.45l-1.13-16.94Z"/>
  <path class="uuid-723e1015-222c-4d4a-bf2d-3c3ad73fd292" d="m350.02,461.06s-.28,16.38-14.4,17.79c0,0,9.32,4.24,22.02.85l-7.62-18.64Z"/>
  <path class="uuid-723e1015-222c-4d4a-bf2d-3c3ad73fd292" d="m403.58,438.56s-11.29,19.76-17.69,22.59l4.79,3.39s11.4-7.15,12.9-25.98Z"/>
  <path class="uuid-723e1015-222c-4d4a-bf2d-3c3ad73fd292" d="m1346.44,290.05c.75,1.13,3.58,9.04,13.93,6.59,6.32-1.49,7.72-7.15,5.08-14.87s-4.33-7.53-6.02-11.48-12.99,19.76-12.99,19.76Z"/>
  <path class="uuid-723e1015-222c-4d4a-bf2d-3c3ad73fd292" d="m1434.5,321.5c8.51,1.3,7.66-8.49,4.84-13.2s14.83,3.64,9.53,13.39-9.81,8.63-9.81,8.63c0,0,0,10.54-6.78,11.29s-11.29,1.32-15.25-.38c0,0-2.07,3.76-4.89,3.58s-7.11,4.46-16.64-1.44-14.23-8.16-16.87-5.9-13.36,8.47-19.2,6.21-6.22-3.75-6.22-3.75c0,0,18.46-1.14,16.95-15.07l8.09,7.15,18.59,8.05s16.52-2.54,14.26-11.58c0,0,1.97,4.79,4.09,5.22,11.72,2.4,21-.66,19.3-12.22Z"/>
  <polygon class="uuid-723e1015-222c-4d4a-bf2d-3c3ad73fd292" points="581.5 419.5 569.22 427.65 600.5 525.5 581.5 419.5"/>
</svg>