<?xml version="1.0" encoding="UTF-8"?><svg id="Layer_1" xmlns="http://www.w3.org/2000/svg" viewBox="0 0 800 500"><defs><style>.cls-1{fill:#191919;stroke:#333;}.cls-1,.cls-2,.cls-3,.cls-4,.cls-5,.cls-6,.cls-7{stroke-miterlimit:10;}.cls-8{fill:#e5e5e5;}.cls-2,.cls-3,.cls-4,.cls-5,.cls-6,.cls-7{fill:none;}.cls-2,.cls-5{stroke-width:.25px;}.cls-2,.cls-6{stroke:#d3d3d3;}.cls-3,.cls-4,.cls-5{stroke:#e5e5e5;}.cls-9{fill:#7c7cf7;}.cls-4{stroke-width:.5px;}.cls-7{stroke:#3c3c3c;}</style></defs><rect class="cls-1" x="31" y="24.19" width="267.07" height="192.91" rx="3" ry="3"/><path class="cls-9" d="M54.23,57.46h5.98c2.25,0,3.9.54,4.94,1.61s1.56,2.79,1.56,5.15v4.68c0,2.36-.52,4.07-1.56,5.15s-2.69,1.61-4.94,1.61h-5.98v-2.05h1.56v-14.12h-1.56v-2.03ZM59.9,73.63c.8,0,1.49-.08,2.07-.23.58-.16,1.06-.42,1.44-.79.38-.37.66-.87.84-1.49s.27-1.41.27-2.37v-4.37c0-.95-.09-1.74-.27-2.37s-.46-1.12-.84-1.5c-.38-.37-.86-.64-1.44-.79-.58-.16-1.27-.23-2.07-.23h-1.92v14.14h1.92Z"/><path class="cls-9" d="M70.42,57.46h11.54v2.03h-4.68v14.14h4.68v2.03h-11.54v-2.03h4.68v-14.14h-4.68v-2.03Z"/><path class="cls-9" d="M96.4,62.71c0-.59-.12-1.11-.35-1.56-.23-.45-.55-.82-.95-1.12-.4-.29-.86-.52-1.38-.68-.52-.16-1.07-.23-1.64-.23-.5,0-.98.06-1.43.2-.45.13-.85.32-1.21.56-.36.24-.64.54-.84.9s-.31.77-.31,1.23v.16c0,.5.1.93.31,1.29.21.36.52.66.92.91.41.25.91.46,1.52.62s1.32.31,2.13.43c1.91.29,3.31.85,4.21,1.68.9.82,1.35,1.93,1.35,3.31v.31c0,.78-.13,1.5-.4,2.15s-.67,1.21-1.2,1.68c-.53.47-1.18.83-1.96,1.09-.78.26-1.68.39-2.7.39-1.16,0-2.19-.17-3.08-.51-.89-.34-1.64-.81-2.24-1.4-.6-.6-1.05-1.3-1.37-2.11-.31-.81-.47-1.69-.47-2.64v-.78h2.18v.62c0,1.6.44,2.79,1.31,3.59s2.09,1.2,3.65,1.2c1.35,0,2.37-.3,3.05-.9s1.03-1.39,1.03-2.38v-.16c0-.95-.35-1.68-1.05-2.18-.7-.5-1.84-.87-3.42-1.09-.92-.12-1.75-.31-2.48-.56-.74-.25-1.37-.58-1.89-.99-.52-.41-.92-.9-1.2-1.47-.28-.57-.42-1.25-.42-2.03v-.31c0-.71.15-1.36.44-1.95.29-.59.71-1.1,1.24-1.53.53-.43,1.16-.77,1.9-1,.74-.23,1.55-.35,2.43-.35,1.02,0,1.94.15,2.74.44.81.29,1.49.69,2.04,1.18s.97,1.07,1.26,1.74.43,1.36.43,2.09v1.09h-2.18v-.94Z"/><path class="cls-9" d="M101.62,57.46h12.79v2.03h-5.3v16.17h-2.18v-16.17h-5.3v-2.03Z"/><path class="cls-9" d="M129.63,75.66h-2.18v-6.08c0-.45-.1-.8-.31-1.04-.21-.24-.57-.36-1.09-.36h-5.67v7.49h-2.18v-18.2h6.5c.94,0,1.75.13,2.44.4.69.27,1.27.63,1.73,1.08s.81.97,1.04,1.57c.23.6.35,1.23.35,1.89v.78c0,.68-.19,1.35-.56,2.03-.37.68-.95,1.2-1.73,1.56v.31c.52.09.93.29,1.22.62.29.33.44.8.44,1.4v6.55ZM120.37,66.14h4.06c1.23,0,2.14-.26,2.74-.79.6-.53.9-1.3.9-2.33v-.47c0-.92-.3-1.66-.9-2.22-.6-.56-1.51-.84-2.74-.84h-4.06v6.66Z"/><path class="cls-9" d="M134.07,57.46h11.54v2.03h-4.68v14.14h4.68v2.03h-11.54v-2.03h4.68v-14.14h-4.68v-2.03Z"/><path class="cls-9" d="M149.28,73.63h1.56v-14.14h-1.56v-2.03h7.36c.87,0,1.63.12,2.3.36s1.23.57,1.69.99c.46.42.81.91,1.04,1.5.23.58.35,1.21.35,1.89v.31c0,.5-.08.96-.23,1.38-.16.42-.37.79-.65,1.12-.28.33-.6.61-.97.85-.37.23-.78.41-1.21.53v.31c.87.24,1.59.71,2.18,1.39.59.69.88,1.52.88,2.51v.31c0,.68-.12,1.3-.35,1.88-.23.58-.58,1.08-1.04,1.51-.46.43-1.02.76-1.69,1s-1.43.36-2.3.36h-7.36v-2.03ZM153.03,65.52h3.54c1.04,0,1.86-.27,2.47-.81.61-.54.91-1.27.91-2.21v-.16c0-.88-.32-1.58-.96-2.09s-1.47-.77-2.5-.77h-3.46v6.03ZM153.03,73.63h3.46c1.02,0,1.85-.26,2.5-.77s.96-1.22.96-2.12v-.16c0-.94-.3-1.68-.91-2.22-.61-.55-1.43-.82-2.47-.82h-3.54v6.08Z"/><path class="cls-9" d="M167.61,57.46v12.06c0,1.47.34,2.59,1.03,3.34s1.69,1.13,3.03,1.13,2.34-.38,3.03-1.13c.68-.75,1.03-1.87,1.03-3.34v-12.06h2.18v12.06c0,2.12-.56,3.73-1.66,4.84-1.11,1.11-2.63,1.66-4.58,1.66s-3.47-.55-4.58-1.66-1.66-2.72-1.66-4.84v-12.06h2.18Z"/><path class="cls-9" d="M181.18,57.46h12.79v2.03h-5.3v16.17h-2.18v-16.17h-5.3v-2.03Z"/><path class="cls-9" d="M197.98,57.46h11.02v2.03h-8.84v6.03h8.68v2.03h-8.68v6.08h9v2.03h-11.18v-18.2Z"/><path class="cls-9" d="M213.35,57.46h5.98c2.25,0,3.9.54,4.94,1.61s1.56,2.79,1.56,5.15v4.68c0,2.36-.52,4.07-1.56,5.15s-2.69,1.61-4.94,1.61h-5.98v-2.05h1.56v-14.12h-1.56v-2.03ZM219.02,73.63c.8,0,1.49-.08,2.07-.23.58-.16,1.06-.42,1.44-.79.38-.37.66-.87.84-1.49s.27-1.41.27-2.37v-4.37c0-.95-.09-1.74-.27-2.37s-.46-1.12-.84-1.5c-.38-.37-.86-.64-1.44-.79-.58-.16-1.27-.23-2.07-.23h-1.92v14.14h1.92Z"/><path class="cls-9" d="M54.23,88.66h2.18v8.06h7.75v-8.06h2.18v18.2h-2.18v-8.11h-7.75v8.11h-2.18v-18.2Z"/><path class="cls-9" d="M80.1,102.33h-7.8l-1.33,4.52h-2.34l5.51-18.2h4.11l5.51,18.2h-2.34l-1.33-4.52ZM76.04,89.59l-3.15,10.71h6.6l-3.15-10.71h-.31Z"/><path class="cls-9" d="M96.4,93.91c0-.59-.12-1.11-.35-1.56-.23-.45-.55-.82-.95-1.12-.4-.29-.86-.52-1.38-.68-.52-.16-1.07-.23-1.64-.23-.5,0-.98.06-1.43.2-.45.13-.85.32-1.21.56-.36.24-.64.54-.84.9s-.31.77-.31,1.23v.16c0,.5.1.93.31,1.29.21.36.52.66.92.91.41.25.91.46,1.52.62s1.32.31,2.13.43c1.91.29,3.31.85,4.21,1.68.9.82,1.35,1.93,1.35,3.31v.31c0,.78-.13,1.5-.4,2.15s-.67,1.21-1.2,1.68c-.53.47-1.18.83-1.96,1.09-.78.26-1.68.39-2.7.39-1.16,0-2.19-.17-3.08-.51-.89-.34-1.64-.81-2.24-1.4-.6-.6-1.05-1.3-1.37-2.11-.31-.81-.47-1.69-.47-2.64v-.78h2.18v.62c0,1.6.44,2.79,1.31,3.59s2.09,1.2,3.65,1.2c1.35,0,2.37-.3,3.05-.9s1.03-1.39,1.03-2.38v-.16c0-.95-.35-1.68-1.05-2.18-.7-.5-1.84-.87-3.42-1.09-.92-.12-1.75-.31-2.48-.56-.74-.25-1.37-.58-1.89-.99-.52-.41-.92-.9-1.2-1.47-.28-.57-.42-1.25-.42-2.03v-.31c0-.71.15-1.36.44-1.95.29-.59.71-1.1,1.24-1.53.53-.43,1.16-.77,1.9-1,.74-.23,1.55-.35,2.43-.35,1.02,0,1.94.15,2.74.44.81.29,1.49.69,2.04,1.18s.97,1.07,1.26,1.74.43,1.36.43,2.09v1.09h-2.18v-.94Z"/><path class="cls-9" d="M101.96,88.66h2.18v8.06h7.75v-8.06h2.18v18.2h-2.18v-8.11h-7.75v8.11h-2.18v-18.2Z"/><path class="cls-9" d="M53.89,119.86h12.79v2.03h-5.3v16.17h-2.18v-16.17h-5.3v-2.03Z"/><path class="cls-9" d="M80.1,133.53h-7.8l-1.33,4.52h-2.34l5.51-18.2h4.11l5.51,18.2h-2.34l-1.33-4.52ZM76.04,120.79l-3.15,10.71h6.6l-3.15-10.71h-.31Z"/><path class="cls-9" d="M85.64,136.03h1.56v-14.14h-1.56v-2.03h7.36c.87,0,1.63.12,2.3.36s1.23.57,1.69.99c.46.42.81.91,1.04,1.5.23.58.35,1.21.35,1.89v.31c0,.5-.08.96-.23,1.38-.16.42-.37.79-.65,1.12-.28.33-.6.61-.97.85-.37.23-.78.41-1.21.53v.31c.87.24,1.59.71,2.18,1.39.59.69.88,1.52.88,2.51v.31c0,.68-.12,1.3-.35,1.88-.23.58-.58,1.08-1.04,1.51-.46.43-1.02.76-1.69,1s-1.43.36-2.3.36h-7.36v-2.03ZM89.38,127.92h3.54c1.04,0,1.86-.27,2.47-.81.61-.54.91-1.27.91-2.21v-.16c0-.88-.32-1.58-.96-2.09s-1.47-.77-2.5-.77h-3.46v6.03ZM89.38,136.03h3.46c1.02,0,1.85-.26,2.5-.77s.96-1.22.96-2.12v-.16c0-.94-.3-1.68-.91-2.22-.61-.55-1.43-.82-2.47-.82h-3.54v6.08Z"/><path class="cls-9" d="M102.33,119.86h2.18v16.17h9.52v2.03h-11.7v-18.2Z"/><path class="cls-9" d="M118.42,119.86h11.02v2.03h-8.84v6.03h8.68v2.03h-8.68v6.08h9v2.03h-11.18v-18.2Z"/><rect class="cls-1" x="492.84" y="24.19" width="267.07" height="192.91" rx="3" ry="3"/><path class="cls-9" d="M522.23,73.99c.75,0,1.38-.13,1.91-.38.53-.25.96-.59,1.3-1.01.34-.42.59-.91.75-1.46.16-.55.25-1.12.25-1.73v-.31h2.18v.31c0,.92-.14,1.78-.42,2.59-.28.81-.68,1.51-1.22,2.11-.54.6-1.21,1.07-2,1.4-.8.34-1.72.51-2.76.51-2.01,0-3.58-.63-4.71-1.9-1.13-1.26-1.69-3.11-1.69-5.54v-4.06c0-2.36.56-4.19,1.69-5.49,1.13-1.3,2.7-1.95,4.71-1.95,1.04,0,1.96.17,2.76.51.8.34,1.46.81,2,1.4.54.6.94,1.3,1.22,2.11.28.81.42,1.67.42,2.59v.31h-2.18v-.31c-.02-.59-.11-1.16-.27-1.72-.17-.55-.42-1.04-.75-1.47-.34-.42-.77-.76-1.29-1.01-.52-.25-1.15-.38-1.9-.38-1.4,0-2.46.51-3.16,1.53-.7,1.02-1.05,2.37-1.05,4.03v3.74c0,1.79.35,3.16,1.05,4.12.7.96,1.75,1.44,3.16,1.44Z"/><path class="cls-9" d="M531.64,64.53c0-2.36.56-4.19,1.69-5.49,1.13-1.3,2.7-1.95,4.71-1.95s3.58.65,4.71,1.95c1.13,1.3,1.69,3.13,1.69,5.49v4.06c0,2.43-.56,4.27-1.69,5.54-1.13,1.27-2.7,1.9-4.71,1.9s-3.58-.63-4.71-1.9c-1.13-1.26-1.69-3.11-1.69-5.54v-4.06ZM538.04,73.99c1.4,0,2.46-.48,3.16-1.44s1.05-2.34,1.05-4.12v-3.74c0-1.66-.35-3.01-1.05-4.03-.7-1.02-1.75-1.53-3.16-1.53s-2.46.51-3.16,1.53c-.7,1.02-1.05,2.37-1.05,4.03v3.74c0,1.79.35,3.16,1.05,4.12s1.75,1.44,3.16,1.44Z"/><path class="cls-9" d="M550.05,67.96h7.8v1.87h-7.8v-1.87Z"/><path class="cls-9" d="M574.15,62.71c0-.59-.12-1.11-.35-1.56-.23-.45-.55-.82-.95-1.12-.4-.29-.86-.52-1.38-.68-.52-.16-1.07-.23-1.64-.23-.5,0-.98.06-1.43.2-.45.13-.85.32-1.21.56-.36.24-.64.54-.84.9s-.31.77-.31,1.23v.16c0,.5.1.93.31,1.29.21.36.52.66.92.91.41.25.91.46,1.52.62s1.32.31,2.13.43c1.91.29,3.31.85,4.21,1.68.9.82,1.35,1.93,1.35,3.31v.31c0,.78-.13,1.5-.4,2.15s-.67,1.21-1.2,1.68c-.53.47-1.18.83-1.96,1.09-.78.26-1.68.39-2.7.39-1.16,0-2.19-.17-3.08-.51-.89-.34-1.64-.81-2.24-1.4-.6-.6-1.05-1.3-1.37-2.11-.31-.81-.47-1.69-.47-2.64v-.78h2.18v.62c0,1.6.44,2.79,1.31,3.59s2.09,1.2,3.65,1.2c1.35,0,2.37-.3,3.05-.9s1.03-1.39,1.03-2.38v-.16c0-.95-.35-1.68-1.05-2.18-.7-.5-1.84-.87-3.42-1.09-.92-.12-1.75-.31-2.48-.56-.74-.25-1.37-.58-1.89-.99-.52-.41-.92-.9-1.2-1.47-.28-.57-.42-1.25-.42-2.03v-.31c0-.71.15-1.36.44-1.95.29-.59.71-1.1,1.24-1.53.53-.43,1.16-.77,1.9-1,.74-.23,1.55-.35,2.43-.35,1.02,0,1.94.15,2.74.44.81.29,1.49.69,2.04,1.18s.97,1.07,1.26,1.74.43,1.36.43,2.09v1.09h-2.18v-.94Z"/><path class="cls-9" d="M580,57.46h11.54v2.03h-4.68v14.14h4.68v2.03h-11.54v-2.03h4.68v-14.14h-4.68v-2.03Z"/><path class="cls-9" d="M599.94,66.92h8.11v8.74h-2.03v-2.18h-.31c-.29.76-.82,1.38-1.56,1.85-.75.47-1.61.7-2.6.7-1.96,0-3.5-.63-4.62-1.9-1.12-1.26-1.68-3.11-1.68-5.54v-4.06c0-2.36.56-4.19,1.69-5.49,1.13-1.3,2.7-1.95,4.71-1.95,1.04,0,1.96.17,2.76.51.8.34,1.46.81,2,1.4.54.6.94,1.3,1.22,2.11.28.81.42,1.67.42,2.59v.31h-2.18v-.31c0-.59-.08-1.16-.25-1.72-.16-.55-.42-1.04-.75-1.47-.34-.42-.77-.76-1.3-1.01-.53-.25-1.17-.38-1.91-.38-1.4,0-2.46.51-3.16,1.53-.7,1.02-1.05,2.37-1.05,4.03v3.74c0,1.79.35,3.16,1.05,4.12.7.96,1.77,1.44,3.21,1.44,1.3,0,2.32-.42,3.05-1.25.74-.83,1.1-1.99,1.1-3.48v-.31h-5.93v-2.03Z"/><path class="cls-9" d="M621.16,74.72h.31v-17.26h2.18v18.2h-4.37l-5.25-17.26h-.31v17.26h-2.18v-18.2h4.37l5.25,17.26Z"/><path class="cls-9" d="M627.73,57.46h11.54v2.03h-4.68v14.14h4.68v2.03h-11.54v-2.03h4.68v-14.14h-4.68v-2.03Z"/><path class="cls-9" d="M652.98,74.72h.31v-17.26h2.18v18.2h-4.37l-5.25-17.26h-.31v17.26h-2.18v-18.2h4.37l5.25,17.26Z"/><path class="cls-9" d="M663.59,66.92h8.11v8.74h-2.03v-2.18h-.31c-.29.76-.82,1.38-1.56,1.85-.75.47-1.61.7-2.6.7-1.96,0-3.5-.63-4.62-1.9-1.12-1.26-1.68-3.11-1.68-5.54v-4.06c0-2.36.56-4.19,1.69-5.49,1.13-1.3,2.7-1.95,4.71-1.95,1.04,0,1.96.17,2.76.51.8.34,1.46.81,2,1.4.54.6.94,1.3,1.22,2.11.28.81.42,1.67.42,2.59v.31h-2.18v-.31c0-.59-.08-1.16-.25-1.72-.16-.55-.42-1.04-.75-1.47-.34-.42-.77-.76-1.3-1.01-.53-.25-1.17-.38-1.91-.38-1.4,0-2.46.51-3.16,1.53-.7,1.02-1.05,2.37-1.05,4.03v3.74c0,1.79.35,3.16,1.05,4.12.7.96,1.77,1.44,3.21,1.44,1.3,0,2.32-.42,3.05-1.25.74-.83,1.1-1.99,1.1-3.48v-.31h-5.93v-2.03Z"/><path class="cls-9" d="M526.41,93.91c0-.59-.12-1.11-.35-1.56-.23-.45-.55-.82-.95-1.12-.4-.29-.86-.52-1.38-.68-.52-.16-1.07-.23-1.64-.23-.5,0-.98.06-1.43.2-.45.13-.85.32-1.21.56-.36.24-.64.54-.84.9s-.31.77-.31,1.23v.16c0,.5.1.93.31,1.29.21.36.52.66.92.91.41.25.91.46,1.52.62s1.32.31,2.13.43c1.91.29,3.31.85,4.21,1.68.9.82,1.35,1.93,1.35,3.31v.31c0,.78-.13,1.5-.4,2.15s-.67,1.21-1.2,1.68c-.53.47-1.18.83-1.96,1.09-.78.26-1.68.39-2.7.39-1.16,0-2.19-.17-3.08-.51-.89-.34-1.64-.81-2.24-1.4-.6-.6-1.05-1.3-1.37-2.11-.31-.81-.47-1.69-.47-2.64v-.78h2.18v.62c0,1.6.44,2.79,1.31,3.59s2.09,1.2,3.65,1.2c1.35,0,2.37-.3,3.05-.9s1.03-1.39,1.03-2.38v-.16c0-.95-.35-1.68-1.05-2.18-.7-.5-1.84-.87-3.42-1.09-.92-.12-1.75-.31-2.48-.56-.74-.25-1.37-.58-1.89-.99-.52-.41-.92-.9-1.2-1.47-.28-.57-.42-1.25-.42-2.03v-.31c0-.71.15-1.36.44-1.95.29-.59.71-1.1,1.24-1.53.53-.43,1.16-.77,1.9-1,.74-.23,1.55-.35,2.43-.35,1.02,0,1.94.15,2.74.44.81.29,1.49.69,2.04,1.18s.97,1.07,1.26,1.74.43,1.36.43,2.09v1.09h-2.18v-.94Z"/><path class="cls-9" d="M532.52,88.66h11.02v2.03h-8.84v6.03h8.68v2.03h-8.68v6.08h9v2.03h-11.18v-18.2Z"/><path class="cls-9" d="M559.64,106.86h-2.18v-6.08c0-.45-.1-.8-.31-1.04-.21-.24-.57-.36-1.09-.36h-5.67v7.49h-2.18v-18.2h6.5c.94,0,1.75.13,2.44.4.69.27,1.27.63,1.73,1.08s.81.97,1.04,1.57c.23.6.35,1.23.35,1.89v.78c0,.68-.19,1.35-.56,2.03-.37.68-.95,1.2-1.73,1.56v.31c.52.09.93.29,1.22.62.29.33.44.8.44,1.4v6.55ZM550.38,97.34h4.06c1.23,0,2.14-.26,2.74-.79.6-.53.9-1.3.9-2.33v-.47c0-.92-.3-1.66-.9-2.22-.6-.56-1.51-.84-2.74-.84h-4.06v6.66Z"/><path class="cls-9" d="M562.61,88.66h2.34l4.76,17.26h.31l4.76-17.26h2.34l-5.15,18.2h-4.21l-5.15-18.2Z"/><path class="cls-9" d="M580,88.66h11.54v2.03h-4.68v14.14h4.68v2.03h-11.54v-2.03h4.68v-14.14h-4.68v-2.03Z"/><path class="cls-9" d="M601.79,105.19c.75,0,1.38-.13,1.91-.38.53-.25.96-.59,1.3-1.01.34-.42.59-.91.75-1.46.16-.55.25-1.12.25-1.73v-.31h2.18v.31c0,.92-.14,1.78-.42,2.59-.28.81-.68,1.51-1.22,2.11-.54.6-1.21,1.07-2,1.4-.8.34-1.72.51-2.76.51-2.01,0-3.58-.63-4.71-1.9-1.13-1.26-1.69-3.11-1.69-5.54v-4.06c0-2.36.56-4.19,1.69-5.49,1.13-1.3,2.7-1.95,4.71-1.95,1.04,0,1.96.17,2.76.51.8.34,1.46.81,2,1.4.54.6.94,1.3,1.22,2.11.28.81.42,1.67.42,2.59v.31h-2.18v-.31c-.02-.59-.11-1.16-.27-1.72-.17-.55-.42-1.04-.75-1.47-.34-.42-.77-.76-1.29-1.01-.52-.25-1.15-.38-1.9-.38-1.4,0-2.46.51-3.16,1.53-.7,1.02-1.05,2.37-1.05,4.03v3.74c0,1.79.35,3.16,1.05,4.12.7.96,1.75,1.44,3.16,1.44Z"/><path class="cls-9" d="M612.08,88.66h11.02v2.03h-8.84v6.03h8.68v2.03h-8.68v6.08h9v2.03h-11.18v-18.2Z"/><rect class="cls-7" x="371.77" y="264.72" width="55.54" height="91.78" rx="4.97" ry="4.97"/><circle class="cls-7" cx="399.54" cy="347.47" r="2.65"/><path class="cls-8" d="M335.68,374.99v9.28c0,1.13.26,1.99.79,2.57.53.58,1.3.87,2.33.87s1.8-.29,2.33-.87c.53-.58.79-1.44.79-2.57v-9.28h1.68v9.28c0,1.63-.43,2.87-1.28,3.72-.85.85-2.03,1.28-3.52,1.28s-2.67-.43-3.52-1.28c-.85-.85-1.28-2.09-1.28-3.72v-9.28h1.68Z"/><path class="cls-8" d="M354.34,379.03c0-.45-.09-.85-.27-1.2-.18-.35-.42-.63-.73-.86s-.66-.4-1.06-.52-.82-.18-1.26-.18c-.39,0-.75.05-1.1.15-.35.1-.66.24-.93.43s-.49.42-.65.69c-.16.27-.24.59-.24.95v.12c0,.39.08.72.24.99s.4.51.71.7.7.35,1.17.48c.47.13,1.01.24,1.64.33,1.47.23,2.55.66,3.24,1.29.69.63,1.04,1.48,1.04,2.55v.24c0,.6-.1,1.15-.31,1.65-.21.5-.51.93-.92,1.29-.41.36-.91.64-1.51.84s-1.29.3-2.08.3c-.89,0-1.68-.13-2.37-.39-.69-.26-1.26-.62-1.72-1.08s-.81-1-1.05-1.62c-.24-.62-.36-1.3-.36-2.03v-.6h1.68v.48c0,1.23.34,2.15,1.01,2.76.67.61,1.61.92,2.81.92,1.04,0,1.82-.23,2.35-.69.53-.46.79-1.07.79-1.83v-.12c0-.73-.27-1.29-.81-1.68s-1.42-.67-2.63-.84c-.71-.09-1.34-.24-1.91-.43-.57-.19-1.05-.45-1.45-.76-.4-.31-.71-.69-.92-1.13s-.32-.96-.32-1.56v-.24c0-.55.11-1.05.34-1.5s.54-.85.95-1.18c.41-.33.89-.59,1.46-.77.57-.18,1.19-.27,1.87-.27.79,0,1.49.11,2.11.34s1.14.53,1.57.91c.43.38.75.83.97,1.34.22.51.33,1.05.33,1.61v.84h-1.68v-.72Z"/><path class="cls-8" d="M359.04,374.99h8.48v1.56h-6.8v4.64h6.68v1.56h-6.68v4.68h6.92v1.56h-8.6v-14Z"/><path class="cls-8" d="M379.9,388.99h-1.68v-4.68c0-.35-.08-.61-.24-.8s-.44-.28-.84-.28h-4.36v5.76h-1.68v-14h5c.72,0,1.35.1,1.88.31.53.21.98.48,1.33.83.35.35.62.75.8,1.21s.27.94.27,1.45v.6c0,.52-.14,1.04-.43,1.56-.29.52-.73.92-1.33,1.2v.24c.4.07.71.23.94.48.23.25.34.61.34,1.08v5.04ZM372.78,381.67h3.12c.95,0,1.65-.2,2.11-.61.46-.41.69-1,.69-1.79v-.36c0-.71-.23-1.28-.69-1.71-.46-.43-1.16-.65-2.11-.65h-3.12v5.12Z"/><path class="cls-8" d="M395.34,374.99h4.6c1.73,0,3,.41,3.8,1.24.8.83,1.2,2.15,1.2,3.96v3.6c0,1.81-.4,3.13-1.2,3.96-.8.83-2.07,1.24-3.8,1.24h-4.6v-1.58h1.2v-10.86h-1.2v-1.56ZM399.7,387.43c.61,0,1.14-.06,1.59-.18.45-.12.82-.32,1.11-.61.29-.29.51-.67.65-1.15.14-.48.21-1.09.21-1.82v-3.36c0-.73-.07-1.34-.21-1.82-.14-.48-.36-.86-.65-1.15-.29-.29-.66-.49-1.11-.61-.45-.12-.98-.18-1.59-.18h-1.48v10.88h1.48Z"/><path class="cls-8" d="M408,374.99h8.48v1.56h-6.8v4.64h6.68v1.56h-6.68v4.68h6.92v1.56h-8.6v-14Z"/><path class="cls-8" d="M418.9,374.99h1.8l3.66,13.28h.24l3.66-13.28h1.8l-3.96,14h-3.24l-3.96-14Z"/><path class="cls-8" d="M432.28,374.99h8.88v1.56h-3.6v10.88h3.6v1.56h-8.88v-1.56h3.6v-10.88h-3.6v-1.56Z"/><path class="cls-8" d="M449.04,387.71c.57,0,1.06-.1,1.47-.29s.74-.45,1-.78c.26-.33.45-.7.58-1.12.13-.42.19-.86.19-1.33v-.24h1.68v.24c0,.71-.11,1.37-.32,1.99s-.53,1.16-.94,1.62-.93.82-1.54,1.08c-.61.26-1.32.39-2.12.39-1.55,0-2.75-.49-3.62-1.46-.87-.97-1.3-2.39-1.3-4.26v-3.12c0-1.81.43-3.22,1.3-4.22.87-1,2.07-1.5,3.62-1.5.8,0,1.51.13,2.12.39s1.13.62,1.54,1.08.73,1,.94,1.62.32,1.28.32,1.99v.24h-1.68v-.24c-.01-.45-.08-.89-.21-1.32-.13-.43-.32-.8-.58-1.13-.26-.33-.59-.59-.99-.78-.4-.19-.89-.29-1.46-.29-1.08,0-1.89.39-2.43,1.18-.54.79-.81,1.82-.81,3.1v2.88c0,1.37.27,2.43.81,3.17s1.35,1.11,2.43,1.11Z"/><path class="cls-8" d="M456.96,374.99h8.48v1.56h-6.8v4.64h6.68v1.56h-6.68v4.68h6.92v1.56h-8.6v-14Z"/><path class="cls-8" d="M582.53,458.25c.57,0,1.06-.1,1.47-.29s.74-.45,1-.78c.26-.33.45-.7.58-1.12.13-.42.19-.86.19-1.33v-.24h1.68v.24c0,.71-.11,1.37-.32,1.99s-.53,1.16-.94,1.62-.93.82-1.54,1.08-1.32.39-2.12.39c-1.55,0-2.75-.49-3.62-1.46-.87-.97-1.3-2.39-1.3-4.26v-3.12c0-1.81.43-3.22,1.3-4.22.87-1,2.07-1.5,3.62-1.5.8,0,1.51.13,2.12.39.61.26,1.13.62,1.54,1.08s.73,1,.94,1.62.32,1.28.32,1.99v.24h-1.68v-.24c-.01-.45-.08-.89-.21-1.32-.13-.43-.32-.8-.58-1.13-.26-.33-.59-.59-.99-.78-.4-.19-.89-.29-1.46-.29-1.08,0-1.89.39-2.43,1.18s-.81,1.82-.81,3.1v2.88c0,1.37.27,2.43.81,3.17.54.74,1.35,1.11,2.43,1.11Z"/><path class="cls-8" d="M589.77,450.97c0-1.81.43-3.22,1.3-4.22s2.07-1.5,3.62-1.5,2.75.5,3.62,1.5c.87,1,1.3,2.41,1.3,4.22v3.12c0,1.87-.43,3.29-1.3,4.26-.87.97-2.07,1.46-3.62,1.46s-2.75-.49-3.62-1.46c-.87-.97-1.3-2.39-1.3-4.26v-3.12ZM594.69,458.25c1.08,0,1.89-.37,2.43-1.11.54-.74.81-1.8.81-3.17v-2.88c0-1.28-.27-2.31-.81-3.1s-1.35-1.18-2.43-1.18-1.89.39-2.43,1.18-.81,1.82-.81,3.1v2.88c0,1.37.27,2.43.81,3.17.54.74,1.35,1.11,2.43,1.11Z"/><path class="cls-8" d="M602.55,445.53h1.68v12.44h7.32v1.56h-9v-14Z"/><path class="cls-8" d="M614.51,445.53h4.6c1.73,0,3,.41,3.8,1.24.8.83,1.2,2.15,1.2,3.96v3.6c0,1.81-.4,3.13-1.2,3.96-.8.83-2.07,1.24-3.8,1.24h-4.6v-1.58h1.2v-10.86h-1.2v-1.56ZM618.87,457.97c.61,0,1.14-.06,1.59-.18.45-.12.82-.32,1.11-.61.29-.29.51-.67.65-1.15.14-.48.21-1.09.21-1.82v-3.36c0-.73-.07-1.34-.21-1.82-.14-.48-.36-.86-.65-1.15-.29-.29-.66-.49-1.11-.61-.45-.12-.98-.18-1.59-.18h-1.48v10.88h1.48Z"/><path class="cls-8" d="M646.95,449.57c0-.45-.09-.85-.27-1.2-.18-.35-.42-.63-.73-.86-.31-.23-.66-.4-1.06-.52s-.82-.18-1.26-.18c-.39,0-.75.05-1.1.15s-.66.24-.93.43c-.27.19-.49.42-.65.69s-.24.59-.24.95v.12c0,.39.08.72.24.99.16.27.4.51.71.7s.7.35,1.17.48,1.01.24,1.64.33c1.47.23,2.55.66,3.24,1.29.69.63,1.04,1.48,1.04,2.55v.24c0,.6-.1,1.15-.31,1.65-.21.5-.51.93-.92,1.29-.41.36-.91.64-1.51.84s-1.29.3-2.08.3c-.89,0-1.68-.13-2.37-.39-.69-.26-1.26-.62-1.72-1.08s-.81-1-1.05-1.62c-.24-.62-.36-1.3-.36-2.03v-.6h1.68v.48c0,1.23.34,2.15,1.01,2.76s1.61.92,2.81.92c1.04,0,1.82-.23,2.35-.69.53-.46.79-1.07.79-1.83v-.12c0-.73-.27-1.29-.81-1.68-.54-.39-1.42-.67-2.63-.84-.71-.09-1.34-.24-1.91-.43-.57-.19-1.05-.45-1.45-.76-.4-.31-.71-.69-.92-1.13-.21-.44-.32-.96-.32-1.56v-.24c0-.55.11-1.05.34-1.5.23-.45.54-.85.95-1.18s.89-.59,1.46-.77c.57-.18,1.19-.27,1.87-.27.79,0,1.49.11,2.11.34.62.23,1.14.53,1.57.91s.75.83.97,1.34c.22.51.33,1.05.33,1.61v.84h-1.68v-.72Z"/><path class="cls-8" d="M650.97,445.53h9.84v1.56h-4.08v12.44h-1.68v-12.44h-4.08v-1.56Z"/><path class="cls-8" d="M663.21,450.97c0-1.81.43-3.22,1.3-4.22s2.07-1.5,3.62-1.5,2.75.5,3.62,1.5c.87,1,1.3,2.41,1.3,4.22v3.12c0,1.87-.43,3.29-1.3,4.26-.87.97-2.07,1.46-3.62,1.46s-2.75-.49-3.62-1.46c-.87-.97-1.3-2.39-1.3-4.26v-3.12ZM668.13,458.25c1.08,0,1.89-.37,2.43-1.11.54-.74.81-1.8.81-3.17v-2.88c0-1.28-.27-2.31-.81-3.1s-1.35-1.18-2.43-1.18-1.89.39-2.43,1.18-.81,1.82-.81,3.1v2.88c0,1.37.27,2.43.81,3.17.54.74,1.35,1.11,2.43,1.11Z"/><path class="cls-8" d="M684.75,459.53h-1.68v-4.68c0-.35-.08-.61-.24-.8-.16-.19-.44-.28-.84-.28h-4.36v5.76h-1.68v-14h5c.72,0,1.35.1,1.88.31.53.21.98.48,1.33.83.35.35.62.75.8,1.21s.27.94.27,1.45v.6c0,.52-.14,1.04-.43,1.56-.29.52-.73.92-1.33,1.2v.24c.4.07.71.23.94.48.23.25.34.61.34,1.08v5.04ZM677.63,452.21h3.12c.95,0,1.65-.2,2.11-.61.46-.41.69-1,.69-1.79v-.36c0-.71-.23-1.28-.69-1.71s-1.16-.65-2.11-.65h-3.12v5.12Z"/><path class="cls-8" d="M695.61,456.05h-6l-1.02,3.48h-1.8l4.24-14h3.16l4.24,14h-1.8l-1.02-3.48ZM692.49,446.25l-2.42,8.24h5.08l-2.42-8.24h-.24Z"/><path class="cls-8" d="M703.51,452.81h6.24v6.72h-1.56v-1.68h-.24c-.23.59-.63,1.06-1.2,1.42-.57.36-1.24.54-2,.54-1.51,0-2.69-.49-3.55-1.46-.86-.97-1.29-2.39-1.29-4.26v-3.12c0-1.81.43-3.22,1.3-4.22s2.07-1.5,3.62-1.5c.8,0,1.51.13,2.12.39.61.26,1.13.62,1.54,1.08.41.46.73,1,.94,1.62.21.62.32,1.28.32,1.99v.24h-1.68v-.24c0-.45-.06-.89-.19-1.32-.13-.43-.32-.8-.58-1.13-.26-.33-.59-.59-1-.78-.41-.19-.9-.29-1.47-.29-1.08,0-1.89.39-2.43,1.18s-.81,1.82-.81,3.1v2.88c0,1.37.27,2.43.81,3.17.54.74,1.36,1.11,2.47,1.11,1,0,1.78-.32,2.35-.96.57-.64.85-1.53.85-2.68v-.24h-4.56v-1.56Z"/><path class="cls-8" d="M712.85,445.53h8.48v1.56h-6.8v4.64h6.68v1.56h-6.68v4.68h6.92v1.56h-8.6v-14Z"/><rect class="cls-3" x="605.13" y="391.88" width="93.71" height="38.22" rx="2" ry="2"/><rect class="cls-3" x="584.63" y="397.84" width="20.5" height="26.27"/><line class="cls-4" x1="584.63" y1="412.98" x2="605.13" y2="412.98"/><polyline class="cls-3" points="201.5 308.1 156.61 308.1 156.61 229.47"/><polygon class="cls-8" points="161.6 230.93 156.61 222.3 151.63 230.93 161.6 230.93"/><line class="cls-3" x1="368.04" y1="308.1" x2="293.24" y2="308.1"/><path class="cls-8" d="M211.36,308.6v4.22h-2.11v-11.2h4.38c.58,0,1.08.09,1.5.28.43.19.78.43,1.06.74.28.3.5.65.64,1.04.14.39.22.79.22,1.19v.38c0,.42-.07.82-.22,1.22-.14.4-.36.76-.64,1.07-.28.32-.64.57-1.06.76-.43.19-.93.29-1.5.29h-2.27ZM211.36,306.58h2.06c.47,0,.84-.13,1.11-.38s.41-.59.41-.99v-.19c0-.41-.14-.74-.41-.99-.27-.26-.64-.38-1.11-.38h-2.06v2.94Z"/><path class="cls-8" d="M228.42,301.62v7.33c0,1.28-.34,2.28-1.02,3.01-.68.73-1.68,1.09-3.02,1.09s-2.34-.36-3.02-1.09-1.02-1.73-1.02-3.01v-7.33h2.11v7.33c0,.66.15,1.18.46,1.55.31.37.79.56,1.46.56s1.15-.19,1.46-.56c.31-.37.46-.89.46-1.55v-7.33h2.11Z"/><path class="cls-8" d="M231.62,310.8h1.06v-7.17h-1.06v-2.02h4.91c.53,0,1.01.07,1.42.22s.76.35,1.04.61.5.56.64.92.22.74.22,1.16v.19c0,.64-.18,1.15-.54,1.54-.36.38-.81.65-1.35.8v.29c.54.15.99.42,1.35.81s.54.9.54,1.54v.19c0,.42-.07.8-.22,1.16s-.36.67-.64.93c-.28.26-.63.47-1.04.62-.41.15-.88.22-1.42.22h-4.91v-2.02ZM234.78,306.2h1.54c.45,0,.81-.09,1.09-.28s.42-.5.42-.95v-.1c0-.45-.14-.77-.42-.95s-.64-.28-1.09-.28h-1.54v2.56ZM234.78,310.8h1.54c.45,0,.81-.1,1.09-.29.28-.19.42-.51.42-.96v-.1c0-.45-.14-.77-.42-.96s-.64-.29-1.09-.29h-1.54v2.59Z"/><path class="cls-8" d="M243.58,301.62h2.11v9.18h5.09v2.02h-7.2v-11.2Z"/><path class="cls-8" d="M254.82,301.62h7.49v2.02h-2.69v7.17h2.69v2.02h-7.49v-2.02h2.69v-7.17h-2.69v-2.02Z"/><path class="cls-8" d="M271.87,305.04c0-.45-.17-.84-.52-1.17-.35-.33-.83-.5-1.46-.5-.53,0-.95.11-1.26.33s-.46.51-.46.89c0,.19.04.37.11.52s.21.29.39.42.43.23.74.33c.3.1.69.19,1.16.27,1.17.21,2.07.57,2.69,1.07.62.5.93,1.24.93,2.22v.19c0,.52-.09,1-.28,1.42-.19.42-.46.78-.81,1.08-.35.3-.78.53-1.28.69-.5.16-1.07.24-1.7.24-.74,0-1.38-.1-1.94-.31s-1.03-.5-1.4-.86-.66-.8-.85-1.3c-.19-.5-.29-1.04-.29-1.62v-.48h2.11v.38c0,.67.19,1.21.58,1.61.39.4.99.6,1.82.6.64,0,1.11-.14,1.42-.42.31-.28.46-.61.46-.99,0-.18-.03-.35-.1-.52-.06-.17-.18-.31-.34-.45-.16-.13-.38-.25-.66-.36-.28-.11-.63-.2-1.06-.27-.57-.1-1.08-.22-1.55-.38-.47-.15-.88-.36-1.22-.62-.35-.26-.62-.58-.81-.96-.19-.38-.29-.85-.29-1.41v-.1c0-.46.09-.88.28-1.27.19-.39.45-.73.78-1.02.34-.29.74-.51,1.22-.67.47-.16,1-.24,1.59-.24.66,0,1.25.09,1.76.28.51.19.94.44,1.29.76.35.32.61.69.78,1.1.18.42.26.85.26,1.31v.58h-2.11v-.38Z"/><path class="cls-8" d="M277.42,301.62h2.11v4.58h3.62v-4.58h2.11v11.2h-2.11v-4.61h-3.62v4.61h-2.11v-11.2Z"/><polyline class="cls-3" points="640.42 331.82 672.1 331.82 672.1 219.66"/><line class="cls-3" x1="457.77" y1="331.82" x2="436.51" y2="331.82"/><polygon class="cls-8" points="437.97 326.84 429.33 331.82 437.97 336.81 437.97 326.84"/><polyline class="cls-3" points="546.69 298.1 642.21 298.1 642.21 226.47"/><polygon class="cls-8" points="647.2 227.93 642.21 219.3 637.23 227.93 647.2 227.93"/><line class="cls-3" x1="429.33" y1="298.1" x2="457.77" y2="298.1"/><path class="cls-8" d="M471.59,329.03c0-.45-.17-.84-.52-1.17-.35-.33-.83-.5-1.46-.5-.53,0-.95.11-1.26.33s-.46.51-.46.89c0,.19.04.37.11.52.07.16.21.29.39.42.19.12.43.23.74.33.3.1.69.19,1.16.27,1.17.21,2.07.57,2.69,1.07.62.5.93,1.24.93,2.22v.19c0,.52-.09,1-.28,1.42-.19.42-.46.78-.81,1.08-.35.3-.78.53-1.28.69s-1.07.24-1.7.24c-.74,0-1.38-.1-1.94-.31s-1.03-.5-1.4-.86c-.37-.37-.66-.8-.85-1.3-.19-.5-.29-1.04-.29-1.62v-.48h2.11v.38c0,.67.19,1.21.58,1.61.39.4.99.6,1.82.6.64,0,1.11-.14,1.42-.42.31-.28.46-.61.46-.99,0-.18-.03-.35-.1-.52s-.18-.31-.34-.45c-.16-.13-.38-.25-.66-.36-.28-.11-.63-.2-1.06-.27-.57-.1-1.08-.22-1.55-.38s-.88-.36-1.22-.62c-.35-.26-.62-.58-.81-.96s-.29-.85-.29-1.41v-.1c0-.46.09-.88.28-1.27.19-.39.45-.73.78-1.02s.74-.51,1.22-.67c.47-.16,1-.24,1.59-.24.66,0,1.25.09,1.76.28.51.19.94.44,1.29.76s.61.69.78,1.1c.18.42.26.85.26,1.31v.58h-2.11v-.38Z"/><path class="cls-8" d="M477.31,325.6h7.49v2.02h-2.69v7.17h2.69v2.02h-7.49v-2.02h2.69v-7.17h-2.69v-2.02Z"/><path class="cls-8" d="M491.72,331.14h4.8v5.66h-1.92v-1.25h-.29c-.13.42-.37.77-.74,1.05-.36.28-.91.42-1.63.42-.51,0-.99-.1-1.44-.29-.45-.19-.84-.48-1.17-.86-.33-.38-.59-.85-.78-1.41-.19-.56-.29-1.21-.29-1.96v-2.62c0-.72.1-1.37.31-1.93.21-.56.5-1.03.86-1.42.37-.38.81-.67,1.32-.87.51-.2,1.08-.3,1.7-.3s1.21.1,1.71.31.93.5,1.28.86.62.8.8,1.3c.18.5.27,1.03.27,1.59v.19h-2.11v-.19c0-.67-.17-1.18-.52-1.53-.35-.35-.83-.52-1.46-.52s-1.09.2-1.47.6c-.38.4-.58,1.08-.58,2.06v2.37c0,1.73.7,2.59,2.11,2.59.63,0,1.11-.17,1.43-.5s.49-.79.49-1.35h-2.69v-2.02Z"/><path class="cls-8" d="M505.36,335.75h.29v-10.14h2.11v11.2h-4.13l-1.31-10.14h-.29v10.14h-2.11v-11.2h4.13l1.31,10.14Z"/><path class="cls-8" d="M517.14,334.4h-3.81l-.54,2.4h-2.21l2.67-11.2h3.97l2.67,11.2h-2.21l-.54-2.4ZM513.78,332.39h2.9l-1.3-5.73h-.29l-1.31,5.73Z"/><path class="cls-8" d="M522.59,325.6h8.06v2.02h-2.98v9.18h-2.11v-9.18h-2.98v-2.02Z"/><path class="cls-8" d="M542.05,325.6v7.33c0,1.28-.34,2.28-1.02,3.01-.68.72-1.68,1.09-3.02,1.09s-2.34-.36-3.02-1.09c-.68-.73-1.02-1.73-1.02-3.01v-7.33h2.11v7.33c0,.66.15,1.18.46,1.55.31.37.79.56,1.46.56s1.15-.19,1.46-.56c.31-.37.46-.89.46-1.55v-7.33h2.11Z"/><path class="cls-8" d="M553.2,336.8h-2.11v-3.36c0-.26-.07-.46-.2-.62-.13-.16-.35-.24-.66-.24h-2.43v4.22h-2.11v-11.2h4.29c.58,0,1.08.08,1.52.24.44.16.8.38,1.1.66.29.28.52.61.67.98.15.37.23.77.23,1.2v.38c0,.46-.12.89-.37,1.29-.25.4-.62.71-1.14.92v.29c.37.04.67.19.89.43s.33.55.33.93v3.87ZM547.79,330.56h2.02c.51,0,.9-.12,1.17-.36s.4-.58.4-1.02v-.19c0-.37-.13-.7-.4-.97-.27-.27-.66-.41-1.17-.41h-2.02v2.94Z"/><path class="cls-8" d="M557.22,325.6h7.07v2.02h-4.96v2.56h4.77v2.02h-4.77v2.59h5.15v2.02h-7.26v-11.2Z"/><path class="cls-8" d="M585.51,329.03c0-.45-.17-.84-.52-1.17-.35-.33-.83-.5-1.46-.5-.53,0-.95.11-1.26.33s-.46.51-.46.89c0,.19.04.37.11.52.07.16.21.29.39.42.19.12.43.23.74.33.3.1.69.19,1.16.27,1.17.21,2.07.57,2.69,1.07.62.5.93,1.24.93,2.22v.19c0,.52-.09,1-.28,1.42-.19.42-.46.78-.81,1.08-.35.3-.78.53-1.28.69s-1.07.24-1.7.24c-.74,0-1.38-.1-1.94-.31s-1.03-.5-1.4-.86c-.37-.37-.66-.8-.85-1.3-.19-.5-.29-1.04-.29-1.62v-.48h2.11v.38c0,.67.19,1.21.58,1.61.39.4.99.6,1.82.6.64,0,1.11-.14,1.42-.42.31-.28.46-.61.46-.99,0-.18-.03-.35-.1-.52s-.18-.31-.34-.45c-.16-.13-.38-.25-.66-.36-.28-.11-.63-.2-1.06-.27-.57-.1-1.08-.22-1.55-.38s-.88-.36-1.22-.62c-.35-.26-.62-.58-.81-.96s-.29-.85-.29-1.41v-.1c0-.46.09-.88.28-1.27.19-.39.45-.73.78-1.02s.74-.51,1.22-.67c.47-.16,1-.24,1.59-.24.66,0,1.25.09,1.76.28.51.19.94.44,1.29.76s.61.69.78,1.1c.18.42.26.85.26,1.31v.58h-2.11v-.38Z"/><path class="cls-8" d="M591.06,325.6h2.11v4.58h3.62v-4.58h2.11v11.2h-2.11v-4.61h-3.62v4.61h-2.11v-11.2Z"/><path class="cls-8" d="M608.27,334.4h-3.81l-.54,2.4h-2.21l2.67-11.2h3.97l2.67,11.2h-2.21l-.54-2.4ZM604.92,332.39h2.9l-1.3-5.73h-.29l-1.31,5.73Z"/><path class="cls-8" d="M621.55,336.8h-2.11v-3.36c0-.26-.07-.46-.2-.62-.13-.16-.35-.24-.66-.24h-2.43v4.22h-2.11v-11.2h4.29c.58,0,1.08.08,1.52.24.44.16.8.38,1.1.66.29.28.52.61.67.98.15.37.23.77.23,1.2v.38c0,.46-.12.89-.37,1.29-.25.4-.62.71-1.14.92v.29c.37.04.67.19.89.43s.33.55.33.93v3.87ZM616.15,330.56h2.02c.51,0,.9-.12,1.17-.36s.4-.58.4-1.02v-.19c0-.37-.13-.7-.4-.97-.27-.27-.66-.41-1.17-.41h-2.02v2.94Z"/><path class="cls-8" d="M625.57,325.6h7.07v2.02h-4.96v2.56h4.77v2.02h-4.77v2.59h5.15v2.02h-7.26v-11.2Z"/><path class="cls-8" d="M469.7,302.05c.4,0,.74-.06,1-.18.26-.12.46-.29.61-.5s.24-.45.3-.72c.05-.27.08-.55.08-.84v-.29h2.11v.29c0,1.33-.35,2.36-1.05,3.08-.7.72-1.71,1.08-3.05,1.08s-2.29-.39-3.04-1.17c-.75-.78-1.12-1.91-1.12-3.41v-2.5c0-.71.1-1.36.29-1.93.19-.57.47-1.05.83-1.44.36-.39.8-.69,1.31-.9.51-.21,1.09-.31,1.73-.31s1.25.1,1.76.29c.51.19.94.47,1.29.83.35.36.61.8.78,1.31.18.51.26,1.09.26,1.73v.29h-2.11v-.29c0-.27-.03-.53-.1-.8s-.17-.51-.32-.72c-.15-.21-.35-.39-.61-.52-.26-.13-.58-.2-.96-.2-.35,0-.66.07-.91.2-.26.13-.47.32-.64.54-.17.23-.3.5-.38.8-.08.3-.12.62-.12.95v2.82c0,.36.04.7.11,1,.07.3.19.57.35.79.16.22.37.4.63.52.26.12.58.18.95.18Z"/><path class="cls-8" d="M476.93,296.89c0-1.45.37-2.58,1.1-3.38.73-.8,1.74-1.2,3.03-1.2s2.3.4,3.03,1.2c.73.8,1.1,1.93,1.1,3.38v2.5c0,1.49-.37,2.63-1.1,3.41-.73.78-1.74,1.17-3.03,1.17s-2.3-.39-3.03-1.17c-.73-.78-1.1-1.91-1.1-3.41v-2.5ZM481.06,302.05c.38,0,.7-.06.96-.18.26-.12.46-.3.62-.52.16-.22.27-.49.34-.8s.1-.65.1-1.02v-2.75c0-.35-.04-.68-.11-.99-.07-.31-.19-.58-.35-.8-.16-.22-.37-.4-.62-.54-.26-.13-.57-.2-.93-.2s-.67.07-.93.2c-.26.13-.46.31-.62.54-.16.22-.28.49-.35.8-.07.31-.11.64-.11.99v2.75c0,.37.03.71.1,1.02s.18.58.34.8c.16.22.37.4.62.52.26.12.58.18.96.18Z"/><path class="cls-8" d="M489.96,298.43h4.99v1.82h-4.99v-1.82Z"/><path class="cls-8" d="M505.76,295.97c0-.45-.17-.84-.52-1.17-.35-.33-.83-.5-1.46-.5-.53,0-.95.11-1.26.33s-.46.51-.46.89c0,.19.04.37.11.52s.21.29.39.42.43.23.74.33c.3.1.69.19,1.16.27,1.17.21,2.07.57,2.69,1.07.62.5.93,1.24.93,2.22v.19c0,.52-.09,1-.28,1.42-.19.42-.46.78-.81,1.08-.35.3-.78.53-1.28.69-.5.16-1.07.24-1.7.24-.74,0-1.38-.1-1.94-.31s-1.03-.5-1.4-.86-.66-.8-.85-1.3c-.19-.5-.29-1.04-.29-1.62v-.48h2.11v.38c0,.67.19,1.21.58,1.61.39.4.99.6,1.82.6.64,0,1.11-.14,1.42-.42.31-.28.46-.61.46-.99,0-.18-.03-.35-.1-.52-.06-.17-.18-.31-.34-.45-.16-.13-.38-.25-.66-.36-.28-.11-.63-.2-1.06-.27-.57-.1-1.08-.22-1.55-.38-.47-.15-.88-.36-1.22-.62-.35-.26-.62-.58-.81-.96-.19-.38-.29-.85-.29-1.41v-.1c0-.46.09-.88.28-1.27.19-.39.45-.73.78-1.02.34-.29.74-.51,1.22-.67.47-.16,1-.24,1.59-.24.66,0,1.25.09,1.76.28.51.19.94.44,1.29.76.35.32.61.69.78,1.1.18.42.26.85.26,1.31v.58h-2.11v-.38Z"/><path class="cls-8" d="M511.49,292.54h7.49v2.02h-2.69v7.17h2.69v2.02h-7.49v-2.02h2.69v-7.17h-2.69v-2.02Z"/><path class="cls-8" d="M525.89,298.08h4.8v5.66h-1.92v-1.25h-.29c-.13.42-.37.77-.74,1.05-.36.28-.91.42-1.63.42-.51,0-.99-.1-1.44-.29-.45-.19-.84-.48-1.17-.86s-.59-.85-.78-1.41c-.19-.56-.29-1.21-.29-1.96v-2.62c0-.73.1-1.37.31-1.93.21-.56.5-1.03.86-1.42.37-.38.81-.67,1.32-.87.51-.2,1.08-.3,1.7-.3s1.21.1,1.71.31.93.5,1.28.86.62.8.8,1.3c.18.5.27,1.03.27,1.59v.19h-2.11v-.19c0-.67-.17-1.18-.52-1.53-.35-.35-.83-.52-1.46-.52s-1.09.2-1.47.6c-.38.4-.58,1.09-.58,2.06v2.37c0,1.73.7,2.59,2.11,2.59.63,0,1.11-.17,1.43-.5s.49-.79.49-1.35h-2.69v-2.02Z"/><path class="cls-8" d="M539.54,302.69h.29v-10.14h2.11v11.2h-4.13l-1.31-10.14h-.29v10.14h-2.11v-11.2h4.13l1.31,10.14Z"/><circle cx="640.76" cy="410.99" r="2.83"/><rect x="615.84" y="410.31" width="22.55" height="1.35"/><polygon points="616.43 408.96 612.92 410.99 616.43 413.01 616.43 408.96"/><circle cx="624.32" cy="416.12" r="1.92"/><path d="M628.7,416.8h-3.57v-1.35h3.57c1.03,0,2.83-1.34,4.42-2.52,1.8-1.34,3.5-2.61,4.82-2.61v1.35c-.87,0-2.53,1.24-4.01,2.34-1.93,1.44-3.74,2.79-5.23,2.79Z"/><path d="M632.57,411.67c-1.35,0-2.78-1.26-4.3-2.59-1.3-1.14-2.78-2.44-3.78-2.44h-3.57v-1.35h3.57c1.51,0,3.12,1.41,4.67,2.77,1.21,1.06,2.57,2.26,3.41,2.26v1.35Z"/><rect x="618.36" y="403.95" width="3.57" height="3.57" transform="translate(1240.29 811.47) rotate(180)"/><path class="cls-9" d="M409.92,312.76h-3.81l-.54,2.4h-2.21l2.67-11.2h3.97l2.67,11.2h-2.21l-.54-2.4ZM406.56,310.75h2.9l-1.3-5.73h-.29l-1.31,5.73Z"/><circle class="cls-3" cx="396.79" cy="305.11" r="6.15"/><polyline class="cls-3" points="394.85 311.13 394.85 324.76 396.79 326.68 399.13 324.13 399.18 322.7 397.81 321.8 399.23 320.43 398.2 319.64 398.2 318.04 399.04 317 399.04 314.89 397.93 314.17 399.04 312.82 399.04 311.13"/><line class="cls-5" x1="396.79" y1="326.3" x2="396.79" y2="316.2"/><circle class="cls-5" cx="396.61" cy="301.63" r="1.45"/><path class="cls-9" d="M683.27,413.66c.4,0,.74-.06,1-.18.26-.12.46-.29.61-.5s.24-.45.3-.72c.05-.27.08-.55.08-.84v-.29h2.11v.29c0,1.33-.35,2.36-1.05,3.08-.7.72-1.71,1.08-3.05,1.08s-2.29-.39-3.04-1.17c-.75-.78-1.12-1.91-1.12-3.41v-2.5c0-.71.1-1.36.29-1.93.19-.57.47-1.05.83-1.44.36-.39.8-.69,1.31-.9.51-.21,1.09-.31,1.73-.31s1.25.1,1.76.29c.51.19.94.47,1.29.83.35.36.61.8.78,1.31.18.51.26,1.09.26,1.73v.29h-2.11v-.29c0-.27-.03-.53-.1-.8s-.17-.51-.32-.72c-.15-.21-.35-.39-.61-.52-.26-.13-.58-.2-.96-.2-.35,0-.66.07-.91.2-.26.13-.47.32-.64.54-.17.23-.3.5-.38.8-.08.3-.12.62-.12.95v2.82c0,.36.04.7.11,1,.07.3.19.57.35.79.16.22.37.4.63.52.26.12.58.18.95.18Z"/><circle class="cls-3" cx="671.01" cy="403.3" r="6.15"/><polyline class="cls-3" points="669.06 409.33 669.06 422.96 671.01 424.87 673.35 422.33 673.39 420.89 672.03 420 673.44 418.62 672.41 417.83 672.41 416.23 673.25 415.2 673.25 413.08 672.15 412.36 673.25 411.01 673.25 409.33"/><line class="cls-5" x1="671.01" y1="424.49" x2="671.01" y2="414.4"/><circle class="cls-5" cx="670.83" cy="399.82" r="1.45"/><path class="cls-9" d="M630.38,174.95h1.06v-7.17h-1.06v-2.02h4.91c.53,0,1.01.07,1.42.22s.76.35,1.04.61c.28.26.5.56.64.92.14.36.22.74.22,1.16v.19c0,.64-.18,1.15-.54,1.54-.36.38-.81.65-1.35.8v.29c.54.15.99.42,1.35.81.36.39.54.9.54,1.54v.19c0,.42-.07.8-.22,1.16s-.36.67-.64.93-.63.47-1.04.62c-.41.15-.88.22-1.42.22h-4.91v-2.02ZM633.54,170.34h1.54c.45,0,.81-.09,1.09-.28s.42-.5.42-.95v-.1c0-.45-.14-.77-.42-.95s-.64-.28-1.09-.28h-1.54v2.56ZM633.54,174.95h1.54c.45,0,.81-.1,1.09-.29.28-.19.42-.51.42-.96v-.1c0-.45-.14-.77-.42-.96-.28-.19-.64-.29-1.09-.29h-1.54v2.59Z"/><circle class="cls-6" cx="621.31" cy="166.91" r="6.15"/><polyline class="cls-6" points="619.37 172.94 619.37 186.57 621.31 188.49 623.65 185.94 623.7 184.5 622.33 183.61 623.74 182.24 622.71 181.45 622.71 179.85 623.55 178.81 623.55 176.69 622.45 175.98 623.55 174.62 623.55 172.94"/><line class="cls-2" x1="621.31" y1="188.1" x2="621.31" y2="178.01"/><circle class="cls-2" cx="621.13" cy="163.43" r="1.45"/></svg>