<?xml version="1.0" encoding="UTF-8"?><svg id="Layer_1" xmlns="http://www.w3.org/2000/svg" viewBox="0 0 800 600"><defs><style>.cls-1{fill:#4d4d4d;}.cls-2{fill:#e2e2e2;}.cls-2,.cls-3,.cls-4,.cls-5{stroke-miterlimit:10;}.cls-2,.cls-4{stroke:#333;}.cls-6{fill:#7c7cf7;}.cls-3{stroke:#000;}.cls-3,.cls-5{fill:none;}.cls-4{fill:#efefef;}.cls-5{stroke:#4d4d4d;stroke-dasharray:5 2;}</style></defs><path class="cls-6" d="M94.5,58.4c.75,0,1.38-.13,1.91-.38.53-.25.96-.59,1.3-1.01.34-.42.59-.91.75-1.46.16-.55.25-1.12.25-1.73v-.31h2.18v.31c0,.92-.14,1.78-.42,2.59-.28.81-.68,1.51-1.22,2.11-.54.6-1.21,1.07-2,1.4-.8.34-1.72.51-2.76.51-2.01,0-3.58-.63-4.71-1.9-1.13-1.26-1.69-3.11-1.69-5.54v-4.06c0-2.36.56-4.19,1.69-5.49,1.13-1.3,2.7-1.95,4.71-1.95,1.04,0,1.96.17,2.76.51.8.34,1.46.81,2,1.4.54.6.94,1.3,1.22,2.11.28.81.42,1.67.42,2.59v.31h-2.18v-.31c-.02-.59-.11-1.16-.27-1.72-.17-.55-.42-1.04-.75-1.47-.34-.42-.77-.76-1.29-1.01-.52-.25-1.15-.38-1.9-.38-1.4,0-2.46.51-3.16,1.53-.7,1.02-1.05,2.37-1.05,4.03v3.74c0,1.79.35,3.16,1.05,4.12.7.96,1.75,1.44,3.16,1.44Z"/><path class="cls-6" d="M103.91,48.94c0-2.36.56-4.19,1.69-5.49,1.13-1.3,2.7-1.95,4.71-1.95s3.58.65,4.71,1.95c1.13,1.3,1.69,3.13,1.69,5.49v4.06c0,2.43-.56,4.27-1.69,5.54-1.13,1.27-2.7,1.9-4.71,1.9s-3.58-.63-4.71-1.9c-1.13-1.26-1.69-3.11-1.69-5.54v-4.06ZM110.3,58.4c1.4,0,2.46-.48,3.16-1.44s1.05-2.34,1.05-4.12v-3.74c0-1.66-.35-3.01-1.05-4.03-.7-1.02-1.75-1.53-3.16-1.53s-2.46.51-3.16,1.53c-.7,1.02-1.05,2.37-1.05,4.03v3.74c0,1.79.35,3.16,1.05,4.12s1.75,1.44,3.16,1.44Z"/><path class="cls-6" d="M119.82,48.94c0-2.36.56-4.19,1.69-5.49,1.13-1.3,2.7-1.95,4.71-1.95s3.58.65,4.71,1.95c1.13,1.3,1.69,3.13,1.69,5.49v4.06c0,2.43-.56,4.27-1.69,5.54-1.13,1.27-2.7,1.9-4.71,1.9s-3.58-.63-4.71-1.9c-1.13-1.26-1.69-3.11-1.69-5.54v-4.06ZM126.22,58.4c1.4,0,2.46-.48,3.16-1.44s1.05-2.34,1.05-4.12v-3.74c0-1.66-.35-3.01-1.05-4.03-.7-1.02-1.75-1.53-3.16-1.53s-2.46.51-3.16,1.53c-.7,1.02-1.05,2.37-1.05,4.03v3.74c0,1.79.35,3.16,1.05,4.12s1.75,1.44,3.16,1.44Z"/><path class="cls-6" d="M147.82,60.06h-2.18v-6.08c0-.45-.1-.8-.31-1.04-.21-.24-.57-.36-1.09-.36h-5.67v7.49h-2.18v-18.2h6.5c.94,0,1.75.13,2.44.4.69.27,1.27.63,1.73,1.08s.81.97,1.04,1.57c.23.6.35,1.23.35,1.89v.78c0,.68-.19,1.35-.56,2.03-.37.68-.95,1.2-1.73,1.56v.31c.52.09.93.29,1.22.62.29.33.44.8.44,1.4v6.55ZM138.57,50.55h4.06c1.23,0,2.14-.26,2.74-.79.6-.53.9-1.3.9-2.33v-.47c0-.92-.3-1.66-.9-2.22-.6-.56-1.51-.84-2.74-.84h-4.06v6.66Z"/><path class="cls-6" d="M151.98,41.86h5.98c2.25,0,3.9.54,4.94,1.61s1.56,2.79,1.56,5.15v4.68c0,2.36-.52,4.07-1.56,5.15s-2.69,1.61-4.94,1.61h-5.98v-2.05h1.56v-14.12h-1.56v-2.03ZM157.65,58.04c.8,0,1.49-.08,2.07-.23.58-.16,1.06-.42,1.44-.79.38-.37.66-.87.84-1.49s.27-1.41.27-2.37v-4.37c0-.95-.09-1.74-.27-2.37s-.46-1.12-.84-1.5c-.38-.37-.86-.64-1.44-.79-.58-.16-1.27-.23-2.07-.23h-1.92v14.14h1.92Z"/><path class="cls-6" d="M168.18,41.86h11.54v2.03h-4.68v14.14h4.68v2.03h-11.54v-2.03h4.68v-14.14h-4.68v-2.03Z"/><path class="cls-6" d="M193.43,59.13h.31v-17.26h2.18v18.2h-4.37l-5.25-17.26h-.31v17.26h-2.18v-18.2h4.37l5.25,17.26Z"/><path class="cls-6" d="M209.68,55.54h-7.8l-1.33,4.52h-2.34l5.51-18.2h4.11l5.51,18.2h-2.34l-1.33-4.52ZM205.62,42.8l-3.15,10.71h6.6l-3.15-10.71h-.31Z"/><path class="cls-6" d="M215.29,41.86h12.79v2.03h-5.3v16.17h-2.18v-16.17h-5.3v-2.03Z"/><path class="cls-6" d="M231.2,48.94c0-2.36.56-4.19,1.69-5.49,1.13-1.3,2.7-1.95,4.71-1.95s3.58.65,4.71,1.95c1.13,1.3,1.69,3.13,1.69,5.49v4.06c0,2.43-.56,4.27-1.69,5.54-1.13,1.27-2.7,1.9-4.71,1.9s-3.58-.63-4.71-1.9c-1.13-1.26-1.69-3.11-1.69-5.54v-4.06ZM237.6,58.4c1.4,0,2.46-.48,3.16-1.44s1.05-2.34,1.05-4.12v-3.74c0-1.66-.35-3.01-1.05-4.03-.7-1.02-1.75-1.53-3.16-1.53s-2.46.51-3.16,1.53c-.7,1.02-1.05,2.37-1.05,4.03v3.74c0,1.79.35,3.16,1.05,4.12s1.75,1.44,3.16,1.44Z"/><path class="cls-6" d="M259.21,60.06h-2.18v-6.08c0-.45-.1-.8-.31-1.04-.21-.24-.57-.36-1.09-.36h-5.67v7.49h-2.18v-18.2h6.5c.94,0,1.75.13,2.44.4.69.27,1.27.63,1.73,1.08s.81.97,1.04,1.57c.23.6.35,1.23.35,1.89v.78c0,.68-.19,1.35-.56,2.03-.37.68-.95,1.2-1.73,1.56v.31c.52.09.93.29,1.22.62.29.33.44.8.44,1.4v6.55ZM249.95,50.55h4.06c1.23,0,2.14-.26,2.74-.79.6-.53.9-1.3.9-2.33v-.47c0-.92-.3-1.66-.9-2.22-.6-.56-1.51-.84-2.74-.84h-4.06v6.66Z"/><path class="cls-6" d="M526.88,58.4c.75,0,1.38-.12,1.91-.38.53-.25.96-.59,1.3-1.01.34-.42.59-.91.75-1.46.16-.55.25-1.12.25-1.73v-.31h2.18v.31c0,.92-.14,1.78-.42,2.59-.28.81-.68,1.51-1.22,2.11-.54.6-1.21,1.07-2,1.4-.8.34-1.72.51-2.76.51-2.01,0-3.58-.63-4.71-1.9-1.13-1.26-1.69-3.11-1.69-5.54v-4.06c0-2.36.56-4.19,1.69-5.49,1.13-1.3,2.7-1.95,4.71-1.95,1.04,0,1.96.17,2.76.51.8.34,1.46.81,2,1.4.54.6.94,1.3,1.22,2.11s.42,1.67.42,2.59v.31h-2.18v-.31c-.02-.59-.11-1.16-.27-1.72-.17-.55-.42-1.04-.75-1.47s-.77-.76-1.29-1.01c-.52-.25-1.15-.38-1.9-.38-1.4,0-2.46.51-3.16,1.53-.7,1.02-1.05,2.37-1.05,4.03v3.74c0,1.79.35,3.16,1.05,4.12.7.96,1.75,1.44,3.16,1.44Z"/><path class="cls-6" d="M536.29,48.93c0-2.36.56-4.19,1.69-5.49,1.13-1.3,2.7-1.95,4.71-1.95s3.58.65,4.71,1.95c1.13,1.3,1.69,3.13,1.69,5.49v4.06c0,2.43-.56,4.27-1.69,5.54-1.13,1.27-2.7,1.9-4.71,1.9s-3.58-.63-4.71-1.9c-1.13-1.26-1.69-3.11-1.69-5.54v-4.06ZM542.68,58.4c1.4,0,2.46-.48,3.16-1.44s1.05-2.34,1.05-4.12v-3.74c0-1.66-.35-3.01-1.05-4.03-.7-1.02-1.75-1.53-3.16-1.53s-2.46.51-3.16,1.53c-.7,1.02-1.05,2.37-1.05,4.03v3.74c0,1.79.35,3.16,1.05,4.12s1.75,1.44,3.16,1.44Z"/><path class="cls-6" d="M562.89,47.11c0-.59-.12-1.11-.35-1.56-.23-.45-.55-.82-.95-1.12-.4-.29-.86-.52-1.38-.68-.52-.16-1.07-.23-1.64-.23-.5,0-.98.07-1.43.2-.45.13-.85.32-1.21.56-.36.24-.64.54-.84.9s-.31.77-.31,1.24v.16c0,.5.1.93.31,1.29.21.36.52.66.92.91.41.25.91.46,1.52.62.61.17,1.32.31,2.13.43,1.91.29,3.31.85,4.21,1.68.9.82,1.35,1.93,1.35,3.31v.31c0,.78-.13,1.5-.4,2.14-.27.65-.67,1.21-1.2,1.68-.53.47-1.18.83-1.96,1.09-.78.26-1.68.39-2.7.39-1.16,0-2.19-.17-3.08-.51-.89-.34-1.64-.81-2.24-1.4s-1.05-1.3-1.37-2.11c-.31-.81-.47-1.69-.47-2.64v-.78h2.18v.62c0,1.6.44,2.79,1.31,3.59.88.8,2.09,1.2,3.65,1.2,1.35,0,2.37-.3,3.05-.9.68-.6,1.03-1.39,1.03-2.38v-.16c0-.95-.35-1.68-1.05-2.18-.7-.5-1.84-.87-3.42-1.09-.92-.12-1.75-.31-2.48-.56-.74-.25-1.37-.58-1.89-.99-.52-.41-.92-.9-1.2-1.47-.28-.57-.42-1.25-.42-2.03v-.31c0-.71.15-1.36.44-1.95.29-.59.71-1.1,1.24-1.53.53-.43,1.16-.77,1.9-1,.74-.23,1.55-.35,2.43-.35,1.02,0,1.94.15,2.74.44.81.29,1.49.69,2.04,1.18s.97,1.07,1.26,1.74c.29.67.43,1.36.43,2.09v1.09h-2.18v-.94Z"/><path class="cls-6" d="M568.74,41.86h11.54v2.03h-4.68v14.14h4.68v2.03h-11.54v-2.03h4.68v-14.14h-4.68v-2.03Z"/><path class="cls-6" d="M588.68,51.33h8.11v8.74h-2.03v-2.18h-.31c-.29.76-.82,1.38-1.56,1.85s-1.61.7-2.6.7c-1.96,0-3.5-.63-4.62-1.9-1.12-1.26-1.68-3.11-1.68-5.54v-4.06c0-2.36.56-4.19,1.69-5.49,1.13-1.3,2.7-1.95,4.71-1.95,1.04,0,1.96.17,2.76.51.8.34,1.46.81,2,1.4.54.6.94,1.3,1.22,2.11s.42,1.67.42,2.59v.31h-2.18v-.31c0-.59-.08-1.16-.25-1.72-.16-.55-.42-1.04-.75-1.47s-.77-.76-1.3-1.01c-.53-.25-1.17-.38-1.91-.38-1.4,0-2.46.51-3.16,1.53-.7,1.02-1.05,2.37-1.05,4.03v3.74c0,1.79.35,3.16,1.05,4.12.7.96,1.77,1.44,3.21,1.44,1.3,0,2.32-.42,3.05-1.25.74-.83,1.1-1.99,1.1-3.48v-.31h-5.93v-2.03Z"/><path class="cls-6" d="M609.89,59.13h.31v-17.26h2.18v18.2h-4.37l-5.25-17.26h-.31v17.26h-2.18v-18.2h4.37l5.25,17.26Z"/><path class="cls-6" d="M616.73,41.86h11.02v2.03h-8.84v6.03h8.68v2.03h-8.68v6.08h9v2.03h-11.18v-18.2Z"/><path class="cls-6" d="M643.85,60.06h-2.18v-6.08c0-.45-.1-.8-.31-1.04-.21-.24-.57-.36-1.09-.36h-5.67v7.49h-2.18v-18.2h6.5c.94,0,1.75.13,2.44.4.69.27,1.27.63,1.73,1.08.46.45.81.97,1.04,1.57.23.6.35,1.23.35,1.88v.78c0,.68-.19,1.35-.56,2.03-.37.68-.95,1.2-1.73,1.56v.31c.52.09.93.29,1.22.62.29.33.44.8.44,1.4v6.55ZM634.59,50.55h4.06c1.23,0,2.14-.26,2.74-.79.6-.53.9-1.3.9-2.33v-.47c0-.92-.3-1.66-.9-2.22-.6-.56-1.51-.84-2.74-.84h-4.06v6.66Z"/><line class="cls-5" x1="583.11" y1="70.41" x2="583.11" y2="546.57"/><polygon class="cls-1" points="578.12 545.11 583.11 553.75 588.1 545.11 578.12 545.11"/><line class="cls-5" x1="173.37" y1="70.41" x2="173.37" y2="546.57"/><polygon class="cls-1" points="168.38 545.11 173.37 553.75 178.35 545.11 168.38 545.11"/><path d="M404.96,107.99c.46,0,.85-.08,1.18-.23.33-.15.59-.36.8-.62s.36-.56.46-.9.15-.69.15-1.06v-.19h1.34v.19c0,.57-.09,1.1-.26,1.59-.17.5-.42.93-.75,1.3-.33.37-.74.66-1.23.86s-1.06.31-1.7.31c-1.24,0-2.2-.39-2.9-1.17s-1.04-1.91-1.04-3.41v-2.5c0-1.45.35-2.58,1.04-3.38.69-.8,1.66-1.2,2.9-1.2.64,0,1.21.1,1.7.31s.9.5,1.23.86c.33.37.58.8.75,1.3.17.5.26,1.03.26,1.59v.19h-1.34v-.19c-.01-.36-.07-.71-.17-1.06-.1-.34-.26-.64-.46-.9s-.47-.47-.79-.62c-.32-.15-.71-.23-1.17-.23-.86,0-1.51.31-1.94.94s-.65,1.46-.65,2.48v2.3c0,1.1.22,1.94.65,2.54.43.59,1.08.89,1.94.89Z"/><path d="M418.67,105.15c0,.66-.11,1.25-.33,1.75-.22.51-.51.93-.87,1.28-.36.35-.79.61-1.27.79-.49.18-.99.27-1.51.27s-1.04-.09-1.52-.27c-.48-.18-.9-.45-1.26-.79s-.65-.77-.87-1.28c-.22-.51-.33-1.09-.33-1.75v-.19c0-.65.11-1.23.33-1.74.22-.51.51-.94.88-1.29.37-.35.79-.62,1.27-.8.48-.18.98-.27,1.5-.27s1.02.09,1.5.27c.48.18.9.45,1.27.8.37.35.66.78.88,1.29.22.51.33,1.09.33,1.74v.19ZM414.69,108.06c.38,0,.74-.07,1.06-.2.33-.13.61-.33.86-.58.25-.26.44-.56.58-.92.14-.36.21-.76.21-1.21v-.19c0-.43-.07-.82-.21-1.18-.14-.36-.33-.66-.58-.92-.25-.26-.53-.46-.86-.6-.33-.14-.68-.22-1.06-.22s-.73.07-1.06.22c-.33.14-.62.34-.86.6-.25.26-.44.56-.58.92-.14.36-.21.75-.21,1.18v.19c0,.45.07.85.21,1.21s.33.66.58.92c.25.26.53.45.86.58.33.13.68.2,1.06.2Z"/><path d="M428.61,109.02h-1.25v-5.7c0-.37-.09-.68-.26-.92-.17-.24-.44-.36-.82-.36-.35,0-.64.13-.86.39-.22.26-.33.66-.33,1.21v5.38h-1.25v-5.76c0-.35-.1-.64-.29-.87s-.45-.34-.77-.34c-.38,0-.68.14-.89.42s-.31.64-.31,1.09v5.47h-1.25v-7.94h1.25v.86h.19c.14-.37.34-.65.61-.82s.58-.26.94-.26c.38,0,.7.1.95.3s.42.46.52.78h.19c.36-.73.94-1.09,1.73-1.09.6,0,1.06.19,1.38.57.33.38.49.87.49,1.48v6.11Z"/><path d="M438.4,109.02h-1.25v-5.7c0-.37-.09-.68-.26-.92-.17-.24-.44-.36-.82-.36-.35,0-.64.13-.86.39-.22.26-.33.66-.33,1.21v5.38h-1.25v-5.76c0-.35-.1-.64-.29-.87s-.45-.34-.77-.34c-.38,0-.68.14-.89.42s-.31.64-.31,1.09v5.47h-1.25v-7.94h1.25v.86h.19c.14-.37.34-.65.61-.82s.58-.26.94-.26c.38,0,.7.1.95.3s.42.46.52.78h.19c.36-.73.94-1.09,1.73-1.09.6,0,1.06.19,1.38.57.33.38.49.87.49,1.48v6.11Z"/><path d="M440.75,107.87h2.78v-5.63h-2.5v-1.15h3.74v6.78h2.59v1.15h-6.62v-1.15ZM443.02,98.71c0-.31.11-.57.33-.79s.48-.33.79-.33.57.11.79.33c.22.22.33.48.33.79s-.11.57-.33.79-.48.33-.79.33-.57-.11-.79-.33c-.22-.22-.33-.48-.33-.79Z"/><path d="M450.08,101.08h2.5v-3.26h1.25v3.26h3.07v1.15h-3.07v5.15c0,.32.14.48.43.48h2.26v1.15h-2.7c-.36,0-.66-.12-.89-.35-.23-.23-.34-.53-.34-.9v-5.54h-2.5v-1.15Z"/><path d="M467.78,109.02h-1.25v-5.7c0-.37-.09-.68-.26-.92-.17-.24-.44-.36-.82-.36-.35,0-.64.13-.86.39-.22.26-.33.66-.33,1.21v5.38h-1.25v-5.76c0-.35-.1-.64-.29-.87s-.45-.34-.77-.34c-.38,0-.68.14-.89.42s-.31.64-.31,1.09v5.47h-1.25v-7.94h1.25v.86h.19c.14-.37.34-.65.61-.82s.58-.26.94-.26c.38,0,.7.1.95.3s.42.46.52.78h.19c.36-.73.94-1.09,1.73-1.09.6,0,1.06.19,1.38.57.33.38.49.87.49,1.48v6.11Z"/><path d="M470.85,105.43c.03.79.28,1.42.74,1.9.46.48,1.1.72,1.92.72.37,0,.7-.04.98-.13s.51-.2.71-.35.36-.32.48-.52.22-.41.3-.63l1.18.32c-.22.74-.64,1.34-1.24,1.8-.6.46-1.42.7-2.44.7-.57,0-1.09-.1-1.56-.3-.48-.2-.88-.48-1.22-.84-.34-.36-.61-.79-.8-1.3-.19-.5-.29-1.06-.29-1.66v-.38c0-.55.1-1.07.3-1.55.2-.48.47-.89.82-1.24.35-.35.77-.62,1.24-.82s.99-.3,1.54-.3c.65,0,1.21.12,1.69.36.47.24.86.54,1.17.89.3.35.53.74.67,1.15.14.42.22.8.22,1.15v1.02h-6.4ZM473.5,102.04c-.35,0-.68.06-.98.17-.3.11-.57.27-.8.47s-.42.44-.56.71c-.14.27-.24.57-.28.89h5.12c-.02-.34-.1-.65-.25-.93s-.33-.51-.56-.7c-.23-.19-.49-.34-.78-.45s-.59-.16-.9-.16Z"/><path d="M480.98,109.02h-1.25v-7.94h1.25v1.34h.19c.49-1.05,1.34-1.57,2.56-1.57.92,0,1.65.29,2.19.86.54.57.82,1.43.82,2.57v4.74h-1.25v-4.48c0-.83-.19-1.46-.56-1.87s-.88-.62-1.52-.62c-.76,0-1.35.26-1.78.78-.43.52-.65,1.21-.65,2.07v4.13Z"/><path d="M489.25,101.08h2.5v-3.26h1.25v3.26h3.07v1.15h-3.07v5.15c0,.32.14.48.43.48h2.26v1.15h-2.7c-.36,0-.66-.12-.89-.35-.23-.23-.34-.53-.34-.9v-5.54h-2.5v-1.15Z"/><path d="M503.55,103.16c.48,0,.88-.18,1.19-.53.31-.35.47-.82.47-1.39v-.1c0-.32-.06-.62-.17-.9-.11-.28-.27-.52-.47-.73s-.45-.37-.74-.5c-.29-.12-.61-.18-.96-.18-.77,0-1.37.23-1.81.7-.44.47-.66,1.09-.66,1.86v.67h-1.34v-.77c0-.49.08-.96.25-1.41.17-.45.41-.84.73-1.18.32-.34.72-.61,1.2-.82.48-.2,1.03-.3,1.66-.3.53,0,1.02.09,1.47.27.45.18.83.43,1.15.74.32.31.57.68.75,1.09.18.41.27.85.27,1.3v.29c0,.42-.07.81-.22,1.19-.14.38-.34.71-.6.98-.26.28-.56.5-.9.66-.35.17-.72.25-1.13.25h-.22c-.3,0-.45.16-.45.48v1.18h-1.28v-1.5c0-.41.13-.74.38-.99s.59-.38.99-.38h.42ZM501.3,108.12c0-.31.11-.57.33-.79.22-.22.48-.33.79-.33s.57.11.79.33c.22.22.33.48.33.79s-.11.57-.33.79c-.22.22-.48.33-.79.33s-.57-.11-.79-.33c-.22-.22-.33-.48-.33-.79Z"/><line class="cls-3" x1="173.89" y1="121.92" x2="575.93" y2="121.92"/><polygon points="574.47 126.91 583.11 121.92 574.47 116.93 574.47 126.91"/><line class="cls-3" x1="604.23" y1="185.89" x2="604.23" y2="346.27"/><polygon points="599.24 344.81 604.23 353.44 609.22 344.81 599.24 344.81"/><path d="M403.04,312.36c0,.38.16.68.49.88s.92.34,1.78.4c.93.07,1.63.3,2.12.66.49.37.73.9.73,1.61v.1c0,.38-.08.73-.23,1.03-.15.3-.37.56-.64.78-.27.21-.6.38-.99.49-.39.11-.81.17-1.27.17-.62,0-1.15-.08-1.59-.25-.44-.17-.81-.38-1.1-.66-.29-.27-.51-.58-.66-.93s-.23-.7-.26-1.05l1.18-.29c.05.61.29,1.1.7,1.46s.97.55,1.66.55c.59,0,1.06-.11,1.42-.34s.54-.55.54-.97c0-.45-.18-.77-.53-.96-.35-.19-.92-.31-1.71-.37-.92-.06-1.62-.28-2.11-.64-.49-.36-.74-.89-.74-1.58v-.1c0-.37.08-.7.24-.98.16-.28.38-.52.65-.71s.58-.34.92-.43c.34-.1.7-.14,1.07-.14.52,0,.98.07,1.38.22.39.14.73.33.99.56s.47.49.62.79c.14.3.24.6.28.9l-1.18.29c-.05-.51-.26-.91-.62-1.2s-.82-.43-1.4-.43c-.22,0-.44.02-.65.07-.21.05-.39.12-.55.22-.16.1-.29.22-.38.36-.1.14-.14.31-.14.5Z"/><path d="M411.38,317.1h2.78v-5.63h-2.5v-1.15h3.74v6.78h2.59v1.15h-6.62v-1.15ZM413.65,307.94c0-.31.11-.57.33-.79s.48-.33.79-.33.57.11.79.33c.22.22.33.48.33.79s-.11.57-.33.79-.48.33-.79.33-.57-.11-.79-.33c-.22-.22-.33-.48-.33-.79Z"/><path d="M427.01,317.03h-.19c-.26.48-.61.84-1.05,1.08-.44.24-.93.36-1.45.36s-1.03-.09-1.5-.27c-.47-.18-.88-.44-1.24-.78-.36-.34-.64-.77-.85-1.27-.21-.51-.31-1.09-.31-1.74v-.26c0-.64.11-1.21.32-1.72.21-.51.5-.93.85-1.28.35-.35.76-.61,1.23-.79.47-.18.96-.27,1.47-.27.58,0,1.08.13,1.51.38.43.25.77.62,1.02,1.1h.19v-1.25h1.25v9.89c0,.36-.11.66-.34.9-.23.23-.53.35-.89.35h-5.17v-1.15h4.72c.29,0,.43-.16.43-.48v-2.78ZM424.35,317.29c.37,0,.72-.07,1.04-.21.32-.14.6-.34.84-.59.24-.26.43-.56.57-.92.14-.36.21-.75.21-1.19v-.19c0-.43-.07-.82-.21-1.18-.14-.36-.33-.66-.57-.92-.24-.26-.52-.46-.85-.6-.33-.14-.67-.22-1.03-.22s-.72.07-1.05.21c-.33.14-.61.34-.85.59-.24.26-.43.56-.56.91s-.2.74-.2,1.17v.26c0,.45.07.85.2,1.2s.32.65.56.9c.24.25.52.44.84.58.32.13.67.2,1.06.2Z"/><path d="M432.02,318.25h-1.25v-7.94h1.25v1.34h.19c.49-1.05,1.34-1.57,2.56-1.57.92,0,1.65.29,2.19.86.54.57.82,1.43.82,2.57v4.74h-1.25v-4.48c0-.83-.19-1.46-.56-1.87s-.88-.62-1.52-.62c-.76,0-1.35.26-1.78.78-.43.52-.65,1.21-.65,2.07v4.13Z"/><path d="M440.75,317.1h2.78v-5.63h-2.5v-1.15h3.74v6.78h2.59v1.15h-6.62v-1.15ZM443.02,307.94c0-.31.11-.57.33-.79s.48-.33.79-.33.57.11.79.33c.22.22.33.48.33.79s-.11.57-.33.79-.48.33-.79.33-.57-.11-.79-.33c-.22-.22-.33-.48-.33-.79Z"/><path d="M451.6,318.25h-1.25v-7.94h1.25v1.34h.19c.49-1.05,1.34-1.57,2.56-1.57.92,0,1.65.29,2.19.86.54.57.82,1.43.82,2.57v4.74h-1.25v-4.48c0-.83-.19-1.46-.56-1.87s-.88-.62-1.52-.62c-.76,0-1.35.26-1.78.78-.43.52-.65,1.21-.65,2.07v4.13Z"/><path d="M466.18,317.03h-.19c-.26.48-.61.84-1.05,1.08-.44.24-.93.36-1.45.36s-1.03-.09-1.5-.27c-.47-.18-.88-.44-1.24-.78-.36-.34-.64-.77-.85-1.27-.21-.51-.31-1.09-.31-1.74v-.26c0-.64.11-1.21.32-1.72.21-.51.5-.93.85-1.28.35-.35.76-.61,1.23-.79.47-.18.96-.27,1.47-.27.58,0,1.08.13,1.51.38.43.25.77.62,1.02,1.1h.19v-1.25h1.25v9.89c0,.36-.11.66-.34.9-.23.23-.53.35-.89.35h-5.17v-1.15h4.72c.29,0,.43-.16.43-.48v-2.78ZM463.52,317.29c.37,0,.72-.07,1.04-.21.32-.14.6-.34.84-.59.24-.26.43-.56.57-.92.14-.36.21-.75.21-1.19v-.19c0-.43-.07-.82-.21-1.18-.14-.36-.33-.66-.57-.92-.24-.26-.52-.46-.85-.6-.33-.14-.67-.22-1.03-.22s-.72.07-1.05.21c-.33.14-.61.34-.85.59-.24.26-.43.56-.56.91s-.2.74-.2,1.17v.26c0,.45.07.85.2,1.2s.32.65.56.9c.24.25.52.44.84.58.32.13.67.2,1.06.2Z"/><path d="M480.69,321.45h-1.25v-11.14h1.25v1.25h.19c.28-.48.66-.85,1.15-1.1.49-.25,1.02-.38,1.6-.38.49,0,.95.09,1.39.27.44.18.82.44,1.16.78s.6.76.8,1.26.3,1.07.3,1.71v.32c0,.65-.1,1.23-.29,1.73-.19.5-.46.92-.79,1.26-.34.34-.73.6-1.18.78-.45.18-.92.26-1.42.26-.26,0-.52-.03-.78-.09-.27-.06-.52-.15-.76-.27-.24-.12-.46-.27-.66-.45-.2-.18-.37-.39-.51-.63h-.19v4.42ZM483.34,317.29c.38,0,.74-.07,1.06-.2.32-.13.6-.32.84-.57.24-.25.43-.54.56-.9s.2-.75.2-1.18v-.32c0-.43-.07-.81-.2-1.16-.13-.35-.32-.65-.56-.9-.24-.25-.52-.45-.85-.58-.33-.14-.67-.21-1.05-.21s-.72.07-1.04.22c-.32.14-.6.34-.84.6-.24.26-.43.56-.57.92-.14.36-.21.75-.21,1.18v.19c0,.44.07.83.21,1.19.14.36.33.66.57.92.24.26.52.45.84.59.32.14.67.21,1.04.21Z"/><path d="M495.28,316.9h-.19c-.26.53-.61.93-1.06,1.18-.45.26-.93.38-1.43.38s-1.01-.09-1.46-.26c-.45-.18-.84-.44-1.18-.78-.34-.35-.6-.77-.79-1.27-.19-.5-.29-1.08-.29-1.74v-.26c0-.65.1-1.23.29-1.73.19-.5.46-.92.79-1.27.34-.35.73-.61,1.18-.79.45-.18.92-.27,1.42-.27.54,0,1.04.12,1.48.36.44.24.79.61,1.05,1.11h.19v-1.25h1.25v6.3c0,.32.14.48.43.48h.4v1.15h-.85c-.36,0-.66-.12-.89-.35-.23-.23-.34-.53-.34-.9v-.1ZM492.72,317.29c.37,0,.72-.07,1.03-.21.31-.14.58-.34.81-.59.22-.26.4-.56.53-.92.13-.36.19-.75.19-1.19v-.19c0-.43-.06-.82-.19-1.18-.13-.36-.31-.66-.54-.92-.23-.26-.5-.46-.82-.6-.31-.14-.65-.22-1.02-.22s-.71.07-1.02.21-.58.33-.81.58c-.23.25-.41.55-.54.91s-.19.75-.19,1.18v.26c0,.91.24,1.61.71,2.12.47.51,1.09.76,1.85.76Z"/><path d="M506.74,315.43c-.09.44-.23.84-.44,1.22-.21.37-.47.7-.79.97s-.69.48-1.12.63-.9.22-1.42.22c-.55,0-1.08-.09-1.58-.27-.5-.18-.93-.45-1.3-.79-.37-.35-.67-.77-.89-1.27s-.33-1.08-.33-1.73v-.19c0-.64.11-1.22.33-1.73.22-.51.51-.94.89-1.3.37-.35.81-.62,1.3-.82s1.02-.29,1.58-.29c.5,0,.97.07,1.39.22.43.15.8.36,1.13.63.33.27.59.59.8.97s.35.78.42,1.22l-1.25.29c-.03-.28-.11-.55-.23-.81-.12-.26-.29-.49-.5-.69-.21-.2-.46-.35-.76-.47-.3-.12-.65-.18-1.04-.18s-.74.07-1.08.22c-.34.14-.63.35-.89.61s-.46.57-.6.94-.22.76-.22,1.18v.19c0,.45.07.85.22,1.21s.34.66.6.9c.26.25.55.43.9.57.34.13.71.2,1.1.2s.74-.06,1.03-.18.54-.28.75-.48c.21-.2.37-.42.5-.68.12-.26.21-.52.25-.8l1.25.29Z"/><path d="M511.15,313.61h.27l3.02-3.3h1.54v.1l-3.3,3.63v.29l3.68,3.82v.1h-1.54l-3.38-3.49h-.3v3.49h-1.25v-11.2h1.25v6.56Z"/><path d="M524.66,316.9h-.19c-.26.53-.61.93-1.06,1.18-.45.26-.93.38-1.43.38s-1.01-.09-1.46-.26c-.45-.18-.84-.44-1.18-.78-.34-.35-.6-.77-.79-1.27-.19-.5-.29-1.08-.29-1.74v-.26c0-.65.1-1.23.29-1.73.19-.5.46-.92.79-1.27.34-.35.73-.61,1.18-.79.45-.18.92-.27,1.42-.27.54,0,1.04.12,1.48.36.44.24.79.61,1.05,1.11h.19v-1.25h1.25v6.3c0,.32.14.48.43.48h.4v1.15h-.85c-.36,0-.66-.12-.89-.35-.23-.23-.34-.53-.34-.9v-.1ZM522.1,317.29c.37,0,.72-.07,1.03-.21.31-.14.58-.34.81-.59.22-.26.4-.56.53-.92.13-.36.19-.75.19-1.19v-.19c0-.43-.06-.82-.19-1.18-.13-.36-.31-.66-.54-.92-.23-.26-.5-.46-.82-.6-.31-.14-.65-.22-1.02-.22s-.71.07-1.02.21-.58.33-.81.58c-.23.25-.41.55-.54.91s-.19.75-.19,1.18v.26c0,.91.24,1.61.71,2.12.47.51,1.09.76,1.85.76Z"/><path d="M534.72,317.03h-.19c-.26.48-.61.84-1.05,1.08-.44.24-.93.36-1.45.36s-1.03-.09-1.5-.27c-.47-.18-.88-.44-1.24-.78-.36-.34-.64-.77-.85-1.27-.21-.51-.31-1.09-.31-1.74v-.26c0-.64.11-1.21.32-1.72.21-.51.5-.93.85-1.28.35-.35.76-.61,1.23-.79.47-.18.96-.27,1.47-.27.58,0,1.08.13,1.51.38.43.25.77.62,1.02,1.1h.19v-1.25h1.25v9.89c0,.36-.11.66-.34.9-.23.23-.53.35-.89.35h-5.17v-1.15h4.72c.29,0,.43-.16.43-.48v-2.78ZM532.06,317.29c.37,0,.72-.07,1.04-.21.32-.14.6-.34.84-.59.24-.26.43-.56.57-.92.14-.36.21-.75.21-1.19v-.19c0-.43-.07-.82-.21-1.18-.14-.36-.33-.66-.57-.92-.24-.26-.52-.46-.85-.6-.33-.14-.67-.22-1.03-.22s-.72.07-1.05.21c-.33.14-.61.34-.85.59-.24.26-.43.56-.56.91s-.2.74-.2,1.17v.26c0,.45.07.85.2,1.2s.32.65.56.9c.24.25.52.44.84.58.32.13.67.2,1.06.2Z"/><path d="M539.39,314.67c.03.79.28,1.42.74,1.9.46.48,1.1.72,1.92.72.37,0,.7-.04.98-.13s.51-.2.71-.35.36-.32.48-.52.22-.41.3-.63l1.18.32c-.22.74-.64,1.34-1.24,1.8-.6.46-1.42.7-2.44.7-.57,0-1.09-.1-1.56-.3-.48-.2-.88-.48-1.22-.84-.34-.36-.61-.79-.8-1.3-.19-.5-.29-1.06-.29-1.66v-.38c0-.55.1-1.07.3-1.55.2-.48.47-.89.82-1.24.35-.35.77-.62,1.24-.82s.99-.3,1.54-.3c.65,0,1.21.12,1.69.36.47.24.86.54,1.17.89.3.35.53.74.67,1.15.14.42.22.8.22,1.15v1.02h-6.4ZM542.05,311.27c-.35,0-.68.06-.98.17-.3.11-.57.27-.8.47s-.42.44-.56.71c-.14.27-.24.57-.28.89h5.12c-.02-.34-.1-.65-.25-.93s-.33-.51-.56-.7c-.23-.19-.49-.34-.78-.45s-.59-.16-.9-.16Z"/><line class="cls-3" x1="173.89" y1="331.15" x2="575.93" y2="331.15"/><polygon points="574.47 336.14 583.11 331.15 574.47 326.16 574.47 336.14"/><path d="M205.14,187.2c.46,0,.85-.08,1.18-.23.33-.15.59-.36.8-.62s.36-.56.46-.9.15-.69.15-1.06v-.19h1.34v.19c0,.57-.09,1.1-.26,1.59-.17.5-.42.93-.75,1.3-.33.37-.74.66-1.23.86s-1.06.31-1.7.31c-1.24,0-2.2-.39-2.9-1.17s-1.04-1.91-1.04-3.41v-2.5c0-1.45.35-2.58,1.04-3.38.69-.8,1.66-1.2,2.9-1.2.64,0,1.21.1,1.7.31s.9.5,1.23.86c.33.37.58.8.75,1.3.17.5.26,1.03.26,1.59v.19h-1.34v-.19c-.01-.36-.07-.71-.17-1.06-.1-.34-.26-.64-.46-.9s-.47-.47-.79-.62c-.32-.15-.71-.23-1.17-.23-.86,0-1.51.31-1.94.94s-.65,1.46-.65,2.48v2.3c0,1.1.22,1.94.65,2.54.43.59,1.08.89,1.94.89Z"/><path d="M218.85,184.35c0,.66-.11,1.25-.33,1.75-.22.51-.51.93-.87,1.28-.36.35-.79.61-1.27.79-.49.18-.99.27-1.51.27s-1.04-.09-1.52-.27c-.48-.18-.9-.45-1.26-.79s-.65-.77-.87-1.28c-.22-.51-.33-1.09-.33-1.75v-.19c0-.65.11-1.23.33-1.74.22-.51.51-.94.88-1.29.37-.35.79-.62,1.27-.8.48-.18.98-.27,1.5-.27s1.02.09,1.5.27c.48.18.9.45,1.27.8.37.35.66.78.88,1.29.22.51.33,1.09.33,1.74v.19ZM214.87,187.26c.38,0,.74-.07,1.06-.2.33-.13.61-.33.86-.58.25-.26.44-.56.58-.92.14-.36.21-.76.21-1.21v-.19c0-.43-.07-.82-.21-1.18-.14-.36-.33-.66-.58-.92-.25-.26-.53-.46-.86-.6-.33-.14-.68-.22-1.06-.22s-.73.07-1.06.22c-.33.14-.62.34-.86.6-.25.26-.44.56-.58.92-.14.36-.21.75-.21,1.18v.19c0,.45.07.85.21,1.21s.33.66.58.92c.25.26.53.45.86.58.33.13.68.2,1.06.2Z"/><path d="M228.79,188.22h-1.25v-5.7c0-.37-.09-.68-.26-.92-.17-.24-.44-.36-.82-.36-.35,0-.64.13-.86.39-.22.26-.33.66-.33,1.21v5.38h-1.25v-5.76c0-.35-.1-.64-.29-.87s-.45-.34-.77-.34c-.38,0-.68.14-.89.42s-.31.64-.31,1.09v5.47h-1.25v-7.94h1.25v.86h.19c.14-.37.34-.65.61-.82s.58-.26.94-.26c.38,0,.7.1.95.3s.42.46.52.78h.19c.36-.73.94-1.09,1.73-1.09.6,0,1.06.19,1.38.57.33.38.49.87.49,1.48v6.11Z"/><path d="M238.58,188.22h-1.25v-5.7c0-.37-.09-.68-.26-.92-.17-.24-.44-.36-.82-.36-.35,0-.64.13-.86.39-.22.26-.33.66-.33,1.21v5.38h-1.25v-5.76c0-.35-.1-.64-.29-.87s-.45-.34-.77-.34c-.38,0-.68.14-.89.42s-.31.64-.31,1.09v5.47h-1.25v-7.94h1.25v.86h.19c.14-.37.34-.65.61-.82s.58-.26.94-.26c.38,0,.7.1.95.3s.42.46.52.78h.19c.36-.73.94-1.09,1.73-1.09.6,0,1.06.19,1.38.57.33.38.49.87.49,1.48v6.11Z"/><path d="M240.93,187.07h2.78v-5.63h-2.5v-1.15h3.74v6.78h2.59v1.15h-6.62v-1.15ZM243.2,177.92c0-.31.11-.57.33-.79s.48-.33.79-.33.57.11.79.33c.22.22.33.48.33.79s-.11.57-.33.79-.48.33-.79.33-.57-.11-.79-.33c-.22-.22-.33-.48-.33-.79Z"/><path d="M250.26,180.29h2.5v-3.26h1.25v3.26h3.07v1.15h-3.07v5.15c0,.32.14.48.43.48h2.26v1.15h-2.7c-.36,0-.66-.12-.89-.35-.23-.23-.34-.53-.34-.9v-5.54h-2.5v-1.15Z"/><path d="M267.95,188.22h-1.25v-5.7c0-.37-.09-.68-.26-.92-.17-.24-.44-.36-.82-.36-.35,0-.64.13-.86.39-.22.26-.33.66-.33,1.21v5.38h-1.25v-5.76c0-.35-.1-.64-.29-.87s-.45-.34-.77-.34c-.38,0-.68.14-.89.42s-.31.64-.31,1.09v5.47h-1.25v-7.94h1.25v.86h.19c.14-.37.34-.65.61-.82s.58-.26.94-.26c.38,0,.7.1.95.3s.42.46.52.78h.19c.36-.73.94-1.09,1.73-1.09.6,0,1.06.19,1.38.57.33.38.49.87.49,1.48v6.11Z"/><path d="M271.03,184.64c.03.79.28,1.42.74,1.9.46.48,1.1.72,1.92.72.37,0,.7-.04.98-.13s.51-.2.71-.35.36-.32.48-.52.22-.41.3-.63l1.18.32c-.22.74-.64,1.34-1.24,1.8-.6.46-1.42.7-2.44.7-.57,0-1.09-.1-1.56-.3-.48-.2-.88-.48-1.22-.84-.34-.36-.61-.79-.8-1.3-.19-.5-.29-1.06-.29-1.66v-.38c0-.55.1-1.07.3-1.55.2-.48.47-.89.82-1.24.35-.35.77-.62,1.24-.82s.99-.3,1.54-.3c.65,0,1.21.12,1.69.36.47.24.86.54,1.17.89.3.35.53.74.67,1.15.14.42.22.8.22,1.15v1.02h-6.4ZM273.68,181.25c-.35,0-.68.06-.98.17-.3.11-.57.27-.8.47s-.42.44-.56.71c-.14.27-.24.57-.28.89h5.12c-.02-.34-.1-.65-.25-.93s-.33-.51-.56-.7c-.23-.19-.49-.34-.78-.45s-.59-.16-.9-.16Z"/><path d="M281.15,188.22h-1.25v-7.94h1.25v1.34h.19c.49-1.05,1.34-1.57,2.56-1.57.92,0,1.65.29,2.19.86.54.57.82,1.43.82,2.57v4.74h-1.25v-4.48c0-.83-.19-1.46-.56-1.87s-.88-.62-1.52-.62c-.76,0-1.35.26-1.78.78-.43.52-.65,1.21-.65,2.07v4.13Z"/><path d="M289.43,180.29h2.5v-3.26h1.25v3.26h3.07v1.15h-3.07v5.15c0,.32.14.48.43.48h2.26v1.15h-2.7c-.36,0-.66-.12-.89-.35-.23-.23-.34-.53-.34-.9v-5.54h-2.5v-1.15Z"/><path d="M301.87,187.33c0-.31.11-.57.33-.79.22-.22.48-.33.79-.33s.57.11.79.33.33.48.33.79-.11.57-.33.79-.48.33-.79.33-.57-.11-.79-.33c-.22-.22-.33-.48-.33-.79ZM303.63,177.02v8.22h-1.28v-8.22h1.28Z"/><line class="cls-3" x1="583.11" y1="201.12" x2="181.07" y2="201.12"/><polygon points="182.53 196.14 173.89 201.12 182.53 206.11 182.53 196.14"/><path d="M207.71,400.79c0-.36-.07-.68-.22-.96-.14-.28-.34-.51-.58-.69-.25-.18-.53-.32-.85-.42-.32-.1-.66-.14-1.01-.14-.31,0-.6.04-.88.12s-.53.19-.74.34-.39.33-.52.55c-.13.22-.19.47-.19.76v.1c0,.31.06.57.19.79.13.22.32.41.57.56.25.15.56.28.94.38.37.1.81.19,1.31.26,1.17.18,2.04.53,2.59,1.03.55.51.83,1.19.83,2.04v.19c0,.48-.08.92-.25,1.32-.17.4-.41.74-.74,1.03-.33.29-.73.51-1.21.67-.48.16-1.04.24-1.66.24-.71,0-1.35-.1-1.9-.31-.55-.21-1.01-.5-1.38-.86-.37-.37-.65-.8-.84-1.3-.19-.5-.29-1.04-.29-1.62v-.48h1.34v.38c0,.98.27,1.72.81,2.21.54.49,1.29.74,2.25.74.83,0,1.46-.18,1.88-.55.42-.37.63-.86.63-1.46v-.1c0-.59-.22-1.03-.65-1.34-.43-.31-1.13-.53-2.1-.67-.57-.07-1.07-.19-1.53-.34-.45-.15-.84-.36-1.16-.61-.32-.25-.57-.55-.74-.9-.17-.35-.26-.77-.26-1.25v-.19c0-.44.09-.84.27-1.2.18-.36.43-.68.76-.94s.71-.47,1.17-.62c.45-.14.95-.22,1.5-.22.63,0,1.19.09,1.69.27s.91.42,1.26.73c.34.3.6.66.78,1.07.18.41.26.84.26,1.29v.67h-1.34v-.58Z"/><path d="M211.55,407.6h2.78v-5.63h-2.5v-1.15h3.74v6.78h2.59v1.15h-6.62v-1.15ZM213.83,398.45c0-.31.11-.57.33-.79s.48-.33.79-.33.57.11.79.33c.22.22.33.48.33.79s-.11.57-.33.79-.48.33-.79.33-.57-.11-.79-.33c-.22-.22-.33-.48-.33-.79Z"/><path d="M227.19,407.54h-.19c-.26.48-.61.84-1.05,1.08-.44.24-.93.36-1.45.36s-1.03-.09-1.5-.27c-.47-.18-.88-.44-1.24-.78-.36-.34-.64-.77-.85-1.27-.21-.51-.31-1.09-.31-1.74v-.26c0-.64.11-1.21.32-1.72.21-.51.5-.93.85-1.28.35-.35.76-.61,1.23-.79.47-.18.96-.27,1.47-.27.58,0,1.08.13,1.51.38.43.25.77.62,1.02,1.1h.19v-1.25h1.25v9.89c0,.36-.11.66-.34.9-.23.23-.53.35-.89.35h-5.17v-1.15h4.72c.29,0,.43-.16.43-.48v-2.78ZM224.53,407.8c.37,0,.72-.07,1.04-.21.32-.14.6-.34.84-.59.24-.26.43-.56.57-.92.14-.36.21-.75.21-1.19v-.19c0-.43-.07-.82-.21-1.18-.14-.36-.33-.66-.57-.92-.24-.26-.52-.46-.85-.6-.33-.14-.67-.22-1.03-.22s-.72.07-1.05.21c-.33.14-.61.34-.85.59-.24.26-.43.56-.56.91s-.2.74-.2,1.17v.26c0,.45.07.85.2,1.2s.32.65.56.9c.24.25.52.44.84.58.32.13.67.2,1.06.2Z"/><path d="M232.19,408.76h-1.25v-7.94h1.25v1.34h.19c.49-1.05,1.34-1.57,2.56-1.57.92,0,1.65.29,2.19.86.54.57.82,1.43.82,2.57v4.74h-1.25v-4.48c0-.83-.19-1.46-.56-1.87s-.88-.62-1.52-.62c-.76,0-1.35.26-1.78.78-.43.52-.65,1.21-.65,2.07v4.13Z"/><path d="M246.5,407.41h-.19c-.26.53-.61.93-1.06,1.18-.45.26-.93.38-1.43.38s-1.01-.09-1.46-.26c-.45-.18-.84-.44-1.18-.78-.34-.35-.6-.77-.79-1.27-.19-.5-.29-1.08-.29-1.74v-.26c0-.65.1-1.23.29-1.73.19-.5.46-.92.79-1.27.34-.35.73-.61,1.18-.79.45-.18.92-.27,1.42-.27.54,0,1.04.12,1.48.36.44.24.79.61,1.05,1.11h.19v-1.25h1.25v6.3c0,.32.14.48.43.48h.4v1.15h-.85c-.36,0-.66-.12-.89-.35-.23-.23-.34-.53-.34-.9v-.1ZM243.94,407.8c.37,0,.72-.07,1.03-.21.31-.14.58-.34.81-.59.22-.26.4-.56.53-.92.13-.36.19-.75.19-1.19v-.19c0-.43-.06-.82-.19-1.18-.13-.36-.31-.66-.54-.92-.23-.26-.5-.46-.82-.6-.31-.14-.65-.22-1.02-.22s-.71.07-1.02.21-.58.33-.81.58c-.23.25-.41.55-.54.91s-.19.75-.19,1.18v.26c0,.91.24,1.61.71,2.12.47.51,1.09.76,1.85.76Z"/><path d="M250.26,400.82h2.5v-3.26h1.25v3.26h3.07v1.15h-3.07v5.15c0,.32.14.48.43.48h2.26v1.15h-2.7c-.36,0-.66-.12-.89-.35-.23-.23-.34-.53-.34-.9v-5.54h-2.5v-1.15Z"/><path d="M265.99,400.82h1.25v7.94h-1.25v-1.44h-.19c-.26.51-.59.92-1.01,1.22-.42.3-.94.45-1.58.45-.44,0-.84-.07-1.21-.22s-.68-.36-.94-.65c-.26-.29-.46-.65-.61-1.07-.14-.43-.22-.92-.22-1.49v-4.74h1.25v4.58c0,.83.17,1.44.51,1.82.34.38.86.58,1.57.58.76,0,1.35-.26,1.78-.78.43-.52.65-1.21.65-2.07v-4.13Z"/><path d="M269.67,400.82h2.88v1.06h.19c.2-.44.49-.76.86-.97s.8-.31,1.28-.31c.8,0,1.45.26,1.94.78.49.52.75,1.29.78,2.29l-1.31.19c0-.74-.18-1.27-.53-1.59-.35-.33-.78-.49-1.3-.49-.33,0-.62.06-.86.19-.24.13-.44.3-.6.53-.16.22-.28.49-.35.78-.07.3-.11.62-.11.96v3.36h2.02v1.15h-5.09v-1.15h1.82v-5.63h-1.63v-1.15Z"/><path d="M280.82,405.17c.03.79.28,1.42.74,1.9.46.48,1.1.72,1.92.72.37,0,.7-.04.98-.13s.51-.2.71-.35.36-.32.48-.52.22-.41.3-.63l1.18.32c-.22.74-.64,1.34-1.24,1.8-.6.46-1.42.7-2.44.7-.57,0-1.09-.1-1.56-.3-.48-.2-.88-.48-1.22-.84-.34-.36-.61-.79-.8-1.3-.19-.5-.29-1.06-.29-1.66v-.38c0-.55.1-1.07.3-1.55.2-.48.47-.89.82-1.24.35-.35.77-.62,1.24-.82s.99-.3,1.54-.3c.65,0,1.21.12,1.69.36.47.24.86.54,1.17.89.3.35.53.74.67,1.15.14.42.22.8.22,1.15v1.02h-6.4ZM283.47,401.78c-.35,0-.68.06-.98.17-.3.11-.57.27-.8.47s-.42.44-.56.71c-.14.27-.24.57-.28.89h5.12c-.02-.34-.1-.65-.25-.93s-.33-.51-.56-.7c-.23-.19-.49-.34-.78-.45s-.59-.16-.9-.16Z"/><path d="M305.63,400.79c0-.36-.07-.68-.22-.96-.14-.28-.34-.51-.58-.69-.25-.18-.53-.32-.85-.42-.32-.1-.66-.14-1.01-.14-.31,0-.6.04-.88.12s-.53.19-.74.34-.39.33-.52.55c-.13.22-.19.47-.19.76v.1c0,.31.06.57.19.79.13.22.32.41.57.56.25.15.56.28.94.38.37.1.81.19,1.31.26,1.17.18,2.04.53,2.59,1.03.55.51.83,1.19.83,2.04v.19c0,.48-.08.92-.25,1.32-.17.4-.41.74-.74,1.03-.33.29-.73.51-1.21.67-.48.16-1.04.24-1.66.24-.71,0-1.35-.1-1.9-.31-.55-.21-1.01-.5-1.38-.86-.37-.37-.65-.8-.84-1.3-.19-.5-.29-1.04-.29-1.62v-.48h1.34v.38c0,.98.27,1.72.81,2.21.54.49,1.29.74,2.25.74.83,0,1.46-.18,1.88-.55.42-.37.63-.86.63-1.46v-.1c0-.59-.22-1.03-.65-1.34-.43-.31-1.13-.53-2.1-.67-.57-.07-1.07-.19-1.53-.34-.45-.15-.84-.36-1.16-.61-.32-.25-.57-.55-.74-.9-.17-.35-.26-.77-.26-1.25v-.19c0-.44.09-.84.27-1.2.18-.36.43-.68.76-.94s.71-.47,1.17-.62c.45-.14.95-.22,1.5-.22.63,0,1.19.09,1.69.27s.91.42,1.26.73c.34.3.6.66.78,1.07.18.41.26.84.26,1.29v.67h-1.34v-.58Z"/><path d="M310.53,408.76h-1.25v-11.2h1.25v4.7h.19c.25-.51.59-.92,1.03-1.22.44-.3.98-.45,1.62-.45.86,0,1.57.29,2.1.86.54.57.81,1.43.81,2.57v4.74h-1.25v-4.48c0-.83-.19-1.46-.56-1.87s-.88-.62-1.52-.62c-.76,0-1.35.26-1.78.78-.43.52-.65,1.21-.65,2.07v4.13Z"/><path d="M324.83,407.41h-.19c-.26.53-.61.93-1.06,1.18-.45.26-.93.38-1.43.38s-1.01-.09-1.46-.26c-.45-.18-.84-.44-1.18-.78-.34-.35-.6-.77-.79-1.27-.19-.5-.29-1.08-.29-1.74v-.26c0-.65.1-1.23.29-1.73.19-.5.46-.92.79-1.27.34-.35.73-.61,1.18-.79.45-.18.92-.27,1.42-.27.54,0,1.04.12,1.48.36.44.24.79.61,1.05,1.11h.19v-1.25h1.25v6.3c0,.32.14.48.43.48h.4v1.15h-.85c-.36,0-.66-.12-.89-.35-.23-.23-.34-.53-.34-.9v-.1ZM322.27,407.8c.37,0,.72-.07,1.03-.21.31-.14.58-.34.81-.59.22-.26.4-.56.53-.92.13-.36.19-.75.19-1.19v-.19c0-.43-.06-.82-.19-1.18-.13-.36-.31-.66-.54-.92-.23-.26-.5-.46-.82-.6-.31-.14-.65-.22-1.02-.22s-.71.07-1.02.21-.58.33-.81.58c-.23.25-.41.55-.54.91s-.19.75-.19,1.18v.26c0,.91.24,1.61.71,2.12.47.51,1.09.76,1.85.76Z"/><path d="M328.42,400.82h2.88v1.06h.19c.2-.44.49-.76.86-.97s.8-.31,1.28-.31c.8,0,1.45.26,1.94.78.49.52.75,1.29.78,2.29l-1.31.19c0-.74-.18-1.27-.53-1.59-.35-.33-.78-.49-1.3-.49-.33,0-.62.06-.86.19-.24.13-.44.3-.6.53-.16.22-.28.49-.35.78-.07.3-.11.62-.11.96v3.36h2.02v1.15h-5.09v-1.15h1.82v-5.63h-1.63v-1.15Z"/><path d="M339.57,405.17c.03.79.28,1.42.74,1.9.46.48,1.1.72,1.92.72.37,0,.7-.04.98-.13s.51-.2.71-.35.36-.32.48-.52.22-.41.3-.63l1.18.32c-.22.74-.64,1.34-1.24,1.8-.6.46-1.42.7-2.44.7-.57,0-1.09-.1-1.56-.3-.48-.2-.88-.48-1.22-.84-.34-.36-.61-.79-.8-1.3-.19-.5-.29-1.06-.29-1.66v-.38c0-.55.1-1.07.3-1.55.2-.48.47-.89.82-1.24.35-.35.77-.62,1.24-.82s.99-.3,1.54-.3c.65,0,1.21.12,1.69.36.47.24.86.54,1.17.89.3.35.53.74.67,1.15.14.42.22.8.22,1.15v1.02h-6.4ZM342.23,401.78c-.35,0-.68.06-.98.17-.3.11-.57.27-.8.47s-.42.44-.56.71c-.14.27-.24.57-.28.89h5.12c-.02-.34-.1-.65-.25-.93s-.33-.51-.56-.7c-.23-.19-.49-.34-.78-.45s-.59-.16-.9-.16Z"/><line class="cls-3" x1="583.11" y1="421.66" x2="181.07" y2="421.66"/><polygon points="182.53 416.67 173.89 421.66 182.53 426.64 182.53 416.67"/><rect class="cls-4" x="475.56" y="134.43" width="215.1" height="51.46" rx="3" ry="3"/><path d="M491.6,154.47h-.17c-.22.42-.53.73-.92.94-.39.21-.81.31-1.27.31s-.91-.08-1.32-.24c-.41-.16-.77-.39-1.08-.69-.31-.3-.56-.67-.74-1.11s-.27-.95-.27-1.52v-.22c0-.56.09-1.06.28-1.5.19-.44.43-.82.74-1.12s.67-.53,1.08-.69c.41-.16.84-.24,1.29-.24.5,0,.94.11,1.32.33s.67.54.89.96h.17v-1.09h1.09v8.65c0,.32-.1.58-.3.78-.2.21-.46.31-.78.31h-4.52v-1.01h4.13c.25,0,.38-.14.38-.42v-2.44ZM489.28,154.69c.33,0,.63-.06.91-.18.28-.12.52-.29.73-.52s.38-.49.5-.81c.12-.31.18-.66.18-1.04v-.17c0-.37-.06-.72-.18-1.03-.12-.31-.29-.58-.5-.81-.21-.22-.46-.4-.74-.52-.29-.13-.59-.19-.9-.19s-.63.06-.92.18-.53.29-.74.52c-.21.22-.37.49-.49.8s-.17.65-.17,1.02v.22c0,.39.06.74.17,1.05s.28.57.49.79.45.39.73.5c.28.12.59.18.92.18Z"/><path d="M495.69,152.4c.03.69.24,1.25.64,1.67.4.42.96.63,1.68.63.33,0,.61-.04.85-.11.24-.07.45-.18.62-.31.17-.13.31-.28.42-.46s.19-.36.26-.55l1.04.28c-.2.64-.56,1.17-1.09,1.57-.53.41-1.24.61-2.13.61-.49,0-.95-.09-1.37-.26-.42-.17-.77-.42-1.07-.73s-.53-.7-.7-1.13c-.17-.44-.25-.92-.25-1.46v-.34c0-.48.09-.94.26-1.36.17-.42.41-.78.72-1.08.31-.3.67-.54,1.08-.71.42-.17.87-.26,1.35-.26.57,0,1.06.1,1.48.31s.76.47,1.02.78c.27.31.46.64.59,1.01.13.36.19.7.19,1.01v.9h-5.6ZM498.01,149.43c-.31,0-.59.05-.86.15s-.5.24-.7.41-.36.38-.49.62c-.13.24-.21.5-.25.78h4.48c-.02-.3-.09-.57-.22-.81s-.29-.45-.49-.62c-.2-.17-.43-.3-.69-.39s-.52-.14-.79-.14Z"/><path d="M504.55,155.53h-1.09v-6.94h1.09v1.18h.17c.43-.91,1.18-1.37,2.24-1.37.8,0,1.44.25,1.92.75.48.5.71,1.25.71,2.25v4.14h-1.09v-3.92c0-.73-.16-1.27-.49-1.64-.33-.36-.77-.55-1.33-.55-.66,0-1.18.23-1.56.68s-.57,1.06-.57,1.81v3.61Z"/><path d="M512.82,152.4c.03.69.24,1.25.64,1.67.4.42.96.63,1.68.63.33,0,.61-.04.85-.11.24-.07.45-.18.62-.31.17-.13.31-.28.42-.46s.19-.36.26-.55l1.04.28c-.2.64-.56,1.17-1.09,1.57-.53.41-1.24.61-2.13.61-.49,0-.95-.09-1.37-.26-.42-.17-.77-.42-1.07-.73s-.53-.7-.7-1.13c-.17-.44-.25-.92-.25-1.46v-.34c0-.48.09-.94.26-1.36.17-.42.41-.78.72-1.08.31-.3.67-.54,1.08-.71.42-.17.87-.26,1.35-.26.57,0,1.06.1,1.48.31s.76.47,1.02.78c.27.31.46.64.59,1.01.13.36.19.7.19,1.01v.9h-5.6ZM515.15,149.43c-.31,0-.59.05-.86.15s-.5.24-.7.41-.36.38-.49.62c-.13.24-.21.5-.25.78h4.48c-.02-.3-.09-.57-.22-.81s-.29-.45-.49-.62c-.2-.17-.43-.3-.69-.39s-.52-.14-.79-.14Z"/><path d="M520.2,148.59h2.52v.92h.17c.18-.38.43-.67.76-.85.33-.18.7-.27,1.12-.27.7,0,1.26.23,1.69.69.43.46.66,1.12.69,2l-1.15.17c0-.64-.15-1.11-.46-1.39-.31-.28-.69-.43-1.13-.43-.29,0-.54.06-.75.17s-.38.27-.52.46c-.14.2-.24.42-.31.69-.07.26-.1.54-.1.84v2.94h1.76v1.01h-4.45v-1.01h1.6v-4.93h-1.43v-1.01Z"/><path d="M534.2,154.36h-.17c-.22.47-.53.81-.93,1.04-.4.22-.81.34-1.25.34s-.88-.08-1.27-.23c-.39-.15-.73-.38-1.03-.69-.29-.3-.52-.67-.69-1.11-.17-.44-.25-.95-.25-1.53v-.22c0-.57.08-1.07.25-1.51.17-.44.4-.81.69-1.11s.64-.53,1.03-.69c.39-.16.81-.24,1.25-.24.48,0,.91.1,1.29.31s.69.53.92.97h.17v-1.09h1.09v5.52c0,.28.13.42.38.42h.35v1.01h-.74c-.32,0-.58-.1-.78-.31-.2-.21-.3-.47-.3-.78v-.08ZM531.96,154.69c.33,0,.63-.06.9-.18.28-.12.51-.29.71-.52.2-.22.35-.49.46-.81.11-.31.17-.66.17-1.04v-.17c0-.37-.06-.72-.17-1.03-.11-.31-.27-.58-.47-.81-.2-.22-.44-.4-.71-.52-.28-.13-.57-.19-.89-.19s-.63.06-.9.18c-.27.12-.51.29-.71.51-.2.22-.36.49-.47.8-.11.31-.17.66-.17,1.03v.22c0,.79.21,1.41.62,1.85s.95.67,1.62.67Z"/><path d="M537.49,148.59h2.18v-2.86h1.09v2.86h2.69v1.01h-2.69v4.51c0,.28.13.42.38.42h1.97v1.01h-2.37c-.32,0-.58-.1-.78-.31-.2-.21-.3-.47-.3-.78v-4.84h-2.18v-1.01Z"/><path d="M547.1,152.4c.03.69.24,1.25.64,1.67.4.42.96.63,1.68.63.33,0,.61-.04.85-.11.24-.07.45-.18.62-.31.17-.13.31-.28.42-.46s.19-.36.26-.55l1.04.28c-.2.64-.56,1.17-1.09,1.57-.53.41-1.24.61-2.13.61-.49,0-.95-.09-1.37-.26-.42-.17-.77-.42-1.07-.73s-.53-.7-.7-1.13c-.17-.44-.25-.92-.25-1.46v-.34c0-.48.09-.94.26-1.36.17-.42.41-.78.72-1.08.31-.3.67-.54,1.08-.71.42-.17.87-.26,1.35-.26.57,0,1.06.1,1.48.31s.76.47,1.02.78c.27.31.46.64.59,1.01.13.36.19.7.19,1.01v.9h-5.6ZM549.42,149.43c-.31,0-.59.05-.86.15s-.5.24-.7.41-.36.38-.49.62c-.13.24-.21.5-.25.78h4.48c-.02-.3-.09-.57-.22-.81s-.29-.45-.49-.62c-.2-.17-.43-.3-.69-.39s-.52-.14-.79-.14Z"/><path d="M569.93,153.07c-.07.38-.2.74-.38,1.06s-.41.61-.69.85c-.28.24-.61.42-.98.55-.37.13-.79.2-1.25.2-.49,0-.95-.08-1.38-.24-.43-.16-.81-.39-1.14-.69-.33-.3-.59-.67-.78-1.11-.19-.44-.29-.94-.29-1.51v-.17c0-.56.1-1.06.29-1.51.19-.45.45-.83.78-1.13.33-.31.71-.55,1.14-.71.43-.17.89-.25,1.38-.25.44,0,.84.07,1.22.2.37.13.7.31.99.55.28.24.52.52.7.85s.31.68.37,1.06l-1.09.25c-.03-.24-.1-.48-.2-.71-.11-.23-.25-.43-.43-.6-.18-.17-.4-.31-.67-.41-.26-.1-.56-.15-.91-.15s-.65.06-.94.19-.55.3-.78.53c-.22.23-.4.5-.53.82-.13.32-.19.66-.19,1.04v.17c0,.39.06.74.19,1.06.13.31.3.58.53.79.22.21.48.38.78.5.3.12.62.18.97.18s.65-.05.9-.16.48-.25.66-.42c.18-.17.33-.37.43-.6s.18-.46.22-.7l1.09.25Z"/><path d="M578.55,152.14c0,.58-.1,1.09-.29,1.53s-.45.82-.76,1.12c-.32.3-.69.53-1.11.69s-.87.24-1.32.24-.91-.08-1.33-.24-.79-.39-1.11-.69c-.32-.3-.57-.68-.76-1.12s-.29-.95-.29-1.53v-.17c0-.57.1-1.08.29-1.52.19-.44.45-.82.77-1.13.32-.31.69-.54,1.11-.7.42-.16.86-.24,1.32-.24s.9.08,1.32.24.79.39,1.11.7c.32.31.58.68.77,1.13.19.44.29.95.29,1.52v.17ZM575.07,154.69c.34,0,.65-.06.93-.18.28-.12.53-.29.75-.51s.38-.49.5-.81c.12-.31.18-.67.18-1.06v-.17c0-.37-.06-.72-.18-1.03-.12-.31-.29-.58-.5-.81-.21-.22-.47-.4-.76-.52-.29-.13-.6-.19-.92-.19s-.63.06-.92.19c-.29.13-.54.3-.76.52-.21.22-.38.49-.5.81-.12.31-.18.66-.18,1.03v.17c0,.39.06.74.18,1.06.12.31.29.58.5.81.21.22.46.39.75.51.28.12.6.18.93.18Z"/><path d="M587.25,155.53h-1.09v-4.98c0-.33-.08-.6-.22-.81-.15-.21-.39-.31-.71-.31-.31,0-.56.11-.75.34-.19.23-.29.58-.29,1.06v4.7h-1.09v-5.04c0-.31-.08-.56-.25-.76-.17-.2-.39-.3-.67-.3-.34,0-.59.12-.78.36-.18.24-.27.56-.27.95v4.79h-1.09v-6.94h1.09v.76h.17c.12-.33.3-.57.53-.72.23-.15.51-.23.83-.23.34,0,.61.09.83.27s.37.41.46.69h.17c.32-.63.82-.95,1.51-.95.52,0,.93.17,1.21.5.28.33.43.76.43,1.29v5.35Z"/><path d="M595.82,155.53h-1.09v-4.98c0-.33-.08-.6-.22-.81-.15-.21-.39-.31-.71-.31-.31,0-.56.11-.75.34-.19.23-.29.58-.29,1.06v4.7h-1.09v-5.04c0-.31-.08-.56-.25-.76-.17-.2-.39-.3-.67-.3-.34,0-.59.12-.78.36-.18.24-.27.56-.27.95v4.79h-1.09v-6.94h1.09v.76h.17c.12-.33.3-.57.53-.72.23-.15.51-.23.83-.23.34,0,.61.09.83.27s.37.41.46.69h.17c.32-.63.82-.95,1.51-.95.52,0,.93.17,1.21.5.28.33.43.76.43,1.29v5.35Z"/><path d="M597.87,154.52h2.44v-4.93h-2.18v-1.01h3.28v5.94h2.27v1.01h-5.8v-1.01ZM599.86,146.52c0-.27.1-.5.29-.69.19-.19.42-.29.69-.29s.5.1.69.29.29.42.29.69-.1.5-.29.69c-.19.19-.42.29-.69.29s-.5-.1-.69-.29c-.19-.19-.29-.42-.29-.69Z"/><path d="M606.04,148.59h2.18v-2.86h1.09v2.86h2.69v1.01h-2.69v4.51c0,.28.13.42.38.42h1.97v1.01h-2.37c-.32,0-.58-.1-.78-.31-.2-.21-.3-.47-.3-.78v-4.84h-2.18v-1.01Z"/><path d="M621.52,155.53h-1.09v-4.98c0-.33-.08-.6-.22-.81-.15-.21-.39-.31-.71-.31-.31,0-.56.11-.75.34-.19.23-.29.58-.29,1.06v4.7h-1.09v-5.04c0-.31-.08-.56-.25-.76-.17-.2-.39-.3-.67-.3-.34,0-.59.12-.78.36-.18.24-.27.56-.27.95v4.79h-1.09v-6.94h1.09v.76h.17c.12-.33.3-.57.53-.72.23-.15.51-.23.83-.23.34,0,.61.09.83.27s.37.41.46.69h.17c.32-.63.82-.95,1.51-.95.52,0,.93.17,1.21.5.28.33.43.76.43,1.29v5.35Z"/><path d="M624.21,152.4c.03.69.24,1.25.64,1.67.4.42.96.63,1.68.63.33,0,.61-.04.85-.11.24-.07.45-.18.62-.31.17-.13.31-.28.42-.46s.19-.36.26-.55l1.04.28c-.2.64-.56,1.17-1.09,1.57-.53.41-1.24.61-2.13.61-.49,0-.95-.09-1.37-.26-.42-.17-.77-.42-1.07-.73s-.53-.7-.7-1.13c-.17-.44-.25-.92-.25-1.46v-.34c0-.48.09-.94.26-1.36.17-.42.41-.78.72-1.08.31-.3.67-.54,1.08-.71.42-.17.87-.26,1.35-.26.57,0,1.06.1,1.48.31s.76.47,1.02.78c.27.31.46.64.59,1.01.13.36.19.7.19,1.01v.9h-5.6ZM626.53,149.43c-.31,0-.59.05-.86.15s-.5.24-.7.41-.36.38-.49.62c-.13.24-.21.5-.25.78h4.48c-.02-.3-.09-.57-.22-.81s-.29-.45-.49-.62c-.2-.17-.43-.3-.69-.39s-.52-.14-.79-.14Z"/><path d="M633.07,155.53h-1.09v-6.94h1.09v1.18h.17c.43-.91,1.18-1.37,2.24-1.37.8,0,1.44.25,1.92.75.48.5.71,1.25.71,2.25v4.14h-1.09v-3.92c0-.73-.16-1.27-.49-1.64-.33-.36-.77-.55-1.33-.55-.66,0-1.18.23-1.56.68s-.57,1.06-.57,1.81v3.61Z"/><path d="M640.31,148.59h2.18v-2.86h1.09v2.86h2.69v1.01h-2.69v4.51c0,.28.13.42.38.42h1.97v1.01h-2.37c-.32,0-.58-.1-.78-.31-.2-.21-.3-.47-.3-.78v-4.84h-2.18v-1.01Z"/><path d="M651.2,154.75c0-.27.1-.5.29-.69.19-.19.42-.29.69-.29s.5.1.69.29c.19.19.29.42.29.69v1.37c0,.32-.1.58-.3.78-.2.21-.46.31-.78.31h-.71v-.76h.66c.25,0,.38-.14.38-.42v-.35c-.07.03-.15.04-.24.04-.26,0-.49-.1-.68-.29-.19-.19-.29-.42-.29-.69Z"/><path d="M488.11,168.27h.24l2.65-2.88h1.34v.08l-2.88,3.18v.25l3.22,3.35v.08h-1.34l-2.95-3.05h-.27v3.05h-1.09v-9.8h1.09v5.74Z"/><path d="M495.69,169.19c.03.69.24,1.25.64,1.67.4.42.96.63,1.68.63.33,0,.61-.04.85-.11.24-.07.45-.18.62-.31.17-.13.31-.28.42-.46s.19-.36.26-.55l1.04.28c-.2.64-.56,1.17-1.09,1.57-.53.41-1.24.61-2.13.61-.49,0-.95-.09-1.37-.26-.42-.17-.77-.42-1.07-.73s-.53-.7-.7-1.13c-.17-.44-.25-.92-.25-1.46v-.34c0-.48.09-.94.26-1.36.17-.42.41-.78.72-1.08.31-.3.67-.54,1.08-.71.42-.17.87-.26,1.35-.26.57,0,1.06.1,1.48.31s.76.47,1.02.78c.27.31.46.64.59,1.01.13.36.19.7.19,1.01v.9h-5.6ZM498.01,166.23c-.31,0-.59.05-.86.15s-.5.24-.7.41-.36.38-.49.62c-.13.24-.21.5-.25.78h4.48c-.02-.3-.09-.57-.22-.81s-.29-.45-.49-.62c-.2-.17-.43-.3-.69-.39s-.52-.14-.79-.14Z"/><path d="M504.26,169.19c.03.69.24,1.25.64,1.67.4.42.96.63,1.68.63.33,0,.61-.04.85-.11.24-.07.45-.18.62-.31.17-.13.31-.28.42-.46s.19-.36.26-.55l1.04.28c-.2.64-.56,1.17-1.09,1.57-.53.41-1.24.61-2.13.61-.49,0-.95-.09-1.37-.26-.42-.17-.77-.42-1.07-.73s-.53-.7-.7-1.13c-.17-.44-.25-.92-.25-1.46v-.34c0-.48.09-.94.26-1.36.17-.42.41-.78.72-1.08.31-.3.67-.54,1.08-.71.42-.17.87-.26,1.35-.26.57,0,1.06.1,1.48.31s.76.47,1.02.78c.27.31.46.64.59,1.01.13.36.19.7.19,1.01v.9h-5.6ZM506.58,166.23c-.31,0-.59.05-.86.15s-.5.24-.7.41-.36.38-.49.62c-.13.24-.21.5-.25.78h4.48c-.02-.3-.09-.57-.22-.81s-.29-.45-.49-.62c-.2-.17-.43-.3-.69-.39s-.52-.14-.79-.14Z"/><path d="M512.87,175.13h-1.09v-9.74h1.09v1.09h.17c.24-.42.58-.74,1.01-.96s.9-.33,1.4-.33c.43,0,.84.08,1.22.24.38.16.72.39,1.02.69s.53.67.7,1.11c.17.44.26.94.26,1.5v.28c0,.57-.08,1.07-.25,1.51-.17.44-.4.81-.69,1.11s-.64.52-1.03.68c-.39.15-.81.23-1.25.23-.22,0-.45-.03-.69-.08-.23-.05-.46-.13-.67-.24-.21-.11-.4-.24-.58-.39-.18-.15-.33-.34-.45-.55h-.17v3.86ZM515.19,171.49c.34,0,.64-.06.92-.18.28-.12.52-.28.73-.5.21-.21.37-.48.49-.78s.18-.65.18-1.04v-.28c0-.37-.06-.71-.18-1.02s-.28-.56-.49-.78c-.21-.22-.46-.39-.74-.51s-.59-.18-.92-.18-.63.06-.91.19c-.28.13-.53.3-.74.52-.21.22-.38.49-.5.81-.12.31-.18.66-.18,1.03v.17c0,.38.06.73.18,1.04.12.31.29.58.5.81s.46.4.74.52c.28.12.58.18.91.18Z"/><path d="M530.25,172.33h-1.09v-6.94h1.09v1.18h.17c.43-.91,1.18-1.37,2.24-1.37.8,0,1.44.25,1.92.75.48.5.71,1.25.71,2.25v4.14h-1.09v-3.92c0-.73-.16-1.27-.49-1.64-.33-.36-.77-.55-1.33-.55-.66,0-1.18.23-1.56.68s-.57,1.06-.57,1.81v3.61Z"/><path d="M544.28,168.94c0,.58-.1,1.09-.29,1.53s-.45.82-.76,1.12c-.32.3-.69.53-1.11.69s-.87.24-1.32.24-.91-.08-1.33-.24-.79-.39-1.11-.69c-.32-.3-.57-.68-.76-1.12s-.29-.95-.29-1.53v-.17c0-.57.1-1.08.29-1.52.19-.44.45-.82.77-1.13.32-.31.69-.54,1.11-.7.42-.16.86-.24,1.32-.24s.9.08,1.32.24.79.39,1.11.7c.32.31.58.68.77,1.13.19.44.29.95.29,1.52v.17ZM540.8,171.49c.34,0,.65-.06.93-.18.28-.12.53-.29.75-.51s.38-.49.5-.81c.12-.31.18-.67.18-1.06v-.17c0-.37-.06-.72-.18-1.03-.12-.31-.29-.58-.5-.81-.21-.22-.47-.4-.76-.52-.29-.13-.6-.19-.92-.19s-.63.06-.92.19c-.29.13-.54.3-.76.52-.21.22-.38.49-.5.81-.12.31-.18.66-.18,1.03v.17c0,.39.06.74.18,1.06.12.31.29.58.5.81.21.22.46.39.75.51.28.12.6.18.93.18Z"/><path d="M547.39,172.33h-1.09v-6.94h1.09v1.18h.17c.43-.91,1.18-1.37,2.24-1.37.8,0,1.44.25,1.92.75.48.5.71,1.25.71,2.25v4.14h-1.09v-3.92c0-.73-.16-1.27-.49-1.64-.33-.36-.77-.55-1.33-.55-.66,0-1.18.23-1.56.68s-.57,1.06-.57,1.81v3.61Z"/><path d="M561.36,169.87c-.07.38-.2.74-.38,1.06s-.41.61-.69.85c-.28.24-.61.42-.98.55-.37.13-.79.2-1.25.2-.49,0-.95-.08-1.38-.24-.43-.16-.81-.39-1.14-.69-.33-.3-.59-.67-.78-1.11-.19-.44-.29-.94-.29-1.51v-.17c0-.56.1-1.06.29-1.51.19-.45.45-.83.78-1.13.33-.31.71-.55,1.14-.71.43-.17.89-.25,1.38-.25.44,0,.84.07,1.22.2.37.13.7.31.99.55.28.24.52.52.7.85s.31.68.37,1.06l-1.09.25c-.03-.24-.1-.48-.2-.71-.11-.23-.25-.43-.43-.6-.18-.17-.4-.31-.67-.41-.26-.1-.56-.15-.91-.15s-.65.06-.94.19-.55.3-.78.53c-.22.23-.4.5-.53.82-.13.32-.19.66-.19,1.04v.17c0,.39.06.74.19,1.06.13.31.3.58.53.79.22.21.48.38.78.5.3.12.62.18.97.18s.65-.05.9-.16.48-.25.66-.42c.18-.17.33-.37.43-.6s.18-.46.22-.7l1.09.25Z"/><path d="M564.23,169.19c.03.69.24,1.25.64,1.67.4.42.96.63,1.68.63.33,0,.61-.04.85-.11.24-.07.45-.18.62-.31.17-.13.31-.28.42-.46s.19-.36.26-.55l1.04.28c-.2.64-.56,1.17-1.09,1.57-.53.41-1.24.61-2.13.61-.49,0-.95-.09-1.37-.26-.42-.17-.77-.42-1.07-.73s-.53-.7-.7-1.13c-.17-.44-.25-.92-.25-1.46v-.34c0-.48.09-.94.26-1.36.17-.42.41-.78.72-1.08.31-.3.67-.54,1.08-.71.42-.17.87-.26,1.35-.26.57,0,1.06.1,1.48.31s.76.47,1.02.78c.27.31.46.64.59,1.01.13.36.19.7.19,1.01v.9h-5.6ZM566.56,166.23c-.31,0-.59.05-.86.15s-.5.24-.7.41-.36.38-.49.62c-.13.24-.21.5-.25.78h4.48c-.02-.3-.09-.57-.22-.81s-.29-.45-.49-.62c-.2-.17-.43-.3-.69-.39s-.52-.14-.79-.14Z"/><rect class="cls-2" x="544.17" y="353.44" width="77.88" height="33.02" rx="3" ry="3"/><path d="M568.63,368.8c0,.34.14.59.43.77s.81.29,1.56.35c.81.07,1.43.26,1.85.58.42.32.64.79.64,1.41v.08c0,.34-.07.64-.2.9s-.32.49-.56.68c-.24.19-.53.33-.87.43-.34.1-.71.15-1.11.15-.54,0-1.01-.07-1.39-.22s-.71-.34-.97-.57c-.26-.24-.45-.51-.58-.81-.13-.3-.21-.61-.22-.92l1.04-.25c.05.53.25.96.62,1.28.36.32.85.48,1.46.48.51,0,.93-.1,1.24-.3.31-.2.47-.48.47-.85,0-.39-.15-.67-.46-.84s-.81-.28-1.5-.32c-.8-.06-1.42-.24-1.85-.56-.43-.32-.64-.78-.64-1.39v-.08c0-.33.07-.61.21-.86.14-.25.33-.45.57-.62.24-.17.51-.29.81-.38.3-.08.61-.13.94-.13.46,0,.86.06,1.2.19s.63.29.87.49.41.43.54.69.21.52.25.78l-1.04.25c-.05-.45-.23-.8-.54-1.05-.31-.25-.72-.38-1.23-.38-.2,0-.38.02-.57.06s-.34.1-.48.19-.25.19-.34.32c-.08.13-.13.27-.13.44Z"/><path d="M575.93,372.94h2.44v-4.93h-2.18v-1.01h3.28v5.94h2.27v1.01h-5.8v-1.01ZM577.92,364.94c0-.27.1-.5.29-.69.19-.19.42-.29.69-.29s.5.1.69.29.29.42.29.69-.1.5-.29.69c-.19.19-.42.29-.69.29s-.5-.1-.69-.29c-.19-.19-.29-.42-.29-.69Z"/><path d="M589.61,372.89h-.17c-.22.42-.53.73-.92.94-.39.21-.81.31-1.27.31s-.91-.08-1.32-.24c-.41-.16-.77-.39-1.08-.69-.31-.3-.56-.67-.74-1.11s-.27-.95-.27-1.52v-.22c0-.56.09-1.06.28-1.5.19-.44.43-.82.74-1.12s.67-.53,1.08-.69c.41-.16.84-.24,1.29-.24.5,0,.94.11,1.32.33s.67.54.89.96h.17v-1.09h1.09v8.65c0,.32-.1.58-.3.78-.2.21-.46.31-.78.31h-4.52v-1.01h4.13c.25,0,.38-.14.38-.42v-2.44ZM587.28,373.11c.33,0,.63-.06.91-.18.28-.12.52-.29.73-.52s.38-.49.5-.81c.12-.31.18-.66.18-1.04v-.17c0-.37-.06-.72-.18-1.03-.12-.31-.29-.58-.5-.81-.21-.22-.46-.4-.74-.52-.29-.13-.59-.19-.9-.19s-.63.06-.92.18-.53.29-.74.52c-.21.22-.37.49-.49.8s-.17.65-.17,1.02v.22c0,.39.06.74.17,1.05s.28.57.49.79.45.39.73.5c.28.12.59.18.92.18Z"/><path d="M593.99,373.95h-1.09v-6.94h1.09v1.18h.17c.43-.91,1.18-1.37,2.24-1.37.8,0,1.44.25,1.92.75.48.5.71,1.25.71,2.25v4.14h-1.09v-3.92c0-.73-.16-1.27-.49-1.64-.33-.36-.77-.55-1.33-.55-.66,0-1.18.23-1.56.68s-.57,1.06-.57,1.81v3.61Z"/><rect class="cls-4" x="57.72" y="223.04" width="232.34" height="51.46" rx="3" ry="3"/><path d="M78.11,244.14h-2.02l-.84-6.44h-.17l-.84,6.44h-2.02l-1.09-6.94h1.12l.92,6.44h.17l.81-6.44h2.02l.81,6.44h.17l.92-6.44h1.12l-1.09,6.94Z"/><path d="M85.71,242.96h-.17c-.22.47-.53.81-.93,1.04-.4.22-.81.34-1.25.34s-.88-.08-1.27-.23c-.39-.15-.74-.38-1.03-.69-.29-.3-.52-.67-.69-1.11-.17-.44-.25-.95-.25-1.53v-.22c0-.57.08-1.07.25-1.51.17-.44.4-.81.69-1.11s.64-.53,1.03-.69.81-.24,1.25-.24c.48,0,.91.1,1.29.31.39.21.69.53.92.97h.17v-1.09h1.09v5.52c0,.28.13.42.38.42h.35v1.01h-.74c-.32,0-.58-.1-.78-.31-.2-.21-.3-.47-.3-.78v-.08ZM83.47,243.3c.33,0,.63-.06.9-.18.28-.12.51-.29.71-.52s.35-.49.46-.81c.11-.31.17-.66.17-1.04v-.17c0-.37-.06-.72-.17-1.03-.11-.31-.27-.58-.47-.81-.2-.22-.44-.4-.71-.52-.28-.13-.57-.19-.89-.19s-.62.06-.9.18c-.27.12-.51.29-.71.51-.2.22-.36.49-.47.8-.11.31-.17.66-.17,1.03v.22c0,.79.21,1.41.62,1.85.42.44.95.67,1.62.67Z"/><path d="M89.41,243.13h2.44v-4.93h-2.18v-1.01h3.28v5.94h2.27v1.01h-5.8v-1.01ZM91.4,235.12c0-.27.1-.5.29-.69.19-.19.42-.29.69-.29s.5.1.69.29.29.42.29.69-.1.5-.29.69c-.19.19-.42.29-.69.29s-.5-.1-.69-.29c-.19-.19-.29-.42-.29-.69Z"/><path d="M97.57,237.19h2.18v-2.86h1.09v2.86h2.69v1.01h-2.69v4.51c0,.28.13.42.38.42h1.97v1.01h-2.37c-.32,0-.58-.1-.78-.31-.2-.21-.3-.47-.3-.78v-4.84h-2.18v-1.01Z"/><path d="M114.87,237.19h2.14v-1.76c0-.32.1-.58.3-.78.2-.21.46-.31.78-.31h2.74v1.01h-2.35c-.25,0-.38.14-.38.42v1.43h2.9v1.01h-2.9v5.94h-1.09v-5.94h-2.14v-1.01Z"/><path d="M130.06,240.75c0,.58-.1,1.09-.29,1.53s-.45.82-.76,1.12-.69.53-1.11.69-.87.24-1.32.24-.91-.08-1.33-.24-.79-.39-1.11-.69-.57-.68-.76-1.12-.29-.95-.29-1.53v-.17c0-.57.1-1.08.29-1.52.19-.44.45-.82.77-1.13.32-.31.69-.54,1.11-.7s.86-.24,1.32-.24.9.08,1.32.24.79.39,1.11.7c.32.31.58.68.77,1.13.19.44.29.95.29,1.52v.17ZM126.58,243.3c.34,0,.65-.06.93-.18.28-.12.53-.29.75-.51s.38-.49.5-.81c.12-.31.18-.67.18-1.06v-.17c0-.37-.06-.72-.18-1.03-.12-.31-.29-.58-.5-.81-.21-.22-.47-.4-.76-.52-.29-.13-.6-.19-.92-.19s-.63.06-.92.19c-.29.13-.54.3-.76.52-.21.22-.38.49-.5.81-.12.31-.18.66-.18,1.03v.17c0,.39.06.74.18,1.06.12.31.29.58.5.81s.46.39.75.51c.29.12.6.18.93.18Z"/><path d="M131.69,237.19h2.52v.92h.17c.18-.38.43-.67.76-.85.33-.18.7-.27,1.12-.27.7,0,1.26.23,1.69.69.43.46.66,1.12.69,2l-1.15.17c0-.64-.15-1.11-.46-1.39-.31-.28-.69-.43-1.13-.43-.29,0-.54.06-.75.17s-.38.27-.52.46c-.14.2-.24.42-.31.69-.07.26-.1.54-.1.84v2.94h1.76v1.01h-4.45v-1.01h1.6v-4.93h-1.43v-1.01Z"/><path d="M151.01,240.08h.24l2.65-2.88h1.34v.08l-2.88,3.18v.25l3.22,3.35v.08h-1.34l-2.95-3.05h-.27v3.05h-1.09v-9.8h1.09v5.74Z"/><path d="M159.87,243.35c0-.27.1-.5.29-.69.19-.19.42-.29.69-.29s.5.1.69.29c.19.19.29.42.29.69v1.37c0,.32-.1.58-.3.78-.2.21-.46.31-.78.31h-.71v-.76h.66c.25,0,.38-.14.38-.42v-.35c-.08.03-.15.04-.24.04-.26,0-.49-.1-.68-.29-.19-.19-.29-.42-.29-.69Z"/><path d="M77.38,259.87h-.17c-.22.42-.53.73-.92.94s-.81.31-1.27.31-.91-.08-1.32-.24-.77-.39-1.08-.69c-.31-.3-.56-.67-.74-1.11-.18-.44-.27-.95-.27-1.52v-.22c0-.56.09-1.06.28-1.5.19-.44.43-.82.74-1.12.31-.3.67-.53,1.08-.69s.84-.24,1.29-.24c.5,0,.95.11,1.32.33s.67.54.89.96h.17v-1.09h1.09v8.65c0,.32-.1.58-.3.78-.2.21-.46.31-.78.31h-4.52v-1.01h4.13c.25,0,.38-.14.38-.42v-2.44ZM75.06,260.1c.33,0,.63-.06.91-.18.28-.12.53-.29.74-.52s.38-.49.5-.81c.12-.31.18-.66.18-1.04v-.17c0-.37-.06-.72-.18-1.03-.12-.31-.29-.58-.5-.81-.21-.22-.46-.4-.74-.52-.29-.13-.59-.19-.9-.19s-.63.06-.92.18c-.28.12-.53.29-.74.52-.21.22-.37.49-.49.8-.12.31-.17.65-.17,1.02v.22c0,.39.06.74.17,1.05.12.31.28.57.49.79s.45.39.73.5c.28.12.59.18.92.18Z"/><path d="M81.47,257.8c.03.69.24,1.25.64,1.67.4.42.96.63,1.68.63.33,0,.61-.04.85-.11.24-.07.45-.18.62-.31.17-.13.31-.28.42-.46s.19-.36.26-.55l1.04.28c-.2.64-.56,1.17-1.09,1.57-.53.41-1.24.61-2.13.61-.49,0-.95-.09-1.37-.26-.42-.17-.77-.42-1.07-.73s-.53-.7-.7-1.13c-.17-.44-.25-.92-.25-1.46v-.34c0-.48.09-.94.26-1.36s.41-.78.72-1.08c.31-.3.67-.54,1.08-.71.42-.17.87-.26,1.35-.26.57,0,1.06.1,1.48.31.42.21.76.47,1.02.78.27.31.46.64.59,1.01.13.36.19.7.19,1.01v.9h-5.6ZM83.79,254.83c-.31,0-.59.05-.86.15-.27.1-.5.24-.7.41-.2.18-.36.38-.49.62-.13.24-.21.5-.25.78h4.48c-.02-.3-.09-.57-.22-.81s-.29-.45-.49-.62c-.2-.17-.43-.3-.69-.39s-.52-.14-.79-.14Z"/><path d="M90.33,260.94h-1.09v-6.94h1.09v1.18h.17c.43-.91,1.18-1.37,2.24-1.37.8,0,1.44.25,1.92.75.48.5.71,1.25.71,2.25v4.14h-1.09v-3.92c0-.73-.16-1.27-.49-1.64-.33-.36-.77-.55-1.33-.55-.66,0-1.18.23-1.56.68s-.57,1.06-.57,1.81v3.61Z"/><path d="M98.61,257.8c.03.69.24,1.25.64,1.67.4.42.96.63,1.68.63.33,0,.61-.04.85-.11.24-.07.45-.18.62-.31.17-.13.31-.28.42-.46s.19-.36.26-.55l1.04.28c-.2.64-.56,1.17-1.08,1.57-.53.41-1.24.61-2.13.61-.5,0-.95-.09-1.37-.26s-.77-.42-1.07-.73-.53-.7-.7-1.13c-.17-.44-.25-.92-.25-1.46v-.34c0-.48.09-.94.26-1.36.17-.42.41-.78.72-1.08s.67-.54,1.08-.71.87-.26,1.35-.26c.57,0,1.06.1,1.48.31.42.21.76.47,1.02.78.27.31.46.64.59,1.01.13.36.19.7.19,1.01v.9h-5.6ZM100.93,254.83c-.31,0-.59.05-.86.15-.27.1-.5.24-.7.41-.2.18-.36.38-.49.62-.13.24-.21.5-.25.78h4.48c-.02-.3-.09-.57-.22-.81s-.29-.45-.49-.62c-.2-.17-.43-.3-.69-.39s-.52-.14-.79-.14Z"/><path d="M105.98,253.99h2.52v.92h.17c.18-.38.43-.67.76-.85.33-.18.7-.27,1.12-.27.7,0,1.26.23,1.69.69.43.46.66,1.12.69,2l-1.15.17c0-.64-.15-1.11-.46-1.39-.31-.28-.69-.43-1.13-.43-.29,0-.54.06-.75.17s-.38.27-.52.46c-.14.2-.24.42-.31.69-.07.26-.1.54-.1.84v2.94h1.76v1.01h-4.45v-1.01h1.6v-4.93h-1.43v-1.01Z"/><path d="M119.98,259.76h-.17c-.22.47-.53.81-.93,1.04-.4.22-.81.34-1.25.34s-.88-.08-1.27-.23c-.39-.15-.73-.38-1.03-.69-.29-.3-.53-.67-.69-1.11-.17-.44-.25-.95-.25-1.53v-.22c0-.57.08-1.07.25-1.51.17-.44.4-.81.69-1.11s.64-.53,1.03-.69c.39-.16.81-.24,1.25-.24.48,0,.91.1,1.29.31.39.21.69.53.92.97h.17v-1.09h1.09v5.52c0,.28.13.42.38.42h.35v1.01h-.74c-.32,0-.58-.1-.78-.31-.2-.21-.3-.47-.3-.78v-.08ZM117.74,260.1c.33,0,.63-.06.9-.18.28-.12.51-.29.71-.52.2-.22.35-.49.46-.81.11-.31.17-.66.17-1.04v-.17c0-.37-.06-.72-.17-1.03-.11-.31-.27-.58-.47-.81-.2-.22-.44-.4-.71-.52s-.57-.19-.89-.19-.63.06-.9.18-.51.29-.71.51c-.2.22-.36.49-.47.8-.11.31-.17.66-.17,1.03v.22c0,.79.21,1.41.62,1.85.42.44.95.67,1.62.67Z"/><path d="M123.27,253.99h2.18v-2.86h1.09v2.86h2.69v1.01h-2.69v4.51c0,.28.13.42.38.42h1.97v1.01h-2.37c-.32,0-.58-.1-.78-.31-.2-.21-.3-.47-.3-.78v-4.84h-2.18v-1.01Z"/><path d="M132.88,257.8c.03.69.24,1.25.64,1.67.4.42.96.63,1.68.63.33,0,.61-.04.85-.11.24-.07.45-.18.62-.31.17-.13.31-.28.42-.46s.19-.36.26-.55l1.04.28c-.2.64-.56,1.17-1.09,1.57-.53.41-1.24.61-2.13.61-.49,0-.95-.09-1.37-.26-.42-.17-.77-.42-1.07-.73s-.53-.7-.7-1.13c-.17-.44-.25-.92-.25-1.46v-.34c0-.48.09-.94.26-1.36s.41-.78.72-1.08c.31-.3.67-.54,1.08-.71.42-.17.87-.26,1.35-.26.57,0,1.06.1,1.48.31.42.21.76.47,1.02.78.27.31.46.64.59,1.01.13.36.19.7.19,1.01v.9h-5.6ZM135.2,254.83c-.31,0-.59.05-.86.15-.27.1-.5.24-.7.41-.2.18-.36.38-.49.62-.13.24-.21.5-.25.78h4.48c-.02-.3-.09-.57-.22-.81s-.29-.45-.49-.62c-.2-.17-.43-.3-.69-.39s-.52-.14-.79-.14Z"/><path d="M150.66,255.78c0,.34.14.59.43.77.28.18.8.29,1.56.35.81.07,1.43.26,1.86.58.42.32.64.79.64,1.41v.08c0,.34-.07.64-.2.9-.13.27-.32.49-.56.68s-.53.33-.87.43c-.34.1-.71.15-1.11.15-.54,0-1.01-.07-1.39-.22-.39-.14-.71-.34-.97-.57-.26-.24-.45-.51-.58-.81-.13-.3-.21-.61-.22-.92l1.04-.25c.05.53.25.96.62,1.28.36.32.85.48,1.46.48.51,0,.93-.1,1.24-.3.31-.2.47-.48.47-.85,0-.39-.15-.67-.46-.84-.31-.17-.81-.28-1.5-.32-.8-.06-1.42-.24-1.85-.56-.43-.32-.64-.78-.64-1.39v-.08c0-.33.07-.61.21-.86.14-.25.33-.45.57-.62.24-.17.51-.29.8-.38s.61-.13.94-.13c.46,0,.86.06,1.2.19.35.13.63.29.87.49s.41.43.54.69.21.52.25.78l-1.04.25c-.05-.45-.23-.8-.54-1.05-.31-.25-.72-.38-1.22-.38-.2,0-.38.02-.57.06-.18.04-.34.1-.48.19-.14.08-.25.19-.34.32-.08.13-.13.27-.13.44Z"/><path d="M157.95,259.93h2.44v-4.93h-2.18v-1.01h3.28v5.94h2.27v1.01h-5.8v-1.01ZM159.94,251.92c0-.27.1-.5.29-.69.19-.19.42-.29.69-.29s.5.1.69.29.29.42.29.69-.1.5-.29.69c-.19.19-.42.29-.69.29s-.5-.1-.69-.29c-.19-.19-.29-.42-.29-.69Z"/><path d="M171.63,259.87h-.17c-.22.42-.53.73-.92.94s-.81.31-1.27.31-.91-.08-1.32-.24-.77-.39-1.08-.69c-.31-.3-.56-.67-.74-1.11-.18-.44-.27-.95-.27-1.52v-.22c0-.56.09-1.06.28-1.5.19-.44.43-.82.74-1.12.31-.3.67-.53,1.08-.69s.84-.24,1.29-.24c.5,0,.95.11,1.32.33s.67.54.89.96h.17v-1.09h1.09v8.65c0,.32-.1.58-.3.78-.2.21-.46.31-.78.31h-4.52v-1.01h4.13c.25,0,.38-.14.38-.42v-2.44ZM169.3,260.1c.33,0,.63-.06.91-.18.28-.12.53-.29.74-.52s.38-.49.5-.81c.12-.31.18-.66.18-1.04v-.17c0-.37-.06-.72-.18-1.03-.12-.31-.29-.58-.5-.81-.21-.22-.46-.4-.74-.52-.29-.13-.59-.19-.9-.19s-.63.06-.92.18c-.28.12-.53.29-.74.52-.21.22-.37.49-.49.8-.12.31-.17.65-.17,1.02v.22c0,.39.06.74.17,1.05.12.31.28.57.49.79s.45.39.73.5c.28.12.59.18.92.18Z"/><path d="M176.01,260.94h-1.09v-6.94h1.09v1.18h.17c.43-.91,1.18-1.37,2.24-1.37.8,0,1.44.25,1.92.75.48.5.71,1.25.71,2.25v4.14h-1.09v-3.92c0-.73-.16-1.27-.49-1.64-.33-.36-.77-.55-1.33-.55-.66,0-1.18.23-1.56.68s-.57,1.06-.57,1.81v3.61Z"/><path d="M183.66,259.93h2.44v-4.93h-2.18v-1.01h3.28v5.94h2.27v1.01h-5.8v-1.01ZM185.64,251.92c0-.27.1-.5.29-.69s.42-.29.69-.29.5.1.69.29.29.42.29.69-.1.5-.29.69c-.19.19-.42.29-.69.29s-.5-.1-.69-.29c-.19-.19-.29-.42-.29-.69Z"/><path d="M193.15,260.94h-1.09v-6.94h1.09v1.18h.17c.43-.91,1.18-1.37,2.24-1.37.8,0,1.44.25,1.92.75.48.5.71,1.25.71,2.25v4.14h-1.09v-3.92c0-.73-.16-1.27-.49-1.64-.33-.36-.77-.55-1.33-.55-.66,0-1.18.23-1.56.68s-.57,1.06-.57,1.81v3.61Z"/><path d="M205.9,259.87h-.17c-.22.42-.53.73-.92.94-.39.21-.81.31-1.27.31s-.91-.08-1.32-.24c-.41-.16-.77-.39-1.08-.69-.31-.3-.56-.67-.74-1.11-.18-.44-.27-.95-.27-1.52v-.22c0-.56.09-1.06.28-1.5s.43-.82.74-1.12c.31-.3.67-.53,1.08-.69.41-.16.84-.24,1.29-.24.5,0,.94.11,1.32.33s.67.54.89.96h.17v-1.09h1.09v8.65c0,.32-.1.58-.3.78-.2.21-.46.31-.78.31h-4.52v-1.01h4.13c.25,0,.38-.14.38-.42v-2.44ZM203.58,260.1c.33,0,.63-.06.91-.18.28-.12.52-.29.73-.52s.38-.49.5-.81c.12-.31.18-.66.18-1.04v-.17c0-.37-.06-.72-.18-1.03-.12-.31-.29-.58-.5-.81-.21-.22-.46-.4-.74-.52-.29-.13-.59-.19-.9-.19s-.63.06-.92.18c-.29.12-.53.29-.74.52-.21.22-.37.49-.49.8-.12.31-.17.65-.17,1.02v.22c0,.39.06.74.17,1.05.12.31.28.57.49.79s.46.39.74.5c.28.12.59.18.92.18Z"/><path d="M218.6,263.74h-1.09v-9.74h1.09v1.09h.17c.24-.42.58-.74,1.01-.96.43-.22.9-.33,1.4-.33.43,0,.83.08,1.22.24s.72.39,1.02.69.53.67.7,1.11c.17.44.26.94.26,1.5v.28c0,.57-.08,1.07-.25,1.51-.17.44-.4.81-.69,1.11s-.64.52-1.03.68c-.39.15-.81.23-1.25.23-.22,0-.45-.03-.69-.08-.23-.05-.46-.13-.67-.24-.21-.11-.4-.24-.58-.39-.18-.15-.33-.34-.45-.55h-.17v3.86ZM220.92,260.1c.34,0,.64-.06.92-.18.28-.12.53-.28.74-.5.21-.21.37-.48.49-.78.12-.31.18-.65.18-1.04v-.28c0-.37-.06-.71-.18-1.02-.12-.3-.28-.56-.49-.78-.21-.22-.46-.39-.74-.51-.29-.12-.59-.18-.92-.18s-.63.06-.91.19-.53.3-.74.52c-.21.22-.38.49-.5.81-.12.31-.18.66-.18,1.03v.17c0,.38.06.73.18,1.04.12.31.29.58.5.81s.46.4.74.52c.28.12.58.18.91.18Z"/><path d="M231.37,259.76h-.17c-.22.47-.53.81-.93,1.04-.4.22-.81.34-1.25.34s-.88-.08-1.27-.23c-.39-.15-.74-.38-1.03-.69-.29-.3-.52-.67-.69-1.11-.17-.44-.25-.95-.25-1.53v-.22c0-.57.08-1.07.25-1.51.17-.44.4-.81.69-1.11s.64-.53,1.03-.69.81-.24,1.25-.24c.48,0,.91.1,1.29.31.39.21.69.53.92.97h.17v-1.09h1.09v5.52c0,.28.13.42.38.42h.35v1.01h-.74c-.32,0-.58-.1-.78-.31-.2-.21-.3-.47-.3-.78v-.08ZM229.13,260.1c.33,0,.63-.06.9-.18.28-.12.51-.29.71-.52s.35-.49.46-.81c.11-.31.17-.66.17-1.04v-.17c0-.37-.06-.72-.17-1.03-.11-.31-.27-.58-.47-.81-.2-.22-.44-.4-.71-.52-.28-.13-.57-.19-.89-.19s-.62.06-.9.18c-.27.12-.51.29-.71.51-.2.22-.36.49-.47.8-.11.31-.17.66-.17,1.03v.22c0,.79.21,1.41.62,1.85.42.44.95.67,1.62.67Z"/><path d="M241.39,258.47c-.07.38-.2.74-.38,1.06-.18.33-.41.61-.69.85-.28.24-.61.42-.98.55s-.79.2-1.25.2c-.49,0-.95-.08-1.38-.24s-.81-.39-1.14-.69c-.33-.3-.59-.67-.78-1.11-.19-.44-.29-.94-.29-1.51v-.17c0-.56.1-1.06.29-1.51.19-.45.45-.83.78-1.13.33-.31.71-.55,1.14-.71s.89-.25,1.38-.25c.44,0,.84.07,1.22.2s.7.31.99.55c.28.24.52.52.7.85.18.33.31.68.37,1.06l-1.09.25c-.03-.24-.1-.48-.2-.71-.11-.23-.25-.43-.43-.6-.18-.17-.4-.31-.67-.41-.26-.1-.56-.15-.91-.15s-.65.06-.94.19-.55.3-.78.53c-.22.23-.4.5-.53.82-.13.32-.19.66-.19,1.04v.17c0,.39.06.74.19,1.06.13.31.3.58.53.79.22.21.49.38.78.5.3.12.62.18.97.18s.65-.05.9-.16.48-.25.66-.42c.18-.17.33-.37.43-.6s.18-.46.22-.7l1.09.25Z"/><path d="M245.25,256.88h.24l2.65-2.88h1.34v.08l-2.88,3.18v.25l3.22,3.35v.08h-1.34l-2.95-3.05h-.27v3.05h-1.09v-9.8h1.09v5.74Z"/><path d="M257.07,259.76h-.17c-.22.47-.53.81-.93,1.04-.4.22-.81.34-1.25.34s-.88-.08-1.27-.23c-.39-.15-.73-.38-1.03-.69-.29-.3-.53-.67-.69-1.11-.17-.44-.25-.95-.25-1.53v-.22c0-.57.08-1.07.25-1.51.17-.44.4-.81.69-1.11s.64-.53,1.03-.69c.39-.16.81-.24,1.25-.24.48,0,.91.1,1.29.31.39.21.69.53.92.97h.17v-1.09h1.09v5.52c0,.28.13.42.38.42h.35v1.01h-.74c-.32,0-.58-.1-.78-.31-.2-.21-.3-.47-.3-.78v-.08ZM254.83,260.1c.33,0,.63-.06.9-.18.28-.12.51-.29.71-.52.2-.22.35-.49.46-.81.11-.31.17-.66.17-1.04v-.17c0-.37-.06-.72-.17-1.03-.11-.31-.27-.58-.47-.81-.2-.22-.44-.4-.71-.52s-.57-.19-.89-.19-.63.06-.9.18-.51.29-.71.51c-.2.22-.36.49-.47.8-.11.31-.17.66-.17,1.03v.22c0,.79.21,1.41.62,1.85.42.44.95.67,1.62.67Z"/><path d="M265.88,259.87h-.17c-.22.42-.53.73-.92.94-.39.21-.81.31-1.27.31s-.91-.08-1.32-.24c-.41-.16-.77-.39-1.08-.69-.31-.3-.56-.67-.74-1.11-.18-.44-.27-.95-.27-1.52v-.22c0-.56.09-1.06.28-1.5s.43-.82.74-1.12c.31-.3.67-.53,1.08-.69.41-.16.84-.24,1.29-.24.5,0,.94.11,1.32.33s.67.54.89.96h.17v-1.09h1.09v8.65c0,.32-.1.58-.3.78-.2.21-.46.31-.78.31h-4.52v-1.01h4.13c.25,0,.38-.14.38-.42v-2.44ZM263.55,260.1c.33,0,.63-.06.91-.18.28-.12.52-.29.73-.52s.38-.49.5-.81c.12-.31.18-.66.18-1.04v-.17c0-.37-.06-.72-.18-1.03-.12-.31-.29-.58-.5-.81-.21-.22-.46-.4-.74-.52-.29-.13-.59-.19-.9-.19s-.63.06-.92.18c-.29.12-.53.29-.74.52-.21.22-.37.49-.49.8-.12.31-.17.65-.17,1.02v.22c0,.39.06.74.17,1.05.12.31.28.57.49.79s.46.39.74.5c.28.12.59.18.92.18Z"/><path d="M269.96,257.8c.03.69.24,1.25.64,1.67.4.42.96.63,1.68.63.33,0,.61-.04.85-.11.24-.07.45-.18.62-.31.17-.13.31-.28.42-.46s.19-.36.26-.55l1.04.28c-.2.64-.56,1.17-1.09,1.57-.53.41-1.24.61-2.13.61-.49,0-.95-.09-1.37-.26-.42-.17-.77-.42-1.07-.73s-.53-.7-.7-1.13c-.17-.44-.25-.92-.25-1.46v-.34c0-.48.09-.94.26-1.36s.41-.78.72-1.08c.31-.3.67-.54,1.08-.71.42-.17.87-.26,1.35-.26.57,0,1.06.1,1.48.31.42.21.76.47,1.02.78.27.31.46.64.59,1.01.13.36.19.7.19,1.01v.9h-5.6ZM272.29,254.83c-.31,0-.59.05-.86.15-.27.1-.5.24-.7.41-.2.18-.36.38-.49.62-.13.24-.21.5-.25.78h4.48c-.02-.3-.09-.57-.22-.81s-.29-.45-.49-.62c-.2-.17-.43-.3-.69-.39s-.52-.14-.79-.14Z"/><rect class="cls-4" x="79.36" y="457.17" width="189.07" height="48.12" rx="3" ry="3"/><path d="M120.08,478.63c0-.32-.06-.6-.19-.84s-.3-.44-.51-.6c-.21-.16-.46-.28-.74-.36-.28-.08-.57-.13-.88-.13-.27,0-.53.03-.77.1-.24.07-.46.17-.65.3-.19.13-.34.29-.46.48-.11.19-.17.41-.17.67v.08c0,.27.06.5.17.69.11.19.28.35.5.49.22.14.49.25.82.34.33.09.71.17,1.15.23,1.03.16,1.78.46,2.27.9s.73,1.04.73,1.78v.17c0,.42-.07.81-.22,1.16-.15.35-.36.65-.64.9-.29.25-.64.45-1.06.59-.42.14-.91.21-1.46.21-.63,0-1.18-.09-1.66-.27-.48-.18-.88-.43-1.2-.76-.32-.32-.57-.7-.74-1.13-.17-.43-.25-.91-.25-1.42v-.42h1.18v.34c0,.86.24,1.5.71,1.93.47.43,1.13.64,1.97.64.73,0,1.28-.16,1.65-.48.37-.32.55-.75.55-1.28v-.08c0-.51-.19-.91-.57-1.18s-.99-.47-1.84-.59c-.49-.07-.94-.17-1.34-.3-.4-.14-.73-.31-1.02-.53-.28-.22-.49-.48-.64-.79-.15-.31-.22-.67-.22-1.09v-.17c0-.38.08-.73.24-1.05s.38-.59.67-.83c.28-.23.62-.41,1.02-.54.4-.13.83-.19,1.31-.19.55,0,1.04.08,1.48.24.43.16.8.37,1.1.64s.52.58.68.94c.15.36.23.73.23,1.13v.59h-1.18v-.5Z"/><path d="M123.44,484.59h2.44v-4.93h-2.18v-1.01h3.28v5.94h2.27v1.01h-5.8v-1.01ZM125.43,476.58c0-.27.1-.5.29-.69.19-.19.42-.29.69-.29s.5.1.69.29.29.42.29.69-.1.5-.29.69c-.19.19-.42.29-.69.29s-.5-.1-.69-.29c-.19-.19-.29-.42-.29-.69Z"/><path d="M137.12,484.54h-.17c-.22.42-.53.73-.92.94-.39.21-.81.31-1.27.31s-.91-.08-1.32-.24c-.41-.16-.77-.39-1.08-.69-.31-.3-.56-.67-.74-1.11s-.27-.95-.27-1.52v-.22c0-.56.09-1.06.28-1.5.19-.44.43-.82.74-1.12s.67-.53,1.08-.69c.41-.16.84-.24,1.29-.24.5,0,.94.11,1.32.33s.67.54.89.96h.17v-1.09h1.09v8.65c0,.32-.1.58-.3.78-.2.21-.46.31-.78.31h-4.52v-1.01h4.13c.25,0,.38-.14.38-.42v-2.44ZM134.79,484.76c.33,0,.63-.06.91-.18.28-.12.52-.29.73-.52s.38-.49.5-.81c.12-.31.18-.66.18-1.04v-.17c0-.37-.06-.72-.18-1.03-.12-.31-.29-.58-.5-.81-.21-.22-.46-.4-.74-.52-.29-.13-.59-.19-.9-.19s-.63.06-.92.18-.53.29-.74.52c-.21.22-.37.49-.49.8s-.17.65-.17,1.02v.22c0,.39.06.74.17,1.05s.28.57.49.79.45.39.73.5c.28.12.59.18.92.18Z"/><path d="M141.5,485.6h-1.09v-6.94h1.09v1.18h.17c.43-.91,1.18-1.37,2.24-1.37.8,0,1.44.25,1.92.75.48.5.71,1.25.71,2.25v4.14h-1.09v-3.92c0-.73-.16-1.27-.49-1.64-.33-.36-.77-.55-1.33-.55-.66,0-1.18.23-1.56.68s-.57,1.06-.57,1.81v3.61Z"/><path d="M161.67,485.6h-2.16l-2.42-6.94h1.29l2.13,6.44h.17l2.13-6.44h1.29l-2.42,6.94Z"/><path d="M168.2,484.82c0-.27.1-.5.29-.69.19-.19.42-.29.69-.29s.5.1.69.29c.19.19.29.42.29.69s-.1.5-.29.69c-.19.19-.42.29-.69.29s-.5-.1-.69-.29c-.19-.19-.29-.42-.29-.69Z"/><path d="M188.62,478.63c0-.32-.06-.6-.19-.84s-.3-.44-.51-.6c-.21-.16-.46-.28-.74-.36-.28-.08-.57-.13-.88-.13-.27,0-.53.03-.77.1-.24.07-.46.17-.65.3-.19.13-.34.29-.46.48-.11.19-.17.41-.17.67v.08c0,.27.06.5.17.69.11.19.28.35.5.49.22.14.49.25.82.34.33.09.71.17,1.15.23,1.03.16,1.78.46,2.27.9s.73,1.04.73,1.78v.17c0,.42-.07.81-.22,1.16-.15.35-.36.65-.64.9-.29.25-.64.45-1.06.59-.42.14-.91.21-1.46.21-.63,0-1.18-.09-1.66-.27-.48-.18-.88-.43-1.2-.76-.32-.32-.57-.7-.74-1.13-.17-.43-.25-.91-.25-1.42v-.42h1.18v.34c0,.86.24,1.5.71,1.93.47.43,1.13.64,1.97.64.73,0,1.28-.16,1.65-.48.37-.32.55-.75.55-1.28v-.08c0-.51-.19-.91-.57-1.18s-.99-.47-1.84-.59c-.49-.07-.94-.17-1.34-.3-.4-.14-.73-.31-1.02-.53-.28-.22-.49-.48-.64-.79-.15-.31-.22-.67-.22-1.09v-.17c0-.38.08-.73.24-1.05s.38-.59.67-.83c.28-.23.62-.41,1.02-.54.4-.13.83-.19,1.31-.19.55,0,1.04.08,1.48.24.43.16.8.37,1.1.64s.52.58.68.94c.15.36.23.73.23,1.13v.59h-1.18v-.5Z"/><path d="M192.91,485.6h-1.09v-9.8h1.09v4.12h.17c.21-.45.52-.8.9-1.06s.86-.39,1.42-.39c.76,0,1.37.25,1.84.75.47.5.71,1.25.71,2.25v4.14h-1.09v-3.92c0-.73-.16-1.27-.49-1.64-.33-.36-.77-.55-1.33-.55-.66,0-1.18.23-1.56.68s-.57,1.06-.57,1.81v3.61Z"/><path d="M205.42,484.43h-.17c-.22.47-.53.81-.93,1.04-.4.22-.81.34-1.25.34s-.88-.08-1.27-.23c-.39-.15-.73-.38-1.03-.69-.29-.3-.52-.67-.69-1.11-.17-.44-.25-.95-.25-1.53v-.22c0-.57.08-1.07.25-1.51.17-.44.4-.81.69-1.11s.64-.53,1.03-.69c.39-.16.81-.24,1.25-.24.48,0,.91.1,1.29.31s.69.53.92.97h.17v-1.09h1.09v5.52c0,.28.13.42.38.42h.35v1.01h-.74c-.32,0-.58-.1-.78-.31-.2-.21-.3-.47-.3-.78v-.08ZM203.19,484.76c.33,0,.63-.06.9-.18.28-.12.51-.29.71-.52.2-.22.35-.49.46-.81.11-.31.17-.66.17-1.04v-.17c0-.37-.06-.72-.17-1.03-.11-.31-.27-.58-.47-.81-.2-.22-.44-.4-.71-.52-.28-.13-.57-.19-.89-.19s-.63.06-.9.18c-.27.12-.51.29-.71.51-.2.22-.36.49-.47.8-.11.31-.17.66-.17,1.03v.22c0,.79.21,1.41.62,1.85s.95.67,1.62.67Z"/><path d="M208.56,478.66h2.52v.92h.17c.18-.38.43-.67.76-.85.33-.18.7-.27,1.12-.27.7,0,1.26.23,1.69.69.43.46.66,1.12.69,2l-1.15.17c0-.64-.15-1.11-.46-1.39-.31-.28-.69-.43-1.13-.43-.29,0-.54.06-.75.17s-.38.27-.52.46c-.14.2-.24.42-.31.69-.07.26-.1.54-.1.84v2.94h1.76v1.01h-4.45v-1.01h1.6v-4.93h-1.43v-1.01Z"/><path d="M218.32,482.46c.03.69.24,1.25.64,1.67.4.42.96.63,1.68.63.33,0,.61-.04.85-.11.24-.07.45-.18.62-.31.17-.13.31-.28.42-.46s.19-.36.26-.55l1.04.28c-.2.64-.56,1.17-1.09,1.57-.53.41-1.24.61-2.13.61-.49,0-.95-.09-1.37-.26-.42-.17-.77-.42-1.07-.73s-.53-.7-.7-1.13c-.17-.44-.25-.92-.25-1.46v-.34c0-.48.09-.94.26-1.36.17-.42.41-.78.72-1.08.31-.3.67-.54,1.08-.71.42-.17.87-.26,1.35-.26.57,0,1.06.1,1.48.31s.76.47,1.02.78c.27.31.46.64.59,1.01.13.36.19.7.19,1.01v.9h-5.6ZM220.64,479.5c-.31,0-.59.05-.86.15s-.5.24-.7.41-.36.38-.49.62c-.13.24-.21.5-.25.78h4.48c-.02-.3-.09-.57-.22-.81s-.29-.45-.49-.62c-.2-.17-.43-.3-.69-.39s-.52-.14-.79-.14Z"/><path d="M227.53,480.45c0,.34.14.59.43.77s.81.29,1.56.35c.81.07,1.43.26,1.85.58.42.32.64.79.64,1.41v.08c0,.34-.07.64-.2.9s-.32.49-.56.68c-.24.19-.53.33-.87.43-.34.1-.71.15-1.11.15-.54,0-1.01-.07-1.39-.22s-.71-.34-.97-.57c-.26-.24-.45-.51-.58-.81-.13-.3-.21-.61-.22-.92l1.04-.25c.05.53.25.96.62,1.28.36.32.85.48,1.46.48.51,0,.93-.1,1.24-.3.31-.2.47-.48.47-.85,0-.39-.15-.67-.46-.84s-.81-.28-1.5-.32c-.8-.06-1.42-.24-1.85-.56-.43-.32-.64-.78-.64-1.39v-.08c0-.33.07-.61.21-.86.14-.25.33-.45.57-.62.24-.17.51-.29.81-.38.3-.08.61-.13.94-.13.46,0,.86.06,1.2.19s.63.29.87.49.41.43.54.69.21.52.25.78l-1.04.25c-.05-.45-.23-.8-.54-1.05-.31-.25-.72-.38-1.23-.38-.2,0-.38.02-.57.06s-.34.1-.48.19-.25.19-.34.32c-.08.13-.13.27-.13.44Z"/><path class="cls-6" d="M403.46,89.55h-1.68v-14h1.68v6.2h.46l5.38-6.2h2.08v.12l-5.8,6.76v.24l6.04,6.76v.12h-2.12l-5.58-6.24h-.46v6.24Z"/><path class="cls-6" d="M422.38,79.55l-1.76,1.76-1,.56.1.24.9-.28h2.7v1.44h-2.7l-.9-.28-.1.24,1,.56,1.76,1.76-1.02,1.02-1.76-1.76-.56-1-.24.1.28.9v2.7h-1.44v-2.7l.28-.9-.24-.1-.56,1-1.76,1.76-1.02-1.02,1.76-1.76,1-.56-.1-.24-.9.28h-2.7v-1.44h2.7l.9.28.1-.24-1-.56-1.76-1.76,1.02-1.02,1.76,1.76.56,1,.24-.1-.28-.9v-2.7h1.44v2.7l-.28.9.24.1.56-1,1.76-1.76,1.02,1.02Z"/><path class="cls-6" d="M403.46,300h-1.68v-14h1.68v6.2h.46l5.38-6.2h2.08v.12l-5.8,6.76v.24l6.04,6.76v.12h-2.12l-5.58-6.24h-.46v6.24Z"/><path class="cls-6" d="M422.38,290l-1.76,1.76-1,.56.1.24.9-.28h2.7v1.44h-2.7l-.9-.28-.1.24,1,.56,1.76,1.76-1.02,1.02-1.76-1.76-.56-1-.24.1.28.9v2.7h-1.44v-2.7l.28-.9-.24-.1-.56,1-1.76,1.76-1.02-1.02,1.76-1.76,1-.56-.1-.24-.9.28h-2.7v-1.44h2.7l.9.28.1-.24-1-.56-1.76-1.76,1.02-1.02,1.76,1.76.56,1,.24-.1-.28-.9v-2.7h1.44v2.7l-.28.9.24.1.56-1,1.76-1.76,1.02,1.02Z"/><path class="cls-1" d="M590.41,530.73h2.75l.74-3.49h1.25l-.74,3.49h2.82v1.15h-3.07l-1.14,5.39c-.03.13-.02.23.04.3s.14.11.23.11c.07,0,.15-.03.24-.08l2.13-1.44.64.94-2.13,1.44c-.34.22-.69.34-1.06.34s-.69-.11-.96-.34c-.27-.22-.4-.56-.4-1.01,0-.07,0-.15.02-.23.01-.08.03-.16.05-.25l1.09-5.18h-2.5v-1.15Z"/><path class="cls-1" d="M603.43,532.12c.02-.11,0-.2-.04-.28-.05-.08-.13-.12-.25-.12-.09,0-.17.02-.24.06l-1.87,1.28-.64-.94,1.89-1.28c.33-.22.69-.34,1.07-.34.36,0,.68.11.94.32s.4.54.4.99c0,.17-.02.34-.06.51l-1.18,4.94c-.03.13-.02.23.04.3s.14.11.23.11c.07,0,.15-.03.24-.08l1.84-1.25.64.94-1.84,1.25c-.34.22-.7.34-1.07.34s-.68-.11-.94-.32c-.27-.21-.4-.54-.4-.99,0-.17.02-.34.06-.51l1.18-4.94ZM603.69,528.36c0-.31.11-.57.33-.79.22-.22.48-.33.79-.33s.57.11.79.33c.22.22.33.48.33.79s-.11.57-.33.79c-.22.22-.48.33-.79.33s-.57-.11-.79-.33c-.22-.22-.33-.48-.33-.79Z"/><path class="cls-1" d="M616.25,532.72c.01-.05.02-.1.02-.14,0-.04,0-.09,0-.14,0-.21-.06-.39-.18-.53-.12-.14-.3-.21-.54-.21-.31,0-.55.11-.73.32-.18.21-.31.51-.39.9l-1.23,5.76h-1.25l1.26-5.95c.02-.11.03-.22.03-.34,0-.19-.05-.35-.15-.49-.1-.13-.29-.2-.55-.2-.34,0-.6.12-.77.37-.17.25-.29.53-.37.85l-1.23,5.76h-1.23l1.68-7.94h1.25l-.14.67h.19c.12-.31.3-.54.54-.68.25-.14.52-.22.82-.22.33,0,.6.08.81.24s.34.38.39.66h.19c.15-.29.34-.51.58-.66.23-.15.52-.23.86-.23.48,0,.84.14,1.09.42.25.28.37.65.37,1.11,0,.1,0,.2-.02.31-.01.11-.03.21-.05.3l-1.02,4.77c-.02.09-.01.15.03.19.04.04.1.06.16.06s.12-.02.18-.06l.67-.5.67.94-.72.54c-.12.09-.26.15-.44.21-.18.05-.35.08-.54.08-.16,0-.31-.02-.46-.06-.15-.04-.29-.11-.41-.2s-.22-.21-.3-.35c-.07-.14-.11-.32-.11-.54,0-.05,0-.11,0-.16s.01-.11.02-.16l.99-4.7Z"/><path class="cls-1" d="M620.22,535.08c-.02.09-.04.18-.05.29-.01.11-.02.22-.02.34,0,.59.17,1.07.51,1.45.34.38.89.57,1.63.57.37,0,.71-.04,1-.13.29-.09.55-.21.76-.36.21-.15.4-.33.55-.53.15-.2.29-.41.39-.63l1.02.58c-.15.31-.34.6-.56.87s-.49.51-.8.71c-.31.2-.67.36-1.07.48s-.87.18-1.39.18c-.48,0-.92-.07-1.32-.22s-.74-.35-1.03-.62c-.29-.27-.51-.6-.67-1-.16-.39-.24-.84-.24-1.34,0-.67.11-1.32.32-1.94s.52-1.18.93-1.66.91-.87,1.5-1.16c.6-.29,1.27-.44,2.03-.44.53,0,1,.08,1.39.25.39.17.72.39.98.67.26.28.45.6.58.96.13.36.19.73.19,1.11,0,.29-.03.57-.1.83l-.18.75h-6.37ZM623.56,531.69c-.37,0-.72.06-1.05.17-.33.11-.62.27-.89.47-.27.2-.5.44-.69.71-.19.27-.34.57-.45.89h5.09c.03-.17.05-.33.05-.48,0-.58-.2-1.01-.59-1.31-.39-.3-.89-.45-1.47-.45Z"/><path class="cls-1" d="M179.87,530.73h2.75l.74-3.49h1.25l-.74,3.49h2.82v1.15h-3.07l-1.14,5.39c-.03.13-.02.23.04.3s.14.11.23.11c.07,0,.15-.03.24-.08l2.13-1.44.64.94-2.13,1.44c-.34.22-.69.34-1.06.34s-.69-.11-.96-.34c-.27-.22-.4-.56-.4-1.01,0-.07,0-.15.02-.23.01-.08.03-.16.05-.25l1.09-5.18h-2.5v-1.15Z"/><path class="cls-1" d="M192.89,532.12c.02-.11,0-.2-.04-.28-.05-.08-.13-.12-.25-.12-.09,0-.17.02-.24.06l-1.87,1.28-.64-.94,1.89-1.28c.33-.22.69-.34,1.07-.34.36,0,.68.11.94.32s.4.54.4.99c0,.17-.02.34-.06.51l-1.18,4.94c-.03.13-.02.23.04.3s.14.11.23.11c.07,0,.15-.03.24-.08l1.84-1.25.64.94-1.84,1.25c-.34.22-.7.34-1.07.34s-.68-.11-.94-.32c-.27-.21-.4-.54-.4-.99,0-.17.02-.34.06-.51l1.18-4.94ZM193.15,528.36c0-.31.11-.57.33-.79.22-.22.48-.33.79-.33s.57.11.79.33c.22.22.33.48.33.79s-.11.57-.33.79c-.22.22-.48.33-.79.33s-.57-.11-.79-.33c-.22-.22-.33-.48-.33-.79Z"/><path class="cls-1" d="M205.71,532.72c.01-.05.02-.1.02-.14,0-.04,0-.09,0-.14,0-.21-.06-.39-.18-.53-.12-.14-.3-.21-.54-.21-.31,0-.55.11-.73.32-.18.21-.31.51-.39.9l-1.23,5.76h-1.25l1.26-5.95c.02-.11.03-.22.03-.34,0-.19-.05-.35-.15-.49-.1-.13-.29-.2-.55-.2-.34,0-.6.12-.77.37-.17.25-.29.53-.37.85l-1.23,5.76h-1.23l1.68-7.94h1.25l-.14.67h.19c.12-.31.3-.54.54-.68.25-.14.52-.22.82-.22.33,0,.6.08.81.24s.34.38.39.66h.19c.15-.29.34-.51.58-.66.23-.15.52-.23.86-.23.48,0,.84.14,1.09.42.25.28.37.65.37,1.11,0,.1,0,.2-.02.31-.01.11-.03.21-.05.3l-1.02,4.77c-.02.09-.01.15.03.19.04.04.1.06.16.06s.12-.02.18-.06l.67-.5.67.94-.72.54c-.12.09-.26.15-.44.21-.18.05-.35.08-.54.08-.16,0-.31-.02-.46-.06-.15-.04-.29-.11-.41-.2s-.22-.21-.3-.35c-.07-.14-.11-.32-.11-.54,0-.05,0-.11,0-.16s.01-.11.02-.16l.99-4.7Z"/><path class="cls-1" d="M209.68,535.08c-.02.09-.04.18-.05.29-.01.11-.02.22-.02.34,0,.59.17,1.07.51,1.45.34.38.89.57,1.63.57.37,0,.71-.04,1-.13.29-.09.55-.21.76-.36.21-.15.4-.33.55-.53.15-.2.29-.41.39-.63l1.02.58c-.15.31-.34.6-.56.87s-.49.51-.8.71c-.31.2-.67.36-1.07.48s-.87.18-1.39.18c-.48,0-.92-.07-1.32-.22s-.74-.35-1.03-.62c-.29-.27-.51-.6-.67-1-.16-.39-.24-.84-.24-1.34,0-.67.11-1.32.32-1.94s.52-1.18.93-1.66.91-.87,1.5-1.16c.6-.29,1.27-.44,2.03-.44.53,0,1,.08,1.39.25.39.17.72.39.98.67.26.28.45.6.58.96.13.36.19.73.19,1.11,0,.29-.03.57-.1.83l-.18.75h-6.37ZM213.02,531.69c-.37,0-.72.06-1.05.17-.33.11-.62.27-.89.47-.27.2-.5.44-.69.71-.19.27-.34.57-.45.89h5.09c.03-.17.05-.33.05-.48,0-.58-.2-1.01-.59-1.31-.39-.3-.89-.45-1.47-.45Z"/></svg>