<?xml version="1.0" encoding="UTF-8"?><svg id="Layer_1" xmlns="http://www.w3.org/2000/svg" viewBox="0 0 836.89 401.51"><defs><style>.cls-1{letter-spacing:0em;}.cls-2{stroke-dasharray:0 0 4.56 2.28;}.cls-2,.cls-3,.cls-4,.cls-5,.cls-6,.cls-7,.cls-8{fill:none;stroke-miterlimit:10;}.cls-2,.cls-3,.cls-4,.cls-6{stroke:#000;}.cls-9{font-family:SpaceGrotesk-Bold, 'Space Grotesk';font-size:20px;}.cls-10{letter-spacing:0em;}.cls-11{letter-spacing:-.04em;}.cls-12{font-family:SpaceGrotesk-Regular, 'Space Grotesk';}.cls-12,.cls-13{font-size:16px;}.cls-14{letter-spacing:-.01em;}.cls-13{font-family:SpaceMono-Italic, 'Space Mono';}.cls-3{stroke-width:2px;}.cls-15{letter-spacing:0em;}.cls-5,.cls-7,.cls-8{stroke:#999;}.cls-6{stroke-dasharray:0 0 3.99 1.99;}.cls-16{letter-spacing:0em;}.cls-17{letter-spacing:-.03em;}.cls-7{stroke-dasharray:0 0 1.97 1.97;}.cls-18{letter-spacing:-.03em;}.cls-8{stroke-dasharray:0 0 2.01 2.01;}</style></defs><text class="cls-9" transform="translate(131.62 72.15)"><tspan x="0" y="0">D</tspan><tspan class="cls-11" x="13.32" y="0">a</tspan><tspan x="24.16" y="0">ta</tspan></text><g><line class="cls-4" x1="492.99" y1="163.84" x2="473.09" y2="163.84"/><polygon points="473.82 161.35 469.5 163.84 473.82 166.34 473.82 161.35"/></g><g><line class="cls-4" x1="539.68" y1="185.56" x2="525.61" y2="171.49"/><polygon points="527.89 170.24 523.07 168.95 524.36 173.77 527.89 170.24"/></g><g><line class="cls-4" x1="539.68" y1="191.56" x2="525.61" y2="205.63"/><polygon points="524.36 203.35 523.07 208.17 527.89 206.88 524.36 203.35"/></g><g><line class="cls-4" x1="597.72" y1="238.12" x2="571.27" y2="204.92"/><polygon points="573.67 203.94 569.03 202.11 569.77 207.04 573.67 203.94"/></g><g><line class="cls-4" x1="597.72" y1="245.03" x2="572.07" y2="273.25"/><polygon points="570.72 271.03 569.66 275.9 574.41 274.38 570.72 271.03"/></g><g><line class="cls-4" x1="492.99" y1="212.97" x2="473.09" y2="212.97"/><polygon points="473.82 210.48 469.5 212.97 473.82 215.47 473.82 210.48"/></g><g><line class="cls-4" x1="492.99" y1="262.1" x2="473.09" y2="262.1"/><polygon points="473.82 259.61 469.5 262.1 473.82 264.59 473.82 259.61"/></g><g><line class="cls-4" x1="492.99" y1="311.23" x2="473.09" y2="311.23"/><polygon points="473.82 308.74 469.5 311.23 473.82 313.72 473.82 308.74"/></g><g><polyline class="cls-4" points="499.29 173.49 497.29 173.49 497.29 171.49"/><line class="cls-2" x1="497.29" y1="169.21" x2="497.29" y2="156.68"/><polyline class="cls-4" points="497.29 155.54 497.29 153.54 499.29 153.54"/><line class="cls-2" x1="501.57" y1="153.54" x2="514.11" y2="153.54"/><polyline class="cls-4" points="515.25 153.54 517.25 153.54 517.25 155.54"/><line class="cls-2" x1="517.25" y1="157.82" x2="517.25" y2="170.35"/><polyline class="cls-4" points="517.25 171.49 517.25 173.49 515.25 173.49"/><line class="cls-2" x1="512.97" y1="173.49" x2="500.43" y2="173.49"/></g><g><polyline class="cls-4" points="547.74 199.1 545.74 199.1 545.74 197.1"/><line class="cls-2" x1="545.74" y1="194.82" x2="545.74" y2="182.29"/><polyline class="cls-4" points="545.74 181.15 545.74 179.15 547.74 179.15"/><line class="cls-2" x1="550.02" y1="179.15" x2="562.55" y2="179.15"/><polyline class="cls-4" points="563.69 179.15 565.69 179.15 565.69 181.15"/><line class="cls-2" x1="565.69" y1="183.43" x2="565.69" y2="195.96"/><polyline class="cls-4" points="565.69 197.1 565.69 199.1 563.69 199.1"/><line class="cls-2" x1="561.41" y1="199.1" x2="548.88" y2="199.1"/></g><g><polyline class="cls-4" points="607.72 254.1 605.72 254.1 605.72 252.1"/><line class="cls-2" x1="605.72" y1="249.82" x2="605.72" y2="237.29"/><polyline class="cls-4" points="605.72 236.15 605.72 234.15 607.72 234.15"/><line class="cls-6" x1="609.71" y1="234.15" x2="752.27" y2="234.15"/><polyline class="cls-4" points="753.27 234.15 755.27 234.15 755.27 236.15"/><line class="cls-2" x1="755.27" y1="238.43" x2="755.27" y2="250.96"/><polyline class="cls-4" points="755.27 252.1 755.27 254.1 753.27 254.1"/><line class="cls-6" x1="751.28" y1="254.1" x2="608.71" y2="254.1"/></g><g><line class="cls-4" x1="539.68" y1="284.94" x2="525.61" y2="270.88"/><polygon points="527.89 269.63 523.07 268.34 524.36 273.16 527.89 269.63"/></g><g><line class="cls-4" x1="539.68" y1="290.95" x2="525.61" y2="305.02"/><polygon points="524.36 302.74 523.07 307.56 527.89 306.27 524.36 302.74"/></g><g><polyline class="cls-4" points="547.74 298.49 545.74 298.49 545.74 296.49"/><line class="cls-2" x1="545.74" y1="294.21" x2="545.74" y2="281.68"/><polyline class="cls-4" points="545.74 280.54 545.74 278.54 547.74 278.54"/><line class="cls-2" x1="550.02" y1="278.54" x2="562.55" y2="278.54"/><polyline class="cls-4" points="563.69 278.54 565.69 278.54 565.69 280.54"/><line class="cls-2" x1="565.69" y1="282.82" x2="565.69" y2="295.35"/><polyline class="cls-4" points="565.69 296.49 565.69 298.49 563.69 298.49"/><line class="cls-2" x1="561.41" y1="298.49" x2="548.88" y2="298.49"/></g><g><polyline class="cls-4" points="499.29 222.81 497.29 222.81 497.29 220.81"/><line class="cls-2" x1="497.29" y1="218.53" x2="497.29" y2="205.99"/><polyline class="cls-4" points="497.29 204.85 497.29 202.85 499.29 202.85"/><line class="cls-2" x1="501.57" y1="202.85" x2="514.11" y2="202.85"/><polyline class="cls-4" points="515.25 202.85 517.25 202.85 517.25 204.85"/><line class="cls-2" x1="517.25" y1="207.13" x2="517.25" y2="219.67"/><polyline class="cls-4" points="517.25 220.81 517.25 222.81 515.25 222.81"/><line class="cls-2" x1="512.97" y1="222.81" x2="500.43" y2="222.81"/></g><g><polyline class="cls-4" points="499.29 272.12 497.29 272.12 497.29 270.12"/><line class="cls-2" x1="497.29" y1="267.85" x2="497.29" y2="255.31"/><polyline class="cls-4" points="497.29 254.17 497.29 252.17 499.29 252.17"/><line class="cls-2" x1="501.57" y1="252.17" x2="514.11" y2="252.17"/><polyline class="cls-4" points="515.25 252.17 517.25 252.17 517.25 254.17"/><line class="cls-2" x1="517.25" y1="256.45" x2="517.25" y2="268.99"/><polyline class="cls-4" points="517.25 270.12 517.25 272.12 515.25 272.12"/><line class="cls-2" x1="512.97" y1="272.12" x2="500.43" y2="272.12"/></g><g><polyline class="cls-4" points="499.29 321.44 497.29 321.44 497.29 319.44"/><line class="cls-2" x1="497.29" y1="317.16" x2="497.29" y2="304.63"/><polyline class="cls-4" points="497.29 303.49 497.29 301.49 499.29 301.49"/><line class="cls-2" x1="501.57" y1="301.49" x2="514.11" y2="301.49"/><polyline class="cls-4" points="515.25 301.49 517.25 301.49 517.25 303.49"/><line class="cls-2" x1="517.25" y1="305.77" x2="517.25" y2="318.3"/><polyline class="cls-4" points="517.25 319.44 517.25 321.44 515.25 321.44"/><line class="cls-2" x1="512.97" y1="321.44" x2="500.43" y2="321.44"/></g><rect class="cls-3" x="129.89" y="125.85" width="326.4" height="220.41"/><text class="cls-13" transform="translate(129.36 109.99)"><tspan x="0" y="0">branch</tspan></text><text class="cls-13" transform="translate(436.9 96.67)"><tspan x="0" y="0">fixed-size chunk hashes</tspan></text><text class="cls-13" transform="translate(604.84 222.8)"><tspan x="0" y="0">root hash</tspan></text><text class="cls-12" transform="translate(619.33 250.32)"><tspan x="0" y="0">cidD</tspan><tspan class="cls-18" x="34.4" y="0">a</tspan><tspan class="cls-10" x="43.09" y="0">t</tspan><tspan x="50.4" y="0">a</tspan></text><text class="cls-12" transform="translate(155.49 155.61)"><tspan x="0" y="0">&lt;op</tspan><tspan class="cls-14" x="30.11" y="0">a</tspan><tspan x="39.09" y="0">que d</tspan><tspan class="cls-18" x="83.07" y="0">a</tspan><tspan class="cls-1" x="91.76" y="0">t</tspan><tspan x="99.07" y="0">a&gt;</tspan><tspan x="0" y="19.2">..</tspan><tspan class="cls-17" x="8.1" y="19.2">.</tspan></text><g><polyline class="cls-5" points="449.6 231.61 449.6 232.61 448.6 232.61"/><line class="cls-8" x1="446.59" y1="232.61" x2="142.15" y2="232.61"/><polyline class="cls-5" points="141.14 232.61 140.14 232.61 140.14 231.61"/><line class="cls-7" x1="140.14" y1="229.64" x2="140.14" y2="136.06"/><polyline class="cls-5" points="140.14 135.07 140.14 134.07 141.14 134.07"/><line class="cls-8" x1="143.15" y1="134.07" x2="447.6" y2="134.07"/><polyline class="cls-5" points="448.6 134.07 449.6 134.07 449.6 135.07"/><line class="cls-7" x1="449.6" y1="137.04" x2="449.6" y2="230.62"/></g><text class="cls-12" transform="translate(155.49 259.64)"><tspan x="0" y="0">&lt;op</tspan><tspan class="cls-14" x="30.11" y="0">a</tspan><tspan x="39.09" y="0">que d</tspan><tspan class="cls-18" x="83.07" y="0">a</tspan><tspan class="cls-1" x="91.76" y="0">t</tspan><tspan x="99.07" y="0">a co</tspan><tspan class="cls-14" x="131.84" y="0">n</tspan><tspan class="cls-16" x="141.42" y="0">ti</tspan><tspan class="cls-15" x="152.7" y="0">n</tspan><tspan x="162.38" y="0">ued&gt;</tspan><tspan x="0" y="19.2">&lt;p</tspan><tspan class="cls-14" x="20.22" y="19.2">a</tspan><tspan x="29.2" y="19.2">dding&gt;</tspan></text><g><polyline class="cls-5" points="449.6 335.64 449.6 336.64 448.6 336.64"/><line class="cls-8" x1="446.59" y1="336.64" x2="142.15" y2="336.64"/><polyline class="cls-5" points="141.14 336.64 140.14 336.64 140.14 335.64"/><line class="cls-7" x1="140.14" y1="333.67" x2="140.14" y2="240.09"/><polyline class="cls-5" points="140.14 239.11 140.14 238.11 141.14 238.11"/><line class="cls-8" x1="143.15" y1="238.11" x2="447.6" y2="238.11"/><polyline class="cls-5" points="448.6 238.11 449.6 238.11 449.6 239.11"/><line class="cls-7" x1="449.6" y1="241.08" x2="449.6" y2="334.66"/></g><path class="cls-4" d="M495.04,130.4s0-9.01,6.43-9.01h38.79c2.12,0,4.5-2.8,4.5-6.31h.14c0,3.5,2.38,6.31,4.5,6.31h38.79c6.43,0,6.43,9.01,6.43,9.01"/><text class="cls-13" transform="translate(22.56 232.48)"><tspan x="0" y="0">binary</tspan><tspan x="19.58" y="19.2">data</tspan></text><path class="cls-4" d="M113.49,337.65s-9.01,0-9.01-13.24v-79.83c0-4.37-2.8-9.27-6.31-9.27v-.29c3.5,0,6.31-4.9,6.31-9.27v-79.83c0-13.24,9.01-13.24,9.01-13.24"/></svg>