<?xml version="1.0" encoding="UTF-8"?><svg xmlns="http://www.w3.org/2000/svg" viewBox="0 0 1333.98 762.82"><defs><style>.cls-1{stroke-dasharray:0 0 2.06 3.08;}.cls-1,.cls-2,.cls-3,.cls-4,.cls-5,.cls-6,.cls-7,.cls-8,.cls-9,.cls-10,.cls-11,.cls-12,.cls-13,.cls-14,.cls-15{stroke-miterlimit:10;}.cls-1,.cls-2,.cls-3,.cls-4,.cls-5,.cls-6,.cls-7,.cls-9,.cls-10,.cls-11,.cls-12,.cls-13,.cls-15{fill:none;}.cls-1,.cls-2,.cls-3,.cls-5,.cls-6,.cls-8,.cls-9,.cls-10,.cls-11,.cls-12,.cls-13,.cls-15{stroke:#000;}.cls-1,.cls-2,.cls-3,.cls-5,.cls-6,.cls-9,.cls-10,.cls-12,.cls-13,.cls-15{stroke-linecap:round;}.cls-2{stroke-dasharray:0 0 2.02 3.02;}.cls-3{stroke-dasharray:0 0 2 3;}.cls-16{fill:#f2f2f2;}.cls-17,.cls-8,.cls-14{fill:#fff;}.cls-18{fill:#559ccc;}.cls-19{font-family:SpaceMono-Italic, 'Space Mono';font-size:20px;}.cls-4,.cls-7,.cls-14{stroke:#2b2b2b;}.cls-4,.cls-14{stroke-width:1.25px;}.cls-6{stroke-dasharray:0 0 2.02 4.04;}.cls-7{stroke-width:.75px;}.cls-9{stroke-dasharray:0 0 2 3;}.cls-10{stroke-dasharray:0 0 1.98 2.97;}.cls-20{font-family:SpaceMono-Regular, 'Space Mono';font-size:16px;}.cls-12{stroke-dasharray:0 0 2.02 3.03;}.cls-13{stroke-dasharray:0 0 1.98 2.98;}.cls-15{stroke-dasharray:0 0 1.99 2.98;}</style></defs><g id="Backgrounds"><rect class="cls-17" x="-125.36" y="-118.59" width="1500" height="1000"/></g><g id="Layer_1"><g><path class="cls-18" d="M620.27,79.91c9.59,0,17.61,6.67,19.69,15.63,3.45-1.78,7.35-2.79,11.5-2.79,13.87,0,25.11,11.24,25.11,25.11,0,6.03-2.13,11.57-5.68,15.9v15.47h-92.79v-8.12c-5.73-2.87-9.68-8.78-9.68-15.62,0-9.65,7.83-17.48,17.48-17.48,1.82,0,3.57,.28,5.22,.79,1.48-3.81,4.85-6.66,8.96-7.41-.03-.41-.04-.83-.04-1.25,0-11.17,9.05-20.22,20.22-20.22m0-2c-12.15,0-22.06,9.81-22.22,21.92-3.41,1.08-6.3,3.47-8.03,6.61-1.35-.29-2.73-.44-4.12-.44-10.74,0-19.48,8.74-19.48,19.48,0,6.99,3.68,13.33,9.68,16.82v8.93h96.79v-16.78c3.67-4.73,5.68-10.59,5.68-16.6,0-14.95-12.16-27.11-27.11-27.11-3.56,0-6.99,.67-10.23,2-3.09-8.85-11.39-14.84-20.96-14.84h0Z"/><path class="cls-11" d="M651.46,92.74c-4.15,0-8.05,1.01-11.5,2.79-2.08-8.95-10.1-15.63-19.69-15.63-11.17,0-20.22,9.05-20.22,20.22,0,.42,.02,.84,.04,1.25-4.11,.75-7.49,3.61-8.96,7.41-1.65-.52-3.4-.79-5.22-.79-9.65,0-17.48,7.83-17.48,17.48s7.4,17.04,16.68,17.46v.02h65.78c.19-.01,.38,0,.57,0,13.87,0,25.11-11.24,25.11-25.11s-11.24-25.11-25.11-25.11Z"/><g><rect class="cls-8" x="578.1" y="116.2" width="92.79" height="33.02"/><line class="cls-11" x1="657.52" y1="131.1" x2="657.52" y2="142.79"/><line class="cls-11" x1="655.39" y1="131.1" x2="655.39" y2="142.79"/><line class="cls-11" x1="653.27" y1="131.1" x2="653.27" y2="142.79"/><line class="cls-11" x1="651.14" y1="131.1" x2="651.14" y2="142.79"/><line class="cls-11" x1="649.01" y1="131.1" x2="649.01" y2="142.79"/><line class="cls-11" x1="646.88" y1="131.1" x2="646.88" y2="142.79"/><line class="cls-11" x1="644.75" y1="131.1" x2="644.75" y2="142.79"/><circle class="cls-11" cx="664.01" cy="122.7" r="2.41"/><circle class="cls-11" cx="664.01" cy="141.75" r="2.41"/><g><path class="cls-17" d="M664.04,142.75c-.63,0-1.15-.52-1.15-1.15v-18.72c0-.63,.52-1.15,1.15-1.15s1.15,.52,1.15,1.15v18.72c0,.63-.52,1.15-1.15,1.15Z"/><path d="M664.04,122.22c.36,0,.65,.29,.65,.65v18.72c0,.36-.29,.65-.65,.65s-.65-.29-.65-.65v-18.72c0-.36,.29-.65,.65-.65m0-1c-.91,0-1.65,.74-1.65,1.65v18.72c0,.91,.74,1.65,1.65,1.65s1.65-.74,1.65-1.65v-18.72c0-.91-.74-1.65-1.65-1.65h0Z"/></g><circle class="cls-11" cx="585.47" cy="122.7" r="2.41"/><circle class="cls-11" cx="585.47" cy="141.75" r="2.41"/><g><path class="cls-17" d="M585.5,142.75c-.63,0-1.15-.52-1.15-1.15v-18.72c0-.63,.52-1.15,1.15-1.15s1.15,.52,1.15,1.15v18.72c0,.63-.52,1.15-1.15,1.15Z"/><path d="M585.5,122.22c.36,0,.65,.29,.65,.65v18.72c0,.36-.29,.65-.65,.65s-.65-.29-.65-.65v-18.72c0-.36,.29-.65,.65-.65m0-1c-.91,0-1.65,.74-1.65,1.65v18.72c0,.91,.74,1.65,1.65,1.65s1.65-.74,1.65-1.65v-18.72c0-.91-.74-1.65-1.65-1.65h0Z"/></g><circle class="cls-8" cx="648.68" cy="122.57" r="1.17"/><circle class="cls-8" cx="652.52" cy="122.57" r="1.17"/><circle class="cls-8" cx="656.36" cy="122.57" r="1.17"/></g></g><path class="cls-11" d="M914.4,45.39c-4.15,0-8.05,1.01-11.5,2.79-2.08-8.95-10.1-15.63-19.69-15.63-11.17,0-20.22,9.05-20.22,20.22,0,.42,.02,.84,.04,1.25-4.11,.75-7.49,3.61-8.96,7.41-1.65-.52-3.4-.79-5.22-.79-9.65,0-17.48,7.83-17.48,17.48s7.4,17.04,16.68,17.46v.02h65.78c.19-.01,.38,0,.57,0,13.87,0,25.11-11.24,25.11-25.11s-11.24-25.11-25.11-25.11Z"/><g><rect class="cls-8" x="841.05" y="68.85" width="92.79" height="33.02"/><line class="cls-11" x1="920.46" y1="83.75" x2="920.46" y2="95.44"/><line class="cls-11" x1="918.34" y1="83.75" x2="918.34" y2="95.44"/><line class="cls-11" x1="916.21" y1="83.75" x2="916.21" y2="95.44"/><line class="cls-11" x1="914.08" y1="83.75" x2="914.08" y2="95.44"/><line class="cls-11" x1="911.95" y1="83.75" x2="911.95" y2="95.44"/><line class="cls-11" x1="909.82" y1="83.75" x2="909.82" y2="95.44"/><line class="cls-11" x1="907.69" y1="83.75" x2="907.69" y2="95.44"/><circle class="cls-11" cx="926.95" cy="75.35" r="2.41"/><circle class="cls-11" cx="926.95" cy="94.4" r="2.41"/><g><path class="cls-17" d="M926.98,95.4c-.63,0-1.15-.52-1.15-1.15v-18.72c0-.63,.52-1.15,1.15-1.15s1.15,.52,1.15,1.15v18.72c0,.63-.52,1.15-1.15,1.15Z"/><path d="M926.98,74.87c.36,0,.65,.29,.65,.65v18.72c0,.36-.29,.65-.65,.65s-.65-.29-.65-.65v-18.72c0-.36,.29-.65,.65-.65m0-1c-.91,0-1.65,.74-1.65,1.65v18.72c0,.91,.74,1.65,1.65,1.65s1.65-.74,1.65-1.65v-18.72c0-.91-.74-1.65-1.65-1.65h0Z"/></g><circle class="cls-11" cx="848.41" cy="75.35" r="2.41"/><circle class="cls-11" cx="848.41" cy="94.4" r="2.41"/><g><path class="cls-17" d="M848.44,95.4c-.63,0-1.15-.52-1.15-1.15v-18.72c0-.63,.52-1.15,1.15-1.15s1.15,.52,1.15,1.15v18.72c0,.63-.52,1.15-1.15,1.15Z"/><path d="M848.44,74.87c.36,0,.65,.29,.65,.65v18.72c0,.36-.29,.65-.65,.65s-.65-.29-.65-.65v-18.72c0-.36,.29-.65,.65-.65m0-1c-.91,0-1.65,.74-1.65,1.65v18.72c0,.91,.74,1.65,1.65,1.65s1.65-.74,1.65-1.65v-18.72c0-.91-.74-1.65-1.65-1.65h0Z"/></g><circle class="cls-8" cx="911.62" cy="75.22" r="1.17"/><circle class="cls-8" cx="915.46" cy="75.22" r="1.17"/><circle class="cls-8" cx="919.31" cy="75.22" r="1.17"/></g><g><rect class="cls-8" x="318.61" y="658.65" width="92.79" height="33.02"/><line class="cls-11" x1="398.03" y1="673.55" x2="398.03" y2="685.24"/><line class="cls-11" x1="395.9" y1="673.55" x2="395.9" y2="685.24"/><line class="cls-11" x1="393.77" y1="673.55" x2="393.77" y2="685.24"/><line class="cls-11" x1="391.64" y1="673.55" x2="391.64" y2="685.24"/><line class="cls-11" x1="389.52" y1="673.55" x2="389.52" y2="685.24"/><line class="cls-11" x1="387.39" y1="673.55" x2="387.39" y2="685.24"/><line class="cls-11" x1="385.26" y1="673.55" x2="385.26" y2="685.24"/><circle class="cls-11" cx="404.51" cy="665.15" r="2.41"/><circle class="cls-11" cx="404.51" cy="684.2" r="2.41"/><g><path class="cls-17" d="M404.55,685.2c-.63,0-1.15-.52-1.15-1.15v-18.72c0-.63,.52-1.15,1.15-1.15s1.15,.52,1.15,1.15v18.72c0,.63-.52,1.15-1.15,1.15Z"/><path d="M404.55,664.68c.36,0,.65,.29,.65,.65v18.72c0,.36-.29,.65-.65,.65s-.65-.29-.65-.65v-18.72c0-.36,.29-.65,.65-.65m0-1c-.91,0-1.65,.74-1.65,1.65v18.72c0,.91,.74,1.65,1.65,1.65s1.65-.74,1.65-1.65v-18.72c0-.91-.74-1.65-1.65-1.65h0Z"/></g><circle class="cls-11" cx="325.97" cy="665.15" r="2.41"/><circle class="cls-11" cx="325.97" cy="684.2" r="2.41"/><g><path class="cls-17" d="M326.01,685.2c-.63,0-1.15-.52-1.15-1.15v-18.72c0-.63,.52-1.15,1.15-1.15s1.15,.52,1.15,1.15v18.72c0,.63-.52,1.15-1.15,1.15Z"/><path d="M326.01,664.68c.36,0,.65,.29,.65,.65v18.72c0,.36-.29,.65-.65,.65s-.65-.29-.65-.65v-18.72c0-.36,.29-.65,.65-.65m0-1c-.91,0-1.65,.74-1.65,1.65v18.72c0,.91,.74,1.65,1.65,1.65s1.65-.74,1.65-1.65v-18.72c0-.91-.74-1.65-1.65-1.65h0Z"/></g><circle class="cls-8" cx="389.18" cy="665.03" r="1.17"/><circle class="cls-8" cx="393.03" cy="665.03" r="1.17"/><circle class="cls-8" cx="396.87" cy="665.03" r="1.17"/></g><g><path class="cls-8" d="M1167.34,402.48s0,9.59-6.93,9.59v2.4h27.71v-2.4c-6.93,0-6.93-9.59-6.93-9.59"/><rect class="cls-8" x="1136.12" y="359.46" width="76.3" height="42.92"/></g><g><g><path class="cls-18" d="M823.36,244.41s0,9.59,6.93,9.59v2.4h-27.71v-2.4c6.93,0,6.93-9.59,6.93-9.59h13.85m2-2h-17.85v2c0,.31-.09,7.59-4.93,7.59h-2v6.4h31.71v-6.4h-2c-4.87,0-4.93-7.52-4.93-7.59v-2h0Z"/><path class="cls-18" d="M854.58,201.39v42.92h-76.3v-42.92h76.3m2-2h-80.3v46.92h80.3v-46.92h0Z"/></g><g><path class="cls-8" d="M809.51,244.41s0,9.59-6.93,9.59v2.4h27.71v-2.4c-6.93,0-6.93-9.59-6.93-9.59"/><rect class="cls-8" x="778.28" y="201.39" width="76.3" height="42.92"/></g></g><g><g><path class="cls-18" d="M442.75,566.3s0,9.59,6.93,9.59v2.4h-27.71v-2.4c6.93,0,6.93-9.59,6.93-9.59h13.85m2-2h-17.85v2c0,.31-.09,7.59-4.93,7.59h-2v6.4h31.71v-6.4h-2c-4.87,0-4.93-7.52-4.93-7.59v-2h0Z"/><path class="cls-18" d="M473.97,523.27v42.92h-76.3v-42.92h76.3m2-2h-80.3v46.92h80.3v-46.92h0Z"/></g><g><path class="cls-8" d="M428.9,566.3s0,9.59-6.93,9.59v2.4h27.71v-2.4c-6.93,0-6.93-9.59-6.93-9.59"/><rect class="cls-8" x="397.67" y="523.27" width="76.3" height="42.92"/></g></g><g><rect class="cls-4" x="228.98" y="490.03" width="38.4" height="56.68" rx="1.44" ry="1.44"/><circle class="cls-7" cx="248.18" cy="541.12" r="1.64"/></g><g><path class="cls-4" d="M40.37,403.49v-42.54c0-.54,.44-.98,.98-.98H106.65c.54,0,.98,.44,.98,.98v42.54"/><path class="cls-4" d="M36.08,403.15H111.93c0,1.66-1.35,3.01-3.01,3.01H39.09c-1.66,0-3.01-1.35-3.01-3.01h0Z"/></g><g><path class="cls-18" d="M465.34,199.86c.54,0,.98,.44,.98,.98v42.2h4.29c0,1.66-1.35,3.01-3.01,3.01h-69.82c-1.66,0-3.01-1.35-3.01-3.01h4.29v-42.2c0-.54,.44-.98,.98-.98h65.3m0-2h-65.3c-1.65,0-2.98,1.34-2.98,2.98v40.2h-4.29v2c0,2.76,2.25,5.01,5.01,5.01h69.82c2.76,0,5.01-2.25,5.01-5.01v-2h-4.29v-40.2c0-1.65-1.34-2.98-2.98-2.98h0Z"/><path class="cls-14" d="M399.06,243.39v-42.54c0-.54,.44-.98,.98-.98h65.3c.54,0,.98,.44,.98,.98v42.54"/><path class="cls-14" d="M394.77,243.05h75.84c0,1.66-1.35,3.01-3.01,3.01h-69.82c-1.66,0-3.01-1.35-3.01-3.01h0Z"/></g><g><path class="cls-18" d="M406.2,358.95c.54,0,.98,.44,.98,.98v42.2h4.29c0,1.66-1.35,3.01-3.01,3.01h-69.82c-1.66,0-3.01-1.35-3.01-3.01h4.29v-42.2c0-.54,.44-.98,.98-.98h65.3m0-2h-65.3c-1.65,0-2.98,1.34-2.98,2.98v40.2h-4.29v2c0,2.76,2.25,5.01,5.01,5.01h69.82c2.76,0,5.01-2.25,5.01-5.01v-2h-4.29v-40.2c0-1.65-1.34-2.98-2.98-2.98h0Z"/><path class="cls-14" d="M339.92,402.48v-42.54c0-.54,.44-.98,.98-.98h65.3c.54,0,.98,.44,.98,.98v42.54"/><path class="cls-14" d="M335.63,402.14h75.84c0,1.66-1.35,3.01-3.01,3.01h-69.82c-1.66,0-3.01-1.35-3.01-3.01h0Z"/></g><g><path class="cls-18" d="M657.01,609.45c.54,0,.98,.44,.98,.98v42.2h4.29c0,1.66-1.35,3.01-3.01,3.01h-69.82c-1.66,0-3.01-1.35-3.01-3.01h4.29v-42.2c0-.54,.44-.98,.98-.98h65.3m0-2h-65.3c-1.65,0-2.98,1.34-2.98,2.98v40.2h-4.29v2c0,2.76,2.25,5.01,5.01,5.01h69.82c2.76,0,5.01-2.25,5.01-5.01v-2h-4.29v-40.2c0-1.65-1.34-2.98-2.98-2.98h0Z"/><path class="cls-14" d="M590.73,652.97v-42.54c0-.54,.44-.98,.98-.98h65.3c.54,0,.98,.44,.98,.98v42.54"/><path class="cls-14" d="M586.44,652.64h75.84c0,1.66-1.35,3.01-3.01,3.01h-69.82c-1.66,0-3.01-1.35-3.01-3.01h0Z"/></g><g><rect class="cls-4" x="229.54" y="248.63" width="27.4" height="42.35" rx="1.44" ry="1.44"/><circle class="cls-7" cx="243.25" cy="287.21" r="1.44"/></g><g><rect class="cls-4" x="989.94" y="242.21" width="27.4" height="42.35" rx="1.44" ry="1.44"/><circle class="cls-7" cx="1003.65" cy="280.79" r="1.44"/></g><g><rect class="cls-4" x="989.94" y="501.25" width="27.4" height="42.35" rx="1.44" ry="1.44"/><circle class="cls-7" cx="1003.65" cy="539.82" r="1.44"/></g><g><rect class="cls-4" x="354.3" y="52.87" width="27.4" height="42.35" rx="1.44" ry="1.44"/><circle class="cls-7" cx="368" cy="91.45" r="1.44"/></g><g><path class="cls-5" d="M462.3,187.86c.26-.21,.51-.43,.77-.64"/><path class="cls-9" d="M465.38,185.32c25.24-20.48,54.52-36.18,86.45-45.73"/><path class="cls-5" d="M553.26,139.16c.32-.09,.64-.19,.96-.28"/><polygon points="465.36 189.97 458.48 191.12 460.92 184.58 465.36 189.97"/><polygon points="554.27 142.61 559.07 137.54 552.28 135.92 554.27 142.61"/></g><g><path class="cls-5" d="M374.32,346.1c.05-.33,.09-.66,.14-.99"/><path class="cls-1" d="M374.91,342.06c4.53-28.88,13.95-56.14,27.4-80.9"/><path class="cls-5" d="M403.05,259.8c.16-.29,.32-.58,.48-.87"/><polygon points="378 345.6 373.67 351.08 371.09 344.59 378 345.6"/><polygon points="406.17 261.54 406.02 254.56 400.05 258.18 406.17 261.54"/></g><g><path class="cls-5" d="M408.13,511.9c-.17-.29-.34-.57-.52-.86"/><path class="cls-2" d="M406.08,508.44c-15.57-26.71-26.39-56.53-31.27-88.31"/><path class="cls-5" d="M374.58,418.64c-.05-.33-.1-.66-.14-.99"/><polygon points="410.68 509.19 410.77 516.17 404.68 512.76 410.68 509.19"/><polygon points="378.13 418.12 373.77 412.67 371.23 419.17 378.13 418.12"/></g><g><path class="cls-5" d="M577.69,629.59c-.33-.06-.66-.12-.98-.19"/><path class="cls-12" d="M573.74,628.82c-38.34-7.79-73.52-24.28-103.4-47.3"/><path class="cls-5" d="M469.13,580.59c-.26-.21-.52-.41-.79-.62"/><polygon points="577.32 625.94 582.64 630.46 576.06 632.81 577.32 625.94"/><polygon points="471.34 577.85 464.43 576.83 467 583.32 471.34 577.85"/></g><g><path class="cls-5" d="M807.61,554.98c-.23,.24-.46,.48-.69,.72"/><path class="cls-15" d="M804.84,557.85c-34.03,34.83-78.05,59.85-127.43,70.43"/><path class="cls-5" d="M675.95,628.59c-.33,.07-.65,.14-.98,.2"/><polygon points="804.33 553.29 811.02 551.3 809.4 558.09 804.33 553.29"/><polygon points="675.26 625.11 670.04 629.74 676.66 631.95 675.26 625.11"/></g><g><path class="cls-5" d="M847.72,263.91c.16,.29,.31,.59,.46,.88"/><path class="cls-10" d="M849.54,267.44c17.37,34.25,27.16,72.99,27.16,114.02,0,28.55-4.74,56-13.48,81.6"/><path class="cls-5" d="M862.74,464.46c-.11,.31-.22,.63-.33,.94"/><polygon points="844.99 266.47 845.34 259.5 851.2 263.28 844.99 266.47"/><polygon points="859.4 463.26 860.7 470.11 865.99 465.56 859.4 463.26"/></g><g><path class="cls-5" d="M688.59,137.3c.32,.08,.65,.17,.97,.26"/><path class="cls-13" d="M692.43,138.34c33.53,9.38,64.24,25.51,90.57,46.83"/><path class="cls-5" d="M784.15,186.11c.26,.21,.52,.42,.77,.64"/><polygon points="688.63 141.03 683.72 136.07 690.47 134.3 688.63 141.03"/><polygon points="781.87 188.88 788.77 189.98 786.27 183.46 781.87 188.88"/></g><g><polyline class="cls-3" points="269.3 260.65 295.8 260.65 295.8 214.75 382.93 214.75"/><polygon points="270.33 264.14 264.28 260.65 270.33 257.16 270.33 264.14"/><polygon points="381.91 218.24 387.95 214.75 381.91 211.26 381.91 218.24"/></g><g><polyline class="cls-3" points="381.33 647.66 381.33 609.93 309.44 609.93 309.44 226.61 383.23 226.61"/><polygon points="384.82 646.64 381.33 652.69 377.84 646.64 384.82 646.64"/><polygon points="382.21 230.1 388.26 226.61 382.21 223.12 382.21 230.1"/></g><g><path class="cls-3" d="M435.7,512.1c8.79-34.39,71.51-239.87,324.23-279.82"/><polygon points="439.38 511.96 434.54 516.99 432.6 510.28 439.38 511.96"/><polygon points="759.48 235.94 764.89 231.53 758.37 229.05 759.48 235.94"/></g><g><path class="cls-18" d="M839.49,472.66c9.59,0,17.61,6.67,19.69,15.63,3.45-1.78,7.35-2.79,11.5-2.79,13.87,0,25.11,11.24,25.11,25.11,0,6.03-2.13,11.57-5.68,15.9v15.47h-92.79v-8.12c-5.73-2.87-9.68-8.78-9.68-15.62,0-9.65,7.83-17.48,17.48-17.48,1.82,0,3.57,.28,5.22,.79,1.48-3.81,4.85-6.66,8.96-7.41-.03-.41-.04-.83-.04-1.25,0-11.17,9.05-20.22,20.22-20.22m0-2c-12.15,0-22.06,9.81-22.22,21.92-3.41,1.08-6.3,3.47-8.03,6.61-1.35-.29-2.73-.44-4.12-.44-10.74,0-19.48,8.74-19.48,19.48,0,6.99,3.68,13.33,9.68,16.82v8.93h96.79v-16.78c3.67-4.73,5.68-10.59,5.68-16.6,0-14.95-12.16-27.11-27.11-27.11-3.56,0-6.99,.67-10.23,2-3.09-8.85-11.39-14.84-20.96-14.84h0Z"/><path class="cls-11" d="M870.68,485.5c-4.15,0-8.05,1.01-11.5,2.79-2.08-8.95-10.1-15.63-19.69-15.63-11.17,0-20.22,9.05-20.22,20.22,0,.42,.02,.84,.04,1.25-4.11,.75-7.49,3.61-8.96,7.41-1.65-.52-3.4-.79-5.22-.79-9.65,0-17.48,7.83-17.48,17.48s7.4,17.04,16.68,17.46v.02h65.78c.19-.01,.38,0,.57,0,13.87,0,25.11-11.24,25.11-25.11s-11.24-25.11-25.11-25.11Z"/><g><rect class="cls-8" x="797.33" y="508.95" width="92.79" height="33.02"/><line class="cls-11" x1="876.75" y1="523.85" x2="876.75" y2="535.54"/><line class="cls-11" x1="874.62" y1="523.85" x2="874.62" y2="535.54"/><line class="cls-11" x1="872.49" y1="523.85" x2="872.49" y2="535.54"/><line class="cls-11" x1="870.36" y1="523.85" x2="870.36" y2="535.54"/><line class="cls-11" x1="868.23" y1="523.85" x2="868.23" y2="535.54"/><line class="cls-11" x1="866.1" y1="523.85" x2="866.1" y2="535.54"/><line class="cls-11" x1="863.97" y1="523.85" x2="863.97" y2="535.54"/><circle class="cls-11" cx="883.23" cy="515.45" r="2.41"/><circle class="cls-11" cx="883.23" cy="534.5" r="2.41"/><g><path class="cls-17" d="M883.26,535.5c-.63,0-1.15-.52-1.15-1.15v-18.72c0-.63,.52-1.15,1.15-1.15s1.15,.52,1.15,1.15v18.72c0,.63-.52,1.15-1.15,1.15Z"/><path d="M883.26,514.98c.36,0,.65,.29,.65,.65v18.72c0,.36-.29,.65-.65,.65s-.65-.29-.65-.65v-18.72c0-.36,.29-.65,.65-.65m0-1c-.91,0-1.65,.74-1.65,1.65v18.72c0,.91,.74,1.65,1.65,1.65s1.65-.74,1.65-1.65v-18.72c0-.91-.74-1.65-1.65-1.65h0Z"/></g><circle class="cls-11" cx="804.69" cy="515.45" r="2.41"/><circle class="cls-11" cx="804.69" cy="534.5" r="2.41"/><g><path class="cls-17" d="M804.72,535.5c-.63,0-1.15-.52-1.15-1.15v-18.72c0-.63,.52-1.15,1.15-1.15s1.15,.52,1.15,1.15v18.72c0,.63-.52,1.15-1.15,1.15Z"/><path d="M804.72,514.98c.36,0,.65,.29,.65,.65v18.72c0,.36-.29,.65-.65,.65s-.65-.29-.65-.65v-18.72c0-.36,.29-.65,.65-.65m0-1c-.91,0-1.65,.74-1.65,1.65v18.72c0,.91,.74,1.65,1.65,1.65s1.65-.74,1.65-1.65v-18.72c0-.91-.74-1.65-1.65-1.65h0Z"/></g><circle class="cls-8" cx="867.9" cy="515.33" r="1.17"/><circle class="cls-8" cx="871.74" cy="515.33" r="1.17"/><circle class="cls-8" cx="875.59" cy="515.33" r="1.17"/></g></g><g><polyline class="cls-11" points="269.85 272.19 297.65 272.19 297.65 621.88 370.16 621.88 370.16 647.96"/><polygon points="270.87 275.68 264.82 272.19 270.87 268.7 270.87 275.68"/><polygon points="366.67 646.94 370.16 652.99 373.65 646.94 366.67 646.94"/></g><g><polyline class="cls-11" points="1172.33 429.68 1172.33 521.79 1036.17 521.79"/><polygon points="1168.84 430.7 1172.33 424.66 1175.82 430.7 1168.84 430.7"/><polygon points="1037.2 518.3 1031.15 521.79 1037.2 525.28 1037.2 518.3"/></g><g><polyline class="cls-11" points="1172.33 343.96 1172.33 260.89 1037.3 260.89"/><polygon points="1175.82 342.94 1172.33 348.99 1168.84 342.94 1175.82 342.94"/><polygon points="1038.32 257.4 1032.28 260.89 1038.32 264.38 1038.32 257.4"/></g><g><polyline class="cls-3" points="977.56 262.02 969.03 262.02 969.03 221.36 881.45 221.36"/><polygon points="976.54 258.53 982.59 262.02 976.54 265.51 976.54 258.53"/><polygon points="882.47 217.87 876.42 221.36 882.47 224.85 882.47 217.87"/></g><g><polyline class="cls-3" points="439.34 603.61 439.34 681.9 944.19 681.9 944.19 381.74 1114.22 381.74"/><polygon points="435.85 604.63 439.34 598.59 442.83 604.63 435.85 604.63"/><polygon points="1113.2 385.23 1119.24 381.74 1113.2 378.25 1113.2 385.23"/></g><g><polyline class="cls-3" points="974.17 518.4 958.87 518.4 958.87 692.33 430.3 692.33 430.3 603.61"/><polygon points="973.15 514.91 979.2 518.4 973.15 521.89 973.15 514.91"/><polygon points="433.8 604.63 430.3 598.59 426.81 604.63 433.8 604.63"/></g><g><polyline class="cls-11" points="124 380.61 247.73 380.61 247.73 474.94"/><polygon points="125.02 384.1 118.98 380.61 125.02 377.12 125.02 384.1"/><polygon points="244.24 473.92 247.73 479.96 251.22 473.92 244.24 473.92"/></g><g><polyline class="cls-3" points="395.8 75.64 579.39 75.64 579.39 85.33"/><polygon points="396.82 79.13 390.78 75.64 396.82 72.14 396.82 79.13"/><polygon points="575.9 84.31 579.39 90.35 582.88 84.31 575.9 84.31"/></g><g><polyline class="cls-11" points="814.93 75.67 666.35 75.67 666.35 81.94"/><polygon points="813.91 72.18 819.95 75.67 813.91 79.16 813.91 72.18"/><polygon points="662.86 80.92 666.35 86.96 669.84 80.92 662.86 80.92"/></g><g><rect class="cls-16" x="981.97" y="569.43" width="323.58" height="140.61"/><g><text class="cls-19" transform="translate(1072.94 604.23)"><tspan x="0" y="0">Content Routing</tspan></text><g><line class="cls-5" x1="1044.7" y1="598.02" x2="1043.7" y2="598.02"/><line class="cls-6" x1="1039.66" y1="598.02" x2="1005.31" y2="598.02"/><line class="cls-5" x1="1003.29" y1="598.02" x2="1002.29" y2="598.02"/><polygon points="1043.68 594.53 1049.73 598.02 1043.68 601.51 1043.68 594.53"/></g></g><g><text class="cls-19" transform="translate(1072.94 642.07)"><tspan x="0" y="0">Data Transfer</tspan></text><g><line class="cls-11" x1="1044.7" y1="635.86" x2="1002.29" y2="635.86"/><polygon points="1043.68 632.37 1049.73 635.86 1043.68 639.35 1043.68 632.37"/></g></g><g><text class="cls-19" transform="translate(1072.94 679.91)"><tspan x="0" y="0">DSHT Service Node</tspan></text><g><rect class="cls-17" x="1034.1" y="663.75" width="20.85" height="20.85"/><path class="cls-18" d="M1053.95,664.75v18.85h-18.85v-18.85h18.85m2-2h-22.85v22.85h22.85v-22.85h0Z"/></g><rect class="cls-8" x="1035.1" y="664.43" width="18.85" height="18.85"/></g></g></g><g id="Labels"><text class="cls-20" transform="translate(618.3 137.61)"><tspan x="0" y="0">A</tspan></text><text class="cls-20" transform="translate(811.43 229.09)"><tspan x="0" y="0">B</tspan></text><text class="cls-20" transform="translate(838.54 529.52)"><tspan x="0" y="0">C</tspan></text><text class="cls-20" transform="translate(617.69 638.07)"><tspan x="0" y="0">D</tspan></text><text class="cls-20" transform="translate(430.06 549.1)"><tspan x="0" y="0">E</tspan></text><text class="cls-20" transform="translate(369.46 388.16)"><tspan x="0" y="0">F</tspan></text><text class="cls-20" transform="translate(427.9 228.07)"><tspan x="0" y="0">G</tspan></text><text class="cls-20" transform="translate(363.27 77.12)"><tspan x="0" y="0">H</tspan></text><text class="cls-20" transform="translate(880.82 91.36)"><tspan x="0" y="0">I</tspan></text><text class="cls-20" transform="translate(998.41 266.7)"><tspan x="0" y="0">J</tspan></text><text class="cls-20" transform="translate(1168.67 386.14)"><tspan x="0" y="0">K</tspan></text><text class="cls-20" transform="translate(999.25 525.9)"><tspan x="0" y="0">L</tspan></text><text class="cls-20" transform="translate(358.49 680.33)"><tspan x="0" y="0">M</tspan></text><text class="cls-20" transform="translate(243.98 521.22)"><tspan x="0" y="0">N</tspan></text><text class="cls-20" transform="translate(69.34 387.93)"><tspan x="0" y="0">O</tspan></text><text class="cls-20" transform="translate(238.75 275.27)"><tspan x="0" y="0">P</tspan></text></g></svg>