<?xml version="1.0" encoding="UTF-8"?><svg id="Layer_1" xmlns="http://www.w3.org/2000/svg" viewBox="0 0 35 32"><defs><style>.cls-1{fill:#ff9c96;}</style></defs><path class="cls-1" d="M13.58,15.15c-.21-.77-.53-1.38-.94-1.83-.42-.45-.94-.76-1.57-.94-.63-.18-1.35-.27-2.16-.27-.53,0-1.03,.07-1.51,.21-.48,.14-.91,.33-1.3,.57-.39,.24-.73,.5-1.02,.8-.29,.29-.53,.59-.7,.89h-.13l-.45-1.85c-.04-.18-.2-.3-.38-.3H.45v1.72h1.99v11.54h2.04v-7.58c0-.7,.19-1.39,.57-1.97h0c.26-.41,.57-.76,.93-1.06,.35-.3,.74-.54,1.18-.73,.43-.19,.88-.28,1.34-.28,1.25,0,2.11,.37,2.59,1.11,.48,.74,.71,1.84,.71,3.31v7.2h2.1v-7.61c0-1.18-.11-2.16-.32-2.93Z"/><path class="cls-1" d="M34.61,8.24l-.78-.8-2.16,2.13c-.6-1.44-2.01-2.45-3.66-2.45h-5.21c-2.19,0-3.97,1.78-3.97,3.97v10.62c0,.17,.03,.33,.05,.49l-2.69,2.66,.78,.8,2.26-2.23c.64,1.33,1.99,2.26,3.56,2.26h5.21c2.19,0,3.97-1.78,3.97-3.97V11.09c0-.08-.02-.15-.02-.23l2.66-2.63Zm-13.8,2.43c0-.2,.08-.38,.22-.52l.81-.81c.14-.14,.32-.22,.52-.22h6.06c.19,0,.38,.08,.52,.22l.81,.81c.14,.14,.22,.32,.22,.52v.57l-9.16,9.04V10.67Zm9.16,11.47c0,.2-.08,.38-.22,.52l-.81,.81c-.14,.14-.33,.22-.52,.22h-6.06c-.2,0-.38-.08-.52-.22l-.81-.81c-.14-.14-.22-.32-.22-.52v-.28l9.16-9.04v9.33Z"/></svg>